<svg width="53" height="42" viewBox="0 0 53 42" fill="none" xmlns="http://www.w3.org/2000/svg">
<g clip-path="url(#clip0_298_7487)">
<rect width="52.5" height="42" transform="translate(0.140625)" fill="white"/>
<mask id="mask0_298_7487" style="mask-type:luminance" maskUnits="userSpaceOnUse" x="-20" y="0" width="90" height="127">
<path d="M69.9356 0H-19.3594V126.285H69.9356V0Z" fill="white"/>
</mask>
<g mask="url(#mask0_298_7487)">
<path d="M25.6852 20.6549H23.2402C23.4352 20.5349 23.5852 20.3699 23.6902 20.1599C23.7952 19.9649 23.8552 19.7399 23.8552 19.5149V16.9799V15.7499V14.5799C23.8552 14.3549 23.7952 14.1299 23.6902 13.9349C23.5852 13.7399 23.4352 13.5749 23.2402 13.4399H25.6852C25.4902 13.5599 25.3402 13.7249 25.2352 13.9349C25.1302 14.1449 25.0702 14.3549 25.0702 14.5799V19.5299C25.0702 19.7699 25.1302 19.9799 25.2352 20.1749C25.3552 20.3699 25.5052 20.5349 25.6852 20.6549Z" fill="#E91E25"/>
</g>
<mask id="mask1_298_7487" style="mask-type:luminance" maskUnits="userSpaceOnUse" x="-20" y="0" width="90" height="127">
<path d="M69.9356 0H-19.3594V126.285H69.9356V0Z" fill="white"/>
</mask>
<g mask="url(#mask1_298_7487)">
<path d="M22.5956 11.94C22.4756 12.06 22.4156 12.21 22.4156 12.375V15.78V17.565V18.93V20.595C22.4156 20.745 22.4606 20.895 22.5506 21.06C22.6406 21.225 22.7456 21.345 22.8656 21.42C22.7156 21.405 22.5356 21.42 22.3406 21.48C22.1756 21.525 22.0106 21.585 21.8456 21.66C21.6056 21.75 21.4256 21.795 21.3206 21.825C20.9606 21.915 20.7206 21.93 20.6006 21.87C20.7656 21.87 20.9006 21.81 21.0206 21.69C21.1406 21.57 21.1856 21.435 21.1856 21.27V20.085V18.21V17.655V15.72V13.035C21.1856 12.885 21.1406 12.72 21.0506 12.57C20.9606 12.405 20.8556 12.285 20.7356 12.195C20.8856 12.21 21.0656 12.195 21.2606 12.135C21.3956 12.105 21.5606 12.045 21.7556 11.955C21.9806 11.88 22.1456 11.82 22.2806 11.79C22.6556 11.7 22.9106 11.685 23.0156 11.745C22.8656 11.76 22.7156 11.82 22.5956 11.94Z" fill="#E91E25"/>
</g>
<mask id="mask2_298_7487" style="mask-type:luminance" maskUnits="userSpaceOnUse" x="-20" y="0" width="90" height="127">
<path d="M69.9356 0H-19.3594V126.285H69.9356V0Z" fill="white"/>
</mask>
<g mask="url(#mask2_298_7487)">
<path d="M35.1804 20.6549H32.7354C32.9304 20.5349 33.0804 20.3699 33.1854 20.1599C33.2904 19.9649 33.3504 19.7399 33.3504 19.5149V17.0699V14.5649C33.3504 14.3399 33.2904 14.1149 33.1854 13.9199C33.0804 13.7099 32.9304 13.5449 32.7354 13.4249H35.1804C34.9854 13.5449 34.8354 13.7099 34.7304 13.9199C34.6254 14.1149 34.5654 14.3399 34.5654 14.5649V19.5149C34.5654 19.7399 34.6254 19.9649 34.7304 20.1599C34.8354 20.3699 34.9854 20.5349 35.1804 20.6549Z" fill="#E91E25"/>
</g>
<mask id="mask3_298_7487" style="mask-type:luminance" maskUnits="userSpaceOnUse" x="-20" y="0" width="90" height="127">
<path d="M69.9356 0H-19.3594V126.285H69.9356V0Z" fill="white"/>
</mask>
<g mask="url(#mask3_298_7487)">
<path d="M38.8854 20.6549H36.4404C36.6354 20.5349 36.7854 20.3699 36.8904 20.1599C36.9954 19.9649 37.0554 19.7399 37.0554 19.5149V14.5649C37.0554 14.3399 36.9954 14.1149 36.8904 13.9199C36.7854 13.7249 36.6354 13.5599 36.4404 13.4249H38.8854C38.6904 13.5449 38.5404 13.7099 38.4354 13.9199C38.3304 14.1149 38.2704 14.3399 38.2704 14.5649V17.0699V19.5149C38.2704 19.7399 38.3304 19.9649 38.4354 20.1599C38.5404 20.3699 38.6904 20.5349 38.8854 20.6549Z" fill="#E91E25"/>
</g>
<mask id="mask4_298_7487" style="mask-type:luminance" maskUnits="userSpaceOnUse" x="-20" y="0" width="90" height="127">
<path d="M69.9356 0H-19.3594V126.285H69.9356V0Z" fill="white"/>
</mask>
<g mask="url(#mask4_298_7487)">
<path d="M37.0554 17.1301H34.5654V17.5351H37.0554V17.1301Z" fill="#E91E25"/>
</g>
<mask id="mask5_298_7487" style="mask-type:luminance" maskUnits="userSpaceOnUse" x="-20" y="0" width="90" height="127">
<path d="M69.9356 0H-19.3594V126.285H69.9356V0Z" fill="white"/>
</mask>
<g mask="url(#mask5_298_7487)">
<path d="M28.04 18.2251C28.055 18.2851 28.07 18.3601 28.085 18.4201C28.07 18.3601 28.055 18.3001 28.04 18.2251Z" fill="#231F20"/>
</g>
<mask id="mask6_298_7487" style="mask-type:luminance" maskUnits="userSpaceOnUse" x="-20" y="0" width="90" height="127">
<path d="M69.9356 0H-19.3594V126.285H69.9356V0Z" fill="white"/>
</mask>
<g mask="url(#mask6_298_7487)">
<path d="M26.8402 18.03C26.8402 18 26.8252 17.955 26.8252 17.91C26.8252 17.955 26.8252 18 26.8402 18.03Z" fill="#231F20"/>
</g>
<mask id="mask7_298_7487" style="mask-type:luminance" maskUnits="userSpaceOnUse" x="-20" y="0" width="90" height="127">
<path d="M69.9356 0H-19.3594V126.285H69.9356V0Z" fill="white"/>
</mask>
<g mask="url(#mask7_298_7487)">
<path d="M26.75 16.8148C26.75 16.7698 26.75 16.7248 26.765 16.6648C26.75 16.7098 26.75 16.7548 26.75 16.8148Z" fill="#231F20"/>
</g>
<mask id="mask8_298_7487" style="mask-type:luminance" maskUnits="userSpaceOnUse" x="-20" y="0" width="90" height="127">
<path d="M69.9356 0H-19.3594V126.285H69.9356V0Z" fill="white"/>
</mask>
<g mask="url(#mask8_298_7487)">
<path d="M26.9008 18.3299C26.8708 18.2399 26.8558 18.1349 26.8408 18.0449C26.8708 18.2249 26.9008 18.3299 26.9008 18.3299Z" fill="#231F20"/>
</g>
<mask id="mask9_298_7487" style="mask-type:luminance" maskUnits="userSpaceOnUse" x="-20" y="0" width="90" height="127">
<path d="M69.9356 0H-19.3594V126.285H69.9356V0Z" fill="white"/>
</mask>
<g mask="url(#mask9_298_7487)">
<path d="M27.9346 16.9949C27.9496 16.9949 27.9496 16.9949 27.9346 16.9949C27.9796 16.1399 28.1896 15.4649 28.2946 15.1799C28.2646 15.2549 28.2346 15.3299 28.2046 15.4049C28.0396 15.8849 27.9496 16.4249 27.9346 16.9949Z" fill="#231F20"/>
</g>
<mask id="mask10_298_7487" style="mask-type:luminance" maskUnits="userSpaceOnUse" x="-20" y="0" width="90" height="127">
<path d="M69.9356 0H-19.3594V126.285H69.9356V0Z" fill="white"/>
</mask>
<g mask="url(#mask10_298_7487)">
<path d="M27.155 15.2399C26.9 15.7049 26.78 16.1999 26.75 16.6649C26.765 16.4549 26.81 16.2299 26.855 16.0199C26.945 15.7499 27.035 15.4799 27.155 15.2399Z" fill="#231F20"/>
</g>
<mask id="mask11_298_7487" style="mask-type:luminance" maskUnits="userSpaceOnUse" x="-20" y="0" width="90" height="127">
<path d="M69.9356 0H-19.3594V126.285H69.9356V0Z" fill="white"/>
</mask>
<g mask="url(#mask11_298_7487)">
<path d="M28.16 18.7199C28.145 18.6149 28.115 18.5249 28.085 18.4199C28.1 18.4949 28.115 18.5699 28.13 18.6449C28.145 18.6749 28.145 18.6899 28.16 18.7199Z" fill="#231F20"/>
</g>
<mask id="mask12_298_7487" style="mask-type:luminance" maskUnits="userSpaceOnUse" x="-20" y="0" width="90" height="127">
<path d="M69.9356 0H-19.3594V126.285H69.9356V0Z" fill="white"/>
</mask>
<g mask="url(#mask12_298_7487)">
<path d="M20.3156 28.605H18.3506C18.5006 28.5 18.6356 28.365 18.7106 28.2C18.8006 28.035 18.8456 27.855 18.8456 27.675V23.67C18.8456 23.49 18.8006 23.31 18.7106 23.145C18.6206 22.98 18.5006 22.845 18.3506 22.74H20.3156C20.1656 22.845 20.0306 22.98 19.9556 23.145C19.8656 23.31 19.8206 23.475 19.8206 23.67V27.675C19.8206 27.855 19.8656 28.035 19.9556 28.2C20.0456 28.365 20.1656 28.5 20.3156 28.605Z" fill="#E91E25"/>
</g>
<mask id="mask13_298_7487" style="mask-type:luminance" maskUnits="userSpaceOnUse" x="-20" y="0" width="90" height="127">
<path d="M69.9356 0H-19.3594V126.285H69.9356V0Z" fill="white"/>
</mask>
<g mask="url(#mask13_298_7487)">
<path d="M27.3054 25.3951L27.2904 25.4251C27.2754 25.4551 27.2604 25.4851 27.2304 25.5151C27.2004 25.5451 27.1854 25.5901 27.1404 25.6351C27.1104 25.6801 27.0654 25.7251 27.0204 25.7701C26.9754 25.8151 26.9154 25.8451 26.8554 25.8901C26.7954 25.9201 26.7354 25.9501 26.6604 25.9801C26.5854 26.0101 26.5104 26.0101 26.4354 26.0101C26.3754 26.0101 26.3154 26.0101 26.2554 25.9951C26.1954 25.9801 26.1354 25.9651 26.0904 25.9651C26.0454 25.9501 25.9854 25.9351 25.9104 25.9051C25.8354 25.8751 25.7904 25.8451 25.7454 25.8301C25.7154 25.8151 25.6554 25.7851 25.5804 25.7551C25.5054 25.7101 25.4454 25.6951 25.4304 25.6801C25.4004 25.6651 25.3704 25.6501 25.3104 25.6201C25.2504 25.5901 25.2204 25.5751 25.1904 25.5601V25.0051C25.3254 25.0351 25.5204 25.1101 25.7754 25.2151C26.0304 25.3201 26.1804 25.3951 26.2554 25.4101C26.3604 25.4401 26.4504 25.4701 26.5254 25.4851C26.6004 25.5001 26.6904 25.5151 26.7804 25.5301C26.8704 25.5451 26.9604 25.5301 27.0504 25.5151C27.1404 25.4851 27.2304 25.4401 27.3054 25.3951Z" fill="#E91E25"/>
</g>
<mask id="mask14_298_7487" style="mask-type:luminance" maskUnits="userSpaceOnUse" x="-20" y="0" width="90" height="127">
<path d="M69.9356 0H-19.3594V126.285H69.9356V0Z" fill="white"/>
</mask>
<g mask="url(#mask14_298_7487)">
<path d="M26.0153 30.39C25.7453 30.6 25.4603 30.735 25.1303 30.795C24.8153 30.87 24.4853 30.855 24.1553 30.795C23.9903 30.765 23.8253 30.705 23.6603 30.615C23.5103 30.54 23.3753 30.435 23.2553 30.345C23.1353 30.24 23.0153 30.12 22.9103 29.97C22.8053 29.82 22.7003 29.685 22.6253 29.55C22.5503 29.415 22.4603 29.25 22.3853 29.085C22.3103 28.905 22.2353 28.755 22.1903 28.605C22.1303 28.47 22.0853 28.305 22.0253 28.14C22.0103 28.095 21.9653 27.945 21.8753 27.69C21.8003 27.435 21.7403 27.255 21.6953 27.165C21.6653 27.075 21.6053 26.94 21.5303 26.76C21.4553 26.58 21.3803 26.43 21.3053 26.295C21.1403 26.01 20.9303 25.77 20.7053 25.605C20.6153 25.545 20.4803 25.47 20.3303 25.38C20.3153 25.365 20.3003 25.365 20.2853 25.35C20.2703 25.335 20.2553 25.335 20.2403 25.32C20.2253 25.305 20.2103 25.305 20.1953 25.29L19.8203 25.65V25.2L21.4553 23.67C21.5453 23.58 21.6053 23.475 21.6203 23.355C21.6353 23.235 21.6203 23.115 21.5603 23.01C21.5003 22.905 21.4103 22.83 21.2903 22.77H23.2703C22.7753 22.98 22.3403 23.28 21.9503 23.64L20.4653 25.02C20.7803 24.975 21.0503 25.005 21.2753 25.095C21.5603 25.215 21.8003 25.41 21.9953 25.695C22.1153 25.875 22.2353 26.085 22.3403 26.325C22.4453 26.55 22.5353 26.79 22.6103 27.015C22.6853 27.24 22.7603 27.465 22.8353 27.69C22.9103 27.915 23.0003 28.14 23.1053 28.38C23.2103 28.62 23.3153 28.83 23.4353 29.025C23.5253 29.16 23.6153 29.295 23.7053 29.415C23.7503 29.49 23.8253 29.565 23.9303 29.67C23.9303 29.67 23.9303 29.67 23.9453 29.685C24.1403 29.895 24.3653 30.06 24.6053 30.18C24.6053 30.18 24.6203 30.18 24.6203 30.195C24.6353 30.195 24.6353 30.21 24.6353 30.21C24.8753 30.33 25.0853 30.39 25.2803 30.42C25.5053 30.45 25.7003 30.435 25.8803 30.345C25.9853 30.3 26.0303 30.27 26.0303 30.27C26.0903 30.24 26.1203 30.24 26.1353 30.255C26.1803 30.255 26.1203 30.315 26.0153 30.39Z" fill="#E91E25"/>
</g>
<mask id="mask15_298_7487" style="mask-type:luminance" maskUnits="userSpaceOnUse" x="-20" y="0" width="90" height="127">
<path d="M69.9356 0H-19.3594V126.285H69.9356V0Z" fill="white"/>
</mask>
<g mask="url(#mask15_298_7487)">
<path d="M27.6204 27.555C27.7254 27.795 27.8004 28.125 27.8004 28.605H27.2154H23.7354C23.8854 28.5 24.0204 28.365 24.1104 28.2C24.2004 28.035 24.2454 27.855 24.2454 27.675V23.685C24.2454 23.505 24.2004 23.325 24.1104 23.16C24.0204 22.995 23.9004 22.86 23.7354 22.755H27.5454H27.8454C27.8454 22.89 27.8154 23.175 27.7254 23.49C27.7254 23.505 27.7104 23.52 27.7104 23.535C27.7104 23.55 27.7104 23.55 27.6954 23.565C27.6954 23.58 27.6804 23.595 27.6804 23.61C27.6654 23.64 27.6654 23.655 27.6504 23.685C27.5904 23.82 27.5304 23.97 27.4404 24.075C27.4254 24.09 27.4104 24.12 27.3954 24.135C27.3804 24.15 27.3504 24.18 27.3354 24.195C27.2004 24.315 27.0504 24.375 26.8704 24.375C27.0204 24.315 27.1404 24.21 27.2004 24.075C27.2604 23.97 27.2904 23.835 27.2904 23.67C27.2904 23.505 27.2304 23.37 27.1254 23.25C27.0054 23.13 26.8704 23.085 26.7204 23.085H25.2054V28.275H26.7204C26.8854 28.275 27.0204 28.215 27.1404 28.11C27.2604 28.005 27.3204 27.87 27.3204 27.705C27.3204 27.54 27.2904 27.405 27.2304 27.3C27.1704 27.18 27.0504 27.075 26.9004 27.015C27.0804 27.015 27.2304 27.075 27.3654 27.195C27.4254 27.255 27.4854 27.315 27.5454 27.405C27.5604 27.435 27.5754 27.465 27.5904 27.495C27.6054 27.525 27.6204 27.54 27.6204 27.57C27.6054 27.54 27.6204 27.555 27.6204 27.555Z" fill="#E91E25"/>
</g>
<mask id="mask16_298_7487" style="mask-type:luminance" maskUnits="userSpaceOnUse" x="-20" y="0" width="90" height="127">
<path d="M69.9356 0H-19.3594V126.285H69.9356V0Z" fill="white"/>
</mask>
<g mask="url(#mask16_298_7487)">
<path d="M32.2253 17.0401V20.6551L32.1053 20.5801C31.8353 20.4301 31.5353 20.3401 31.2053 20.3401C30.8753 20.3401 30.5753 20.4001 30.2903 20.5351C30.1253 20.6101 29.9003 20.6401 29.6003 20.6401C29.1953 20.6401 28.8203 20.5501 28.4753 20.3851C28.1303 20.2051 27.8303 19.9801 27.5903 19.6801C27.3503 19.3801 27.1553 19.0351 27.0053 18.6301C26.9753 18.5251 26.9303 18.4201 26.9003 18.3151C26.8703 18.2251 26.8553 18.1201 26.8253 18.0151C26.8253 17.9851 26.8103 17.9401 26.8103 17.8951C26.8103 17.8801 26.8104 17.8651 26.7954 17.8501C26.7504 17.5801 26.7203 17.2201 26.7353 16.8001V16.7851C26.7353 16.7401 26.7353 16.6951 26.7503 16.6351C26.7653 16.4251 26.8103 16.2001 26.8553 15.9901C26.9303 15.7051 27.0353 15.4501 27.1553 15.2101C27.1703 15.1951 27.1703 15.1651 27.1853 15.1501C27.3203 14.8951 27.4853 14.6551 27.6803 14.4301C27.8753 14.2201 28.0853 14.0251 28.3103 13.8751C28.5353 13.7251 28.7903 13.6051 29.0603 13.5151C29.3303 13.4251 29.6003 13.3951 29.8853 13.3951C30.1553 13.3951 30.4103 13.4401 30.6803 13.5151C30.9803 13.6351 31.2953 13.8601 31.4603 14.3101C31.5653 14.6101 31.5803 15.0151 31.3253 15.4951C31.2053 15.6301 31.0553 15.7201 30.8603 15.7651C30.8603 15.7651 30.8604 15.7651 30.8454 15.7651C30.7854 15.7801 30.7253 15.7951 30.6503 15.7951C30.8903 15.6901 31.0403 15.5401 31.1003 15.3451C31.1003 15.3451 31.1003 15.3301 31.1153 15.3151C31.1153 15.3001 31.1153 15.2851 31.1303 15.2851C31.1903 15.0451 31.1604 14.8201 31.0704 14.5951C30.9804 14.3701 30.8304 14.1901 30.6204 14.0551C30.3804 13.9051 30.1403 13.8151 29.8853 13.8151C29.5403 13.8151 29.2103 13.9501 28.9103 14.2351C28.6703 14.4751 28.4604 14.7751 28.2954 15.1501C28.2654 15.2251 28.2353 15.3001 28.2053 15.3751C28.0253 15.8551 27.9353 16.3801 27.9353 16.9651C27.9353 16.9651 27.9353 16.9651 27.9503 16.9651C27.9353 17.3101 27.9503 17.6851 28.0253 18.0751C28.0253 18.1201 28.0403 18.1501 28.0553 18.1951C28.0703 18.2551 28.0853 18.3301 28.1003 18.3901C28.1153 18.4651 28.1304 18.5401 28.1454 18.6151C28.1604 18.6451 28.1603 18.6601 28.1603 18.6901C28.2353 18.9751 28.3403 19.2301 28.4753 19.4551C28.6103 19.6951 28.7754 19.8901 28.9704 20.0251C29.1654 20.1601 29.3903 20.2351 29.6153 20.2351C29.8403 20.2351 30.0203 20.2051 30.1853 20.1601C30.3503 20.1001 30.4853 20.0101 30.6053 19.8901C30.7253 19.7701 30.8153 19.6051 30.8903 19.3951C30.9503 19.1851 30.9954 18.9301 30.9954 18.6301C31.0104 18.3301 31.0103 17.9101 31.0103 17.4001H30.0503V17.0251H31.3553L32.2253 17.0401Z" fill="#E91E25"/>
</g>
<mask id="mask17_298_7487" style="mask-type:luminance" maskUnits="userSpaceOnUse" x="-20" y="0" width="90" height="127">
<path d="M69.9356 0H-19.3594V126.285H69.9356V0Z" fill="white"/>
</mask>
<g mask="url(#mask17_298_7487)">
<path d="M15.335 13.215C15.365 13.2 15.38 13.185 15.41 13.155C15.38 13.185 15.35 13.2 15.335 13.215Z" fill="#FFD138"/>
</g>
<mask id="mask18_298_7487" style="mask-type:luminance" maskUnits="userSpaceOnUse" x="-20" y="0" width="90" height="127">
<path d="M69.9356 0H-19.3594V126.285H69.9356V0Z" fill="white"/>
</mask>
<g mask="url(#mask18_298_7487)">
<path d="M16.2654 12.765C15.9954 12.9 15.7704 13.065 15.6054 13.275C15.3504 13.59 15.2304 13.965 15.2454 14.37C15.2454 14.73 15.3504 15.105 15.5454 15.465C15.3804 15.09 15.3054 14.715 15.3204 14.37C15.3354 13.98 15.4704 13.65 15.7254 13.365C15.9654 13.095 16.2804 12.93 16.6554 12.84H16.6704C16.8804 12.795 17.0754 12.84 17.2404 12.99C17.3154 13.05 17.3754 13.125 17.4204 13.215C17.2854 12.915 17.0004 12.585 16.2654 12.765Z" fill="#F8A01E"/>
</g>
<mask id="mask19_298_7487" style="mask-type:luminance" maskUnits="userSpaceOnUse" x="-20" y="0" width="90" height="127">
<path d="M69.9356 0H-19.3594V126.285H69.9356V0Z" fill="white"/>
</mask>
<g mask="url(#mask19_298_7487)">
<path d="M18.8002 17.5799H21.2152V17.1749H18.7852L18.8602 12.2999H18.5752C18.3952 12.2999 18.1552 12.2999 17.8402 12.3149C17.5402 12.3299 17.1952 12.3299 16.8352 12.3599C16.4602 12.3749 16.0852 12.4049 15.6952 12.4649C15.3052 12.5099 14.9452 12.5699 14.6152 12.6449C14.2702 12.7199 13.9852 12.8099 13.7302 12.9299C13.4752 13.0499 13.2952 13.1849 13.2202 13.3349C13.0852 13.5749 12.9952 13.7999 12.9652 14.0249C12.9352 14.2499 12.9502 14.4599 13.0102 14.6249C13.0702 14.8049 13.1752 14.9699 13.2952 15.1349C13.4152 15.2999 13.5652 15.4499 13.7302 15.5699C13.8952 15.6899 14.0602 15.8099 14.2402 15.8999C14.4202 16.0049 14.5852 16.0799 14.7352 16.1399C14.8852 16.1999 15.0202 16.2449 15.1552 16.2749C15.0652 16.2149 14.9752 16.1249 14.8852 16.0199C14.8102 15.8999 14.7352 15.7649 14.6902 15.6149C14.6452 15.4649 14.6002 15.2999 14.5852 15.1199C14.5702 14.9399 14.5702 14.7599 14.6002 14.5649C14.6152 14.3849 14.6752 14.1899 14.7652 14.0099C14.8552 13.8299 14.9602 13.6499 15.0802 13.4999C15.1252 13.4549 15.1702 13.3949 15.2152 13.3499C15.2302 13.3349 15.2302 13.3349 15.2452 13.3199C15.2752 13.2899 15.3052 13.2749 15.3352 13.2449C15.3652 13.2299 15.3802 13.2149 15.4102 13.1849C15.4702 13.1399 15.5302 13.1099 15.5902 13.0649C15.8002 12.9449 16.0402 12.8399 16.3102 12.7799C16.2952 12.7799 16.2952 12.7949 16.2802 12.7949C17.0152 12.5999 17.3002 12.9449 17.4202 13.2449C17.4652 13.3349 17.4952 13.4549 17.4952 13.5599L17.5102 17.1299C17.4202 17.0849 17.3302 17.0549 17.2552 17.0549C17.1952 17.0549 17.1052 17.0699 16.9702 17.1149C17.0602 17.1149 17.1502 17.1299 17.2252 17.1599C17.3002 17.1899 17.3602 17.2499 17.4052 17.3099C17.4502 17.3699 17.4802 17.4449 17.4952 17.5199C17.5102 17.5649 17.5102 17.5949 17.5102 17.6399C17.5102 18.1049 17.4802 18.5399 17.4052 18.9599C17.3752 19.0349 17.3452 19.1549 17.3152 19.3199C17.2702 19.4849 17.2402 19.6199 17.2102 19.7099C17.1202 19.9799 16.9852 20.2199 16.8502 20.4449C16.5352 20.9249 16.1602 21.2249 15.6952 21.3599C15.4102 21.4349 15.1552 21.4499 14.8852 21.4199C14.6302 21.3899 14.3752 21.2999 14.1502 21.1649C13.9102 21.0299 13.7002 20.8799 13.5202 20.6849C13.3252 20.4899 13.1602 20.2799 13.0252 20.0549C13.0102 20.0399 13.0102 20.0399 13.0102 20.0399C13.0102 20.0699 13.0252 20.1149 13.0552 20.1749C13.1602 20.3549 13.2652 20.5349 13.3852 20.6999C13.5052 20.8649 13.6552 21.0299 13.8052 21.1799C13.9702 21.3299 14.1352 21.4649 14.3002 21.5699C14.4652 21.6749 14.6602 21.7649 14.8702 21.8249C14.9452 21.8399 15.0202 21.8549 15.0952 21.8699C18.4702 22.1849 18.8002 17.6549 18.8002 17.6549C18.8002 17.6549 18.8002 17.6399 18.8002 17.6249C18.8002 17.5949 18.8002 17.5949 18.8002 17.5799Z" fill="#E91E25"/>
</g>
<mask id="mask20_298_7487" style="mask-type:luminance" maskUnits="userSpaceOnUse" x="-20" y="0" width="90" height="127">
<path d="M69.9356 0H-19.3594V126.285H69.9356V0Z" fill="white"/>
</mask>
<g mask="url(#mask20_298_7487)">
<path d="M15.0955 21.8701C15.2305 21.8851 15.3655 21.9001 15.5005 21.8851C15.9655 21.8701 16.4005 21.7651 16.8055 21.5401C17.2105 21.3151 17.5555 21.0151 17.8555 20.6251C17.6305 21.0751 17.3755 21.4351 17.0605 21.6901C16.7905 21.9151 16.4755 22.0951 16.1305 22.2001C15.7855 22.3201 15.4255 22.3651 15.0505 22.3501C14.6305 22.3351 14.2855 22.2451 14.0005 22.1101C13.7005 21.9451 13.4155 21.7201 13.1455 21.4201C12.8905 21.1351 12.6955 20.8201 12.5455 20.4751C12.3955 20.1301 12.3355 19.7701 12.3505 19.4101C12.3655 19.0051 12.4555 18.6601 12.6355 18.3601C12.8305 18.0301 13.0855 17.7901 13.4305 17.6101C13.7455 17.4301 14.1055 17.3701 14.5105 17.4001C14.9155 17.4451 15.2455 17.5951 15.5155 17.8501C15.7855 18.1051 15.9505 18.4351 16.0105 18.8401C16.0705 19.2301 16.0105 19.6051 15.8155 19.9351C16.0255 19.6051 16.1005 19.2451 16.0405 18.8401C15.9805 18.4351 15.8155 18.1051 15.5455 17.8201C15.3655 17.6401 15.1555 17.5051 14.9005 17.4151C14.6455 17.3251 14.3905 17.2951 14.1205 17.3101C13.8505 17.3251 13.6105 17.4001 13.3855 17.5201C13.0255 17.7001 12.7405 17.9551 12.5305 18.3001C12.3355 18.6151 12.2305 18.9751 12.2005 19.4101C12.1855 19.7851 12.2455 20.1751 12.3805 20.5351C12.5155 20.9101 12.7255 21.2401 12.9955 21.5551C13.2805 21.8701 13.5805 22.1251 13.8955 22.3051C14.2105 22.4701 14.5855 22.5601 15.0355 22.5901C15.4405 22.6201 15.8305 22.5751 16.2205 22.4551C16.6105 22.3351 16.9555 22.1551 17.2555 21.9001C17.8405 21.4351 18.2455 20.7751 18.5005 19.9201C18.6955 19.2751 18.8005 18.5101 18.8155 17.6251C18.8005 17.6551 18.4705 22.1701 15.0955 21.8701Z" fill="#F8A01E"/>
</g>
<mask id="mask21_298_7487" style="mask-type:luminance" maskUnits="userSpaceOnUse" x="-20" y="0" width="90" height="127">
<path d="M69.9356 0H-19.3594V126.285H69.9356V0Z" fill="white"/>
</mask>
<g mask="url(#mask21_298_7487)">
<path d="M30.0654 24.0901C30.1404 23.8051 30.4104 23.6251 30.7104 23.6551C30.9804 23.6851 31.1904 23.8801 31.2354 24.1351" stroke="black" stroke-width="0.15" stroke-miterlimit="10" stroke-linecap="round" stroke-linejoin="round"/>
</g>
<mask id="mask22_298_7487" style="mask-type:luminance" maskUnits="userSpaceOnUse" x="-20" y="0" width="90" height="127">
<path d="M69.9356 0H-19.3594V126.285H69.9356V0Z" fill="white"/>
</mask>
<g mask="url(#mask22_298_7487)">
<path d="M33.3047 23.16L33.6047 22.5" stroke="black" stroke-width="0.15" stroke-miterlimit="10" stroke-linecap="round" stroke-linejoin="round"/>
</g>
<mask id="mask23_298_7487" style="mask-type:luminance" maskUnits="userSpaceOnUse" x="-20" y="0" width="90" height="127">
<path d="M69.9356 0H-19.3594V126.285H69.9356V0Z" fill="white"/>
</mask>
<g mask="url(#mask23_298_7487)">
<path d="M33.1851 22.7699C32.2401 22.2599 31.5501 21.7049 31.6101 21.5849C31.6851 21.4499 32.6301 21.7949 33.7551 22.3499C34.4901 22.7099 35.0901 23.0849 35.4201 23.3249" stroke="black" stroke-width="0.15" stroke-miterlimit="10" stroke-linecap="round" stroke-linejoin="round"/>
</g>
<mask id="mask24_298_7487" style="mask-type:luminance" maskUnits="userSpaceOnUse" x="-20" y="0" width="90" height="127">
<path d="M69.9356 0H-19.3594V126.285H69.9356V0Z" fill="white"/>
</mask>
<g mask="url(#mask24_298_7487)">
<path d="M31.9102 21.4201C32.5702 21.3301 34.1302 21.5851 34.1302 21.5851C34.1302 21.5851 35.8402 23.2201 35.6602 23.5501L35.6302 23.5951C35.5702 23.7151 34.6252 23.4901 33.6652 23.0701" stroke="black" stroke-width="0.15" stroke-miterlimit="10" stroke-linecap="round" stroke-linejoin="round"/>
</g>
<mask id="mask25_298_7487" style="mask-type:luminance" maskUnits="userSpaceOnUse" x="-20" y="0" width="90" height="127">
<path d="M69.9356 0H-19.3594V126.285H69.9356V0Z" fill="white"/>
</mask>
<g mask="url(#mask25_298_7487)">
<path d="M34.0254 24.7051L30.8754 27.7801L28.0254 23.5201V23.4751C28.0554 23.1451 29.5404 23.0401 31.3404 23.2201C33.1404 23.4151 34.5654 23.8201 34.5204 24.1501C34.4904 24.4801 33.0054 24.5851 31.2054 24.4051C30.1554 24.3001 29.2254 24.1051 28.6404 23.8951" stroke="black" stroke-width="0.15" stroke-miterlimit="10" stroke-linecap="round" stroke-linejoin="round"/>
</g>
<mask id="mask26_298_7487" style="mask-type:luminance" maskUnits="userSpaceOnUse" x="-20" y="0" width="90" height="127">
<path d="M69.9356 0H-19.3594V126.285H69.9356V0Z" fill="white"/>
</mask>
<g mask="url(#mask26_298_7487)">
<path d="M34.0254 24.7051L30.8754 27.7801L28.0254 23.5201V23.4751C28.0554 23.1451 29.5404 23.0401 31.3404 23.2201C33.1404 23.4151 34.5654 23.8201 34.5204 24.1501C34.4904 24.4801 33.0054 24.5851 31.2054 24.4051C30.1554 24.3001 29.2254 24.1051 28.6404 23.8951" stroke="black" stroke-width="0.15" stroke-miterlimit="10" stroke-linecap="round" stroke-linejoin="round"/>
</g>
<mask id="mask27_298_7487" style="mask-type:luminance" maskUnits="userSpaceOnUse" x="-20" y="0" width="90" height="127">
<path d="M69.9356 0H-19.3594V126.285H69.9356V0Z" fill="white"/>
</mask>
<g mask="url(#mask27_298_7487)">
<path d="M31.2957 26.8652L32.3157 25.8602C31.8807 25.8152 31.4607 25.7102 31.1007 25.6052C30.6057 25.4552 30.0507 25.1402 29.5107 25.0952L30.9357 27.2252" stroke="black" stroke-width="0.15" stroke-miterlimit="10" stroke-linecap="round" stroke-linejoin="round"/>
</g>
<mask id="mask28_298_7487" style="mask-type:luminance" maskUnits="userSpaceOnUse" x="-20" y="0" width="90" height="127">
<path d="M69.9356 0H-19.3594V126.285H69.9356V0Z" fill="white"/>
</mask>
<g mask="url(#mask28_298_7487)">
<path d="M32.8545 24.18L33.0195 23.865" stroke="black" stroke-width="0.15" stroke-miterlimit="10" stroke-linecap="round" stroke-linejoin="round"/>
</g>
<mask id="mask29_298_7487" style="mask-type:luminance" maskUnits="userSpaceOnUse" x="-20" y="0" width="90" height="127">
<path d="M69.9356 0H-19.3594V126.285H69.9356V0Z" fill="white"/>
</mask>
<g mask="url(#mask29_298_7487)">
<path d="M32.2109 25.605L32.3609 25.29" stroke="black" stroke-width="0.15" stroke-miterlimit="10" stroke-linecap="round" stroke-linejoin="round"/>
</g>
<mask id="mask30_298_7487" style="mask-type:luminance" maskUnits="userSpaceOnUse" x="-20" y="0" width="90" height="127">
<path d="M69.9356 0H-19.3594V126.285H69.9356V0Z" fill="white"/>
</mask>
<g mask="url(#mask30_298_7487)">
<path d="M30.6659 29.7749L30.5909 29.7599C30.5609 29.7599 30.5459 29.7299 30.5459 29.6999L30.7559 28.0949C30.7559 28.0649 30.7859 28.0499 30.8159 28.0499L30.8909 28.0649C30.9209 28.0649 30.9359 28.0949 30.9359 28.1249L30.7259 29.7299C30.7259 29.7599 30.6959 29.7899 30.6659 29.7749Z" fill="#231F20"/>
</g>
<mask id="mask31_298_7487" style="mask-type:luminance" maskUnits="userSpaceOnUse" x="-20" y="0" width="90" height="127">
<path d="M69.9356 0H-19.3594V126.285H69.9356V0Z" fill="white"/>
</mask>
<g mask="url(#mask31_298_7487)">
<path d="M32.1201 30.18C32.1201 30.18 31.0101 30.06 30.6351 29.58C30.6351 29.58 29.7801 30.12 28.9551 30.18H32.1201Z" fill="#231F20"/>
</g>
<mask id="mask32_298_7487" style="mask-type:luminance" maskUnits="userSpaceOnUse" x="-20" y="0" width="90" height="127">
<path d="M69.9356 0H-19.3594V126.285H69.9356V0Z" fill="white"/>
</mask>
<g mask="url(#mask32_298_7487)">
<path d="M14.375 28.2899C15.065 29.3549 15.965 30.2249 17.015 30.8849" stroke="black" stroke-width="0.15" stroke-miterlimit="10" stroke-linecap="round" stroke-linejoin="round"/>
</g>
<mask id="mask33_298_7487" style="mask-type:luminance" maskUnits="userSpaceOnUse" x="-20" y="0" width="90" height="127">
<path d="M69.9356 0H-19.3594V126.285H69.9356V0Z" fill="white"/>
</mask>
<g mask="url(#mask33_298_7487)">
<path d="M36.9955 28.245C36.3055 29.31 35.4055 30.18 34.3555 30.84" stroke="black" stroke-width="0.15" stroke-miterlimit="10" stroke-linecap="round" stroke-linejoin="round"/>
</g>
<mask id="mask34_298_7487" style="mask-type:luminance" maskUnits="userSpaceOnUse" x="-20" y="0" width="90" height="127">
<path d="M69.9356 0H-19.3594V126.285H69.9356V0Z" fill="white"/>
</mask>
<g mask="url(#mask34_298_7487)">
<path d="M14.375 29.595C14.96 30.51 15.725 31.29 16.595 31.905" stroke="black" stroke-width="0.15" stroke-miterlimit="10" stroke-linecap="round" stroke-linejoin="round"/>
</g>
<mask id="mask35_298_7487" style="mask-type:luminance" maskUnits="userSpaceOnUse" x="-20" y="0" width="90" height="127">
<path d="M69.9356 0H-19.3594V126.285H69.9356V0Z" fill="white"/>
</mask>
<g mask="url(#mask35_298_7487)">
<path d="M36.9956 29.5649C36.4556 30.3899 35.7956 31.1099 35.0156 31.6949" stroke="black" stroke-width="0.15" stroke-miterlimit="10" stroke-linecap="round" stroke-linejoin="round"/>
</g>
<mask id="mask36_298_7487" style="mask-type:luminance" maskUnits="userSpaceOnUse" x="-20" y="0" width="90" height="127">
<path d="M69.9356 0H-19.3594V126.285H69.9356V0Z" fill="white"/>
</mask>
<g mask="url(#mask36_298_7487)">
<path d="M37.4454 27.5848C37.3254 27.5848 37.2354 27.4948 37.2354 27.3748C37.2354 27.2548 37.3254 27.1648 37.4454 27.1648C37.5654 27.1648 37.6554 27.2548 37.6554 27.3748C37.6404 27.4948 37.5504 27.5848 37.4454 27.5848Z" fill="#231F20"/>
</g>
<mask id="mask37_298_7487" style="mask-type:luminance" maskUnits="userSpaceOnUse" x="-20" y="0" width="90" height="127">
<path d="M69.9356 0H-19.3594V126.285H69.9356V0Z" fill="white"/>
</mask>
<g mask="url(#mask37_298_7487)">
<path d="M13.9707 27.78C13.8507 27.78 13.7607 27.69 13.7607 27.57C13.7607 27.45 13.8507 27.36 13.9707 27.36C14.0907 27.36 14.1807 27.45 14.1807 27.57C14.1807 27.69 14.0907 27.78 13.9707 27.78Z" fill="#231F20"/>
</g>
<mask id="mask38_298_7487" style="mask-type:luminance" maskUnits="userSpaceOnUse" x="-20" y="0" width="90" height="127">
<path d="M69.9356 0H-19.3594V126.285H69.9356V0Z" fill="white"/>
</mask>
<g mask="url(#mask38_298_7487)">
<path d="M17.6602 32.4601L17.2852 32.2051L18.5902 30.2551L19.0552 30.5701C19.2052 30.6751 19.3102 30.7501 19.3702 30.8101C19.4302 30.8701 19.4902 30.9301 19.5202 30.9901C19.5952 31.1101 19.6252 31.2451 19.6252 31.3801C19.6252 31.5151 19.5802 31.6351 19.4902 31.7701C19.3852 31.9201 19.2652 32.0251 19.1152 32.0701C18.9652 32.1151 18.8002 32.1151 18.6502 32.0401L18.6352 33.1201L18.1852 32.8201L18.2902 31.5751L17.6602 32.4601ZM18.3202 31.4701L18.4102 31.5301C18.5602 31.6351 18.6952 31.6801 18.8152 31.6801C18.9352 31.6801 19.0252 31.6201 19.1002 31.5151C19.1752 31.4101 19.1902 31.3201 19.1602 31.2151C19.1302 31.1251 19.0402 31.0201 18.8902 30.9301L18.7552 30.8401L18.3202 31.4701Z" fill="#010101"/>
</g>
<mask id="mask39_298_7487" style="mask-type:luminance" maskUnits="userSpaceOnUse" x="-20" y="0" width="90" height="127">
<path d="M69.9356 0H-19.3594V126.285H69.9356V0Z" fill="white"/>
</mask>
<g mask="url(#mask39_298_7487)">
<path d="M20.4955 34.0201L19.3555 33.4951L20.3155 31.3651L21.4705 31.8901L21.2905 32.2651L20.5555 31.9201L20.3455 32.4151L21.0805 32.7451L20.9155 33.1201L20.1655 32.7751L19.9255 33.3151L20.6755 33.6451L20.4955 34.0201Z" fill="#010101"/>
</g>
<mask id="mask40_298_7487" style="mask-type:luminance" maskUnits="userSpaceOnUse" x="-20" y="0" width="90" height="127">
<path d="M69.9356 0H-19.3594V126.285H69.9356V0Z" fill="white"/>
</mask>
<g mask="url(#mask40_298_7487)">
<path d="M21.4403 33.6L21.8453 33.705L21.8303 33.735C21.8003 33.825 21.8003 33.915 21.8453 33.99C21.8753 34.065 21.9353 34.11 22.0253 34.125C22.1153 34.155 22.1903 34.14 22.2653 34.11C22.3253 34.065 22.3853 34.005 22.4003 33.915C22.4453 33.765 22.3703 33.63 22.1753 33.51C22.1453 33.495 22.1303 33.48 22.1153 33.465C21.9503 33.36 21.8453 33.24 21.7853 33.12C21.7253 33 21.7253 32.85 21.7703 32.7C21.8303 32.49 21.9353 32.34 22.0853 32.235C22.2353 32.145 22.4153 32.115 22.6103 32.175C22.7903 32.22 22.9253 32.325 23.0003 32.475C23.0753 32.625 23.0903 32.79 23.0453 33L22.6403 32.895V32.88C22.6553 32.805 22.6553 32.745 22.6253 32.685C22.5953 32.625 22.5503 32.595 22.4753 32.565C22.4003 32.55 22.3403 32.55 22.2803 32.58C22.2203 32.61 22.1903 32.67 22.1603 32.745C22.1453 32.775 22.1453 32.805 22.1453 32.835C22.1453 32.865 22.1603 32.895 22.1603 32.91C22.1903 32.97 22.2653 33.03 22.4003 33.12C22.4603 33.15 22.5053 33.18 22.5353 33.195C22.6703 33.285 22.7753 33.405 22.8203 33.51C22.8653 33.63 22.8653 33.765 22.8203 33.915C22.7603 34.14 22.6403 34.32 22.4753 34.425C22.3103 34.53 22.1153 34.545 21.9053 34.5C21.7103 34.44 21.5603 34.335 21.4703 34.155C21.3953 34.02 21.3803 33.825 21.4403 33.6Z" fill="#010101"/>
</g>
<mask id="mask41_298_7487" style="mask-type:luminance" maskUnits="userSpaceOnUse" x="-20" y="0" width="90" height="127">
<path d="M69.9356 0H-19.3594V126.285H69.9356V0Z" fill="white"/>
</mask>
<g mask="url(#mask41_298_7487)">
<path d="M24.8898 32.6699L24.8298 33.0749L24.3948 33.0149L24.1398 34.9349L23.6898 34.8749L23.9448 32.9549L23.5098 32.8949L23.5548 32.4899L24.8898 32.6699Z" fill="#010101"/>
</g>
<mask id="mask42_298_7487" style="mask-type:luminance" maskUnits="userSpaceOnUse" x="-20" y="0" width="90" height="127">
<path d="M69.9356 0H-19.3594V126.285H69.9356V0Z" fill="white"/>
</mask>
<g mask="url(#mask42_298_7487)">
<path d="M25.2354 33.885C25.2354 33.75 25.2354 33.63 25.2654 33.525C25.2954 33.405 25.3404 33.3 25.4004 33.195C25.5054 33.015 25.6404 32.88 25.8204 32.79C25.9854 32.685 26.1804 32.64 26.3904 32.625C26.5404 32.61 26.6904 32.64 26.8404 32.7C26.9904 32.76 27.1254 32.835 27.2454 32.94C27.3654 33.045 27.4704 33.18 27.5304 33.315C27.6054 33.465 27.6354 33.615 27.6504 33.765C27.6654 33.93 27.6354 34.095 27.5904 34.245C27.5454 34.395 27.4554 34.53 27.3504 34.65C27.2454 34.77 27.1104 34.875 26.9754 34.95C26.8254 35.025 26.6754 35.055 26.5104 35.07C26.3304 35.085 26.1804 35.055 26.0304 34.995C25.8804 34.935 25.7454 34.86 25.6254 34.74C25.5054 34.635 25.4154 34.5 25.3554 34.365C25.2804 34.2 25.2354 34.05 25.2354 33.885ZM25.7154 33.855C25.7154 33.96 25.7454 34.05 25.7754 34.14C25.8054 34.23 25.8654 34.305 25.9404 34.365C26.0154 34.44 26.1054 34.5 26.1954 34.53C26.2854 34.575 26.3904 34.59 26.4804 34.575C26.6904 34.56 26.8554 34.485 26.9904 34.335C27.1254 34.185 27.1854 34.005 27.1704 33.78C27.1554 33.585 27.0804 33.42 26.9304 33.285C26.7804 33.15 26.6154 33.09 26.4204 33.105C26.2104 33.12 26.0454 33.195 25.9104 33.345C25.7604 33.48 25.7004 33.645 25.7154 33.855Z" fill="#010101"/>
</g>
<mask id="mask43_298_7487" style="mask-type:luminance" maskUnits="userSpaceOnUse" x="-20" y="0" width="90" height="127">
<path d="M69.9356 0H-19.3594V126.285H69.9356V0Z" fill="white"/>
</mask>
<g mask="url(#mask43_298_7487)">
<path d="M28.5954 34.7551L28.0254 32.4901L28.5204 32.3701C28.6254 32.3401 28.7004 32.3251 28.7604 32.3251C28.8204 32.3251 28.8804 32.3251 28.9254 32.3251C29.0604 32.3401 29.1804 32.4001 29.2704 32.4751C29.3604 32.5501 29.4204 32.6551 29.4504 32.7901C29.4804 32.8951 29.4804 32.9851 29.4654 33.0751C29.4504 33.1651 29.4054 33.2251 29.3304 33.2851C29.4504 33.2851 29.5554 33.3301 29.6454 33.4051C29.7354 33.4801 29.7954 33.5851 29.8254 33.7201C29.8554 33.8251 29.8554 33.9301 29.8404 34.0351C29.8254 34.1401 29.7954 34.2301 29.7354 34.3051C29.6754 34.3801 29.6154 34.4401 29.5254 34.4851C29.4504 34.5301 29.3304 34.5751 29.1654 34.6201L28.5954 34.7551ZM28.6854 33.3001L28.7304 33.2851C28.8504 33.2551 28.9404 33.2101 28.9854 33.1501C29.0304 33.0901 29.0454 33.0151 29.0304 32.9251C29.0154 32.8351 28.9704 32.7901 28.8954 32.7601C28.8354 32.7301 28.7304 32.7301 28.6104 32.7601L28.5504 32.7751L28.6854 33.3001ZM28.9104 34.2451L29.0454 34.2151C29.1804 34.1851 29.2704 34.1401 29.3304 34.0801C29.3754 34.0201 29.3904 33.9451 29.3754 33.8401C29.3454 33.7351 29.3004 33.6601 29.2104 33.6301C29.1354 33.6001 29.0304 33.5851 28.8954 33.6301L28.7604 33.6601L28.9104 34.2451Z" fill="#010101"/>
</g>
<mask id="mask44_298_7487" style="mask-type:luminance" maskUnits="userSpaceOnUse" x="-20" y="0" width="90" height="127">
<path d="M69.9356 0H-19.3594V126.285H69.9356V0Z" fill="white"/>
</mask>
<g mask="url(#mask44_298_7487)">
<path d="M30.8752 33.555L30.9052 34.08L30.4702 34.275L30.3652 31.77L30.7252 31.605L32.4802 33.39L32.0302 33.585L31.6702 33.21L30.8752 33.555ZM31.3552 32.88L30.8002 32.295L30.8452 33.105L31.3552 32.88Z" fill="#010101"/>
</g>
<mask id="mask45_298_7487" style="mask-type:luminance" maskUnits="userSpaceOnUse" x="-20" y="0" width="90" height="127">
<path d="M69.9356 0H-19.3594V126.285H69.9356V0Z" fill="white"/>
</mask>
<g mask="url(#mask45_298_7487)">
<path d="M33.4554 32.775L33.0804 33.03L31.7754 31.08L32.2404 30.765C32.3904 30.66 32.4954 30.6 32.5854 30.555C32.6604 30.51 32.7354 30.495 32.7954 30.48C32.9454 30.45 33.0654 30.48 33.1854 30.525C33.3054 30.585 33.4104 30.675 33.4854 30.795C33.5904 30.945 33.6354 31.095 33.6204 31.26C33.6054 31.425 33.5454 31.56 33.4104 31.68L34.4004 32.115L33.9504 32.415L32.8404 31.845L33.4554 32.775ZM32.7954 31.77L32.8854 31.71C33.0354 31.605 33.1404 31.5 33.1854 31.395C33.2304 31.29 33.2154 31.185 33.1404 31.065C33.0654 30.96 32.9904 30.915 32.8854 30.9C32.7804 30.9 32.6604 30.945 32.5254 31.035L32.3904 31.125L32.7954 31.77Z" fill="#010101"/>
</g>
<mask id="mask46_298_7487" style="mask-type:luminance" maskUnits="userSpaceOnUse" x="-20" y="0" width="90" height="127">
<path d="M69.9356 0H-19.3594V126.285H69.9356V0Z" fill="white"/>
</mask>
<g mask="url(#mask46_298_7487)">
<path d="M35.5249 33.1201C32.8699 35.2651 29.5249 36.5401 25.8949 36.5401C22.2799 36.5401 18.9349 35.2801 16.2949 33.1501" stroke="#231F20" stroke-width="0.15" stroke-miterlimit="10"/>
</g>
<mask id="mask47_298_7487" style="mask-type:luminance" maskUnits="userSpaceOnUse" x="-20" y="0" width="90" height="127">
<path d="M69.9356 0H-19.3594V126.285H69.9356V0Z" fill="white"/>
</mask>
<g mask="url(#mask47_298_7487)">
<path d="M32.1201 30.18C32.1201 30.18 31.2351 30.075 30.6351 29.58C30.6351 29.58 29.4051 30.18 28.9551 30.18H32.1201Z" fill="#231F20"/>
</g>
<mask id="mask48_298_7487" style="mask-type:luminance" maskUnits="userSpaceOnUse" x="-20" y="0" width="90" height="127">
<path d="M69.9356 0H-19.3594V126.285H69.9356V0Z" fill="white"/>
</mask>
<g mask="url(#mask48_298_7487)">
<path d="M30.9202 29.8199L30.8602 28.0649L30.3652 29.8199" fill="#231F20"/>
</g>
<mask id="mask49_298_7487" style="mask-type:luminance" maskUnits="userSpaceOnUse" x="-20" y="0" width="90" height="127">
<path d="M69.9356 0H-19.3594V126.285H69.9356V0Z" fill="white"/>
</mask>
<g mask="url(#mask49_298_7487)">
<path d="M28.04 23.4601C28.04 23.4601 28.745 22.0201 29.51 22.7551C30.275 23.5051 30.8 22.8151 30.8 22.8151C30.8 22.8151 31.415 22.7551 31.49 22.8151C31.565 22.8751 31.895 23.4901 31.91 23.6401C31.925 23.7901 31.955 22.7101 32.75 23.1601C33.53 23.5951 33.8 23.4451 33.8 23.7751C33.8 24.1051 34.31 24.0001 34.28 24.1801C34.25 24.3601 34.355 24.3151 34.355 24.3151C34.355 24.3151 29.975 24.2701 29.495 24.1351C29 24.0001 28.04 23.4601 28.04 23.4601Z" fill="black"/>
</g>
<mask id="mask50_298_7487" style="mask-type:luminance" maskUnits="userSpaceOnUse" x="-20" y="0" width="90" height="127">
<path d="M69.9356 0H-19.3594V126.285H69.9356V0Z" fill="white"/>
</mask>
<g mask="url(#mask50_298_7487)">
<path d="M34.2655 24.18C34.2655 24.18 34.1605 24.405 33.7855 24.435C33.4255 24.465 30.5455 24.405 30.2605 24.3C29.9755 24.21 30.2605 23.88 30.2605 23.88L32.0005 23.85" fill="black"/>
</g>
<mask id="mask51_298_7487" style="mask-type:luminance" maskUnits="userSpaceOnUse" x="-20" y="0" width="90" height="127">
<path d="M69.9356 0H-19.3594V126.285H69.9356V0Z" fill="white"/>
</mask>
<g mask="url(#mask51_298_7487)">
<path d="M18.8452 10.905C18.8002 10.905 18.7402 10.905 18.6952 10.92C18.6052 10.635 18.3352 10.425 18.0352 10.425C17.7202 10.425 17.4502 10.635 17.3752 10.92C17.3302 10.905 17.2702 10.905 17.2252 10.905C16.8352 10.905 16.5352 11.22 16.5352 11.61C16.5352 11.97 16.8052 12.27 17.1802 12.3V12.765C17.1802 12.915 17.3152 13.005 17.4652 13.005H18.6052C18.7552 13.005 18.8602 12.9 18.8602 12.765V12.3C19.2502 12.3 19.5502 11.985 19.5502 11.595C19.5502 11.22 19.2352 10.905 18.8452 10.905Z" fill="#E91E25"/>
</g>
</g>
<defs>
<clipPath id="clip0_298_7487">
<rect width="52.5" height="42" fill="white" transform="translate(0.140625)"/>
</clipPath>
</defs>
</svg>
