<svg width="53" height="42" viewBox="0 0 53 42" fill="none" xmlns="http://www.w3.org/2000/svg">
<rect width="52.5" height="42" fill="white"/>
<path d="M30.4552 15.4898C30.988 16.4279 31.4981 17.3296 32.0491 18.2996C30.6829 18.2996 29.4033 18.2996 28.0644 18.2996C27.7411 17.7121 27.395 17.0928 27.0535 16.4689C26.9305 16.2458 26.844 15.9953 26.6892 15.7949C26.3977 15.4124 26.507 15.1073 26.7985 14.7976C27.3768 14.192 28.1145 13.9916 28.9115 13.9506C29.5126 13.9187 30.1182 13.8823 30.7239 13.9096C31.6301 13.9461 31.8897 13.2584 32.3269 12.5753C32.081 12.5253 31.9125 12.4569 31.744 12.4569C30.7239 12.4433 29.7038 12.4524 28.6792 12.4433C24.9314 12.416 21.1835 12.3841 17.4357 12.3477C17.0623 12.3431 16.6934 12.2976 16.3154 12.1928C16.9712 12.0881 17.6269 11.9742 18.2827 11.874C20.6872 11.5097 23.0871 11.1454 25.4915 10.7857C25.7693 10.7447 26.0516 10.7219 26.334 10.7219C29.0344 10.7219 31.7349 10.7128 34.4353 10.7401C34.8771 10.7447 35.337 10.8722 35.756 11.027C36.1704 11.1819 36.307 11.619 36.0702 12.0016C35.6284 12.7211 35.1958 13.4588 34.6585 14.1055C34.1166 14.7567 33.2969 14.998 32.4908 15.1756C31.9307 15.2986 31.3478 15.3396 30.7786 15.4215C30.6875 15.4352 30.601 15.458 30.4552 15.4898Z" fill="#FF0000"/>
<path d="M20.0537 18.2768C20.377 17.7986 20.6685 17.3569 20.969 16.9152C21.2787 16.4598 21.5747 15.9953 21.9117 15.5627C22.0255 15.4169 22.2578 15.2758 22.4354 15.2758C23.2915 15.2712 24.1522 15.3077 25.0083 15.335C25.0721 15.335 25.1358 15.3669 25.2406 15.3942C25.195 15.508 25.1723 15.6082 25.1176 15.6902C24.5894 16.4826 24.0611 17.2749 23.5101 18.0536C23.4145 18.1857 23.2141 18.3087 23.0547 18.3132C22.1439 18.3405 21.2286 18.3314 20.3178 18.336C20.2541 18.336 20.1949 18.3087 20.0537 18.2768Z" fill="#2200FF"/>
<path d="M8.20462 26.947V21.4692H10.3658C10.7795 21.4692 11.1325 21.5432 11.425 21.6912C11.7192 21.8374 11.943 22.0451 12.0963 22.3144C12.2515 22.5819 12.329 22.8966 12.329 23.2586C12.329 23.6223 12.2506 23.9353 12.0937 24.1974C11.9367 24.4577 11.7094 24.6575 11.4116 24.7965C11.1156 24.9356 10.7572 25.0052 10.3364 25.0052H8.88935V24.0744H10.1491C10.3703 24.0744 10.5539 24.0441 10.7001 23.9834C10.8464 23.9228 10.9551 23.8319 11.0265 23.7106C11.0996 23.5894 11.1361 23.4387 11.1361 23.2586C11.1361 23.0767 11.0996 22.9233 11.0265 22.7985C10.9551 22.6737 10.8455 22.5792 10.6975 22.515C10.5512 22.449 10.3667 22.416 10.1438 22.416H9.36277V26.947H8.20462ZM11.1629 24.4542L12.5243 26.947H11.2458L9.91377 24.4542H11.1629ZM14.9322 27.0273C14.5096 27.0273 14.1458 26.9417 13.8409 26.7705C13.5378 26.5975 13.3042 26.3532 13.1402 26.0376C12.9761 25.7202 12.8941 25.3449 12.8941 24.9116C12.8941 24.4889 12.9761 24.1181 13.1402 23.7989C13.3042 23.4797 13.5351 23.2309 13.8329 23.0526C14.1325 22.8743 14.4838 22.7852 14.8867 22.7852C15.1578 22.7852 15.4101 22.8288 15.6437 22.9162C15.8791 23.0018 16.0841 23.1311 16.2589 23.304C16.4354 23.477 16.5727 23.6946 16.6708 23.9567C16.7689 24.217 16.8179 24.5219 16.8179 24.8714V25.1844H13.3488V24.4783H15.7453C15.7453 24.3142 15.7097 24.1689 15.6383 24.0423C15.567 23.9157 15.4681 23.8167 15.3414 23.7454C15.2166 23.6723 15.0713 23.6357 14.9055 23.6357C14.7325 23.6357 14.5792 23.6758 14.4454 23.7561C14.3135 23.8345 14.21 23.9406 14.1351 24.0744C14.0603 24.2063 14.0219 24.3534 14.0201 24.5157V25.1871C14.0201 25.3903 14.0576 25.566 14.1325 25.714C14.2091 25.862 14.317 25.9761 14.4561 26.0563C14.5952 26.1366 14.7601 26.1767 14.9509 26.1767C15.0775 26.1767 15.1934 26.1589 15.2987 26.1232C15.4039 26.0875 15.4939 26.034 15.5688 25.9627C15.6437 25.8914 15.7008 25.804 15.74 25.7006L16.7938 25.7701C16.7403 26.0234 16.6307 26.2445 16.4648 26.4335C16.3008 26.6207 16.0886 26.7669 15.8282 26.8721C15.5697 26.9756 15.271 27.0273 14.9322 27.0273ZM21.2813 22.8386L19.845 26.947H18.5611L17.1248 22.8386H18.3284L19.1817 25.7782H19.2245L20.075 22.8386H21.2813ZM26.4676 21.4692V26.947H25.4673L23.0841 23.4993H23.044V26.947H21.8858V21.4692H22.9022L25.2667 24.9142H25.3148V21.4692H26.4676ZM27.4031 26.947V22.8386H28.5426V26.947H27.4031ZM27.9755 22.309C27.8061 22.309 27.6608 22.2529 27.5395 22.1405C27.4201 22.0264 27.3603 21.89 27.3603 21.7313C27.3603 21.5744 27.4201 21.4398 27.5395 21.3274C27.6608 21.2133 27.8061 21.1562 27.9755 21.1562C28.1449 21.1562 28.2893 21.2133 28.4088 21.3274C28.5301 21.4398 28.5907 21.5744 28.5907 21.7313C28.5907 21.89 28.5301 22.0264 28.4088 22.1405C28.2893 22.2529 28.1449 22.309 27.9755 22.309ZM31.6405 22.8386V23.6946H29.1664V22.8386H31.6405ZM29.7281 21.8543H30.8676V25.6846C30.8676 25.7898 30.8836 25.8718 30.9157 25.9306C30.9478 25.9877 30.9924 26.0278 31.0494 26.051C31.1083 26.0742 31.176 26.0858 31.2527 26.0858C31.3062 26.0858 31.3597 26.0813 31.4132 26.0724C31.4667 26.0617 31.5077 26.0537 31.5362 26.0483L31.7154 26.8962C31.6584 26.914 31.5781 26.9345 31.4747 26.9577C31.3713 26.9827 31.2456 26.9978 31.0976 27.0032C30.823 27.0139 30.5823 26.9773 30.3754 26.8935C30.1703 26.8097 30.0108 26.6795 29.8966 26.503C29.7825 26.3265 29.7263 26.1036 29.7281 25.8343V21.8543ZM32.3828 26.947V22.8386H33.4874V23.5555H33.5302C33.6051 23.3005 33.7308 23.1079 33.9074 22.9777C34.0839 22.8458 34.2872 22.7798 34.5172 22.7798C34.5743 22.7798 34.6358 22.7834 34.7018 22.7905C34.7677 22.7976 34.8257 22.8074 34.8756 22.8199V23.831C34.8221 23.8149 34.7481 23.8007 34.6536 23.7882C34.5591 23.7757 34.4726 23.7694 34.3942 23.7694C34.2266 23.7694 34.0768 23.806 33.9448 23.8791C33.8147 23.9504 33.7112 24.0503 33.6346 24.1787C33.5597 24.3071 33.5222 24.4551 33.5222 24.6227V26.947H32.3828ZM37.1298 27.0273C36.7143 27.0273 36.355 26.939 36.0518 26.7625C35.7505 26.5842 35.5178 26.3363 35.3537 26.0189C35.1897 25.6997 35.1077 25.3297 35.1077 24.9089C35.1077 24.4845 35.1897 24.1136 35.3537 23.7962C35.5178 23.477 35.7505 23.2292 36.0518 23.0526C36.355 22.8743 36.7143 22.7852 37.1298 22.7852C37.5452 22.7852 37.9036 22.8743 38.205 23.0526C38.5081 23.2292 38.7417 23.477 38.9058 23.7962C39.0698 24.1136 39.1518 24.4845 39.1518 24.9089C39.1518 25.3297 39.0698 25.6997 38.9058 26.0189C38.7417 26.3363 38.5081 26.5842 38.205 26.7625C37.9036 26.939 37.5452 27.0273 37.1298 27.0273ZM37.1351 26.1446C37.3241 26.1446 37.4819 26.0911 37.6085 25.9841C37.7351 25.8753 37.8305 25.7273 37.8947 25.5401C37.9607 25.3529 37.9937 25.1398 37.9937 24.9009C37.9937 24.6619 37.9607 24.4488 37.8947 24.2616C37.8305 24.0744 37.7351 23.9264 37.6085 23.8176C37.4819 23.7088 37.3241 23.6544 37.1351 23.6544C36.9443 23.6544 36.7838 23.7088 36.6537 23.8176C36.5253 23.9264 36.4281 24.0744 36.3621 24.2616C36.2979 24.4488 36.2658 24.6619 36.2658 24.9009C36.2658 25.1398 36.2979 25.3529 36.3621 25.5401C36.4281 25.7273 36.5253 25.8753 36.6537 25.9841C36.7838 26.0911 36.9443 26.1446 37.1351 26.1446Z" fill="black"/>
<path d="M20.8968 30.2793L21.2315 28.6057H21.8866C22.0556 28.6057 22.1998 28.6344 22.3194 28.6917C22.4389 28.7475 22.5298 28.8264 22.5919 28.9284C22.6557 29.0305 22.6876 29.1516 22.6876 29.2919C22.6876 29.4385 22.6629 29.5732 22.6135 29.6959C22.564 29.8171 22.4931 29.9215 22.4007 30.0091C22.3098 30.0952 22.2006 30.1621 22.0731 30.21C21.9456 30.2562 21.8029 30.2793 21.6451 30.2793H20.8968ZM21.1765 30.0713H21.6523C21.8181 30.0713 21.9599 30.0386 22.0779 29.9733C22.1958 29.9063 22.2867 29.8155 22.3505 29.7007C22.4142 29.5843 22.4461 29.4528 22.4461 29.3062C22.4461 29.2058 22.4246 29.1189 22.3815 29.0456C22.3385 28.9707 22.2731 28.9133 22.1855 28.8734C22.0994 28.8336 21.9918 28.8137 21.8627 28.8137H21.4276L21.1765 30.0713ZM22.841 30.2793L23.092 29.0121H23.312L23.2403 29.3803L23.2164 29.2895C23.2753 29.1827 23.3503 29.1078 23.4411 29.0647C23.532 29.0217 23.6443 29.0002 23.7782 29.0002L23.7352 29.2225C23.7256 29.2209 23.7161 29.2201 23.7065 29.2201C23.6969 29.2201 23.6866 29.2201 23.6754 29.2201C23.5495 29.2201 23.4451 29.2544 23.3622 29.3229C23.2809 29.3915 23.2259 29.4991 23.1972 29.6457L23.0705 30.2793H22.841ZM23.8053 30.2793L24.0563 29.0121H24.2859L24.0348 30.2793H23.8053ZM24.238 28.7682C24.195 28.7682 24.1599 28.7547 24.1328 28.7276C24.1073 28.7005 24.0946 28.6678 24.0946 28.6296C24.0946 28.5849 24.1097 28.5475 24.14 28.5172C24.1703 28.4853 24.2102 28.4694 24.2596 28.4694C24.301 28.4694 24.3353 28.4829 24.3624 28.51C24.3911 28.5355 24.4054 28.5666 24.4054 28.6033C24.4054 28.6527 24.3903 28.6925 24.36 28.7228C24.3297 28.7531 24.2891 28.7682 24.238 28.7682ZM24.8054 30.2793L24.5018 29.0121H24.7313L24.9991 30.1598H24.8843L25.6135 29.0121H25.8454L25.0397 30.2793H24.8054ZM26.3785 30.2936C26.2542 30.2936 26.1466 30.2713 26.0557 30.2267C25.9649 30.1805 25.8947 30.1167 25.8453 30.0354C25.7959 29.9525 25.7712 29.8553 25.7712 29.7437C25.7712 29.6003 25.8023 29.4728 25.8644 29.3612C25.9266 29.2496 26.0111 29.162 26.1179 29.0982C26.2263 29.0328 26.349 29.0002 26.4861 29.0002C26.6008 29.0002 26.7005 29.0225 26.7849 29.0671C26.8694 29.1101 26.9348 29.1723 26.981 29.2536C27.0288 29.3349 27.0527 29.4329 27.0527 29.5477C27.0527 29.5764 27.0511 29.6059 27.0479 29.6361C27.0447 29.6648 27.0408 29.6919 27.036 29.7174H25.9386L25.9672 29.5501H26.926L26.8328 29.6075C26.8471 29.5182 26.8407 29.4433 26.8136 29.3827C26.7865 29.3205 26.7435 29.2735 26.6845 29.2416C26.6271 29.2082 26.5578 29.1914 26.4765 29.1914C26.3809 29.1914 26.2964 29.2146 26.2231 29.2608C26.1513 29.3054 26.0956 29.3684 26.0557 29.4497C26.0159 29.5294 25.9959 29.6234 25.9959 29.7318C25.9959 29.8465 26.0286 29.9358 26.094 29.9996C26.1609 30.0617 26.2621 30.0928 26.3976 30.0928C26.4773 30.0928 26.5514 30.0801 26.62 30.0546C26.6885 30.0275 26.7451 29.9916 26.7897 29.947L26.8877 30.1119C26.8272 30.1709 26.7515 30.2163 26.6606 30.2482C26.5698 30.2785 26.4757 30.2936 26.3785 30.2936ZM28.1342 29.0002C28.2458 29.0002 28.339 29.0225 28.4139 29.0671C28.4888 29.1117 28.5406 29.1771 28.5693 29.2632C28.5996 29.3476 28.6028 29.4497 28.5789 29.5692L28.4378 30.2793H28.2083L28.3494 29.5692C28.3733 29.4544 28.3621 29.3652 28.3159 29.3014C28.2697 29.2377 28.1868 29.2058 28.0672 29.2058C27.9445 29.2058 27.8425 29.2393 27.7612 29.3062C27.6799 29.3716 27.6257 29.4728 27.5986 29.6098L27.4647 30.2793H27.2352L27.4863 29.0121H27.7062L27.6345 29.3755L27.5914 29.2775C27.652 29.1819 27.7285 29.1117 27.821 29.0671C27.915 29.0225 28.0194 29.0002 28.1342 29.0002ZM29.5047 30.2793L29.8585 28.5053H30.0881L29.9183 29.3445L29.8346 29.6338L29.7988 29.9063L29.7223 30.2793H29.5047ZM30.2339 30.2936C30.1255 30.2936 30.0323 30.2745 29.9542 30.2363C29.8777 30.1964 29.8187 30.1398 29.7773 30.0665C29.7358 29.9916 29.7151 29.9015 29.7151 29.7963C29.7151 29.6784 29.7302 29.5708 29.7605 29.4736C29.7908 29.3747 29.8354 29.2903 29.8944 29.2201C29.955 29.15 30.0267 29.0958 30.1096 29.0575C30.1925 29.0193 30.2865 29.0002 30.3917 29.0002C30.5001 29.0002 30.5957 29.0217 30.6786 29.0647C30.7631 29.1078 30.8292 29.1707 30.8771 29.2536C30.9265 29.3349 30.9512 29.4321 30.9512 29.5453C30.9512 29.6537 30.9329 29.7533 30.8962 29.8442C30.8611 29.935 30.8109 30.0139 30.7456 30.0809C30.6818 30.1478 30.6061 30.2004 30.5184 30.2387C30.4308 30.2753 30.3359 30.2936 30.2339 30.2936ZM30.2244 30.0928C30.32 30.0928 30.4045 30.0697 30.4778 30.0235C30.5527 29.9772 30.6117 29.9143 30.6547 29.8346C30.6977 29.7533 30.7193 29.6609 30.7193 29.5572C30.7193 29.4457 30.6866 29.3588 30.6212 29.2966C30.5559 29.2329 30.4626 29.201 30.3415 29.201C30.2475 29.201 30.1622 29.2241 30.0857 29.2703C30.0108 29.315 29.9518 29.3779 29.9088 29.4592C29.8673 29.5389 29.8466 29.6314 29.8466 29.7366C29.8466 29.8465 29.8793 29.9334 29.9446 29.9972C30.01 30.0609 30.1032 30.0928 30.2244 30.0928ZM31.0803 30.7575C31.0197 30.7575 30.9599 30.7471 30.901 30.7264C30.842 30.7073 30.7958 30.6802 30.7623 30.6451L30.8818 30.4754C30.9089 30.5024 30.9408 30.5232 30.9775 30.5375C31.0125 30.5535 31.0524 30.5614 31.097 30.5614C31.1496 30.5614 31.1966 30.5471 31.2381 30.5184C31.2811 30.4913 31.3249 30.4427 31.3696 30.3725L31.4891 30.1884L31.5154 30.1621L32.2399 29.0121H32.4718L31.5728 30.418C31.517 30.504 31.4644 30.5718 31.415 30.6212C31.3656 30.6706 31.3138 30.7057 31.2596 30.7264C31.207 30.7471 31.1472 30.7575 31.0803 30.7575ZM31.4461 30.3199L31.1281 29.0121H31.3576L31.6278 30.1406L31.4461 30.3199ZM33.8063 30.2936C33.6979 30.2936 33.6046 30.2745 33.5265 30.2363C33.45 30.1964 33.391 30.1398 33.3496 30.0665C33.3081 29.9916 33.2874 29.9015 33.2874 29.7963C33.2874 29.6369 33.3145 29.4983 33.3687 29.3803C33.4229 29.2608 33.5002 29.1675 33.6006 29.1006C33.7026 29.0336 33.8238 29.0002 33.9641 29.0002C34.0724 29.0002 34.1681 29.0217 34.251 29.0647C34.3354 29.1078 34.4016 29.1707 34.4494 29.2536C34.4988 29.3349 34.5235 29.4321 34.5235 29.5453C34.5235 29.6537 34.5052 29.7533 34.4685 29.8442C34.4335 29.935 34.3833 30.0139 34.3179 30.0809C34.2541 30.1478 34.1784 30.2004 34.0908 30.2387C34.0031 30.2753 33.9083 30.2936 33.8063 30.2936ZM32.9838 30.7431L33.3281 29.0121H33.548L33.4811 29.3397L33.407 29.6338L33.3735 29.935L33.2133 30.7431H32.9838ZM33.7967 30.0928C33.8923 30.0928 33.9768 30.0697 34.0501 30.0235C34.125 29.9772 34.184 29.9143 34.227 29.8346C34.2701 29.7533 34.2916 29.6609 34.2916 29.5572C34.2916 29.4457 34.2589 29.3588 34.1936 29.2966C34.1282 29.2329 34.035 29.201 33.9138 29.201C33.8198 29.201 33.7345 29.2241 33.658 29.2703C33.5831 29.315 33.5241 29.3779 33.4811 29.4592C33.4396 29.5389 33.4189 29.6314 33.4189 29.7366C33.4189 29.8465 33.4516 29.9334 33.517 29.9972C33.5823 30.0609 33.6755 30.0928 33.7967 30.0928ZM35.2638 30.2936C35.157 30.2936 35.0614 30.2721 34.9769 30.2291C34.8925 30.1845 34.8255 30.1215 34.7761 30.0402C34.7283 29.9589 34.7044 29.8609 34.7044 29.7461C34.7044 29.6377 34.7219 29.5381 34.757 29.4473C34.7936 29.3564 34.8438 29.2775 34.9076 29.2106C34.9729 29.1436 35.0495 29.0918 35.1371 29.0552C35.2248 29.0185 35.3196 29.0002 35.4216 29.0002C35.5316 29.0002 35.6249 29.0193 35.7014 29.0575C35.7779 29.0958 35.8369 29.1524 35.8783 29.2273C35.9197 29.3006 35.9405 29.3907 35.9405 29.4975C35.9405 29.6537 35.9134 29.7924 35.8592 29.9135C35.805 30.033 35.7269 30.1263 35.6249 30.1932C35.5244 30.2602 35.4041 30.2936 35.2638 30.2936ZM35.314 30.0928C35.4097 30.0928 35.495 30.0697 35.5699 30.0235C35.6448 29.9772 35.703 29.9143 35.7444 29.8346C35.7874 29.7533 35.809 29.6609 35.809 29.5572C35.809 29.4457 35.7763 29.3588 35.7109 29.2966C35.6456 29.2329 35.5523 29.201 35.4312 29.201C35.3372 29.201 35.2527 29.2241 35.1778 29.2703C35.1029 29.315 35.0439 29.3779 35.0008 29.4592C34.9578 29.5389 34.9363 29.6314 34.9363 29.7366C34.9363 29.8465 34.969 29.9334 35.0343 29.9972C35.0997 30.0609 35.1929 30.0928 35.314 30.0928ZM35.6799 30.2793L35.7468 29.9517L35.8233 29.6577L35.8544 29.3564L35.9213 29.0121H36.1509L35.8998 30.2793H35.6799ZM36.7358 30.2936C36.629 30.2936 36.5278 30.2801 36.4321 30.253C36.3381 30.2243 36.2656 30.1892 36.2146 30.1478L36.3174 29.9661C36.3668 30.0043 36.4305 30.0354 36.5086 30.0593C36.5883 30.0832 36.6712 30.0952 36.7573 30.0952C36.8673 30.0952 36.9502 30.0785 37.0059 30.045C37.0617 30.0115 37.0896 29.9661 37.0896 29.9087C37.0896 29.8673 37.0729 29.8362 37.0394 29.8155C37.0059 29.7931 36.9621 29.7764 36.9079 29.7653C36.8553 29.7525 36.7987 29.7405 36.7382 29.7294C36.6776 29.7166 36.621 29.6991 36.5684 29.6768C36.5158 29.6545 36.472 29.6226 36.4369 29.5812C36.4034 29.5381 36.3867 29.4815 36.3867 29.4114C36.3867 29.3269 36.4106 29.2544 36.4584 29.1938C36.5062 29.1317 36.5732 29.0838 36.6593 29.0504C36.7453 29.0169 36.8458 29.0002 36.9605 29.0002C37.0434 29.0002 37.1247 29.0105 37.2044 29.0312C37.2857 29.0504 37.3518 29.0783 37.4028 29.1149L37.312 29.2966C37.2594 29.26 37.2004 29.2345 37.1351 29.2201C37.0697 29.2042 37.0044 29.1962 36.939 29.1962C36.8322 29.1962 36.7517 29.2146 36.6975 29.2512C36.6433 29.2863 36.6162 29.3309 36.6162 29.3851C36.6162 29.4265 36.633 29.4592 36.6664 29.4831C36.6999 29.5054 36.7429 29.523 36.7955 29.5357C36.8497 29.5485 36.9063 29.5612 36.9653 29.574C37.0259 29.5851 37.0825 29.6019 37.1351 29.6242C37.1892 29.6449 37.2331 29.676 37.2666 29.7174C37.3 29.7573 37.3168 29.8123 37.3168 29.8824C37.3168 29.9701 37.2921 30.045 37.2426 30.1072C37.1948 30.1677 37.1271 30.2139 37.0394 30.2458C36.9518 30.2777 36.8505 30.2936 36.7358 30.2936ZM37.9336 30.2936C37.8268 30.2936 37.7255 30.2801 37.6299 30.253C37.5359 30.2243 37.4633 30.1892 37.4123 30.1478L37.5152 29.9661C37.5646 30.0043 37.6283 30.0354 37.7064 30.0593C37.7861 30.0832 37.869 30.0952 37.9551 30.0952C38.0651 30.0952 38.1479 30.0785 38.2037 30.045C38.2595 30.0115 38.2874 29.9661 38.2874 29.9087C38.2874 29.8673 38.2707 29.8362 38.2372 29.8155C38.2037 29.7931 38.1599 29.7764 38.1057 29.7653C38.0531 29.7525 37.9965 29.7405 37.9359 29.7294C37.8754 29.7166 37.8188 29.6991 37.7662 29.6768C37.7136 29.6545 37.6698 29.6226 37.6347 29.5812C37.6012 29.5381 37.5845 29.4815 37.5845 29.4114C37.5845 29.3269 37.6084 29.2544 37.6562 29.1938C37.704 29.1317 37.771 29.0838 37.857 29.0504C37.9431 29.0169 38.0435 29.0002 38.1583 29.0002C38.2412 29.0002 38.3225 29.0105 38.4022 29.0312C38.4835 29.0504 38.5496 29.0783 38.6006 29.1149L38.5098 29.2966C38.4572 29.26 38.3982 29.2345 38.3328 29.2201C38.2675 29.2042 38.2021 29.1962 38.1368 29.1962C38.03 29.1962 37.9495 29.2146 37.8953 29.2512C37.8411 29.2863 37.814 29.3309 37.814 29.3851C37.814 29.4265 37.8307 29.4592 37.8642 29.4831C37.8977 29.5054 37.9407 29.523 37.9933 29.5357C38.0475 29.5485 38.1041 29.5612 38.1631 29.574C38.2237 29.5851 38.2802 29.6019 38.3328 29.6242C38.387 29.6449 38.4309 29.676 38.4643 29.7174C38.4978 29.7573 38.5145 29.8123 38.5145 29.8824C38.5145 29.9701 38.4898 30.045 38.4404 30.1072C38.3926 30.1677 38.3249 30.2139 38.2372 30.2458C38.1495 30.2777 38.0483 30.2936 37.9336 30.2936ZM38.7321 30.2793L38.9831 29.0121H39.2126L38.9616 30.2793H38.7321ZM39.1648 28.7682C39.1218 28.7682 39.0867 28.7547 39.0596 28.7276C39.0341 28.7005 39.0214 28.6678 39.0214 28.6296C39.0214 28.5849 39.0365 28.5475 39.0668 28.5172C39.0971 28.4853 39.1369 28.4694 39.1863 28.4694C39.2278 28.4694 39.262 28.4829 39.2891 28.51C39.3178 28.5355 39.3322 28.5666 39.3322 28.6033C39.3322 28.6527 39.317 28.6925 39.2868 28.7228C39.2565 28.7531 39.2158 28.7682 39.1648 28.7682ZM39.9928 30.2936C39.8716 30.2936 39.7664 30.2713 39.6772 30.2267C39.5895 30.1805 39.521 30.1167 39.4716 30.0354C39.4221 29.9525 39.3974 29.8561 39.3974 29.7461C39.3974 29.6027 39.4293 29.4752 39.4931 29.3636C39.5568 29.2504 39.6445 29.162 39.7561 29.0982C39.8692 29.0328 39.9976 29.0002 40.141 29.0002C40.2606 29.0002 40.365 29.0225 40.4542 29.0671C40.5435 29.1117 40.612 29.1747 40.6598 29.256C40.7092 29.3373 40.734 29.4337 40.734 29.5453C40.734 29.6887 40.7021 29.8171 40.6383 29.9302C40.5746 30.0418 40.4869 30.1303 40.3753 30.1956C40.2653 30.261 40.1378 30.2936 39.9928 30.2936ZM40.0071 30.0928C40.1028 30.0928 40.188 30.0697 40.2629 30.0235C40.3379 29.9772 40.396 29.9143 40.4375 29.8346C40.4805 29.7533 40.502 29.6609 40.502 29.5572C40.502 29.4457 40.4694 29.3588 40.404 29.2966C40.3387 29.2329 40.2454 29.201 40.1243 29.201C40.0302 29.201 39.9458 29.2241 39.8708 29.2703C39.7959 29.315 39.7369 29.3779 39.6939 29.4592C39.6509 29.5389 39.6294 29.6314 39.6294 29.7366C39.6294 29.8465 39.662 29.9334 39.7274 29.9972C39.7927 30.0609 39.886 30.0928 40.0071 30.0928ZM41.8165 29.0002C41.928 29.0002 42.0213 29.0225 42.0962 29.0671C42.1711 29.1117 42.2229 29.1771 42.2516 29.2632C42.2819 29.3476 42.2851 29.4497 42.2612 29.5692L42.1201 30.2793H41.8906L42.0316 29.5692C42.0556 29.4544 42.0444 29.3652 41.9982 29.3014C41.952 29.2377 41.8691 29.2058 41.7495 29.2058C41.6268 29.2058 41.5248 29.2393 41.4435 29.3062C41.3622 29.3716 41.308 29.4728 41.2809 29.6098L41.147 30.2793H40.9175L41.1685 29.0121H41.3885L41.3168 29.3755L41.2737 29.2775C41.3343 29.1819 41.4108 29.1117 41.5033 29.0671C41.5973 29.0225 41.7017 29.0002 41.8165 29.0002ZM42.619 30.2936C42.576 30.2936 42.5393 30.2793 42.509 30.2506C42.4803 30.2203 42.466 30.1837 42.466 30.1406C42.466 30.088 42.4827 30.0458 42.5162 30.0139C42.5497 29.982 42.5895 29.9661 42.6357 29.9661C42.6788 29.9661 42.7146 29.9804 42.7433 30.0091C42.772 30.0378 42.7864 30.0753 42.7864 30.1215C42.7864 30.155 42.7784 30.1853 42.7625 30.2124C42.7465 30.2379 42.7258 30.2578 42.7003 30.2721C42.6764 30.2865 42.6493 30.2936 42.619 30.2936ZM43.1607 30.2936C43.1177 30.2936 43.081 30.2793 43.0507 30.2506C43.022 30.2203 43.0077 30.1837 43.0077 30.1406C43.0077 30.088 43.0244 30.0458 43.0579 30.0139C43.0914 29.982 43.1312 29.9661 43.1774 29.9661C43.2205 29.9661 43.2563 29.9804 43.285 30.0091C43.3137 30.0378 43.3281 30.0753 43.3281 30.1215C43.3281 30.155 43.3201 30.1853 43.3041 30.2124C43.2882 30.2379 43.2675 30.2578 43.242 30.2721C43.2181 30.2865 43.191 30.2936 43.1607 30.2936ZM43.7024 30.2936C43.6593 30.2936 43.6227 30.2793 43.5924 30.2506C43.5637 30.2203 43.5494 30.1837 43.5494 30.1406C43.5494 30.088 43.5661 30.0458 43.5996 30.0139C43.633 29.982 43.6729 29.9661 43.7191 29.9661C43.7622 29.9661 43.798 29.9804 43.8267 30.0091C43.8554 30.0378 43.8697 30.0753 43.8697 30.1215C43.8697 30.155 43.8618 30.1853 43.8458 30.2124C43.8299 30.2379 43.8092 30.2578 43.7837 30.2721C43.7598 30.2865 43.7327 30.2936 43.7024 30.2936Z" fill="black"/>
</svg>
