<svg width="93" height="24" viewBox="0 0 93 24" fill="none" xmlns="http://www.w3.org/2000/svg">
<path d="M91.8042 19.8446H92.4068V23.9865H91.2016H87.3241C86.4945 23.9865 85.726 23.7752 85.0186 23.3524C84.3199 22.9297 83.7654 22.3586 83.3549 21.639C82.9445 20.9105 82.7393 20.1189 82.7393 19.2645C82.7393 18.401 82.9445 17.6095 83.3549 16.89C83.7654 16.1614 84.3199 15.5858 85.0186 15.163C85.726 14.7403 86.4945 14.5289 87.3241 14.5289C87.3241 14.5289 87.3678 14.5289 87.4551 14.5289C87.5512 14.5289 87.9704 14.5289 88.7127 14.5289C89.4637 14.5289 90.5073 14.5289 91.8435 14.5289V15.0956C91.8435 15.2665 91.7824 15.4104 91.6601 15.5273C91.5466 15.6442 91.4069 15.7027 91.2409 15.7027H87.3241C86.3722 15.7027 85.56 16.0535 84.8876 16.755C84.2151 17.4476 83.8789 18.2841 83.8789 19.2645C83.8789 20.2359 84.2151 21.0679 84.8876 21.7604C85.56 22.453 86.3722 22.7993 87.3241 22.7993H91.2016V20.4652C91.2016 20.2943 91.2584 20.1504 91.3719 20.0335C91.4942 19.9076 91.6383 19.8446 91.8042 19.8446Z" fill="white"/>
<path d="M77.9619 19.3456C77.9619 19.3456 77.9619 19.3545 77.9619 19.3725C77.9619 19.3815 77.9619 19.3905 77.9619 19.3995C77.9619 20.1281 77.8134 20.8116 77.5165 21.4502C77.2196 22.0888 76.8091 22.6285 76.2851 23.0692C75.7612 23.51 75.1717 23.8158 74.5167 23.9867V23.2581C74.5167 22.9433 74.6477 22.714 74.9097 22.57C75.4861 22.2732 75.9446 21.8415 76.2851 21.2749C76.6345 20.7082 76.8091 20.0831 76.8091 19.3995V14.5291H77.9619V19.3456ZM71.8182 22.57C72.0889 22.714 72.2243 22.9433 72.2243 23.2581V23.9867C71.22 23.7168 70.3947 23.1592 69.7484 22.3137C69.1022 21.4682 68.7791 20.4968 68.7791 19.3995C68.7791 19.3905 68.7791 19.3815 68.7791 19.3725C68.7791 19.3545 68.7791 19.3456 68.7791 19.3456V14.5291H69.9187V19.3995C69.9187 20.0831 70.0934 20.7082 70.4427 21.2749C70.792 21.8415 71.2505 22.2732 71.8182 22.57Z" fill="white"/>
<path d="M63.4176 22.7994C63.5835 22.7994 63.7233 22.8624 63.8368 22.9883C63.9591 23.1052 64.0202 23.2491 64.0202 23.42V23.9867H61.5313C60.7103 23.9777 59.9506 23.7618 59.2519 23.3391C58.5533 22.9163 58.0031 22.3452 57.6014 21.6256C57.1996 20.8971 56.9988 20.1056 56.9988 19.2511V14.5291H57.5883C57.7542 14.5291 57.8939 14.5875 58.0074 14.7044C58.1297 14.8214 58.1908 14.9653 58.1908 15.1362V19.2511C58.1908 20.2405 58.5183 21.0815 59.1733 21.774C59.837 22.4576 60.6405 22.7994 61.5837 22.7994H63.4176Z" fill="white"/>
<path d="M43.6665 23.9867V18.671H51.4346V19.2376C51.4346 19.3995 51.3735 19.5434 51.2512 19.6694C51.1377 19.7863 50.9979 19.8447 50.832 19.8447H44.8586V23.9867H43.6665ZM44.256 14.5291H52.2337V15.0957C52.2337 15.2666 52.1725 15.4105 52.0503 15.5274C51.9367 15.6444 51.797 15.7028 51.6311 15.7028H43.6665V15.1497C43.6665 14.9788 43.7233 14.8349 43.8368 14.7179C43.9503 14.592 44.0901 14.5291 44.256 14.5291Z" fill="white"/>
<path d="M36.3124 18.6709C37.0286 18.6709 37.6355 18.9317 38.1333 19.4534C38.6398 19.975 38.8931 20.6046 38.8931 21.3422C38.8931 22.0707 38.6398 22.6958 38.1333 23.2175C37.6355 23.7392 37.0286 24 36.3124 24L30.3652 23.9865H30.3259V23.4199C30.3259 23.249 30.3827 23.1051 30.4962 22.9882C30.6185 22.8622 30.7626 22.7993 30.9285 22.7993H36.2207H36.4041C36.7797 22.7813 37.0941 22.6329 37.3473 22.3541C37.6093 22.0662 37.7403 21.7244 37.7403 21.3287C37.7403 20.9239 37.6006 20.5777 37.3211 20.2898C37.0417 20.002 36.7054 19.8581 36.3124 19.8581H36.2862C36.1203 19.8581 35.9806 19.7996 35.8671 19.6827C35.7535 19.5568 35.6968 19.4084 35.6968 19.2375V18.6709H36.3124ZM32.7886 19.8446C32.3171 19.8446 31.8804 19.7277 31.4787 19.4938C31.0857 19.251 30.7757 18.9272 30.5486 18.5224C30.3215 18.1177 30.208 17.6725 30.208 17.1868C30.208 16.4492 30.4569 15.8241 30.9547 15.3114C31.4612 14.7898 32.0725 14.5289 32.7886 14.5289C32.8148 14.5289 32.8454 14.5289 32.8803 14.5289H38.5263V15.0956C38.5263 15.1765 38.5088 15.2575 38.4739 15.3384C38.4477 15.4104 38.4084 15.4733 38.356 15.5273C38.3036 15.5813 38.2381 15.6262 38.1595 15.6622C38.0896 15.6892 38.0154 15.7027 37.9368 15.7027H32.7886V15.7162C32.3956 15.7162 32.0594 15.8601 31.78 16.1479C31.5005 16.4357 31.3608 16.782 31.3608 17.1868C31.3608 17.5915 31.5005 17.9378 31.78 18.2256C32.0594 18.5134 32.3956 18.6574 32.7886 18.6574V18.6709H32.8017C32.9153 18.6709 33.0157 18.6978 33.103 18.7518C33.1991 18.8058 33.2733 18.8822 33.3257 18.9812C33.3781 19.0711 33.4043 19.17 33.4043 19.278V19.8446H32.7886Z" fill="white"/>
<path d="M25.4355 19.3459C25.4355 19.3459 25.4355 19.3549 25.4355 19.3729C25.4355 19.3819 25.4355 19.3909 25.4355 19.3999C25.4355 20.1284 25.2871 20.812 24.9901 21.4506C24.6932 22.0892 24.2828 22.6289 23.7588 23.0696C23.2348 23.5103 22.6453 23.8161 21.9903 23.987V23.2585C21.9903 22.9437 22.1213 22.7143 22.3833 22.5704C22.9597 22.2736 23.4182 21.8419 23.7588 21.2752C24.1081 20.7086 24.2828 20.0835 24.2828 19.3999V14.5294H25.4355V19.3459ZM19.2918 22.5704C19.5625 22.7143 19.6979 22.9437 19.6979 23.2585V23.987C18.6936 23.7172 17.8683 23.1595 17.2221 22.3141C16.5758 21.4686 16.2527 20.4972 16.2527 19.3999C16.2527 19.3909 16.2527 19.3819 16.2527 19.3729C16.2527 19.3549 16.2527 19.3459 16.2527 19.3459V14.5294H17.3924V19.3999C17.3924 20.0835 17.567 20.7086 17.9163 21.2752C18.2657 21.8419 18.7242 22.2736 19.2918 22.5704Z" fill="white"/>
<path d="M6.99988 14.5298L11.6765 23.9874H4.95634L5.53272 22.8001H9.77701L6.3449 15.8655L2.32331 23.9874H1.00024L5.40173 15.0964C5.48906 14.9255 5.61132 14.7906 5.76852 14.6917C5.93444 14.5838 6.11347 14.5298 6.3056 14.5298H6.99988Z" fill="white"/>
<g filter="url(#filter0_d_337_7703)">
<path fill-rule="evenodd" clip-rule="evenodd" d="M4.80038 3.13284C4.80038 2.74321 4.59544 2.40228 4.29591 2.21829C4.47983 2.02348 4.59019 1.75831 4.59019 1.46609C4.59019 0.881649 4.12775 0.400024 3.55496 0.400024H3.51818H1.00106V0.627308C1.00106 0.638663 1.00178 0.649807 1.00317 0.660699H0.999023V4.19321H1.00106V4.19349C3.85975 4.19349 3.76516 4.1989 3.76516 4.1989C4.33795 4.1989 4.80038 3.72269 4.80038 3.13284ZM1.51357 2.06136V0.876237H3.55496C3.87026 0.876237 4.12775 1.1414 4.12775 1.46609C4.12775 1.79619 3.87026 2.06136 3.55496 2.06136H1.51357ZM2.90335 2.53757H1.51357V3.72269H3.76516C4.08046 3.72269 4.33795 3.45753 4.33795 3.13284C4.33795 2.80815 4.08046 2.54298 3.76516 2.54298V2.53757H2.90335ZM10.738 4.19349L8.86201 0.400024H8.57824C8.42585 0.400024 8.28922 0.49202 8.21565 0.627308L6.45524 4.19349H6.98074L8.59401 0.935764L9.97606 3.72269H8.27345L8.03698 4.19349H10.738ZM13.2284 1.82325C13.3598 1.82325 13.4701 1.93689 13.4701 2.07218V4.19349H13.2284C13.097 4.19349 12.9919 4.08526 12.9919 3.94998V1.82325H13.2284ZM14.6525 0.400024C14.7838 0.400024 14.8889 0.513666 14.8889 0.648954V0.876237H11.8095C11.6782 0.876237 11.5678 0.768007 11.5678 0.627308V0.400024H14.6525ZM17.0442 2.29946C17.0442 1.5148 17.6643 0.876237 18.4263 0.876237H19.782C19.9134 0.876237 20.0238 0.768007 20.0238 0.627308V0.400024H18.4263C17.4068 0.400024 16.5818 1.24963 16.5818 2.29946C16.5818 3.3493 17.4068 4.1989 18.4263 4.1989C18.4263 4.1989 18.4052 4.19349 20.0238 4.19349V3.97162C20.0238 3.83092 19.9134 3.72269 19.782 3.72269H18.4263C17.6643 3.72269 17.0442 3.08413 17.0442 2.29946ZM23.5447 0.400024L25.4207 4.19349H22.7196L22.9561 3.72269H24.6587L23.2767 0.935764L21.6634 4.19349H21.1379L22.8983 0.627308C22.9719 0.49202 23.1085 0.400024 23.2609 0.400024H23.5447ZM27.8007 2.46181L26.8758 0.594839C26.818 0.475786 26.6971 0.400024 26.571 0.400024H26.2505L27.6168 3.15448L27.8007 2.78109C27.848 2.68368 27.848 2.55922 27.8007 2.46181ZM30.5333 0.400024H30.218C30.0866 0.400024 29.971 0.475786 29.9079 0.594839L28.1265 4.1989H28.6572L30.5333 0.400024ZM35.2357 3.72269C35.3671 3.72269 35.4774 3.83092 35.4774 3.97162V4.19349H31.9829V3.72269H31.9856V2.53757H31.9829V2.06136H31.9856V0.876237H31.9829V0.400024H35.4249V0.627308C35.4249 0.768007 35.3145 0.876237 35.1831 0.876237H32.5001V2.06136H35.0991V2.28864C35.0991 2.42393 34.994 2.53757 34.8573 2.53757H32.5001V3.72269H35.2357Z" fill="#1AABFF"/>
<path d="M37.6507 0.762539H37.226C37.226 0.666221 37.2712 0.618062 37.3617 0.618062H38.2373C38.2373 0.71438 38.192 0.762539 38.1015 0.762539H37.8143V1.71644C37.8143 1.76054 37.8004 1.79419 37.7725 1.8174C37.7447 1.84061 37.7041 1.85221 37.6507 1.85221V0.762539ZM38.5158 0.73817C38.5158 0.695233 38.5303 0.662159 38.5593 0.63895C38.5883 0.61458 38.6283 0.602396 38.6794 0.602396L39.1007 1.61374L39.0676 1.69555L39.0798 1.70077L39.5254 0.602396C39.5764 0.602396 39.6165 0.61458 39.6455 0.63895C39.6757 0.66332 39.6907 0.696973 39.6907 0.73991V1.85221C39.5828 1.85221 39.5289 1.80754 39.5289 1.71818V0.985348L39.5741 0.86524L39.5602 0.861759L39.172 1.80522C39.1662 1.81914 39.1569 1.83017 39.1442 1.83829C39.1314 1.84757 39.1181 1.85221 39.1041 1.85221C39.089 1.85221 39.0751 1.84815 39.0624 1.84003C39.0496 1.83191 39.0403 1.8203 39.0345 1.80522L38.6463 0.860018L38.6324 0.86524L38.6777 0.983608V1.71818C38.6777 1.76228 38.6637 1.79593 38.6359 1.81914C38.6092 1.84119 38.5692 1.85221 38.5158 1.85221V0.73817Z" fill="#1AABFF"/>
<path d="M20.0078 6.54553L20.4708 5.38449H20.5961L21.0574 6.54553H20.9234L20.5213 5.50112L20.5474 5.49763L20.1435 6.54553H20.0078ZM20.2114 6.18347L20.2654 6.06336H20.8346L20.8433 6.18347H20.2114ZM22.3204 6.56294C22.1765 6.56294 22.0645 6.52058 21.9845 6.43587C21.9056 6.35115 21.8661 6.22989 21.8661 6.07206V5.38449H21.9914V6.07903C21.9914 6.2032 22.0193 6.29545 22.075 6.3558C22.1307 6.41498 22.2125 6.44457 22.3204 6.44457C22.4283 6.44457 22.5107 6.41498 22.5676 6.3558C22.6245 6.29545 22.6529 6.2032 22.6529 6.07903V5.38449H22.7747V6.07206C22.7747 6.17767 22.7568 6.26702 22.7208 6.34013C22.6848 6.41324 22.6332 6.46894 22.5659 6.50724C22.4986 6.54437 22.4167 6.56294 22.3204 6.56294ZM23.9956 6.54553V5.50286H23.5848V5.38449H24.53V5.50286H24.121V6.54553H23.9956ZM25.7909 6.56294C25.676 6.56294 25.5797 6.54089 25.502 6.49679C25.4254 6.45153 25.3673 6.38481 25.3279 6.29661C25.2896 6.20842 25.2704 6.09817 25.2704 5.96588C25.2704 5.7686 25.314 5.62006 25.401 5.52026C25.4892 5.4193 25.6192 5.36882 25.7909 5.36882C25.907 5.36882 26.0033 5.39145 26.0799 5.43671C26.1576 5.48081 26.2156 5.54695 26.2539 5.63515C26.2934 5.72334 26.3131 5.83359 26.3131 5.96588C26.3131 6.16316 26.269 6.31228 26.1808 6.41324C26.0938 6.51304 25.9638 6.56294 25.7909 6.56294ZM25.7909 6.44457C25.8826 6.44457 25.9574 6.42775 26.0155 6.39409C26.0735 6.36044 26.1158 6.30822 26.1425 6.23743C26.1704 6.16664 26.1843 6.07613 26.1843 5.96588C26.1843 5.85564 26.1704 5.7657 26.1425 5.69607C26.1158 5.62529 26.0735 5.57306 26.0155 5.53941C25.9574 5.5046 25.8826 5.48719 25.7909 5.48719C25.7004 5.48719 25.6261 5.5046 25.5681 5.53941C25.5101 5.57306 25.4671 5.62529 25.4393 5.69607C25.4126 5.7657 25.3993 5.85564 25.3993 5.96588C25.3993 6.07613 25.4126 6.16664 25.4393 6.23743C25.4671 6.30822 25.5101 6.36044 25.5681 6.39409C25.6261 6.42775 25.7004 6.44457 25.7909 6.44457ZM27.1917 6.54553V5.38449H27.3275L27.7575 6.04421L27.6722 6.06336L28.1265 5.38449H28.2623V6.54553H28.1369V5.50982H28.1926L27.7139 6.18173L27.2718 5.52374L27.3171 5.45934V6.54553H27.1917ZM29.6621 6.56294C29.5472 6.56294 29.4509 6.54089 29.3731 6.49679C29.2965 6.45153 29.2385 6.38481 29.199 6.29661C29.1607 6.20842 29.1416 6.09817 29.1416 5.96588C29.1416 5.7686 29.1851 5.62006 29.2721 5.52026C29.3603 5.4193 29.4903 5.36882 29.6621 5.36882C29.7781 5.36882 29.8744 5.39145 29.951 5.43671C30.0288 5.48081 30.0868 5.54695 30.1251 5.63515C30.1645 5.72334 30.1843 5.83359 30.1843 5.96588C30.1843 6.16316 30.1402 6.31228 30.052 6.41324C29.9649 6.51304 29.835 6.56294 29.6621 6.56294ZM29.6621 6.44457C29.7537 6.44457 29.8286 6.42775 29.8866 6.39409C29.9446 6.36044 29.987 6.30822 30.0137 6.23743C30.0415 6.16664 30.0555 6.07613 30.0555 5.96588C30.0555 5.85564 30.0415 5.7657 30.0137 5.69607C29.987 5.62529 29.9446 5.57306 29.8866 5.53941C29.8286 5.5046 29.7537 5.48719 29.6621 5.48719C29.5715 5.48719 29.4973 5.5046 29.4392 5.53941C29.3812 5.57306 29.3383 5.62529 29.3104 5.69607C29.2837 5.7657 29.2704 5.85564 29.2704 5.96588C29.2704 6.07613 29.2837 6.16664 29.3104 6.23743C29.3383 6.30822 29.3812 6.36044 29.4392 6.39409C29.4973 6.42775 29.5715 6.44457 29.6621 6.44457ZM31.335 6.54553V5.50286H30.9242V5.38449H31.8694V5.50286H31.4604V6.54553H31.335ZM32.6789 6.54553V5.38449H32.8042V6.54553H32.6789ZM34.0596 6.54553L33.6139 5.38449H33.748L34.1501 6.43935H34.1048L34.5 5.38797L34.6288 5.38449L34.1832 6.54553H34.0596ZM35.4383 6.54553V5.38449H36.1711V5.50286H35.5636V5.90322H36.098V6.02506H35.5636V6.42717H36.1711V6.54553H35.4383Z" fill="#1AABFF"/>
</g>
<defs>
<filter id="filter0_d_337_7703" x="0.23556" y="0.00012207" width="40.39" height="8.42719" filterUnits="userSpaceOnUse" color-interpolation-filters="sRGB">
<feFlood flood-opacity="0" result="BackgroundImageFix"/>
<feColorMatrix in="SourceAlpha" type="matrix" values="0 0 0 0 0 0 0 0 0 0 0 0 0 0 0 0 0 0 127 0" result="hardAlpha"/>
<feOffset dy="0.763463"/>
<feGaussianBlur stdDeviation="0.381731"/>
<feComposite in2="hardAlpha" operator="out"/>
<feColorMatrix type="matrix" values="0 0 0 0 0 0 0 0 0 0 0 0 0 0 0 0 0 0 0.25 0"/>
<feBlend mode="normal" in2="BackgroundImageFix" result="effect1_dropShadow_337_7703"/>
<feBlend mode="normal" in="SourceGraphic" in2="effect1_dropShadow_337_7703" result="shape"/>
</filter>
</defs>
</svg>
