<svg width="102" height="36" viewBox="0 0 102 36" fill="none" xmlns="http://www.w3.org/2000/svg">
<path d="M8.81347 16.6865C9.17409 16.8996 9.46095 17.1905 9.67404 17.5593C9.88714 17.9282 9.99369 18.3298 9.99369 18.7641C9.99369 19.4362 9.756 20.0099 9.28064 20.4853C8.81347 20.9607 8.24385 21.1983 7.57178 21.1983L1.15435 21.186H1.11747V20.6697C1.11747 20.514 1.17074 20.3828 1.27729 20.2763C1.38384 20.1615 1.51497 20.1042 1.67069 20.1042H7.57178V20.1165C7.9406 20.1165 8.25614 19.9853 8.51841 19.7231C8.78069 19.4608 8.91182 19.1453 8.91182 18.7764C8.91182 18.3994 8.78069 18.0798 8.51841 17.8175C8.25614 17.5552 7.9406 17.4241 7.57178 17.4241C7.48982 17.4241 7.37918 17.4241 7.23985 17.4241C7.10051 17.4241 6.88332 17.4241 6.58827 17.4241C6.29321 17.4241 6.04733 17.4241 5.85063 17.4241C5.65393 17.4159 5.55558 17.4118 5.55558 17.4118H1.67069C1.57234 17.4118 1.47809 17.3872 1.38793 17.338C1.30597 17.2889 1.24041 17.2233 1.19123 17.1413C1.14206 17.0512 1.11747 16.9569 1.11747 16.8586V16.3422H7.08002V16.3299C7.45704 16.3299 7.77668 16.1988 8.03895 15.9365C8.30122 15.6743 8.43236 15.3587 8.43236 14.9899C8.43236 14.6211 8.30122 14.3055 8.03895 14.0433C7.77668 13.781 7.45704 13.6499 7.08002 13.6499V13.6376H1.67069C1.51497 13.6376 1.38384 13.5843 1.27729 13.4778C1.17074 13.3712 1.11747 13.2401 1.11747 13.0843V12.568H7.00626C7.03085 12.568 7.05544 12.568 7.08002 12.568C7.41606 12.568 7.7316 12.6336 8.02666 12.7647C8.32991 12.8876 8.58808 13.0598 8.80118 13.2811C9.01427 13.4941 9.18638 13.7523 9.31752 14.0556C9.44866 14.3506 9.51422 14.6621 9.51422 14.9899C9.51422 15.6456 9.28064 16.2111 8.81347 16.6865Z" fill="white"/>
<path d="M19.9876 12.568L24.3765 21.186H18.0697L18.6107 20.1042H22.5939L19.3729 13.7851L15.5987 21.186H14.357L18.4877 13.0843C18.5697 12.9286 18.6844 12.8057 18.832 12.7155C18.9877 12.6172 19.1557 12.568 19.336 12.568H19.9876Z" fill="white"/>
<path d="M30.7068 15.8013C30.8625 15.8013 30.9936 15.8587 31.1002 15.9734C31.2067 16.08 31.26 16.207 31.26 16.3545V21.186H30.7068C30.551 21.186 30.4158 21.1328 30.3011 21.0262C30.1945 20.9115 30.1412 20.7762 30.1412 20.6205V15.8013H30.7068ZM34.0261 12.568C34.1818 12.568 34.313 12.6254 34.4195 12.7401C34.5343 12.8467 34.5916 12.9778 34.5916 13.1335V13.6376H27.3751C27.2767 13.6376 27.1825 13.613 27.0923 13.5638C27.0104 13.5146 26.9448 13.4491 26.8956 13.3671C26.8465 13.277 26.8219 13.1827 26.8219 13.0843V12.568H34.0261Z" fill="white"/>
<path d="M44.9026 21.186V16.3422H52.1929V16.8586C52.1929 17.0061 52.1355 17.1372 52.0208 17.252C51.9142 17.3585 51.7831 17.4118 51.6274 17.4118H46.0213V21.186H44.9026ZM45.4558 12.568H52.9428V13.0843C52.9428 13.2401 52.8854 13.3712 52.7707 13.4778C52.6642 13.5843 52.533 13.6376 52.3773 13.6376H44.9026V13.1335C44.9026 12.9778 44.9559 12.8467 45.0624 12.7401C45.169 12.6254 45.3001 12.568 45.4558 12.568Z" fill="white"/>
<path d="M63.4367 20.1042C63.5924 20.1042 63.7235 20.1615 63.8301 20.2763C63.9448 20.3828 64.0022 20.514 64.0022 20.6697V21.186H61.6663C60.8959 21.1778 60.1829 20.9811 59.5272 20.5959C58.8715 20.2107 58.3552 19.6903 57.9781 19.0346C57.6011 18.3707 57.4126 17.6495 57.4126 16.8709V12.568H57.9659C58.1216 12.568 58.2527 12.6213 58.3593 12.7278C58.474 12.8344 58.5314 12.9655 58.5314 13.1212V16.8709C58.5314 17.7724 58.8387 18.5388 59.4534 19.1698C60.0763 19.7927 60.8303 20.1042 61.7155 20.1042H63.4367Z" fill="white"/>
<path d="M76.0676 20.1042C76.1496 20.1042 76.2233 20.1206 76.2889 20.1534C76.3627 20.1861 76.4241 20.2271 76.4733 20.2763C76.5225 20.3255 76.5594 20.3869 76.584 20.4607C76.6167 20.5263 76.6331 20.5959 76.6331 20.6697V21.186H68.47V20.1042H76.0676ZM76.5102 13.0843C76.5102 13.1827 76.4856 13.277 76.4364 13.3671C76.3873 13.4491 76.3176 13.5146 76.2274 13.5638C76.1455 13.613 76.0512 13.6376 75.9447 13.6376H68.47V12.568H76.5102V13.0843ZM75.7603 16.8586C75.7603 17.0061 75.7029 17.1372 75.5881 17.252C75.4816 17.3585 75.3505 17.4118 75.1947 17.4118H68.47V16.3422H75.7603V16.8586Z" fill="white"/>
<path d="M88.7097 20.1042C88.7917 20.1042 88.8654 20.1206 88.931 20.1534C89.0048 20.1861 89.0662 20.2271 89.1154 20.2763C89.1646 20.3255 89.2015 20.3869 89.2261 20.4607C89.2588 20.5263 89.2752 20.5959 89.2752 20.6697V21.186H81.1121V20.1042H88.7097ZM89.1523 13.0843C89.1523 13.1827 89.1277 13.277 89.0785 13.3671C89.0294 13.4491 88.9597 13.5146 88.8695 13.5638C88.7876 13.613 88.6933 13.6376 88.5868 13.6376H81.1121V12.568H89.1523V13.0843ZM88.4024 16.8586C88.4024 17.0061 88.345 17.1372 88.2302 17.252C88.1237 17.3585 87.9926 17.4118 87.8368 17.4118H81.1121V16.3422H88.4024V16.8586Z" fill="white"/>
<path d="M97.639 15.8013C97.7948 15.8013 97.9259 15.8587 98.0325 15.9734C98.139 16.08 98.1923 16.207 98.1923 16.3545V21.186H97.639C97.4833 21.186 97.3481 21.1328 97.2333 21.0262C97.1268 20.9115 97.0735 20.7762 97.0735 20.6205V15.8013H97.639ZM100.958 12.568C101.114 12.568 101.245 12.6254 101.352 12.7401C101.467 12.8467 101.524 12.9778 101.524 13.1335V13.6376H94.3074C94.209 13.6376 94.1148 13.613 94.0246 13.5638C93.9427 13.5146 93.8771 13.4491 93.8279 13.3671C93.7788 13.277 93.7542 13.1827 93.7542 13.0843V12.568H100.958Z" fill="white"/>
<path d="M1.11747 35.9875V31.1437H8.40777V31.66C8.40777 31.8076 8.3504 31.9387 8.23565 32.0534C8.12911 32.16 7.99797 32.2133 7.84225 32.2133H2.23622V35.9875H1.11747ZM1.67069 27.3695H9.1577V27.8858C9.1577 28.0415 9.10033 28.1727 8.98558 28.2792C8.87904 28.3858 8.7479 28.439 8.59218 28.439H1.11747V27.935C1.11747 27.7793 1.17074 27.6481 1.27729 27.5416C1.38384 27.4268 1.51497 27.3695 1.67069 27.3695Z" fill="white"/>
<path d="M21.2252 34.9056C21.3071 34.9056 21.3809 34.922 21.4464 34.9548C21.5202 34.9876 21.5817 35.0286 21.6309 35.0777C21.68 35.1269 21.7169 35.1884 21.7415 35.2622C21.7743 35.3277 21.7907 35.3974 21.7907 35.4712V35.9875H13.6275V34.9056H21.2252ZM21.6677 27.8858C21.6677 27.9842 21.6431 28.0784 21.594 28.1686C21.5448 28.2505 21.4751 28.3161 21.385 28.3653C21.303 28.4144 21.2088 28.439 21.1022 28.439H13.6275V27.3695H21.6677V27.8858ZM20.9178 31.66C20.9178 31.8076 20.8604 31.9387 20.7457 32.0534C20.6391 32.16 20.508 32.2133 20.3523 32.2133H13.6275V31.1437H20.9178V31.66Z" fill="white"/>
<path d="M31.9986 31.1437C32.6706 31.1437 33.2403 31.3814 33.7074 31.8567C34.1828 32.3321 34.4205 32.9058 34.4205 33.5779C34.4205 34.2418 34.1828 34.8114 33.7074 35.2867C33.2403 35.7621 32.6706 35.9998 31.9986 35.9998L26.4171 35.9875H26.3802V35.4712C26.3802 35.3154 26.4335 35.1843 26.5401 35.0777C26.6548 34.963 26.79 34.9056 26.9458 34.9056H32.0846C32.4371 34.8892 32.7321 34.754 32.9698 34.4999C33.2157 34.2377 33.3386 33.9262 33.3386 33.5656C33.3386 33.1968 33.2075 32.8812 32.9452 32.619C32.6829 32.3567 32.3674 32.2256 31.9986 32.2256H31.974C31.8183 32.2256 31.6871 32.1723 31.5806 32.0657C31.474 31.951 31.4208 31.8158 31.4208 31.66V31.1437H31.9986ZM28.6915 32.2133C28.2489 32.2133 27.8391 32.1067 27.4621 31.8936C27.0933 31.6723 26.8023 31.3773 26.5892 31.0085C26.3762 30.6396 26.2696 30.2339 26.2696 29.7914C26.2696 29.1193 26.5032 28.5497 26.9704 28.0825C27.4457 27.6071 28.0194 27.3695 28.6915 27.3695C28.7161 27.3695 28.7448 27.3695 28.7776 27.3695H34.0763V27.8858C34.0763 27.9596 34.0599 28.0333 34.0271 28.1071C34.0025 28.1727 33.9656 28.23 33.9164 28.2792C33.8673 28.3284 33.8058 28.3694 33.732 28.4022C33.6665 28.4267 33.5968 28.439 33.523 28.439H28.6915V28.4513C28.3227 28.4513 28.0071 28.5825 27.7449 28.8447C27.4826 29.107 27.3515 29.4225 27.3515 29.7914C27.3515 30.1602 27.4826 30.4757 27.7449 30.738C28.0071 31.0003 28.3227 31.1314 28.6915 31.1314V31.1437H28.7038C28.8103 31.1437 28.9046 31.1683 28.9866 31.2175C29.0767 31.2666 29.1464 31.3363 29.1956 31.4265C29.2447 31.5084 29.2693 31.5986 29.2693 31.6969V32.2133H28.6915Z" fill="white"/>
<path d="M42.7846 30.6028C42.9403 30.6028 43.0714 30.6601 43.178 30.7749C43.2845 30.8814 43.3378 31.0085 43.3378 31.156V35.9875H42.7846C42.6289 35.9875 42.4936 35.9342 42.3789 35.8277C42.2723 35.7129 42.2191 35.5777 42.2191 35.422V30.6028H42.7846ZM46.1039 27.3695C46.2597 27.3695 46.3908 27.4268 46.4973 27.5416C46.6121 27.6481 46.6695 27.7793 46.6695 27.935V28.439H39.4529C39.3546 28.439 39.2603 28.4144 39.1702 28.3653C39.0882 28.3161 39.0226 28.2505 38.9735 28.1686C38.9243 28.0784 38.8997 27.9842 38.8997 27.8858V27.3695H46.1039Z" fill="white"/>
<path d="M1.02344 12.5635H2.18434V21.2122H1.02344V12.5635Z" fill="white"/>
<g filter="url(#filter0_d_337_7309)">
<path fill-rule="evenodd" clip-rule="evenodd" d="M4.48609 2.79198C4.48609 2.4444 4.29782 2.14028 4.02265 1.97614C4.19161 1.80236 4.29299 1.56581 4.29299 1.30513C4.29299 0.783767 3.86818 0.354126 3.34198 0.354126H3.30819H0.99585V0.556878C0.99585 0.566946 0.996502 0.576827 0.997764 0.586487H0.993896V3.73773H0.99585V3.73816C3.62198 3.73816 3.53508 3.74298 3.53508 3.74298C4.06127 3.74298 4.48609 3.31817 4.48609 2.79198ZM1.46658 1.83615V0.77894H3.34198C3.63163 0.77894 3.86818 1.01548 3.86818 1.30513C3.86818 1.5996 3.63163 1.83615 3.34198 1.83615H1.46658ZM2.74338 2.26096H1.46658V3.31817H3.53508C3.82473 3.31817 4.06127 3.08162 4.06127 2.79198C4.06127 2.50233 3.82473 2.26579 3.53508 2.26579V2.26096H2.74338ZM9.94068 3.73816L8.21728 0.354126H7.9566C7.8166 0.354126 7.69109 0.436192 7.62351 0.556878L6.00631 3.73816H6.48906L7.97108 0.832042L9.2407 3.31817H7.67661L7.45937 3.73816H9.94068ZM12.2284 1.62374C12.3491 1.62374 12.4505 1.72512 12.4505 1.8458V3.73816H12.2284C12.1077 3.73816 12.0112 3.64161 12.0112 3.52092V1.62374H12.2284ZM13.5367 0.354126C13.6574 0.354126 13.7539 0.455502 13.7539 0.576188V0.77894H10.925C10.8043 0.77894 10.703 0.682391 10.703 0.556878V0.354126H13.5367ZM15.7338 2.04855C15.7338 1.34858 16.3035 0.77894 17.0034 0.77894H18.2489C18.3696 0.77894 18.471 0.682391 18.471 0.556878V0.354126H17.0034C16.0669 0.354126 15.309 1.11203 15.309 2.04855C15.309 2.98508 16.0669 3.74298 17.0034 3.74298C17.0034 3.74298 16.9841 3.73816 18.471 3.73816V3.54023C18.471 3.41472 18.3696 3.31817 18.2489 3.31817H17.0034C16.3035 3.31817 15.7338 2.74853 15.7338 2.04855ZM21.7054 0.354126L23.4288 3.73816H20.9475L21.1648 3.31817H22.7289L21.4592 0.832042L19.9772 3.73816H19.4945L21.1117 0.556878C21.1793 0.436192 21.3048 0.354126 21.4448 0.354126H21.7054ZM25.6152 2.19338L24.7656 0.527914C24.7125 0.42171 24.6015 0.354126 24.4856 0.354126H24.1911L25.4463 2.81129L25.6152 2.4782C25.6587 2.3913 25.6587 2.28027 25.6152 2.19338ZM28.1255 0.354126H27.8358C27.7152 0.354126 27.6089 0.42171 27.551 0.527914L25.9145 3.74298H26.4021L28.1255 0.354126ZM32.4454 3.31817C32.566 3.31817 32.6674 3.41472 32.6674 3.54023V3.73816H29.4572V3.31817H29.4587V2.26096H29.4572V1.83615H29.4587V0.77894H29.4572V0.354126H32.6192V0.556878C32.6192 0.682391 32.5178 0.77894 32.3971 0.77894H29.9314V1.83615H32.3199V2.0389C32.3199 2.15959 32.2233 2.26096 32.0978 2.26096H29.9314V3.31817H32.4454Z" fill="#1AABFF"/>
<path d="M34.6552 0.880259H34.2707C34.2707 0.793075 34.3117 0.749482 34.3936 0.749482H35.1862C35.1862 0.836667 35.1452 0.880259 35.0633 0.880259H34.8033V1.7437C34.8033 1.78361 34.7907 1.81408 34.7655 1.83509C34.7403 1.85609 34.7035 1.8666 34.6552 1.8666V0.880259ZM35.4382 0.8582C35.4382 0.819335 35.4514 0.789398 35.4776 0.76839C35.5039 0.746331 35.5401 0.735302 35.5863 0.735302L35.9676 1.65074L35.9377 1.72479L35.9487 1.72952L36.3521 0.735302C36.3983 0.735302 36.4345 0.746331 36.4608 0.76839C36.4881 0.790449 36.5018 0.820911 36.5018 0.859776V1.8666C36.4041 1.8666 36.3552 1.82616 36.3552 1.74527V1.08194L36.3962 0.973221L36.3836 0.970069L36.0322 1.82406C36.027 1.83666 36.0186 1.84664 36.007 1.85399C35.9955 1.8624 35.9834 1.8666 35.9708 1.8666C35.9571 1.8666 35.9445 1.86292 35.933 1.85557C35.9214 1.84822 35.913 1.83771 35.9078 1.82406L35.5564 0.968494L35.5438 0.973221L35.5848 1.08036V1.74527C35.5848 1.78519 35.5721 1.81565 35.5469 1.83666C35.5228 1.85662 35.4865 1.8666 35.4382 1.8666V0.8582Z" fill="#1AABFF"/>
<path d="M18.0598 6.05371L18.4789 5.00277H18.5924L19.0099 6.05371H18.8886L18.5246 5.10834L18.5482 5.10519L18.1827 6.05371H18.0598ZM18.2441 5.72598L18.293 5.61726H18.8082L18.8161 5.72598H18.2441ZM20.1531 6.06947C20.0229 6.06947 19.9215 6.03113 19.849 5.95445C19.7776 5.87777 19.7419 5.768 19.7419 5.62514V5.00277H19.8553V5.63144C19.8553 5.74384 19.8806 5.82735 19.931 5.88197C19.9814 5.93554 20.0554 5.96232 20.1531 5.96232C20.2508 5.96232 20.3254 5.93554 20.3769 5.88197C20.4283 5.82735 20.4541 5.74384 20.4541 5.63144V5.00277H20.5644V5.62514C20.5644 5.72073 20.5481 5.80161 20.5155 5.86779C20.483 5.93396 20.4362 5.98438 20.3753 6.01905C20.3144 6.05266 20.2403 6.06947 20.1531 6.06947ZM21.6695 6.05371V5.10991H21.2976V5.00277H22.1532V5.10991H21.7829V6.05371H21.6695ZM23.2945 6.06947C23.1905 6.06947 23.1033 6.04951 23.033 6.00959C22.9636 5.96863 22.9111 5.90823 22.8754 5.8284C22.8407 5.74857 22.8234 5.64878 22.8234 5.52903C22.8234 5.35046 22.8628 5.21601 22.9416 5.12567C23.0214 5.03428 23.1391 4.98859 23.2945 4.98859C23.3996 4.98859 23.4867 5.00907 23.5561 5.05004C23.6264 5.08996 23.679 5.14983 23.7136 5.22966C23.7493 5.30949 23.7672 5.40928 23.7672 5.52903C23.7672 5.7076 23.7273 5.84258 23.6475 5.93396C23.5687 6.0243 23.451 6.06947 23.2945 6.06947ZM23.2945 5.96232C23.3775 5.96232 23.4452 5.94709 23.4978 5.91663C23.5503 5.88617 23.5886 5.8389 23.6128 5.77483C23.638 5.71075 23.6506 5.62882 23.6506 5.52903C23.6506 5.42924 23.638 5.34783 23.6128 5.28481C23.5886 5.22073 23.5503 5.17346 23.4978 5.143C23.4452 5.11149 23.3775 5.09573 23.2945 5.09573C23.2126 5.09573 23.1454 5.11149 23.0928 5.143C23.0403 5.17346 23.0014 5.22073 22.9762 5.28481C22.9521 5.34783 22.94 5.42924 22.94 5.52903C22.94 5.62882 22.9521 5.71075 22.9762 5.77483C23.0014 5.8389 23.0403 5.88617 23.0928 5.91663C23.1454 5.94709 23.2126 5.96232 23.2945 5.96232ZM24.5625 6.05371V5.00277H24.6854L25.0746 5.59993L24.9974 5.61726L25.4086 5.00277H25.5315V6.05371H25.4181V5.11622H25.4685L25.0352 5.72441L24.635 5.12882L24.6759 5.07052V6.05371H24.5625ZM26.7985 6.06947C26.6946 6.06947 26.6074 6.04951 26.537 6.00959C26.4677 5.96863 26.4151 5.90823 26.3794 5.8284C26.3448 5.74857 26.3274 5.64878 26.3274 5.52903C26.3274 5.35046 26.3668 5.21601 26.4456 5.12567C26.5254 5.03428 26.6431 4.98859 26.7985 4.98859C26.9036 4.98859 26.9908 5.00907 27.0601 5.05004C27.1305 5.08996 27.183 5.14983 27.2177 5.22966C27.2534 5.30949 27.2712 5.40928 27.2712 5.52903C27.2712 5.7076 27.2313 5.84258 27.1515 5.93396C27.0727 6.0243 26.9551 6.06947 26.7985 6.06947ZM26.7985 5.96232C26.8815 5.96232 26.9493 5.94709 27.0018 5.91663C27.0543 5.88617 27.0927 5.8389 27.1168 5.77483C27.142 5.71075 27.1546 5.62882 27.1546 5.52903C27.1546 5.42924 27.142 5.34783 27.1168 5.28481C27.0927 5.22073 27.0543 5.17346 27.0018 5.143C26.9493 5.11149 26.8815 5.09573 26.7985 5.09573C26.7166 5.09573 26.6494 5.11149 26.5969 5.143C26.5443 5.17346 26.5055 5.22073 26.4803 5.28481C26.4561 5.34783 26.444 5.42924 26.444 5.52903C26.444 5.62882 26.4561 5.71075 26.4803 5.77483C26.5055 5.8389 26.5443 5.88617 26.5969 5.91663C26.6494 5.94709 26.7166 5.96232 26.7985 5.96232ZM28.3129 6.05371V5.10991H27.941V5.00277H28.7966V5.10991H28.4263V6.05371H28.3129ZM29.5293 6.05371V5.00277H29.6427V6.05371H29.5293ZM30.779 6.05371L30.3757 5.00277H30.497L30.861 5.9576H30.82L31.1777 5.00592L31.2943 5.00277L30.8909 6.05371H30.779ZM32.027 6.05371V5.00277H32.6903V5.10991H32.1404V5.47231H32.6242V5.5826H32.1404V5.94657H32.6903V6.05371H32.027Z" fill="#1AABFF"/>
</g>
<defs>
<filter id="filter0_d_337_7309" x="0.302835" y="0" width="37.086" height="7.53691" filterUnits="userSpaceOnUse" color-interpolation-filters="sRGB">
<feFlood flood-opacity="0" result="BackgroundImageFix"/>
<feColorMatrix in="SourceAlpha" type="matrix" values="0 0 0 0 0 0 0 0 0 0 0 0 0 0 0 0 0 0 127 0" result="hardAlpha"/>
<feOffset dy="0.691062"/>
<feGaussianBlur stdDeviation="0.345531"/>
<feComposite in2="hardAlpha" operator="out"/>
<feColorMatrix type="matrix" values="0 0 0 0 0 0 0 0 0 0 0 0 0 0 0 0 0 0 0.25 0"/>
<feBlend mode="normal" in2="BackgroundImageFix" result="effect1_dropShadow_337_7309"/>
<feBlend mode="normal" in="SourceGraphic" in2="effect1_dropShadow_337_7309" result="shape"/>
</filter>
</defs>
</svg>
