<svg width="89" height="36" viewBox="0 0 89 36" fill="none" xmlns="http://www.w3.org/2000/svg">
<g filter="url(#filter0_d_337_7751)">
<path fill-rule="evenodd" clip-rule="evenodd" d="M4.47624 2.78321C4.47624 2.43677 4.28858 2.13363 4.0143 1.97003C4.18272 1.7968 4.28376 1.56103 4.28376 1.30119C4.28376 0.781519 3.86033 0.353271 3.33584 0.353271H3.30216H0.997314V0.555366C0.997314 0.565519 0.99798 0.575482 0.999267 0.585219H0.995361V3.72623H0.997314V3.72632C3.61493 3.72632 3.52831 3.73113 3.52831 3.73113C4.0528 3.73113 4.47624 3.3077 4.47624 2.78321ZM1.46651 1.83048V0.776707H3.33584C3.62455 0.776707 3.86033 1.01248 3.86033 1.30119C3.86033 1.59471 3.62455 1.83048 3.33584 1.83048H1.46651ZM2.73918 2.25392H1.46651V3.3077H3.52831C3.81702 3.3077 4.0528 3.07192 4.0528 2.78321C4.0528 2.49451 3.81702 2.25873 3.52831 2.25873V2.25392H2.73918ZM9.91314 3.72632L8.19533 0.353271H7.9355C7.79595 0.353271 7.67085 0.435072 7.60348 0.555366L5.99153 3.72632H6.47271L7.94993 0.829636L9.21543 3.3077H7.65641L7.43988 3.72632H9.91314ZM12.1935 1.61877C12.3138 1.61877 12.4148 1.71981 12.4148 1.84011V3.72632H12.1935C12.0732 3.72632 11.9769 3.63009 11.9769 3.50979V1.61877H12.1935ZM13.4975 0.353271C13.6178 0.353271 13.714 0.454319 13.714 0.574613V0.776707H10.8943C10.774 0.776707 10.673 0.680472 10.673 0.555366V0.353271H13.4975ZM15.6875 2.0422C15.6875 1.3445 16.2553 0.776707 16.953 0.776707H18.1944C18.3147 0.776707 18.4158 0.680472 18.4158 0.555366V0.353271H16.953C16.0195 0.353271 15.2641 1.10872 15.2641 2.0422C15.2641 2.97569 16.0195 3.73113 16.953 3.73113C16.953 3.73113 16.9338 3.72632 18.4158 3.72632V3.52904C18.4158 3.40393 18.3147 3.3077 18.1944 3.3077H16.953C16.2553 3.3077 15.6875 2.73991 15.6875 2.0422ZM21.6398 0.353271L23.3576 3.72632H20.8843L21.1008 3.3077H22.6599L21.3944 0.829636L19.9171 3.72632H19.436L21.0479 0.555366C21.1153 0.435072 21.2404 0.353271 21.3799 0.353271H21.6398ZM25.5369 2.18656L24.69 0.526495C24.6371 0.420636 24.5264 0.353271 24.4109 0.353271H24.1174L25.3684 2.80246L25.5369 2.47045C25.5802 2.38384 25.5802 2.27317 25.5369 2.18656ZM28.039 0.353271H27.7503C27.63 0.353271 27.5241 0.420636 27.4664 0.526495L25.8352 3.73113H26.3212L28.039 0.353271ZM32.3449 3.3077C32.4652 3.3077 32.5662 3.40393 32.5662 3.52904V3.72632H29.3664V3.3077H29.3675V2.25392H29.3664V1.83048H29.3675V0.776707H29.3664V0.353271H32.5181V0.555366C32.5181 0.680472 32.417 0.776707 32.2967 0.776707H29.8387V1.83048H32.2198V2.03258C32.2198 2.15287 32.1235 2.25392 31.9984 2.25392H29.8387V3.3077H32.3449Z" fill="#1AABFF"/>
<path d="M34.5485 0.884022H34.1653C34.1653 0.797121 34.2062 0.75367 34.2878 0.75367H35.0778C35.0778 0.840572 35.037 0.884022 34.9553 0.884022H34.6962V1.74466C34.6962 1.78445 34.6836 1.81481 34.6585 1.83575C34.6333 1.85669 34.5967 1.86716 34.5485 1.86716V0.884022ZM35.329 0.862035C35.329 0.823296 35.3421 0.793456 35.3683 0.772516C35.3945 0.750529 35.4306 0.739535 35.4767 0.739535L35.8567 1.652L35.8269 1.72582L35.8379 1.73053L36.2399 0.739535C36.286 0.739535 36.3221 0.750529 36.3483 0.772516C36.3755 0.794503 36.3891 0.824867 36.3891 0.863606V1.86716C36.2918 1.86716 36.2431 1.82685 36.2431 1.74623V1.08505L36.2839 0.976683L36.2713 0.973542L35.9211 1.82476C35.9159 1.83732 35.9075 1.84727 35.896 1.8546C35.8845 1.86297 35.8724 1.86716 35.8599 1.86716C35.8463 1.86716 35.8337 1.8635 35.8222 1.85617C35.8107 1.84884 35.8023 1.83837 35.797 1.82476L35.4468 0.971971L35.4343 0.976683L35.4751 1.08348V1.74623C35.4751 1.78602 35.4625 1.81638 35.4374 1.83732C35.4133 1.85722 35.3772 1.86716 35.329 1.86716V0.862035Z" fill="#1AABFF"/>
<path d="M18.0539 6.04053L18.4717 4.993H18.5848L19.0009 6.04053H18.88L18.5172 5.09822L18.5408 5.09508L18.1764 6.04053H18.0539ZM18.2377 5.71386L18.2864 5.6055H18.7999L18.8078 5.71386H18.2377ZM20.1405 6.05623C20.0106 6.05623 19.9096 6.01802 19.8374 5.94159C19.7662 5.86515 19.7306 5.75574 19.7306 5.61335V4.993H19.8436V5.61963C19.8436 5.73166 19.8688 5.8149 19.919 5.86934C19.9693 5.92274 20.0431 5.94944 20.1405 5.94944C20.2378 5.94944 20.3122 5.92274 20.3635 5.86934C20.4148 5.8149 20.4404 5.73166 20.4404 5.61963V4.993H20.5504V5.61335C20.5504 5.70863 20.5341 5.78925 20.5017 5.85521C20.4692 5.92117 20.4226 5.97142 20.3619 6.00598C20.3012 6.03948 20.2274 6.05623 20.1405 6.05623ZM21.6519 6.04053V5.09979H21.2813V4.993H22.134V5.09979H21.765V6.04053H21.6519ZM23.2717 6.05623C23.168 6.05623 23.0811 6.03634 23.011 5.99655C22.9419 5.95572 22.8895 5.89552 22.8539 5.81594C22.8194 5.73637 22.8021 5.63691 22.8021 5.51755C22.8021 5.33956 22.8413 5.20554 22.9199 5.1155C22.9994 5.02441 23.1167 4.97886 23.2717 4.97886C23.3764 4.97886 23.4633 4.99928 23.5324 5.04011C23.6025 5.0799 23.6549 5.13958 23.6894 5.21915C23.725 5.29872 23.7428 5.39819 23.7428 5.51755C23.7428 5.69554 23.703 5.83008 23.6235 5.92117C23.5449 6.01121 23.4277 6.05623 23.2717 6.05623ZM23.2717 5.94944C23.3544 5.94944 23.4219 5.93426 23.4743 5.90389C23.5266 5.87353 23.5648 5.82641 23.5889 5.76255C23.614 5.69868 23.6266 5.61701 23.6266 5.51755C23.6266 5.41808 23.614 5.33694 23.5889 5.27412C23.5648 5.21025 23.5266 5.16314 23.4743 5.13277C23.4219 5.10136 23.3544 5.08566 23.2717 5.08566C23.19 5.08566 23.123 5.10136 23.0706 5.13277C23.0183 5.16314 22.9795 5.21025 22.9544 5.27412C22.9303 5.33694 22.9183 5.41808 22.9183 5.51755C22.9183 5.61701 22.9303 5.69868 22.9544 5.76255C22.9795 5.82641 23.0183 5.87353 23.0706 5.90389C23.123 5.93426 23.19 5.94944 23.2717 5.94944ZM24.5355 6.04053V4.993H24.658L25.0459 5.58822L24.969 5.6055L25.3789 4.993H25.5014V6.04053H25.3883V5.10607H25.4386L25.0067 5.71229L24.6078 5.11864L24.6486 5.06053V6.04053H24.5355ZM26.7643 6.05623C26.6607 6.05623 26.5738 6.03634 26.5036 5.99655C26.4345 5.95572 26.3822 5.89552 26.3466 5.81594C26.312 5.73637 26.2947 5.63691 26.2947 5.51755C26.2947 5.33956 26.334 5.20554 26.4125 5.1155C26.4921 5.02441 26.6094 4.97886 26.7643 4.97886C26.869 4.97886 26.9559 4.99928 27.025 5.04011C27.0952 5.0799 27.1475 5.13958 27.1821 5.21915C27.2177 5.29872 27.2355 5.39819 27.2355 5.51755C27.2355 5.69554 27.1957 5.83008 27.1161 5.92117C27.0376 6.01121 26.9203 6.05623 26.7643 6.05623ZM26.7643 5.94944C26.847 5.94944 26.9146 5.93426 26.9669 5.90389C27.0193 5.87353 27.0575 5.82641 27.0816 5.76255C27.1067 5.69868 27.1193 5.61701 27.1193 5.51755C27.1193 5.41808 27.1067 5.33694 27.0816 5.27412C27.0575 5.21025 27.0193 5.16314 26.9669 5.13277C26.9146 5.10136 26.847 5.08566 26.7643 5.08566C26.6827 5.08566 26.6157 5.10136 26.5633 5.13277C26.511 5.16314 26.4722 5.21025 26.4471 5.27412C26.423 5.33694 26.411 5.41808 26.411 5.51755C26.411 5.61701 26.423 5.69868 26.4471 5.76255C26.4722 5.82641 26.511 5.87353 26.5633 5.90389C26.6157 5.93426 26.6827 5.94944 26.7643 5.94944ZM28.2738 6.04053V5.09979H27.9031V4.993H28.7559V5.09979H28.3868V6.04053H28.2738ZM29.4862 6.04053V4.993H29.5993V6.04053H29.4862ZM30.7319 6.04053L30.3299 4.993H30.4508L30.8136 5.94473H30.7727L31.1292 4.99614L31.2455 4.993L30.8434 6.04053H30.7319ZM31.9758 6.04053V4.993H32.637V5.09979H32.0889V5.46101H32.571V5.57094H32.0889V5.93373H32.637V6.04053H31.9758Z" fill="#1AABFF"/>
</g>
<path d="M83.8995 34.9307C83.9805 34.9307 84.0534 34.9469 84.1182 34.9793C84.1911 35.0117 84.2519 35.0522 84.3005 35.1008C84.3491 35.1494 84.3855 35.2101 84.4098 35.283C84.4422 35.3478 84.4584 35.4167 84.4584 35.4896V35.9999H76.3909V34.9307H83.8995ZM84.3369 27.9931C84.3369 28.0903 84.3126 28.1834 84.264 28.2725C84.2154 28.3535 84.1466 28.4183 84.0575 28.4669C83.9765 28.5155 83.8833 28.5398 83.778 28.5398H76.3909V27.4828H84.3369V27.9931ZM83.5958 31.7231C83.5958 31.8689 83.5391 31.9985 83.4257 32.1119C83.3204 32.2172 83.1908 32.2698 83.0369 32.2698H76.3909V31.2128H83.5958V31.7231Z" fill="white"/>
<path d="M65.5542 27.9198L67.6805 32.0994C67.802 32.3424 67.802 32.5854 67.6805 32.8284L67.2552 33.6667L64.1084 27.4824H64.8374C64.9346 27.4824 65.0277 27.5027 65.1168 27.5432C65.214 27.5756 65.2991 27.6242 65.372 27.689C65.4449 27.7538 65.5056 27.8307 65.5542 27.9198ZM73.2816 27.4824H74.0106L69.6731 35.9995H68.4459L72.5647 27.9198C72.6295 27.7821 72.7267 27.6768 72.8563 27.6039C72.9859 27.5229 73.1277 27.4824 73.2816 27.4824Z" fill="white"/>
<path d="M58.8127 27.4828L63.1502 35.9999H56.9173L57.4519 34.9307H61.3885L58.2052 28.6856L54.4752 35.9999H53.248L57.3304 27.9931C57.4114 27.8392 57.5248 27.7177 57.6706 27.6286C57.8245 27.5314 57.9906 27.4828 58.1688 27.4828H58.8127Z" fill="white"/>
<path d="M49.8509 34.9308C50.0048 34.9308 50.1344 34.9875 50.2397 35.1009C50.3531 35.2062 50.4098 35.3358 50.4098 35.4897V36H48.1013C47.3399 35.9919 46.6352 35.7975 45.9872 35.4168C45.3393 35.0361 44.829 34.5217 44.4564 33.8738C44.0838 33.2177 43.8975 32.5049 43.8975 31.7354V27.4829H44.4442C44.5981 27.4829 44.7277 27.5356 44.833 27.6409C44.9464 27.7462 45.0031 27.8758 45.0031 28.0297V31.7354C45.0031 32.6264 45.3069 33.3837 45.9143 34.0074C46.5299 34.623 47.2751 34.9308 48.1499 34.9308H49.8509Z" fill="white"/>
<path d="M37.2691 28.54C36.3862 28.54 35.6329 28.8558 35.0092 29.4876C34.3855 30.1113 34.0736 30.8646 34.0736 31.7475C34.0736 32.6223 34.3855 33.3716 35.0092 33.9952C35.6329 34.6189 36.3862 34.9308 37.2691 34.9308H40.4038C40.5577 34.9308 40.6873 34.9875 40.7926 35.1009C40.906 35.2062 40.9627 35.3358 40.9627 35.4897V36H37.2691C36.4996 36 35.7868 35.8096 35.1307 35.4289C34.4827 35.0482 33.9683 34.5339 33.5877 33.8859C33.207 33.2298 33.0166 32.517 33.0166 31.7475C33.0166 30.9699 33.207 30.2571 33.5877 29.6091C33.9683 28.953 34.4827 28.4347 35.1307 28.054C35.7868 27.6733 36.4996 27.4829 37.2691 27.4829H40.9627V27.9932C40.9627 28.0499 40.9505 28.1066 40.9262 28.1633C40.91 28.22 40.8857 28.2727 40.8533 28.3213C40.8209 28.3618 40.7804 28.4023 40.7318 28.4428C40.6913 28.4752 40.6427 28.4995 40.586 28.5157C40.5293 28.5319 40.4686 28.54 40.4038 28.54H37.2691Z" fill="white"/>
<path d="M29.5042 27.4824H30.0631V35.9995H28.7631L23.49 28.8918V31.7106C23.49 31.8645 23.4333 31.9981 23.3199 32.1115C23.2146 32.2168 23.085 32.2695 22.9311 32.2695H22.3722V27.4824H22.4451H23.6722L28.9575 34.5901V28.0413C28.9575 27.8874 29.0101 27.7578 29.1154 27.6525C29.2207 27.5391 29.3503 27.4824 29.5042 27.4824Z" fill="white"/>
<path d="M13.5089 28.0536C14.165 27.6729 14.8778 27.4825 15.6473 27.4825C16.4248 27.4825 17.1376 27.6729 17.7856 28.0536C18.4417 28.4343 18.9601 28.9527 19.3408 29.6088C19.7215 30.2568 19.9119 30.9696 19.9119 31.7472C19.9119 32.5166 19.7215 33.2294 19.3408 33.8855C18.9601 34.5335 18.4417 35.0479 17.7856 35.4286C17.1376 35.8093 16.4248 35.9996 15.6473 35.9996C14.8778 35.9996 14.165 35.8093 13.5089 35.4286C12.8609 35.0479 12.3465 34.5335 11.9658 33.8855C11.5851 33.2294 11.3948 32.5166 11.3948 31.7472C11.3948 30.9696 11.5851 30.2568 11.9658 29.6088C12.3465 28.9527 12.8609 28.4343 13.5089 28.0536ZM13.3874 33.9949C14.0111 34.6186 14.7644 34.9304 15.6473 34.9304C16.5301 34.9304 17.2834 34.6186 17.9071 33.9949C18.5308 33.3712 18.8427 32.6219 18.8427 31.7472C18.8427 30.8643 18.5308 30.111 17.9071 29.4873C17.2834 28.8555 16.5301 28.5396 15.6473 28.5396C14.7644 28.5396 14.0111 28.8555 13.3874 29.4873C12.7637 30.111 12.4518 30.8643 12.4518 31.7472C12.4518 32.6219 12.7637 33.3712 13.3874 33.9949Z" fill="white"/>
<path d="M5.2537 28.5395C4.3708 28.5395 3.61751 28.8554 2.99381 29.4872C2.37011 30.1108 2.05826 30.8641 2.05826 31.747C2.05826 32.6218 2.37011 33.3711 2.99381 33.9948C3.61751 34.6185 4.3708 34.9303 5.2537 34.9303H8.38838C8.54228 34.9303 8.67188 34.987 8.77718 35.1004C8.89058 35.2057 8.94728 35.3353 8.94728 35.4892V35.9995H5.2537C4.4842 35.9995 3.77141 35.8091 3.11531 35.4284C2.46731 35.0478 1.95297 34.5334 1.57227 33.8854C1.19157 33.2293 1.00122 32.5165 1.00122 31.747C1.00122 30.9694 1.19157 30.2566 1.57227 29.6087C1.95297 28.9526 2.46731 28.4342 3.11531 28.0535C3.77141 27.6728 4.4842 27.4824 5.2537 27.4824H8.94728V27.9927C8.94728 28.0494 8.93513 28.1061 8.91083 28.1628C8.89463 28.2195 8.87033 28.2722 8.83793 28.3208C8.80553 28.3613 8.76503 28.4018 8.71643 28.4423C8.67593 28.4747 8.62733 28.499 8.57063 28.5152C8.51393 28.5314 8.45318 28.5395 8.38838 28.5395H5.2537Z" fill="white"/>
<path d="M84.5485 12.4397C85.3423 12.4316 86.0713 12.6179 86.7355 12.9986C87.3997 13.3793 87.9221 13.8977 88.3028 14.5538C88.6835 15.2099 88.8739 15.9227 88.8739 16.6922C88.8739 17.2754 88.7605 17.8302 88.5337 18.3567C88.3069 18.8832 88.0031 19.3368 87.6224 19.7175C87.2417 20.0982 86.7881 20.4019 86.2616 20.6287C85.7432 20.8474 85.1924 20.9568 84.6092 20.9568H82.3979H80.7334V20.4465C80.7334 20.2926 80.786 20.163 80.8913 20.0577C80.9966 19.9443 81.1263 19.8876 81.2801 19.8876H84.6092C85.4921 19.8876 86.2454 19.5757 86.8691 18.952C87.4928 18.3284 87.8047 17.5791 87.8047 16.7043C87.8047 15.8214 87.4928 15.0681 86.8691 14.4444C86.2454 13.8126 85.4921 13.4967 84.6092 13.4967H81.2801C81.183 13.4967 81.0898 13.4724 81.0007 13.4238C80.9197 13.3752 80.8549 13.3104 80.8063 13.2294C80.7577 13.1403 80.7334 13.0472 80.7334 12.95V12.4397H84.5485Z" fill="white"/>
<path d="M73.6223 12.4397L77.9598 20.9568H71.7269L72.2615 19.8876H76.1981L73.0148 13.6425L69.2848 20.9568H68.0576L72.14 12.95C72.221 12.7961 72.3344 12.6746 72.4802 12.5855C72.6341 12.4883 72.8001 12.4397 72.9783 12.4397H73.6223Z" fill="white"/>
<path d="M64.6493 19.8878C64.7303 19.8878 64.8032 19.904 64.868 19.9364C64.9409 19.9688 65.0016 20.0093 65.0502 20.0579C65.0988 20.1065 65.1353 20.1673 65.1596 20.2402C65.192 20.305 65.2082 20.3738 65.2082 20.4467V20.957H57.1406V19.8878H64.6493ZM65.0867 12.9502C65.0867 13.0474 65.0624 13.1406 65.0138 13.2297C64.9652 13.3107 64.8963 13.3755 64.8072 13.4241C64.7262 13.4727 64.6331 13.497 64.5278 13.497H57.1406V12.4399H65.0867V12.9502ZM64.3455 16.6803C64.3455 16.8261 64.2888 16.9556 64.1754 17.069C64.0701 17.1743 63.9405 17.227 63.7866 17.227H57.1406V16.17H64.3455V16.6803Z" fill="white"/>
<path d="M47.0423 12.4399C47.1962 12.4399 47.3258 12.4966 47.4311 12.61C47.5364 12.7153 47.589 12.8449 47.589 12.9988V20.957H47.0423C46.8884 20.957 46.7547 20.9044 46.6413 20.7991C46.536 20.6857 46.4834 20.552 46.4834 20.3981V12.4399H47.0423ZM53.6154 12.4399C53.7693 12.4399 53.8989 12.4966 54.0042 12.61C54.1095 12.7153 54.1622 12.8449 54.1622 12.9988V20.957H53.6154C53.5101 20.957 53.4129 20.9327 53.3238 20.8841C53.2428 20.8355 53.178 20.7707 53.1294 20.6897C53.0808 20.6006 53.0565 20.5034 53.0565 20.3981V16.6924H50.3349C50.2377 16.6924 50.1446 16.6681 50.0555 16.6195C49.9745 16.5709 49.9097 16.5061 49.8611 16.4251C49.8125 16.336 49.7882 16.2429 49.7882 16.1457V15.6354H53.0565V12.4399H53.6154Z" fill="white"/>
<path d="M42.1926 17.1779L44.1123 20.9565H43.359C43.0512 20.9565 42.8244 20.8188 42.6786 20.5434L40.9897 17.2265H37.0532V20.3976C37.0532 20.5515 36.9965 20.6852 36.8831 20.7986C36.7778 20.9039 36.6482 20.9565 36.4943 20.9565H35.9475V16.1695H41.6823V16.1573C42.0468 16.1573 42.3586 16.0277 42.6178 15.7685C42.877 15.5093 43.0066 15.1975 43.0066 14.833C43.0066 14.4685 42.877 14.1566 42.6178 13.8974C42.3586 13.6382 42.0468 13.5086 41.6823 13.5086V13.4965H36.5064C36.3525 13.4965 36.2189 13.4438 36.1055 13.3385C36.0002 13.2251 35.9475 13.0915 35.9475 12.9376V12.4395H41.6094C41.6337 12.4395 41.658 12.4395 41.6823 12.4395C42.3465 12.4395 42.9094 12.6744 43.3711 13.1441C43.8409 13.6058 44.0758 14.1688 44.0758 14.833C44.0758 15.2056 43.9948 15.5579 43.8328 15.89C43.6708 16.2221 43.444 16.5016 43.1524 16.7284C42.8689 16.9471 42.549 17.0969 42.1926 17.1779Z" fill="white"/>
<path d="M28.8246 12.4397L33.1621 20.9568H26.9292L27.4638 19.8876H31.4003L28.2171 13.6425L24.487 20.9568H23.2599L27.3423 12.95C27.4233 12.7961 27.5367 12.6746 27.6825 12.5855C27.8364 12.4883 28.0024 12.4397 28.1806 12.4397H28.8246Z" fill="white"/>
<path d="M19.8527 19.8876C19.9337 19.8876 20.0066 19.9038 20.0714 19.9362C20.1443 19.9686 20.205 20.0091 20.2536 20.0577C20.3022 20.1063 20.3386 20.167 20.3629 20.2399C20.3953 20.3047 20.4115 20.3736 20.4115 20.4465V20.9568H12.344V19.8876H19.8527ZM20.29 12.95C20.29 13.0472 20.2657 13.1403 20.2171 13.2294C20.1685 13.3104 20.0997 13.3752 20.0106 13.4238C19.9296 13.4724 19.8365 13.4967 19.7312 13.4967H12.344V12.4397H20.29V12.95ZM19.5489 16.68C19.5489 16.8258 19.4922 16.9554 19.3788 17.0688C19.2735 17.1741 19.1439 17.2268 18.99 17.2268H12.344V16.1697H19.5489V16.68Z" fill="white"/>
<path d="M9.40873 17.2265H9.96763V20.9565H8.84983H5.25345C4.48396 20.9565 3.77116 20.7662 3.11507 20.3855C2.46707 20.0048 1.95272 19.4904 1.57202 18.8424C1.19133 18.1863 1.00098 17.4736 1.00098 16.7041C1.00098 15.9265 1.19133 15.2137 1.57202 14.5657C1.95272 13.9096 2.46707 13.3912 3.11507 13.0105C3.77116 12.6298 4.48396 12.4395 5.25345 12.4395C5.25345 12.4395 5.29395 12.4395 5.37495 12.4395C5.46405 12.4395 5.85285 12.4395 6.54135 12.4395C7.23794 12.4395 8.20589 12.4395 9.44518 12.4395V12.9497C9.44518 13.1036 9.38848 13.2332 9.27508 13.3385C9.16978 13.4438 9.04018 13.4965 8.88628 13.4965H5.25345C4.37056 13.4965 3.61726 13.8124 2.99357 14.4442C2.36987 15.0679 2.05802 15.8212 2.05802 16.7041C2.05802 17.5789 2.36987 18.3281 2.99357 18.9518C3.61726 19.5755 4.37056 19.8873 5.25345 19.8873H8.84983V17.7854C8.84983 17.6315 8.90248 17.5019 9.00778 17.3966C9.12118 17.2832 9.25483 17.2265 9.40873 17.2265Z" fill="white"/>
<defs>
<filter id="filter0_d_337_7751" x="0.306541" y="0" width="36.9642" height="7.51241" filterUnits="userSpaceOnUse" color-interpolation-filters="sRGB">
<feFlood flood-opacity="0" result="BackgroundImageFix"/>
<feColorMatrix in="SourceAlpha" type="matrix" values="0 0 0 0 0 0 0 0 0 0 0 0 0 0 0 0 0 0 127 0" result="hardAlpha"/>
<feOffset dy="0.68882"/>
<feGaussianBlur stdDeviation="0.34441"/>
<feComposite in2="hardAlpha" operator="out"/>
<feColorMatrix type="matrix" values="0 0 0 0 0 0 0 0 0 0 0 0 0 0 0 0 0 0 0.25 0"/>
<feBlend mode="normal" in2="BackgroundImageFix" result="effect1_dropShadow_337_7751"/>
<feBlend mode="normal" in="SourceGraphic" in2="effect1_dropShadow_337_7751" result="shape"/>
</filter>
</defs>
</svg>
