<svg width="77" height="36" viewBox="0 0 77 36" fill="none" xmlns="http://www.w3.org/2000/svg">
<g filter="url(#filter0_d_337_7320)">
<path fill-rule="evenodd" clip-rule="evenodd" d="M4.56815 2.81033C4.56815 2.46054 4.37868 2.15447 4.10176 1.98929C4.27179 1.8144 4.37382 1.57634 4.37382 1.314C4.37382 0.789314 3.94629 0.356934 3.41674 0.356934H3.38273H1.05563V0.560978C1.05563 0.571173 1.05629 0.581178 1.05758 0.590958H1.05383V3.76229H1.05563V3.76254C3.69852 3.76254 3.61107 3.7674 3.61107 3.7674C4.14062 3.7674 4.56815 3.33987 4.56815 2.81033ZM1.52954 1.8484V0.784456H3.41674C3.70824 0.784456 3.94629 1.02251 3.94629 1.314C3.94629 1.61035 3.70824 1.8484 3.41674 1.8484H1.52954ZM2.81432 2.27593H1.52954V3.33987H3.61107C3.90257 3.33987 4.14062 3.10182 4.14062 2.81033C4.14062 2.51884 3.90257 2.28078 3.61107 2.28078V2.27593H2.81432ZM10.0576 3.76254L8.32316 0.356934H8.06082C7.91993 0.356934 7.79361 0.439523 7.7256 0.560978L6.09808 3.76254H6.58391L8.07539 0.837896L9.35312 3.33987H7.77904L7.56042 3.76254H10.0576ZM12.3599 1.63464C12.4814 1.63464 12.5834 1.73667 12.5834 1.85812V3.76254H12.3599C12.2385 3.76254 12.1413 3.66537 12.1413 3.54392V1.63464H12.3599ZM13.6765 0.356934C13.798 0.356934 13.8951 0.458956 13.8951 0.580411V0.784456H11.0482C10.9267 0.784456 10.8247 0.687292 10.8247 0.560978V0.356934H13.6765ZM15.8877 2.06217C15.8877 1.35772 16.461 0.784456 17.1654 0.784456H18.4189C18.5403 0.784456 18.6423 0.687292 18.6423 0.560978V0.356934H17.1654C16.2229 0.356934 15.4602 1.11967 15.4602 2.06217C15.4602 3.00466 16.2229 3.7674 17.1654 3.7674C17.1654 3.7674 17.146 3.76254 18.6423 3.76254V3.56335C18.6423 3.43704 18.5403 3.33987 18.4189 3.33987H17.1654C16.461 3.33987 15.8877 2.76661 15.8877 2.06217ZM21.8974 0.356934L23.6318 3.76254H21.1347L21.3533 3.33987H22.9274L21.6497 0.837896L20.1582 3.76254H19.6724L21.2999 0.560978C21.3679 0.439523 21.4942 0.356934 21.6351 0.356934H21.8974ZM25.8322 2.20791L24.9771 0.531829C24.9237 0.424949 24.8119 0.356934 24.6954 0.356934H24.399L25.6621 2.82976L25.8322 2.49455C25.8759 2.4071 25.8759 2.29536 25.8322 2.20791ZM28.3585 0.356934H28.067C27.9455 0.356934 27.8386 0.424949 27.7803 0.531829L26.1334 3.7674H26.6241L28.3585 0.356934ZM32.7059 3.33987C32.8274 3.33987 32.9294 3.43704 32.9294 3.56335V3.76254H29.6987V3.33987H29.7005V2.27593H29.6987V1.8484H29.7005V0.784456H29.6987V0.356934H32.8808V0.560978C32.8808 0.687292 32.7788 0.784456 32.6574 0.784456H30.1762V1.8484H32.5796V2.05245C32.5796 2.1739 32.4825 2.27593 32.3561 2.27593H30.1762V3.33987H32.7059Z" fill="#1AABFF"/>
<path d="M34.9297 0.872836H34.5428C34.5428 0.785095 34.584 0.741225 34.6665 0.741225H35.4641C35.4641 0.828965 35.4229 0.872836 35.3404 0.872836H35.0788V1.74178C35.0788 1.78196 35.0661 1.81261 35.0407 1.83375C35.0153 1.8549 34.9783 1.86547 34.9297 1.86547V0.872836ZM35.7178 0.850636C35.7178 0.811523 35.731 0.781395 35.7574 0.760253C35.7838 0.738053 35.8203 0.726954 35.8668 0.726954L36.2505 1.64823L36.2204 1.72276L36.2315 1.72751L36.6374 0.726954C36.684 0.726954 36.7204 0.738053 36.7469 0.760253C36.7743 0.782452 36.7881 0.813108 36.7881 0.852222V1.86547C36.6898 1.86547 36.6406 1.82477 36.6406 1.74337V1.0758L36.6818 0.96639L36.6692 0.963219L36.3155 1.82265C36.3103 1.83534 36.3018 1.84538 36.2902 1.85278C36.2786 1.86124 36.2664 1.86547 36.2537 1.86547C36.24 1.86547 36.2273 1.86177 36.2157 1.85437C36.204 1.84697 36.1956 1.8364 36.1903 1.82265L35.8367 0.961633L35.824 0.96639L35.8652 1.07422V1.74337C35.8652 1.78354 35.8525 1.8142 35.8272 1.83534C35.8028 1.85542 35.7664 1.86547 35.7178 1.86547V0.850636Z" fill="#1AABFF"/>
<path d="M18.1288 6.07959L18.5506 5.02195H18.6647L19.0849 6.07959H18.9628L18.5966 5.12819L18.6203 5.12501L18.2525 6.07959H18.1288ZM18.3143 5.74977L18.3635 5.64036H18.882L18.8899 5.74977H18.3143ZM20.2355 6.09545C20.1044 6.09545 20.0024 6.05686 19.9294 5.97969C19.8576 5.90252 19.8216 5.79205 19.8216 5.64829V5.02195H19.9358V5.65463C19.9358 5.76774 19.9612 5.85178 20.0119 5.90675C20.0626 5.96066 20.1372 5.98762 20.2355 5.98762C20.3338 5.98762 20.4088 5.96066 20.4606 5.90675C20.5124 5.85178 20.5383 5.76774 20.5383 5.65463V5.02195H20.6493V5.64829C20.6493 5.74448 20.633 5.82588 20.6002 5.89248C20.5674 5.95908 20.5204 6.00982 20.4591 6.04471C20.3977 6.07853 20.3232 6.09545 20.2355 6.09545ZM21.7615 6.07959V5.12977H21.3873V5.02195H22.2483V5.12977H21.8757V6.07959H21.7615ZM23.3969 6.09545C23.2922 6.09545 23.2045 6.07536 23.1337 6.03519C23.0639 5.99396 23.0111 5.93318 22.9751 5.85284C22.9402 5.7725 22.9228 5.67207 22.9228 5.55156C22.9228 5.37185 22.9624 5.23654 23.0417 5.14563C23.122 5.05366 23.2404 5.00767 23.3969 5.00767C23.5026 5.00767 23.5904 5.02829 23.6601 5.06952C23.7309 5.10969 23.7838 5.16994 23.8187 5.25028C23.8546 5.33062 23.8726 5.43105 23.8726 5.55156C23.8726 5.73127 23.8324 5.86711 23.7521 5.95908C23.6728 6.04999 23.5544 6.09545 23.3969 6.09545ZM23.3969 5.98762C23.4804 5.98762 23.5486 5.97229 23.6015 5.94164C23.6543 5.91098 23.6929 5.86341 23.7172 5.79893C23.7426 5.73444 23.7553 5.65199 23.7553 5.55156C23.7553 5.45113 23.7426 5.36921 23.7172 5.30578C23.6929 5.2413 23.6543 5.19373 23.6015 5.16307C23.5486 5.13136 23.4804 5.1155 23.3969 5.1155C23.3144 5.1155 23.2468 5.13136 23.1939 5.16307C23.1411 5.19373 23.102 5.2413 23.0766 5.30578C23.0523 5.36921 23.0401 5.45113 23.0401 5.55156C23.0401 5.65199 23.0523 5.73444 23.0766 5.79893C23.102 5.86341 23.1411 5.91098 23.1939 5.94164C23.2468 5.97229 23.3144 5.98762 23.3969 5.98762ZM24.673 6.07959V5.02195H24.7967L25.1883 5.62292L25.1106 5.64036L25.5245 5.02195H25.6482V6.07959H25.534V5.13611H25.5847L25.1487 5.74818L24.7459 5.1488L24.7871 5.09013V6.07959H24.673ZM26.9233 6.09545C26.8186 6.09545 26.7309 6.07536 26.6601 6.03519C26.5903 5.99396 26.5374 5.93318 26.5015 5.85284C26.4666 5.7725 26.4492 5.67207 26.4492 5.55156C26.4492 5.37185 26.4888 5.23654 26.5681 5.14563C26.6484 5.05366 26.7668 5.00767 26.9233 5.00767C27.029 5.00767 27.1167 5.02829 27.1865 5.06952C27.2573 5.10969 27.3102 5.16994 27.3451 5.25028C27.381 5.33062 27.399 5.43105 27.399 5.55156C27.399 5.73127 27.3588 5.86711 27.2785 5.95908C27.1992 6.04999 27.0808 6.09545 26.9233 6.09545ZM26.9233 5.98762C27.0068 5.98762 27.075 5.97229 27.1278 5.94164C27.1807 5.91098 27.2193 5.86341 27.2436 5.79893C27.269 5.73444 27.2817 5.65199 27.2817 5.55156C27.2817 5.45113 27.269 5.36921 27.2436 5.30578C27.2193 5.2413 27.1807 5.19373 27.1278 5.16307C27.075 5.13136 27.0068 5.1155 26.9233 5.1155C26.8408 5.1155 26.7732 5.13136 26.7203 5.16307C26.6675 5.19373 26.6284 5.2413 26.603 5.30578C26.5787 5.36921 26.5665 5.45113 26.5665 5.55156C26.5665 5.65199 26.5787 5.73444 26.603 5.79893C26.6284 5.86341 26.6675 5.91098 26.7203 5.94164C26.7732 5.97229 26.8408 5.98762 26.9233 5.98762ZM28.4473 6.07959V5.12977H28.0731V5.02195H28.9341V5.12977H28.5615V6.07959H28.4473ZM29.6714 6.07959V5.02195H29.7856V6.07959H29.6714ZM30.9292 6.07959L30.5232 5.02195H30.6453L31.0116 5.98286H30.9704L31.3303 5.02512L31.4477 5.02195L31.0418 6.07959H30.9292ZM32.1851 6.07959V5.02195H32.8527V5.12977H32.2993V5.49448H32.7861V5.60547H32.2993V5.97176H32.8527V6.07959H32.1851Z" fill="#1AABFF"/>
</g>
<path d="M75.6088 34.8399C75.6967 34.8399 75.7758 34.8575 75.8461 34.8926C75.9252 34.9278 75.9911 34.9717 76.0438 35.0244C76.0965 35.0772 76.1361 35.1431 76.1625 35.2221C76.1976 35.2924 76.2152 35.3671 76.2152 35.4462V35.9998H67.4629V34.8399H75.6088ZM76.0834 27.3135C76.0834 27.4189 76.057 27.52 76.0043 27.6167C75.9516 27.7045 75.8769 27.7748 75.7802 27.8276C75.6923 27.8803 75.5913 27.9066 75.477 27.9066H67.4629V26.7599H76.0834V27.3135ZM75.2793 31.3601C75.2793 31.5183 75.2178 31.6589 75.0948 31.7819C74.9805 31.8961 74.8399 31.9532 74.673 31.9532H67.4629V30.8065H75.2793V31.3601Z" fill="white"/>
<path d="M62.0674 26.7599H62.6737V35.9998H61.2634L55.5427 28.2889V31.3469C55.5427 31.5139 55.4812 31.6589 55.3582 31.7819C55.244 31.8961 55.1034 31.9532 54.9364 31.9532H54.3301V26.7599H54.4092H55.7405L61.4743 34.4708V27.3662C61.4743 27.1993 61.5314 27.0587 61.6456 26.9444C61.7599 26.8214 61.9005 26.7599 62.0674 26.7599Z" fill="white"/>
<path d="M45.0351 26.7598L49.7408 35.9997H42.9789L43.5588 34.8398H47.8295L44.3761 28.0647L40.3295 35.9997H38.9982L43.427 27.3134C43.5149 27.1464 43.6379 27.0146 43.7961 26.9179C43.9631 26.8125 44.1432 26.7598 44.3365 26.7598H45.0351Z" fill="white"/>
<path d="M32.1731 30.2265C32.34 30.2265 32.4806 30.288 32.5949 30.411C32.7091 30.5253 32.7662 30.6615 32.7662 30.8197V35.9998H32.1731C32.0061 35.9998 31.8611 35.9427 31.7381 35.8285C31.6238 35.7054 31.5667 35.5605 31.5667 35.3935V30.2265H32.1731ZM35.732 26.7599C35.8989 26.7599 36.0395 26.8214 36.1538 26.9444C36.2768 27.0587 36.3383 27.1993 36.3383 27.3662V27.9066H28.601C28.4955 27.9066 28.3945 27.8803 28.2978 27.8276C28.2099 27.7748 28.1396 27.7045 28.0869 27.6167C28.0342 27.52 28.0078 27.4189 28.0078 27.3135V26.7599H35.732Z" fill="white"/>
<path d="M19.2333 27.9066C18.2754 27.9066 17.4582 28.2494 16.7816 28.9348C16.1049 29.6114 15.7666 30.4286 15.7666 31.3864C15.7666 32.3355 16.1049 33.1483 16.7816 33.8249C17.4582 34.5016 18.2754 34.8399 19.2333 34.8399H22.634C22.801 34.8399 22.9416 34.9014 23.0558 35.0244C23.1788 35.1387 23.2403 35.2793 23.2403 35.4462V35.9998H19.2333C18.3985 35.9998 17.6252 35.7933 16.9134 35.3803C16.2104 34.9673 15.6524 34.4093 15.2394 33.7063C14.8264 32.9945 14.6199 32.2212 14.6199 31.3864C14.6199 30.5429 14.8264 29.7696 15.2394 29.0666C15.6524 28.3548 16.2104 27.7924 16.9134 27.3794C17.6252 26.9664 18.3985 26.7599 19.2333 26.7599H23.2403V27.3135C23.2403 27.375 23.2272 27.4365 23.2008 27.498C23.1832 27.5595 23.1569 27.6167 23.1217 27.6694C23.0866 27.7133 23.0426 27.7573 22.9899 27.8012C22.946 27.8363 22.8932 27.8627 22.8317 27.8803C22.7702 27.8979 22.7043 27.9066 22.634 27.9066H19.2333Z" fill="white"/>
<path d="M3.41364 27.3794C4.12542 26.9664 4.89871 26.7599 5.73352 26.7599C6.57712 26.7599 7.35041 26.9664 8.0534 27.3794C8.76519 27.7924 9.32758 28.3548 9.74059 29.0666C10.1536 29.7696 10.3601 30.5429 10.3601 31.3864C10.3601 32.2212 10.1536 32.9945 9.74059 33.7063C9.32758 34.4093 8.76519 34.9673 8.0534 35.3803C7.35041 35.7933 6.57712 35.9998 5.73352 35.9998C4.89871 35.9998 4.12542 35.7933 3.41364 35.3803C2.71064 34.9673 2.15264 34.4093 1.73963 33.7063C1.32662 32.9945 1.12012 32.2212 1.12012 31.3864C1.12012 30.5429 1.32662 29.7696 1.73963 29.0666C2.15264 28.3548 2.71064 27.7924 3.41364 27.3794ZM3.28183 33.8249C3.95846 34.5016 4.77569 34.8399 5.73352 34.8399C6.69135 34.8399 7.50858 34.5016 8.18522 33.8249C8.86185 33.1483 9.20016 32.3355 9.20016 31.3864C9.20016 30.4286 8.86185 29.6114 8.18522 28.9348C7.50858 28.2494 6.69135 27.9066 5.73352 27.9066C4.77569 27.9066 3.95846 28.2494 3.28183 28.9348C2.60519 29.6114 2.26688 30.4286 2.26688 31.3864C2.26688 32.3355 2.60519 33.1483 3.28183 33.8249Z" fill="white"/>
<path d="M75.1474 12.191H75.7537V21.431H74.3433L68.6227 13.72V16.7781C68.6227 16.945 68.5612 17.09 68.4382 17.213C68.3239 17.3273 68.1833 17.3844 68.0164 17.3844H67.41V12.191H67.4891H68.8204L74.5542 19.902V12.7974C74.5542 12.6304 74.6113 12.4898 74.7256 12.3756C74.8398 12.2526 74.9804 12.191 75.1474 12.191Z" fill="white"/>
<path d="M56.2153 12.8106C56.9271 12.3975 57.7004 12.191 58.5352 12.191C59.3788 12.191 60.152 12.3975 60.855 12.8106C61.5668 13.2236 62.1292 13.786 62.5422 14.4977C62.9552 15.2007 63.1617 15.974 63.1617 16.8176C63.1617 17.6524 62.9552 18.4257 62.5422 19.1375C62.1292 19.8405 61.5668 20.3985 60.855 20.8115C60.152 21.2245 59.3788 21.431 58.5352 21.431C57.7004 21.431 56.9271 21.2245 56.2153 20.8115C55.5123 20.3985 54.9543 19.8405 54.5413 19.1375C54.1283 18.4257 53.9218 17.6524 53.9218 16.8176C53.9218 15.974 54.1283 15.2007 54.5413 14.4977C54.9543 13.786 55.5123 13.2236 56.2153 12.8106ZM56.0835 19.2561C56.7601 19.9327 57.5773 20.271 58.5352 20.271C59.493 20.271 60.3102 19.9327 60.9868 19.2561C61.6635 18.5795 62.0018 17.7666 62.0018 16.8176C62.0018 15.8598 61.6635 15.0425 60.9868 14.3659C60.3102 13.6805 59.493 13.3378 58.5352 13.3378C57.5773 13.3378 56.7601 13.6805 56.0835 14.3659C55.4068 15.0425 55.0685 15.8598 55.0685 16.8176C55.0685 17.7666 55.4068 18.5795 56.0835 19.2561Z" fill="white"/>
<path d="M35.6278 12.191C35.7948 12.191 35.9354 12.2526 36.0496 12.3756C36.1639 12.4898 36.221 12.6304 36.221 12.7974V21.431H35.6278C35.4609 21.431 35.3159 21.3739 35.1928 21.2596C35.0786 21.1366 35.0215 20.9916 35.0215 20.8246V12.191H35.6278ZM42.7588 12.191C42.9258 12.191 43.0664 12.2526 43.1806 12.3756C43.2949 12.4898 43.352 12.6304 43.352 12.7974V21.431H42.7588C42.6446 21.431 42.5391 21.4046 42.4425 21.3519C42.3546 21.2992 42.2843 21.2289 42.2316 21.141C42.1789 21.0443 42.1525 20.9389 42.1525 20.8246V16.8044H39.1999C39.0945 16.8044 38.9934 16.7781 38.8967 16.7253C38.8089 16.6726 38.7386 16.6023 38.6858 16.5144C38.6331 16.4178 38.6068 16.3167 38.6068 16.2113V15.6577H42.1525V12.191H42.7588Z" fill="white"/>
<path d="M29.2503 17.3844H29.8566V21.431H28.6439H24.7423C23.9075 21.431 23.1342 21.2245 22.4224 20.8115C21.7194 20.3985 21.1614 19.8405 20.7484 19.1375C20.3354 18.4257 20.1289 17.6524 20.1289 16.8176C20.1289 15.974 20.3354 15.2007 20.7484 14.4977C21.1614 13.786 21.7194 13.2236 22.4224 12.8106C23.1342 12.3975 23.9075 12.191 24.7423 12.191C24.7423 12.191 24.7862 12.191 24.8741 12.191C24.9708 12.191 25.3926 12.191 26.1395 12.191C26.8952 12.191 27.9453 12.191 29.2898 12.191V12.7446C29.2898 12.9116 29.2283 13.0522 29.1053 13.1664C28.991 13.2807 28.8504 13.3378 28.6835 13.3378H24.7423C23.7845 13.3378 22.9672 13.6805 22.2906 14.3659C21.614 15.0425 21.2757 15.8598 21.2757 16.8176C21.2757 17.7666 21.614 18.5795 22.2906 19.2561C22.9672 19.9327 23.7845 20.271 24.7423 20.271H28.6439V17.9907C28.6439 17.8238 28.701 17.6832 28.8153 17.5689C28.9383 17.4459 29.0833 17.3844 29.2503 17.3844Z" fill="white"/>
<path d="M14.7406 12.191C14.9076 12.191 15.0482 12.2526 15.1624 12.3756C15.2854 12.4898 15.3469 12.6304 15.3469 12.7974V21.431H14.7406C14.6352 21.431 14.5341 21.4046 14.4374 21.3519C14.3496 21.2992 14.2793 21.2289 14.2265 21.141C14.1738 21.0443 14.1475 20.9389 14.1475 20.8246V12.191H14.7406Z" fill="white"/>
<path d="M1.60633 12.1912C1.77329 12.1912 1.91389 12.2527 2.02813 12.3757C2.14237 12.4899 2.19949 12.6305 2.19949 12.7975V21.4311H1.60633C1.43937 21.4311 1.29438 21.374 1.17136 21.2597C1.05712 21.1367 1 20.9917 1 20.8248V12.1912H1.60633ZM8.73734 12.1912C8.9043 12.1912 9.0449 12.2527 9.15914 12.3757C9.27337 12.4899 9.33049 12.6305 9.33049 12.7975V21.4311H8.73734C8.6231 21.4311 8.51765 21.4047 8.42099 21.352C8.33312 21.2993 8.26282 21.229 8.21009 21.1411C8.15737 21.0445 8.13101 20.939 8.13101 20.8248V16.8045H5.17843C5.07298 16.8045 4.97192 16.7782 4.87526 16.7255C4.78739 16.6727 4.71709 16.6024 4.66436 16.5146C4.61164 16.4179 4.58527 16.3168 4.58527 16.2114V15.6578H8.13101V12.1912H8.73734Z" fill="white"/>
<defs>
<filter id="filter0_d_337_7320" x="0.358362" y="0" width="37.3175" height="7.58491" filterUnits="userSpaceOnUse" color-interpolation-filters="sRGB">
<feFlood flood-opacity="0" result="BackgroundImageFix"/>
<feColorMatrix in="SourceAlpha" type="matrix" values="0 0 0 0 0 0 0 0 0 0 0 0 0 0 0 0 0 0 127 0" result="hardAlpha"/>
<feOffset dy="0.695471"/>
<feGaussianBlur stdDeviation="0.347735"/>
<feComposite in2="hardAlpha" operator="out"/>
<feColorMatrix type="matrix" values="0 0 0 0 0 0 0 0 0 0 0 0 0 0 0 0 0 0 0.25 0"/>
<feBlend mode="normal" in2="BackgroundImageFix" result="effect1_dropShadow_337_7320"/>
<feBlend mode="normal" in="SourceGraphic" in2="effect1_dropShadow_337_7320" result="shape"/>
</filter>
</defs>
</svg>
