<svg width="159" height="20" viewBox="0 0 159 20" fill="none" xmlns="http://www.w3.org/2000/svg">
<path fill-rule="evenodd" clip-rule="evenodd" d="M4.9432 4.16222C4.9432 3.67017 4.67667 3.23963 4.28713 3.00728C4.52632 2.76125 4.66984 2.42639 4.66984 2.05735C4.66984 1.31928 4.06845 0.71106 3.32354 0.71106H3.27571H0.00222698V0.998087C0.00222698 1.01252 0.00317425 1.02669 0.0050065 1.04053H-0.00146484V5.5016H0.00222698V5.50168C3.71991 5.50168 3.5969 5.50852 3.5969 5.50852C4.34181 5.50852 4.9432 4.90712 4.9432 4.16222ZM0.667696 2.80909V1.31245H3.32354C3.73358 1.31245 4.06845 1.64732 4.06845 2.05735C4.06845 2.47423 3.73358 2.80909 3.32354 2.80909H0.667696ZM2.47613 3.41048H0.667696V4.90713H3.5969C4.00694 4.90713 4.34181 4.57226 4.34181 4.16222C4.34181 3.75218 4.00694 3.41732 3.5969 3.41732V3.41048H2.47613ZM12.665 5.50168L10.2253 0.71106H9.85624C9.65806 0.71106 9.48037 0.827238 9.3847 0.998087L7.09531 5.50168H7.77871L9.87675 1.38762L11.6741 4.90713H9.45987L9.15234 5.50168H12.665ZM15.9037 2.5084C16.0745 2.5084 16.218 2.65191 16.218 2.82276V5.50168H15.9037C15.7328 5.50168 15.5961 5.365 15.5961 5.19415V2.5084H15.9037ZM17.7557 0.71106C17.9265 0.71106 18.0632 0.854574 18.0632 1.02542V1.31245H14.0585C13.8877 1.31245 13.7441 1.17577 13.7441 0.998087V0.71106H17.7557ZM20.8661 3.10979C20.8661 2.11886 21.6725 1.31245 22.6634 1.31245H24.4266C24.5975 1.31245 24.741 1.17577 24.741 0.998087V0.71106H22.6634C21.3377 0.71106 20.2647 1.784 20.2647 3.10979C20.2647 4.43558 21.3377 5.50852 22.6634 5.50852C22.6634 5.50852 22.6361 5.50168 24.741 5.50168V5.22149C24.741 5.0438 24.5975 4.90713 24.4266 4.90713H22.6634C21.6725 4.90713 20.8661 4.10072 20.8661 3.10979ZM29.3199 0.71106L31.7596 5.50168H28.2469L28.5544 4.90713H30.7687L28.9713 1.38762L26.8733 5.50168H26.1899L28.4793 0.998087C28.575 0.827238 28.7526 0.71106 28.9508 0.71106H29.3199ZM34.8547 3.31481L33.652 0.957083C33.5768 0.806736 33.4196 0.71106 33.2556 0.71106H32.8387L34.6156 4.18956L34.8547 3.71801C34.9162 3.595 34.9162 3.43782 34.8547 3.31481ZM38.4084 0.71106H37.9984C37.8275 0.71106 37.6772 0.806736 37.5952 0.957083L35.2784 5.50852H35.9687L38.4084 0.71106ZM44.5239 4.90713C44.6947 4.90713 44.8382 5.0438 44.8382 5.22149V5.50168H40.2936V5.50165H40.2928V1.26364H40.2936V0.71106H44.7699V0.998087C44.7699 1.17577 44.6264 1.31245 44.4555 1.31245H40.9619V2.80909H44.3462V3.09612C44.3462 3.26697 44.2095 3.41048 44.0318 3.41048H40.9619V4.90713H44.5239Z" fill="#1AABFF"/>
<path d="M47.6489 0.623759H47.1047C47.1047 0.500336 47.1627 0.438625 47.2787 0.438625H48.4006C48.4006 0.562048 48.3426 0.623759 48.2266 0.623759H47.8586V1.84609C47.8586 1.9026 47.8408 1.94572 47.8051 1.97546C47.7694 2.0052 47.7173 2.02007 47.6489 2.02007V0.623759ZM48.7575 0.592532C48.7575 0.537512 48.776 0.495131 48.8132 0.465391C48.8504 0.434163 48.9017 0.41855 48.9671 0.41855L49.5069 1.71449L49.4645 1.81933L49.4801 1.82602L50.0512 0.41855C50.1166 0.41855 50.1679 0.434163 50.2051 0.465391C50.2437 0.496618 50.2631 0.539742 50.2631 0.594762V2.02007C50.1248 2.02007 50.0556 1.96282 50.0556 1.84832V0.909268L50.1136 0.755361L50.0958 0.7509L49.5984 1.95985C49.5909 1.97769 49.579 1.99182 49.5627 2.00223C49.5463 2.01413 49.5292 2.02007 49.5114 2.02007C49.492 2.02007 49.4742 2.01487 49.4578 2.00446C49.4415 1.99405 49.4296 1.97918 49.4222 1.95985L48.9247 0.748669L48.9069 0.755361L48.9649 0.907037V1.84832C48.9649 1.90483 48.9471 1.94795 48.9114 1.97769C48.8772 2.00595 48.8259 2.02007 48.7575 2.02007V0.592532Z" fill="#1AABFF"/>
<path d="M156.081 15.5083C156.665 15.5083 157.16 15.7149 157.566 16.1281C157.979 16.5413 158.186 17.04 158.186 17.6242C158.186 18.2013 157.979 18.6964 157.566 19.1097C157.16 19.5229 156.665 19.7295 156.081 19.7295L151.229 19.7188H151.197V19.27C151.197 19.1346 151.243 19.0206 151.336 18.928C151.435 18.8282 151.553 18.7784 151.688 18.7784H156.006H156.155C156.462 18.7641 156.718 18.6466 156.925 18.4257C157.138 18.1977 157.245 17.927 157.245 17.6135C157.245 17.293 157.131 17.0187 156.903 16.7907C156.675 16.5627 156.401 16.4487 156.081 16.4487H156.059C155.924 16.4487 155.81 16.4024 155.717 16.3098C155.625 16.21 155.578 16.0925 155.578 15.9571V15.5083H156.081ZM153.206 16.438C152.821 16.438 152.465 16.3454 152.137 16.1602C151.817 15.9678 151.564 15.7113 151.378 15.3907C151.193 15.0702 151.101 14.7175 151.101 14.3328C151.101 13.7486 151.304 13.2534 151.71 12.8474C152.123 12.4341 152.622 12.2275 153.206 12.2275C153.227 12.2275 153.252 12.2275 153.281 12.2275H157.887V12.6764C157.887 12.7405 157.872 12.8046 157.844 12.8687C157.822 12.9257 157.79 12.9756 157.748 13.0183C157.705 13.0611 157.651 13.0967 157.587 13.1252C157.53 13.1466 157.47 13.1573 157.406 13.1573H153.206V13.168C152.885 13.168 152.611 13.2819 152.383 13.5099C152.155 13.7379 152.041 14.0122 152.041 14.3328C152.041 14.6534 152.155 14.9277 152.383 15.1556C152.611 15.3836 152.885 15.4976 153.206 15.4976V15.5083H153.217C153.309 15.5083 153.391 15.5297 153.462 15.5724C153.541 15.6152 153.601 15.6757 153.644 15.7541C153.687 15.8253 153.708 15.9037 153.708 15.9892V16.438H153.206Z" fill="white"/>
<path d="M144.666 16.3953L146.354 19.7188H145.692C145.421 19.7188 145.222 19.5977 145.093 19.3554L143.608 16.438H140.146V19.2272C140.146 19.3626 140.096 19.4801 139.996 19.5799C139.903 19.6725 139.789 19.7188 139.654 19.7188H139.173V15.5083H144.217V15.4976C144.538 15.4976 144.812 15.3836 145.04 15.1556C145.268 14.9277 145.382 14.6534 145.382 14.3328C145.382 14.0122 145.268 13.7379 145.04 13.5099C144.812 13.2819 144.538 13.168 144.217 13.168V13.1573H139.665C139.529 13.1573 139.412 13.111 139.312 13.0183C139.219 12.9186 139.173 12.801 139.173 12.6657V12.2275H144.153C144.174 12.2275 144.196 12.2275 144.217 12.2275C144.801 12.2275 145.296 12.4341 145.703 12.8474C146.116 13.2534 146.322 13.7486 146.322 14.3328C146.322 14.6605 146.251 14.9704 146.109 15.2625C145.966 15.5546 145.767 15.8004 145.51 15.9999C145.261 16.1922 144.979 16.324 144.666 16.3953Z" fill="white"/>
<path d="M133.934 18.7784C134.005 18.7784 134.069 18.7926 134.126 18.8211C134.19 18.8496 134.244 18.8852 134.286 18.928C134.329 18.9707 134.361 19.0242 134.382 19.0883C134.411 19.1453 134.425 19.2058 134.425 19.27V19.7188H127.329V18.7784H133.934ZM134.318 12.6764C134.318 12.7619 134.297 12.8438 134.254 12.9222C134.211 12.9934 134.151 13.0504 134.073 13.0931C134.001 13.1359 133.919 13.1573 133.827 13.1573H127.329V12.2275H134.318V12.6764ZM133.666 15.9571C133.666 16.0854 133.617 16.1994 133.517 16.2991C133.424 16.3917 133.31 16.438 133.175 16.438H127.329V15.5083H133.666V15.9571Z" fill="white"/>
<path d="M119.101 12.2278C119.799 12.2206 120.441 12.3845 121.025 12.7193C121.609 13.0542 122.068 13.5101 122.403 14.0872C122.738 14.6643 122.906 15.2912 122.906 15.968C122.906 16.481 122.806 16.969 122.606 17.4321C122.407 17.8952 122.14 18.2941 121.805 18.629C121.47 18.9638 121.071 19.231 120.608 19.4305C120.152 19.6228 119.668 19.719 119.155 19.719H117.21H115.746V19.2702C115.746 19.1348 115.792 19.0208 115.885 18.9282C115.977 18.8285 116.091 18.7786 116.226 18.7786H119.155C119.931 18.7786 120.594 18.5043 121.142 17.9557C121.691 17.4072 121.965 16.7482 121.965 15.9787C121.965 15.2022 121.691 14.5396 121.142 13.991C120.594 13.4353 119.931 13.1575 119.155 13.1575H116.226C116.141 13.1575 116.059 13.1361 115.981 13.0934C115.909 13.0506 115.852 12.9936 115.81 12.9224C115.767 12.844 115.746 12.7621 115.746 12.6766V12.2278H119.101Z" fill="white"/>
<path d="M110.529 12.2275C110.665 12.2275 110.779 12.2774 110.871 12.3772C110.971 12.4698 111.021 12.5838 111.021 12.7191V19.7188H110.529C110.444 19.7188 110.362 19.6974 110.284 19.6547C110.212 19.6119 110.155 19.5549 110.113 19.4837C110.07 19.4053 110.049 19.3198 110.049 19.2272V12.2275H110.529Z" fill="white"/>
<path d="M103.195 15.5083C103.779 15.5083 104.274 15.7149 104.68 16.1281C105.094 16.5413 105.3 17.04 105.3 17.6242C105.3 18.2013 105.094 18.6964 104.68 19.1097C104.274 19.5229 103.779 19.7295 103.195 19.7295L98.3433 19.7188H98.3113V19.27C98.3113 19.1346 98.3576 19.0206 98.4502 18.928C98.5499 18.8282 98.6675 18.7784 98.8028 18.7784H103.12H103.27C103.576 18.7641 103.833 18.6466 104.039 18.4257C104.253 18.1977 104.36 17.927 104.36 17.6135C104.36 17.293 104.246 17.0187 104.018 16.7907C103.79 16.5627 103.516 16.4487 103.195 16.4487H103.174C103.038 16.4487 102.924 16.4024 102.832 16.3098C102.739 16.21 102.693 16.0925 102.693 15.9571V15.5083H103.195ZM100.32 16.438C99.9356 16.438 99.5794 16.3454 99.2517 16.1602C98.9311 15.9678 98.6782 15.7113 98.4929 15.3907C98.3077 15.0702 98.2151 14.7175 98.2151 14.3328C98.2151 13.7486 98.4181 13.2534 98.8242 12.8474C99.2374 12.4341 99.7361 12.2275 100.32 12.2275C100.342 12.2275 100.367 12.2275 100.395 12.2275H105.001V12.6764C105.001 12.7405 104.987 12.8046 104.958 12.8687C104.937 12.9257 104.905 12.9756 104.862 13.0183C104.819 13.0611 104.766 13.0967 104.702 13.1252C104.645 13.1466 104.584 13.1573 104.52 13.1573H100.32V13.168C99.9997 13.168 99.7255 13.2819 99.4975 13.5099C99.2695 13.7379 99.1555 14.0122 99.1555 14.3328C99.1555 14.6534 99.2695 14.9277 99.4975 15.1556C99.7255 15.3836 99.9997 15.4976 100.32 15.4976V15.5083H100.331C100.424 15.5083 100.506 15.5297 100.577 15.5724C100.655 15.6152 100.716 15.6757 100.758 15.7541C100.801 15.8253 100.823 15.9037 100.823 15.9892V16.438H100.32Z" fill="white"/>
<path d="M92.9881 12.2275H93.4796V19.7188H92.3362L87.6982 13.4672V19.5086C87.6982 19.644 87.6484 19.7615 87.5486 19.8613C87.456 19.9539 87.342 20.0002 87.2067 20.0002H86.7151V12.2275H86.7792H87.8585L92.5072 18.4792V12.7191C92.5072 12.5838 92.5535 12.4698 92.6461 12.3772C92.7387 12.2774 92.8527 12.2275 92.9881 12.2275Z" fill="white"/>
<path d="M81.499 12.2275C81.6343 12.2275 81.7483 12.2774 81.8409 12.3772C81.9407 12.4698 81.9905 12.5838 81.9905 12.7191V19.7188H81.499C81.4135 19.7188 81.3315 19.6974 81.2532 19.6547C81.1819 19.6119 81.1249 19.5549 81.0822 19.4837C81.0394 19.4053 81.0181 19.3198 81.0181 19.2272V12.2275H81.499Z" fill="white"/>
<path d="M69.8433 12.2275H70.3349V19.7188H69.1914L64.5535 13.4672V19.5086C64.5535 19.644 64.5036 19.7615 64.4039 19.8613C64.3112 19.9539 64.1972 20.0002 64.0619 20.0002H63.5703V12.2275H63.6344H64.7138L69.3624 18.4792V12.7191C69.3624 12.5838 69.4087 12.4698 69.5013 12.3772C69.5939 12.2774 69.7079 12.2275 69.8433 12.2275Z" fill="white"/>
<path d="M53.6385 12.7298C54.2156 12.395 54.8425 12.2275 55.5193 12.2275C56.2033 12.2275 56.8302 12.395 57.4002 12.7298C57.9772 13.0646 58.4332 13.5206 58.768 14.0977C59.1029 14.6676 59.2703 15.2946 59.2703 15.9785C59.2703 16.6553 59.1029 17.2823 58.768 17.8593C58.4332 18.4293 57.9772 18.8817 57.4002 19.2165C56.8302 19.5514 56.2033 19.7188 55.5193 19.7188C54.8425 19.7188 54.2156 19.5514 53.6385 19.2165C53.0686 18.8817 52.6162 18.4293 52.2813 17.8593C51.9465 17.2823 51.7791 16.6553 51.7791 15.9785C51.7791 15.2946 51.9465 14.6676 52.2813 14.0977C52.6162 13.5206 53.0686 13.0646 53.6385 12.7298ZM53.5316 17.9555C54.0802 18.5041 54.7428 18.7784 55.5193 18.7784C56.2959 18.7784 56.9585 18.5041 57.507 17.9555C58.0556 17.4069 58.3299 16.7479 58.3299 15.9785C58.3299 15.202 58.0556 14.5394 57.507 13.9908C56.9585 13.4351 56.2959 13.1573 55.5193 13.1573C54.7428 13.1573 54.0802 13.4351 53.5316 13.9908C52.9831 14.5394 52.7088 15.202 52.7088 15.9785C52.7088 16.7479 52.9831 17.4069 53.5316 17.9555Z" fill="white"/>
<path d="M46.9797 12.2275C47.115 12.2275 47.229 12.2774 47.3216 12.3772C47.4214 12.4698 47.4713 12.5838 47.4713 12.7191V19.7188H46.9797C46.8942 19.7188 46.8123 19.6974 46.7339 19.6547C46.6626 19.6119 46.6056 19.5549 46.5629 19.4837C46.5202 19.4053 46.4988 19.3198 46.4988 19.2272V12.2275H46.9797Z" fill="white"/>
<path d="M38.397 15.0381C38.5323 15.0381 38.6463 15.088 38.7389 15.1877C38.8315 15.2803 38.8779 15.3907 38.8779 15.519V19.7188H38.397C38.2616 19.7188 38.144 19.6725 38.0443 19.5799C37.9517 19.4801 37.9054 19.3626 37.9054 19.2272V15.0381H38.397ZM41.2823 12.2275C41.4177 12.2275 41.5317 12.2774 41.6243 12.3772C41.724 12.4698 41.7739 12.5838 41.7739 12.7191V13.1573H35.5009C35.4154 13.1573 35.3335 13.1359 35.2551 13.0931C35.1839 13.0504 35.1269 12.9934 35.0841 12.9222C35.0414 12.8438 35.02 12.7619 35.02 12.6764V12.2275H41.2823Z" fill="white"/>
<path d="M29.7934 12.2275C29.9288 12.2275 30.0427 12.2774 30.1354 12.3772C30.2351 12.4698 30.285 12.5838 30.285 12.7191V19.7188H29.7934C29.7079 19.7188 29.626 19.6974 29.5476 19.6547C29.4764 19.6119 29.4194 19.5549 29.3766 19.4837C29.3339 19.4053 29.3125 19.3198 29.3125 19.2272V12.2275H29.7934Z" fill="white"/>
<path d="M24.0855 12.2275H24.5771V19.7188H23.4336L18.7957 13.4672V19.5086C18.7957 19.644 18.7458 19.7615 18.646 19.8613C18.5534 19.9539 18.4394 20.0002 18.3041 20.0002H17.8125V12.2275H17.8766H18.956L23.6046 18.4792V12.7191C23.6046 12.5838 23.6509 12.4698 23.7435 12.3772C23.8361 12.2774 23.9501 12.2275 24.0855 12.2275Z" fill="white"/>
<path d="M13.1028 16.438H13.5944V19.7188H12.6113H9.44805C8.77123 19.7188 8.14429 19.5514 7.56722 19.2165C6.99727 18.8817 6.54487 18.4293 6.21003 17.8593C5.87519 17.2823 5.70776 16.6553 5.70776 15.9785C5.70776 15.2946 5.87519 14.6676 6.21003 14.0977C6.54487 13.5206 6.99727 13.0646 7.56722 12.7298C8.14429 12.395 8.77123 12.2275 9.44805 12.2275C9.44805 12.2275 9.48367 12.2275 9.55491 12.2275C9.63328 12.2275 9.97525 12.2275 10.5808 12.2275C11.1935 12.2275 12.0449 12.2275 13.1349 12.2275V12.6764C13.1349 12.8117 13.085 12.9257 12.9853 13.0183C12.8927 13.111 12.7787 13.1573 12.6433 13.1573H9.44805C8.67149 13.1573 8.00893 13.4351 7.46035 13.9908C6.91178 14.5394 6.63749 15.202 6.63749 15.9785C6.63749 16.7479 6.91178 17.4069 7.46035 17.9555C8.00893 18.5041 8.67149 18.7784 9.44805 18.7784H12.6113V16.9296C12.6113 16.7942 12.6576 16.6803 12.7502 16.5876C12.8499 16.4879 12.9675 16.438 13.1028 16.438Z" fill="white"/>
<path d="M0.480893 12.2275C0.616256 12.2275 0.730246 12.2774 0.822862 12.3772C0.922603 12.4698 0.972473 12.5838 0.972473 12.7191V19.7188H0.480893C0.395401 19.7188 0.313471 19.6974 0.235103 19.6547C0.16386 19.6119 0.106865 19.5549 0.0641189 19.4837C0.0213729 19.4053 0 19.3198 0 19.2272V12.2275H0.480893Z" fill="white"/>
</svg>
