<svg width="110" height="28" viewBox="0 0 110 28" fill="none" xmlns="http://www.w3.org/2000/svg">
<g clip-path="url(#clip0_337_8126)">
<path d="M21.4321 0H6.55713C2.93276 0 -0.00537109 2.93813 -0.00537109 6.5625V21.4375C-0.00537109 25.0619 2.93276 28 6.55713 28H21.4321C25.0565 28 27.9946 25.0619 27.9946 21.4375V6.5625C27.9946 2.93813 25.0565 0 21.4321 0Z" fill="url(#paint0_radial_337_8126)"/>
<path d="M21.4321 0H6.55713C2.93276 0 -0.00537109 2.93813 -0.00537109 6.5625V21.4375C-0.00537109 25.0619 2.93276 28 6.55713 28H21.4321C25.0565 28 27.9946 25.0619 27.9946 21.4375V6.5625C27.9946 2.93813 25.0565 0 21.4321 0Z" fill="url(#paint1_radial_337_8126)"/>
<path d="M13.9956 3.0625C11.0252 3.0625 10.6523 3.07552 9.48575 3.12856C8.32135 3.18194 7.52652 3.36623 6.83111 3.63672C6.11164 3.91606 5.50144 4.2898 4.89353 4.89792C4.28508 5.50594 3.91135 6.11614 3.63113 6.83528C3.35988 7.53091 3.17536 8.32606 3.12297 9.48992C3.0708 10.6566 3.05713 11.0296 3.05713 14.0001C3.05713 16.9706 3.07025 17.3423 3.12319 18.5089C3.17679 19.6733 3.36108 20.4681 3.63135 21.1635C3.91091 21.883 4.28464 22.4932 4.89277 23.1011C5.50057 23.7095 6.11077 24.0842 6.82969 24.3635C7.52564 24.634 8.32058 24.8183 9.48477 24.8717C10.6515 24.9247 11.024 24.9377 13.9943 24.9377C16.965 24.9377 17.3367 24.9247 18.5033 24.8717C19.6677 24.8183 20.4634 24.634 21.1593 24.3635C21.8785 24.0842 22.4878 23.7095 23.0955 23.1011C23.704 22.4932 24.0776 21.883 24.3579 21.1638C24.6267 20.4681 24.8114 19.6731 24.8661 18.5091C24.9185 17.3425 24.9321 16.9706 24.9321 14.0001C24.9321 11.0296 24.9185 10.6568 24.8661 9.49014C24.8114 8.32573 24.6267 7.53102 24.3579 6.83561C24.0776 6.11614 23.704 5.50594 23.0955 4.89792C22.4872 4.28958 21.8787 3.91584 21.1587 3.63683C20.4614 3.36623 19.6662 3.18183 18.5017 3.12856C17.335 3.07552 16.9636 3.0625 13.9922 3.0625H13.9956ZM13.0144 5.03355C13.3057 5.03311 13.6306 5.03355 13.9956 5.03355C16.916 5.03355 17.2621 5.04405 18.4153 5.09644C19.4818 5.14522 20.0606 5.32339 20.4461 5.47312C20.9566 5.67131 21.3205 5.90833 21.703 6.29125C22.0859 6.67406 22.3228 7.03861 22.5215 7.54906C22.6712 7.93406 22.8496 8.51288 22.8982 9.57928C22.9506 10.7323 22.962 11.0786 22.962 13.9976C22.962 16.9166 22.9506 17.263 22.8982 18.4159C22.8494 19.4823 22.6712 20.0611 22.5215 20.4462C22.3233 20.9567 22.0859 21.3201 21.703 21.7027C21.3202 22.0855 20.9568 22.3225 20.4461 22.5208C20.061 22.6711 19.4818 22.8489 18.4153 22.8977C17.2623 22.95 16.916 22.9614 13.9956 22.9614C11.0751 22.9614 10.7289 22.95 9.57599 22.8977C8.50958 22.8484 7.93077 22.6703 7.54489 22.5205C7.03455 22.3222 6.66989 22.0853 6.28708 21.7025C5.90427 21.3197 5.66736 20.956 5.46863 20.4454C5.31889 20.0602 5.1405 19.4814 5.09194 18.415C5.03955 17.262 5.02905 16.9157 5.02905 13.9949C5.02905 11.0741 5.03955 10.7296 5.09194 9.57655C5.14072 8.51014 5.31889 7.93133 5.46863 7.54578C5.66693 7.03533 5.90427 6.67078 6.28719 6.28797C6.67 5.90516 7.03455 5.66814 7.545 5.46952C7.93055 5.31912 8.50958 5.14139 9.57599 5.09239C10.585 5.04678 10.976 5.03311 13.0144 5.03081V5.03355ZM19.834 6.84961C19.1094 6.84961 18.5215 7.43695 18.5215 8.16167C18.5215 8.88628 19.1094 9.47417 19.834 9.47417C20.5587 9.47417 21.1465 8.88628 21.1465 8.16167C21.1465 7.43706 20.5587 6.84917 19.834 6.84917V6.84961ZM13.9956 8.38316C10.8937 8.38316 8.37877 10.8981 8.37877 14.0001C8.37877 17.1021 10.8937 19.6159 13.9956 19.6159C17.0976 19.6159 19.6117 17.1021 19.6117 14.0001C19.6117 10.8982 17.0974 8.38316 13.9954 8.38316H13.9956ZM13.9956 10.3542C16.0091 10.3542 17.6415 11.9864 17.6415 14.0001C17.6415 16.0136 16.0091 17.646 13.9956 17.646C11.982 17.646 10.3498 16.0136 10.3498 14.0001C10.3498 11.9864 11.982 10.3542 13.9956 10.3542Z" fill="white"/>
</g>
<g clip-path="url(#clip1_337_8126)">
<path d="M39.9067 7.13155C38.404 7.76097 36.7524 9.53691 36.2307 11.7678C35.5699 14.5934 38.3192 15.7887 38.5448 15.3973C38.8102 14.9369 38.0522 14.7813 37.8961 13.315C37.6945 11.4213 38.5749 9.30533 39.683 8.37687C39.8887 8.20427 39.8791 8.44448 39.8791 8.8885C39.8791 9.68261 39.8352 16.8117 39.8352 18.2995C39.8352 20.3126 39.7521 20.9484 39.6026 21.5767C39.4514 22.2131 39.2081 22.6434 39.3923 22.8091C39.5983 22.9943 40.4777 22.5535 40.9867 21.8431C41.5972 20.991 41.8109 19.9674 41.8493 18.8563C41.8956 17.5166 41.8936 15.3907 41.8956 14.1782C41.8974 13.0662 41.9143 9.80991 41.8761 7.85231C41.8667 7.3719 40.5351 6.86818 39.9067 7.13155ZM93.2615 16.5532C93.213 17.5999 92.9813 18.4179 92.6938 18.995C92.1371 20.1121 90.9821 20.4589 90.4916 18.8531C90.2244 17.9778 90.2119 16.5158 90.4039 15.2942C90.5995 14.0499 91.1458 13.1101 92.0501 13.1948C92.9422 13.2786 93.3597 14.4279 93.2615 16.5532ZM78.2235 23.047C78.2114 24.7859 77.9377 26.3106 77.3508 26.7536C76.5183 27.3816 75.3994 26.9104 75.6311 25.6415C75.8361 24.5185 76.8057 23.3717 78.2259 21.9705C78.2259 21.9705 78.2288 22.2901 78.2235 23.047ZM77.9962 16.5431C77.9453 17.4965 77.6982 18.454 77.4285 18.9951C76.8719 20.1123 75.7085 20.4615 75.2264 18.8533C74.8967 17.7544 74.9757 16.3324 75.1386 15.4363C75.3504 14.2737 75.8636 13.1951 76.7848 13.1951C77.6806 13.1951 78.1225 14.1779 77.9962 16.5431ZM69.2848 16.5288C69.2302 17.5382 69.0332 18.3821 68.7172 18.9951C68.1454 20.1047 67.0139 20.4565 66.5151 18.8533C66.1554 17.6973 66.2778 16.1211 66.4274 15.2696C66.6495 14.006 67.2055 13.1102 68.0736 13.1951C68.9652 13.2822 69.3986 14.4282 69.2848 16.5288ZM109.207 17.7079C108.989 17.7079 108.889 17.9326 108.807 18.3106C108.522 19.6258 108.222 19.9226 107.835 19.9226C107.403 19.9226 107.014 19.2716 106.914 17.9681C106.836 16.9431 106.848 15.0563 106.949 13.1794C106.969 12.7938 106.863 12.4122 105.829 12.0365C105.384 11.8748 104.737 11.6368 104.414 12.4143C103.504 14.6113 103.148 16.3554 103.064 17.0637C103.06 17.1004 103.015 17.108 103.007 17.0223C102.954 16.4548 102.834 15.4235 102.82 13.2571C102.817 12.8343 102.727 12.4746 102.261 12.18C101.958 11.9887 101.039 11.6507 100.708 12.053C100.421 12.3818 100.089 13.267 99.7434 14.3164C99.463 15.1694 99.2676 15.7461 99.2676 15.7461C99.2676 15.7461 99.2714 13.4451 99.2747 12.5721C99.2761 12.2429 99.0503 12.1331 98.9821 12.1133C98.6758 12.0244 98.0716 11.8758 97.8153 11.8758C97.4989 11.8758 97.4215 12.0524 97.4215 12.3102C97.4215 12.344 97.3716 15.3398 97.3716 17.4346C97.3716 17.5257 97.3716 17.6249 97.372 17.7305C97.1971 18.6933 96.6297 20.0002 96.0126 20.0002C95.3947 20.0002 95.1033 19.4539 95.1033 16.9565C95.1033 15.4996 95.147 14.866 95.1685 13.8123C95.181 13.2053 95.2051 12.7393 95.2037 12.6335C95.1991 12.3092 94.6384 12.1457 94.3774 12.0852C94.1152 12.0244 93.8873 12.0007 93.7094 12.0109C93.4575 12.0253 93.2793 12.1902 93.2793 12.4175C93.2793 12.5395 93.2808 12.7711 93.2808 12.7711C92.9564 12.2613 92.4347 11.9066 92.0877 11.8038C91.1527 11.5262 90.1772 11.7721 89.4414 12.8018C88.8565 13.6198 88.504 14.5466 88.3652 15.8778C88.2638 16.8511 88.2969 17.8379 88.4772 18.6726C88.2593 19.6145 87.855 20.0002 87.4121 20.0002C86.7692 20.0002 86.3032 18.9511 86.3572 17.1362C86.3929 15.9425 86.6318 15.1048 86.8929 13.8928C87.0042 13.3762 86.9137 13.1058 86.6869 12.8466C86.4788 12.6088 86.0353 12.4873 85.3981 12.6366C84.9442 12.7431 84.2951 12.8578 83.7012 12.9458C83.7012 12.9458 83.7371 12.8027 83.7665 12.5507C83.921 11.2288 82.4845 11.336 82.0261 11.7582C81.7526 12.0103 81.5664 12.3076 81.4957 12.8421C81.3835 13.6904 82.0754 14.0906 82.0754 14.0906C81.8486 15.1297 81.2921 16.4869 80.7176 17.4683C80.4099 17.994 80.1746 18.3837 79.8707 18.7978C79.8608 17.1359 79.8716 15.474 79.9032 13.8124C79.9157 13.2054 79.94 12.7518 79.9387 12.6459C79.9353 12.4089 79.7968 12.3191 79.5086 12.2058C79.2538 12.1054 78.9526 12.0361 78.64 12.0116C78.2456 11.9811 78.008 12.1901 78.0143 12.4375C78.0155 12.4842 78.0155 12.7711 78.0155 12.7711C77.6911 12.2613 77.1695 11.9066 76.8224 11.8038C75.8874 11.5262 74.912 11.7721 74.1761 12.8018C73.5914 13.6198 73.2085 14.7679 73.0999 15.8677C72.9989 16.8925 73.0175 17.7634 73.1553 18.4973C73.0067 19.232 72.5792 20.0004 72.0961 20.0004C71.4782 20.0004 71.1266 19.4539 71.1266 16.9565C71.1266 15.4996 71.1704 14.866 71.1919 13.8123C71.2044 13.2054 71.2285 12.7393 71.2272 12.6335C71.2226 12.3092 70.6618 12.1458 70.4007 12.0852C70.1277 12.022 69.8919 11.9989 69.7109 12.0123C69.4721 12.03 69.3041 12.2439 69.3041 12.4034V12.7711C68.9797 12.2613 68.458 11.9066 68.111 11.8038C67.176 11.5262 66.206 11.7761 65.4647 12.8018C64.9814 13.4705 64.59 14.2119 64.3887 15.853C64.3304 16.3272 64.3047 16.7716 64.3081 17.1865C64.1154 18.3654 63.2639 19.7241 62.5675 19.7241C62.1601 19.7241 61.7719 18.9335 61.7719 17.2491C61.7719 15.0053 61.9108 11.8104 61.9344 11.5026C61.9344 11.5026 62.8142 11.4876 62.9845 11.4856C63.4235 11.4807 63.8209 11.4912 64.4056 11.4611C64.6988 11.4463 64.9813 10.3939 64.6786 10.2637C64.5414 10.2047 63.5721 10.1532 63.1878 10.145C62.8647 10.1379 61.9652 10.0711 61.9652 10.0711C61.9652 10.0711 62.0459 7.95055 62.0647 7.72659C62.0805 7.53975 61.8389 7.44367 61.7005 7.38542C61.3636 7.24302 61.0623 7.1747 60.7052 7.10105C60.2115 6.99922 59.9877 7.0989 59.944 7.5153C59.8781 8.14746 59.844 9.99905 59.844 9.99905C59.4818 9.99905 58.2446 9.92829 57.8824 9.92829C57.5458 9.92829 57.1825 11.3758 57.6479 11.3937C58.1833 11.4144 59.1164 11.4325 59.7348 11.4509C59.7348 11.4509 59.7072 14.6984 59.7072 15.7013C59.7072 15.8077 59.7078 15.9106 59.7084 16.0102C59.3679 17.7844 58.1689 18.743 58.1689 18.743C58.4264 17.5691 57.9004 16.6876 56.9529 15.9413C56.6038 15.6665 55.9147 15.1459 55.1438 14.5755C55.1438 14.5755 55.5902 14.1353 55.9864 13.2499C56.2668 12.6225 56.2791 11.9049 55.5902 11.7465C54.4522 11.4847 53.514 12.3206 53.2341 13.2129C53.0172 13.9042 53.1328 14.417 53.5577 14.9497C53.5886 14.9887 53.6224 15.0286 53.6569 15.0685C53.4002 15.5636 53.0472 16.2303 52.7483 16.7472C51.9187 18.1827 51.292 19.3179 50.8183 19.3179C50.4398 19.3179 50.4448 18.1652 50.4448 17.086C50.4448 16.1556 50.5135 14.7568 50.5685 13.3089C50.5866 12.8299 50.347 12.557 49.9457 12.3099C49.7017 12.1598 49.1812 11.8646 48.8797 11.8646C48.4284 11.8646 47.1264 11.926 45.8963 15.4845C45.7412 15.933 45.4366 16.7503 45.4366 16.7503L45.4629 12.471C45.4629 12.3706 45.4094 12.2737 45.287 12.2074C45.0797 12.0947 44.5261 11.8646 44.0338 11.8646C43.7993 11.8646 43.6821 11.9736 43.6821 12.1911L43.6392 18.8861C43.6392 19.3948 43.6524 19.9883 43.7028 20.2478C43.7528 20.5075 43.8341 20.719 43.9345 20.8447C44.035 20.9703 44.1511 21.0662 44.3426 21.1056C44.5208 21.1423 45.4966 21.2676 45.5473 20.8947C45.608 20.4477 45.6105 19.9644 46.1228 18.1616C46.9205 15.3546 47.9605 13.9853 48.4495 13.4989C48.5351 13.414 48.6326 13.4088 48.6279 13.5479C48.6072 14.1632 48.5337 15.7011 48.4843 17.0072C48.3518 20.5031 48.9877 21.1511 49.8966 21.1511C50.5919 21.1511 51.572 20.4602 52.6226 18.7115C53.208 17.7369 53.7907 16.7607 54.3706 15.783C54.689 16.0777 55.0464 16.3948 55.4034 16.7337C56.2333 17.5214 56.5057 18.2699 56.3249 18.9799C56.1869 19.5226 55.666 20.0819 54.7393 19.5384C54.4692 19.3797 54.3538 19.257 54.0823 19.0782C53.9364 18.9823 53.7136 18.9535 53.58 19.0542C53.233 19.3157 53.0346 19.6486 52.9212 20.0605C52.811 20.4614 53.2125 20.6732 53.6287 20.8586C53.987 21.0182 54.7573 21.1627 55.2483 21.1791C57.1621 21.2431 58.6952 20.2551 59.7625 17.7065C59.9535 19.9076 60.7664 21.1531 62.1791 21.1531C63.1235 21.1531 64.0703 19.9323 64.4844 18.7315C64.6033 19.2209 64.7793 19.6467 65.0066 20.0067C66.095 21.7313 68.2065 21.3602 69.2671 19.8957C69.5951 19.4432 69.645 19.2806 69.645 19.2806C69.7997 20.6633 70.9133 21.1465 71.5508 21.1465C72.2649 21.1465 73.0021 20.8089 73.5189 19.6455C73.5795 19.7718 73.6456 19.8925 73.7178 20.0067C74.8062 21.7313 76.9179 21.3602 77.9785 19.8957C78.0286 19.8269 78.072 19.7648 78.1099 19.7087L78.1409 20.617L77.1644 21.5127C75.5276 23.0129 74.2843 24.1506 74.1928 25.4758C74.0763 27.1654 75.4459 27.7934 76.4835 27.8757C77.5834 27.963 78.5271 27.3548 79.1062 26.5038C79.616 25.7545 79.9497 24.1421 79.9251 22.5497C79.9154 21.9119 79.8992 21.1011 79.8867 20.2319C80.4613 19.5647 81.1087 18.7212 81.7047 17.7342C82.3543 16.6585 83.0505 15.2138 83.4069 14.0894C83.4069 14.0894 84.0117 14.0948 84.6572 14.0525C84.8637 14.039 84.9231 14.0813 84.8848 14.2324C84.8388 14.4154 84.0692 17.3831 84.7716 19.3602C85.2522 20.7137 86.3357 21.1489 86.978 21.1489C87.7302 21.1489 88.4495 20.581 88.835 19.7379C88.8816 19.8318 88.93 19.9227 88.9831 20.0068C90.0715 21.7314 92.1757 21.3579 93.2438 19.8957C93.4849 19.5657 93.6217 19.2806 93.6217 19.2806C93.8508 20.7118 94.9638 21.1538 95.6013 21.1538C96.2652 21.1538 96.8955 20.8815 97.4067 19.6717C97.4283 20.2045 97.4618 20.64 97.5149 20.7772C97.5472 20.8614 97.7359 20.9667 97.8731 21.0176C98.4807 21.2428 99.1001 21.1364 99.3293 21.0901C99.4881 21.0579 99.612 20.9304 99.629 20.6016C99.6735 19.7379 99.6462 18.2867 99.908 17.2081C100.347 15.3982 100.757 14.6961 100.952 14.3486C101.061 14.1537 101.184 14.1217 101.188 14.3278C101.197 14.7449 101.218 15.9694 101.388 17.6149C101.513 18.8248 101.68 19.5401 101.809 19.7666C102.175 20.4139 102.627 20.4445 102.996 20.4445C103.23 20.4445 103.721 20.3798 103.677 19.9679C103.655 19.7671 103.693 18.5261 104.126 16.7429C104.409 15.5784 104.881 14.5264 105.051 14.1417C105.114 13.9998 105.143 14.1116 105.142 14.1335C105.106 14.9353 105.026 17.5583 105.352 18.9929C105.795 20.9363 107.076 21.1538 107.523 21.1538C108.476 21.1538 109.255 20.4289 109.518 18.5213C109.581 18.0622 109.487 17.7079 109.207 17.7079Z" fill="white"/>
</g>
<defs>
<radialGradient id="paint0_radial_337_8126" cx="0" cy="0" r="1" gradientUnits="userSpaceOnUse" gradientTransform="translate(7.43213 30.1565) rotate(-90) scale(27.7501 25.8098)">
<stop stop-color="#FFDD55"/>
<stop offset="0.1" stop-color="#FFDD55"/>
<stop offset="0.5" stop-color="#FF543E"/>
<stop offset="1" stop-color="#C837AB"/>
</radialGradient>
<radialGradient id="paint1_radial_337_8126" cx="0" cy="0" r="1" gradientUnits="userSpaceOnUse" gradientTransform="translate(-4.69548 2.01698) rotate(78.681) scale(12.4044 51.1315)">
<stop stop-color="#3771C8"/>
<stop offset="0.128" stop-color="#3771C8"/>
<stop offset="1" stop-color="#6600FF" stop-opacity="0"/>
</radialGradient>
<clipPath id="clip0_337_8126">
<rect width="28" height="28" fill="white"/>
</clipPath>
<clipPath id="clip1_337_8126">
<rect width="73.6438" height="21" fill="white" transform="translate(36 7)"/>
</clipPath>
</defs>
</svg>
