<svg width="97" height="24" viewBox="0 0 97 24" fill="none" xmlns="http://www.w3.org/2000/svg">
<g clip-path="url(#clip0_337_8140)">
<rect x="74.1562" y="2.8125" width="20.625" height="18.9375" fill="white"/>
<path d="M38.1669 14.0571L43.4642 20.5714H39.2812L34.5669 14.5887V20.5714H31.1383V3.42869H34.5669V13.5087L38.9212 8.57144H43.2926L38.1669 14.0571ZM24.4526 8.22869C23.7019 8.23997 22.9652 8.43301 22.3054 8.79126C21.6456 9.14951 21.0825 9.6623 20.6642 10.2857V8.57144H17.4242V20.5714H20.8526V14.9657C20.8076 14.5589 20.8469 14.1471 20.9679 13.756C21.0889 13.365 21.2891 13.003 21.556 12.6926C21.8229 12.3823 22.1509 12.1302 22.5194 11.952C22.888 11.7739 23.2893 11.6735 23.6983 11.6571C25.6869 11.6571 25.9956 13.6114 25.9956 14.9657V20.5714H29.4242V14.2114C29.4242 10.4401 28.1726 8.22869 24.5212 8.22869H24.4526ZM55.1383 14.8457C55.1514 15.0971 55.1514 15.3486 55.1383 15.6001H46.1383V15.7201C46.2844 16.4349 46.6805 17.0744 47.2554 17.5236C47.8304 17.9729 48.5466 18.2025 49.2756 18.1714C49.8539 18.1966 50.4313 18.1048 50.9733 17.9016C51.5153 17.6983 52.0107 17.3878 52.4299 16.9887L54.7099 18.703C53.9873 19.4405 53.1181 20.0183 52.1585 20.3992C51.1988 20.7801 50.17 20.9556 49.1383 20.9144C48.284 20.9683 47.428 20.8383 46.6282 20.5331C45.8284 20.228 45.1034 19.7547 44.5021 19.1453C43.9009 18.5359 43.4374 17.8046 43.143 17.0008C42.8486 16.197 42.7301 15.3393 42.7956 14.4857C42.778 13.6431 42.9341 12.8059 43.2543 12.0263C43.5745 11.2467 44.0518 10.5414 44.6566 9.95434C45.2613 9.3673 45.9805 8.91112 46.7693 8.61423C47.558 8.31733 48.3995 8.18609 49.2412 8.22869C52.4642 8.22869 55.1383 10.5087 55.1383 14.8457ZM51.9499 13.3714C51.9372 13.0319 51.8556 12.6985 51.71 12.3915C51.5643 12.0845 51.3577 11.8104 51.1027 11.5858C50.8476 11.3613 50.5496 11.191 50.2266 11.0854C49.9037 10.9798 49.5626 10.941 49.2242 10.9714C47.7167 10.8085 46.3515 11.8703 46.1383 13.3714H51.9499ZM3.70987 3.42869H0.28125V20.5714H10.5669V17.1432H3.70987V3.42869ZM65.4242 3.42869H68.8526V20.5714H65.6126V19.3714C65.2012 19.8783 64.6768 20.2819 64.0815 20.5498C63.4862 20.8177 62.8364 20.9426 62.1842 20.9144C61.3873 20.8939 60.6031 20.7107 59.8797 20.376C59.1562 20.0413 58.5089 19.5622 57.9774 18.9681C57.446 18.374 57.0416 17.6775 56.7893 16.9215C56.5369 16.1654 56.4418 15.3656 56.5099 14.5714C56.4289 13.7761 56.5144 12.9727 56.7609 12.2122C57.0074 11.4517 57.4095 10.7509 57.9416 10.1543C58.4737 9.55767 59.1242 9.07836 59.8516 8.74684C60.5791 8.41533 61.3676 8.23886 62.1669 8.22869C62.7623 8.20256 63.357 8.29521 63.9162 8.50123C64.4754 8.70725 64.988 9.02253 65.4242 9.42869V3.42869ZM65.6812 14.5714C65.7352 14.1756 65.7036 13.7728 65.5886 13.3902C65.4736 13.0076 65.2779 12.6541 65.0147 12.3535C64.7515 12.0529 64.427 11.8123 64.0629 11.6478C63.6988 11.4834 63.3037 11.3989 62.9042 11.4001C61.2641 11.5191 60.0214 12.9295 60.1099 14.5714C60.0214 16.2134 61.2641 17.6239 62.9042 17.743C63.3037 17.7442 63.6988 17.6597 64.0629 17.4952C64.427 17.3307 64.7516 17.0901 65.0148 16.7895C65.278 16.4889 65.4737 16.1354 65.5886 15.7528C65.7036 15.3701 65.7352 14.9673 65.6812 14.5714ZM13.9956 3.08575C13.4442 3.09352 12.9164 3.31023 12.5186 3.69212C12.1208 4.074 11.8828 4.59261 11.8526 5.14319C11.8526 6.3265 12.8121 7.28594 13.9956 7.28594C15.1791 7.28594 16.1381 6.32631 16.1381 5.14319C16.1079 4.59267 15.8699 4.07414 15.4722 3.6923C15.0745 3.31046 14.5467 3.09375 13.9954 3.08594M12.2812 20.5714H15.7099V8.57144H12.2812V20.5714ZM96.2812 1.71437V22.2857C96.2812 22.7404 96.1006 23.1765 95.7791 23.4979C95.4576 23.8194 95.0216 24.0001 94.5669 24.0001H73.9956C73.5409 24.0001 73.1049 23.8194 72.7834 23.4979C72.4619 23.1765 72.2812 22.7404 72.2812 22.2857V1.71437C72.2812 1.25971 72.4619 0.823668 72.7834 0.502172C73.1049 0.180676 73.5409 6.10352e-05 73.9956 6.10352e-05L94.5669 6.10352e-05C95.0216 6.10352e-05 95.4576 0.180676 95.7791 0.502172C96.1006 0.823668 96.2812 1.25971 96.2812 1.71437ZM79.1383 8.57144H75.7099V20.5714H79.1383V8.57144ZM79.5669 5.143C79.5669 3.9595 78.6075 3.00006 77.4242 3.00006C76.2409 3.00006 75.2812 3.9595 75.2812 5.143C75.2812 6.32631 76.2407 7.28575 77.4242 7.28575C78.6075 7.28575 79.5669 6.32631 79.5669 5.143ZM92.8526 14.2114C92.8526 10.4401 91.6012 8.22869 87.9499 8.22869C87.1875 8.2288 86.4369 8.4165 85.7642 8.77524C85.0915 9.13398 84.5175 9.65273 84.0926 10.2857V8.57144H80.8526V20.5714H84.2812V14.9657C84.2363 14.5589 84.2755 14.1471 84.3965 13.756C84.5175 13.365 84.7177 13.003 84.9846 12.6926C85.2516 12.3823 85.5795 12.1302 85.9481 11.952C86.3166 11.7739 86.7179 11.6735 87.1269 11.6571C89.1156 11.6571 89.4242 13.6114 89.4242 14.9657V20.5714H92.8526V14.2114Z" fill="#0A66C2"/>
</g>
<defs>
<clipPath id="clip0_337_8140">
<rect width="96" height="24" fill="white" transform="translate(0.280273)"/>
</clipPath>
</defs>
</svg>
