<svg width="48" height="48" viewBox="0 0 48 48" fill="none" xmlns="http://www.w3.org/2000/svg">
<path fill-rule="evenodd" clip-rule="evenodd" d="M35.169 14.4809V11.774C35.169 11.4979 34.9451 11.274 34.669 11.274C34.3929 11.274 34.169 11.4979 34.169 11.774V15.1566L35.169 14.4809ZM35.169 18.1015L34.169 18.7772V36.226C34.169 36.5021 34.3929 36.726 34.669 36.726C34.9451 36.726 35.169 36.5021 35.169 36.226V18.1015ZM30.857 17.3944V16.833C30.857 16.5569 30.6331 16.333 30.357 16.333C30.0809 16.333 29.857 16.5569 29.857 16.833V18.0701L30.857 17.3944ZM29.857 21.6907L30.857 21.015V31.167C30.857 31.4431 30.6331 31.667 30.357 31.667C30.0809 31.667 29.857 31.4431 29.857 31.167V21.6907ZM25.553 24.5988L26.553 23.9231V26.529C26.553 26.8051 26.3291 27.029 26.053 27.029C25.7769 27.029 25.553 26.8051 25.553 26.529V24.5988ZM22.447 23.0769V21.471C22.447 21.1949 22.2231 20.971 21.947 20.971C21.6709 20.971 21.447 21.1949 21.447 21.471V23.7525L22.447 23.0769ZM22.4075 26.7242L21.9565 27.0289C22.1593 27.0251 22.3326 26.9006 22.4075 26.7242ZM17.957 26.1106V16.833C17.957 16.5569 17.7331 16.333 17.457 16.333C17.1809 16.333 16.957 16.5569 16.957 16.833V26.7863L17.957 26.1106ZM16.957 30.4069L17.957 29.7313V31.167C17.957 31.4431 17.7331 31.667 17.457 31.667C17.1809 31.667 16.957 31.4431 16.957 31.167V30.4069ZM13.616 29.0437V11.774C13.616 11.4979 13.3921 11.274 13.116 11.274C12.8399 11.274 12.616 11.4979 12.616 11.774V29.7194L13.616 29.0437ZM12.616 33.34L13.616 32.6644V36.226C13.616 36.5021 13.3921 36.726 13.116 36.726C12.8399 36.726 12.616 36.5021 12.616 36.226V33.34ZM9.304 16.833C9.304 16.5569 9.08014 16.333 8.804 16.333C8.52786 16.333 8.304 16.5569 8.304 16.833V31.167C8.304 31.4431 8.52786 31.667 8.804 31.667C9.08014 31.667 9.304 31.4431 9.304 31.167V16.833ZM39.51 16.833C39.51 16.5569 39.2861 16.333 39.01 16.333C38.7339 16.333 38.51 16.5569 38.51 16.833V31.167C38.51 31.4431 38.7339 31.667 39.01 31.667C39.2861 31.667 39.51 31.4431 39.51 31.167V16.833ZM5 21.471C5 21.1949 4.77614 20.971 4.5 20.971C4.22386 20.971 4 21.1949 4 21.471V26.529C4 26.8051 4.22386 27.029 4.5 27.029C4.77614 27.029 5 26.8051 5 26.529V21.471ZM44 21.471C44 21.1949 43.7761 20.971 43.5 20.971C43.2239 20.971 43 21.1949 43 21.471V26.529C43 26.8051 43.2239 27.029 43.5 27.029C43.7761 27.029 44 26.8051 44 26.529V21.471Z" fill="white"/>
<path d="M6 36L43 11" stroke="white" stroke-linecap="round"/>
</svg>
