<svg width="166" height="20" viewBox="0 0 166 20" fill="none" xmlns="http://www.w3.org/2000/svg">
<g filter="url(#filter0_d_337_9862)">
<path fill-rule="evenodd" clip-rule="evenodd" d="M5.88418 3.90838C5.88418 3.42199 5.62071 2.9964 5.23565 2.76672C5.4721 2.52352 5.61396 2.1925 5.61396 1.82771C5.61396 1.09812 5.01948 0.496887 4.28314 0.496887H4.23585H0.999992V0.780616C0.999992 0.79484 1.00092 0.808798 1.00272 0.82244H0.996338V5.23224H0.999992V5.23245C4.67495 5.23245 4.55335 5.23921 4.55335 5.23921C5.2897 5.23921 5.88418 4.64473 5.88418 3.90838ZM1.65781 2.57081V1.09137H4.28314C4.68846 1.09137 5.01948 1.42238 5.01948 1.82771C5.01948 2.23979 4.68846 2.57081 4.28314 2.57081H1.65781ZM3.44546 3.16529H1.65781V4.64473H4.55335C4.95868 4.64473 5.2897 4.31371 5.2897 3.90838C5.2897 3.50306 4.95868 3.17204 4.55335 3.17204V3.16529H3.44546ZM13.5172 5.23245L11.1056 0.496887H10.7408C10.5449 0.496887 10.3692 0.61173 10.2746 0.780616L8.01156 5.23245H8.6871L10.761 1.16568L12.5377 4.64473H10.3489L10.0449 5.23245H13.5172ZM16.7187 2.27357C16.8876 2.27357 17.0294 2.41543 17.0294 2.58432V5.23245H16.7187C16.5498 5.23245 16.4147 5.09734 16.4147 4.92846V2.27357H16.7187ZM18.5494 0.496887C18.7183 0.496887 18.8534 0.638752 18.8534 0.807637V1.09137H14.8947C14.7258 1.09137 14.584 0.956257 14.584 0.780616V0.496887H18.5494ZM21.6241 2.86805C21.6241 1.88851 22.4212 1.09137 23.4008 1.09137H25.1437C25.3126 1.09137 25.4544 0.956257 25.4544 0.780616V0.496887H23.4008C22.0902 0.496887 21.0296 1.55749 21.0296 2.86805C21.0296 4.1786 22.0902 5.23921 23.4008 5.23921C23.4008 5.23921 23.3737 5.23245 25.4544 5.23245V4.95548C25.4544 4.77984 25.3126 4.64473 25.1437 4.64473H23.4008C22.4212 4.64473 21.6241 3.84759 21.6241 2.86805ZM29.9807 0.496887L32.3924 5.23245H28.9201L29.2241 4.64473H31.4128L29.6361 1.16568L27.5622 5.23245H26.8867L29.1498 0.780616C29.2443 0.61173 29.42 0.496887 29.6159 0.496887H29.9807ZM35.452 3.07071L34.263 0.740083C34.1887 0.591463 34.0333 0.496887 33.8712 0.496887H33.4591L35.2155 3.93541L35.452 3.46928C35.5128 3.34768 35.5128 3.19231 35.452 3.07071ZM38.9648 0.496887H38.5595C38.3906 0.496887 38.2419 0.591463 38.1609 0.740083L35.8708 5.23921H36.5531L38.9648 0.496887ZM45.01 4.64473C45.1788 4.64473 45.3207 4.77984 45.3207 4.95548V5.23245H40.8283V5.23229H40.8275V1.04298H40.8283V0.496887H45.2531V0.780616C45.2531 0.956257 45.1113 1.09137 44.9424 1.09137H41.4889V2.57081H44.8343V2.85454C44.8343 3.02342 44.6992 3.16529 44.5236 3.16529H41.4889V4.64473H45.01Z" fill="#1AABFF"/>
<path d="M48.0998 0.433033H47.5618C47.5618 0.311029 47.6191 0.250026 47.7338 0.250026H48.8428C48.8428 0.372031 48.7855 0.433033 48.6709 0.433033H48.307V1.64132C48.307 1.69718 48.2894 1.7398 48.2541 1.7692C48.2189 1.7986 48.1674 1.8133 48.0998 1.8133V0.433033ZM49.1956 0.402165C49.1956 0.347777 49.2139 0.305884 49.2507 0.276485C49.2874 0.245617 49.3382 0.230182 49.4028 0.230182L49.9364 1.51123L49.8945 1.61486L49.91 1.62147L50.4744 0.230182C50.5391 0.230182 50.5898 0.245617 50.6266 0.276485C50.6648 0.307354 50.6839 0.349982 50.6839 0.404369V1.8133C50.5472 1.8133 50.4788 1.75671 50.4788 1.64352V0.715261L50.5362 0.563122L50.5185 0.558713L50.0268 1.75377C50.0195 1.77141 50.0077 1.78537 49.9915 1.79566C49.9754 1.80742 49.9585 1.8133 49.9408 1.8133C49.9217 1.8133 49.9041 1.80816 49.8879 1.79787C49.8717 1.78758 49.86 1.77288 49.8526 1.75377L49.3609 0.556508L49.3433 0.563122L49.4006 0.713056V1.64352C49.4006 1.69938 49.383 1.74201 49.3477 1.77141C49.3139 1.79934 49.2632 1.8133 49.1956 1.8133V0.402165Z" fill="#1AABFF"/>
</g>
<path d="M2.83736 12.816C3.40758 12.4851 4.02707 12.3197 4.69584 12.3197C5.37165 12.3197 5.99115 12.4851 6.55432 12.816C7.12454 13.1468 7.57508 13.5974 7.90594 14.1676C8.23681 14.7308 8.40224 15.3503 8.40224 16.0261C8.40224 16.6948 8.23681 17.3143 7.90594 17.8846C7.57508 18.4477 7.12454 18.8948 6.55432 19.2256C5.99115 19.5565 5.37165 19.7219 4.69584 19.7219C4.02707 19.7219 3.40758 19.5565 2.83736 19.2256C2.27419 18.8948 1.82716 18.4477 1.4963 17.8846C1.16543 17.3143 1 16.6948 1 16.0261C1 15.3503 1.16543 14.7308 1.4963 14.1676C1.82716 13.5974 2.27419 13.1468 2.83736 12.816ZM2.73177 17.9796C3.27382 18.5217 3.92851 18.7927 4.69584 18.7927C5.46317 18.7927 6.11786 18.5217 6.65992 17.9796C7.20197 17.4375 7.473 16.7864 7.473 16.0261C7.473 15.2588 7.20197 14.6041 6.65992 14.062C6.11786 13.5129 5.46317 13.2384 4.69584 13.2384C3.92851 13.2384 3.27382 13.5129 2.73177 14.062C2.18971 14.6041 1.91868 15.2588 1.91868 16.0261C1.91868 16.7864 2.18971 17.4375 2.73177 17.9796Z" fill="white"/>
<path d="M17.2445 16.4379L18.913 19.7219H18.2583C17.9907 19.7219 17.7936 19.6022 17.6669 19.3629L16.1991 16.4801H12.7779V19.2362C12.7779 19.3699 12.7286 19.4861 12.63 19.5846C12.5385 19.6762 12.4259 19.7219 12.2921 19.7219H11.8169V15.5615H16.801V15.5509C17.1178 15.5509 17.3889 15.4383 17.6141 15.213C17.8394 14.9877 17.952 14.7167 17.952 14.3999C17.952 14.0831 17.8394 13.8121 17.6141 13.5868C17.3889 13.3616 17.1178 13.2489 16.801 13.2489V13.2384H12.3027C12.1689 13.2384 12.0528 13.1926 11.9542 13.1011C11.8627 13.0025 11.8169 12.8864 11.8169 12.7526V12.3197H16.7377C16.7588 12.3197 16.7799 12.3197 16.801 12.3197C17.3783 12.3197 17.8676 12.5238 18.2688 12.9321C18.6771 13.3334 18.8813 13.8227 18.8813 14.3999C18.8813 14.7237 18.8109 15.03 18.6701 15.3186C18.5293 15.6072 18.3322 15.8501 18.0787 16.0472C17.8324 16.2373 17.5543 16.3675 17.2445 16.4379Z" fill="white"/>
<path d="M23.2332 12.3197C23.367 12.3197 23.4796 12.369 23.5711 12.4675C23.6697 12.559 23.7189 12.6717 23.7189 12.8054V19.7219H23.2332C23.1487 19.7219 23.0678 19.7008 22.9903 19.6586C22.9199 19.6163 22.8636 19.56 22.8214 19.4896C22.7791 19.4122 22.758 19.3277 22.758 19.2362V12.3197H23.2332Z" fill="white"/>
<path d="M34.8603 16.4801H35.3461V19.7219H31.249C30.5802 19.7219 29.9607 19.5565 29.3905 19.2256C28.8273 18.8948 28.3803 18.4477 28.0494 17.8846C27.7186 17.3143 27.5531 16.6948 27.5531 16.0261C27.5531 15.3503 27.7186 14.7308 28.0494 14.1676C28.3803 13.5974 28.8273 13.1468 29.3905 12.816C29.9607 12.4851 30.5802 12.3197 31.249 12.3197C31.249 12.3197 31.2842 12.3197 31.3546 12.3197C31.432 12.3197 31.7699 12.3197 32.3683 12.3197C32.9737 12.3197 33.8149 12.3197 34.892 12.3197V12.7632C34.892 12.8969 34.8427 13.0096 34.7442 13.1011C34.6527 13.1926 34.54 13.2384 34.4063 13.2384H31.249C30.4816 13.2384 29.827 13.5129 29.2849 14.062C28.7428 14.6041 28.4718 15.2588 28.4718 16.0261C28.4718 16.7864 28.7428 17.4375 29.2849 17.9796C29.827 18.5217 30.4816 18.7927 31.249 18.7927H34.3746V16.9659C34.3746 16.8321 34.4204 16.7195 34.5119 16.628C34.6104 16.5294 34.7266 16.4801 34.8603 16.4801Z" fill="white"/>
<path d="M39.155 12.3197C39.2888 12.3197 39.4014 12.369 39.4929 12.4675C39.5915 12.559 39.6408 12.6717 39.6408 12.8054V19.7219H39.155C39.0705 19.7219 38.9896 19.7008 38.9122 19.6586C38.8418 19.6163 38.7854 19.56 38.7432 19.4896C38.701 19.4122 38.6798 19.3277 38.6798 19.2362V12.3197H39.155Z" fill="white"/>
<path d="M49.6628 12.3197H50.1486V19.7219H49.0187L44.4359 13.5446V19.5142C44.4359 19.648 44.3866 19.7642 44.288 19.8627C44.1965 19.9542 44.0839 20 43.9501 20H43.4644V12.3197H44.5943L49.1877 18.497V12.8054C49.1877 12.6717 49.2334 12.559 49.3249 12.4675C49.4165 12.369 49.5291 12.3197 49.6628 12.3197Z" fill="white"/>
<path d="M58.7136 12.3197L62.4834 19.7219H57.0663L57.5309 18.7927H60.9522L58.1856 13.3651L54.9439 19.7219H53.8773L57.4253 12.7632C57.4957 12.6294 57.5943 12.5238 57.721 12.4464C57.8548 12.3619 57.9991 12.3197 58.154 12.3197H58.7136Z" fill="white"/>
<path d="M71.346 18.7927C71.4797 18.7927 71.5924 18.842 71.6839 18.9405C71.7824 19.032 71.8317 19.1447 71.8317 19.2784V19.7219H69.8254C69.1637 19.7149 68.5512 19.5459 67.988 19.2151C67.4249 18.8842 66.9814 18.4372 66.6575 17.874C66.3337 17.3038 66.1718 16.6843 66.1718 16.0155V12.3197H66.647C66.7807 12.3197 66.8934 12.3654 66.9849 12.457C67.0834 12.5485 67.1327 12.6611 67.1327 12.7949V16.0155C67.1327 16.7899 67.3967 17.4481 67.9247 17.9902C68.4597 18.5252 69.1073 18.7927 69.8676 18.7927H71.346Z" fill="white"/>
<path d="M88.0087 16.4801H88.4944V19.7219H84.3973C83.7285 19.7219 83.1091 19.5565 82.5388 19.2256C81.9757 18.8948 81.5286 18.4477 81.1978 17.8846C80.8669 17.3143 80.7015 16.6948 80.7015 16.0261C80.7015 15.3503 80.8669 14.7308 81.1978 14.1676C81.5286 13.5974 81.9757 13.1468 82.5388 12.816C83.1091 12.4851 83.7285 12.3197 84.3973 12.3197C84.3973 12.3197 84.4325 12.3197 84.5029 12.3197C84.5804 12.3197 84.9183 12.3197 85.5166 12.3197C86.122 12.3197 86.9633 12.3197 88.0404 12.3197V12.7632C88.0404 12.8969 87.9911 13.0096 87.8925 13.1011C87.801 13.1926 87.6884 13.2384 87.5546 13.2384H84.3973C83.63 13.2384 82.9753 13.5129 82.4332 14.062C81.8912 14.6041 81.6202 15.2588 81.6202 16.0261C81.6202 16.7864 81.8912 17.4375 82.4332 17.9796C82.9753 18.5217 83.63 18.7927 84.3973 18.7927H87.5229V16.9659C87.5229 16.8321 87.5687 16.7195 87.6602 16.628C87.7588 16.5294 87.8749 16.4801 88.0087 16.4801Z" fill="white"/>
<path d="M98.354 18.7927C98.4244 18.7927 98.4877 18.8068 98.5441 18.8349C98.6074 18.8631 98.6602 18.8983 98.7025 18.9405C98.7447 18.9828 98.7764 19.0355 98.7975 19.0989C98.8256 19.1552 98.8397 19.2151 98.8397 19.2784V19.7219H91.8282V18.7927H98.354ZM98.7341 12.7632C98.7341 12.8477 98.713 12.9286 98.6708 13.006C98.6285 13.0764 98.5687 13.1328 98.4913 13.175C98.4209 13.2172 98.3399 13.2384 98.2484 13.2384H91.8282V12.3197H98.7341V12.7632ZM98.09 16.005C98.09 16.1317 98.0407 16.2443 97.9422 16.3429C97.8506 16.4344 97.738 16.4801 97.6043 16.4801H91.8282V15.5615H98.09V16.005Z" fill="white"/>
<path d="M107.417 12.3197L111.187 19.7219H105.77L106.235 18.7927H109.656L106.889 13.3651L103.648 19.7219H102.581L106.129 12.7632C106.2 12.6294 106.298 12.5238 106.425 12.4464C106.559 12.3619 106.703 12.3197 106.858 12.3197H107.417Z" fill="white"/>
<path d="M120.303 16.4379L121.972 19.7219H121.317C121.049 19.7219 120.852 19.6022 120.726 19.3629L119.258 16.4801H115.837V19.2362C115.837 19.3699 115.787 19.4861 115.689 19.5846C115.597 19.6762 115.485 19.7219 115.351 19.7219H114.876V15.5615H119.86V15.5509C120.177 15.5509 120.448 15.4383 120.673 15.213C120.898 14.9877 121.011 14.7167 121.011 14.3999C121.011 14.0831 120.898 13.8121 120.673 13.5868C120.448 13.3616 120.177 13.2489 119.86 13.2489V13.2384H115.361C115.228 13.2384 115.111 13.1926 115.013 13.1011C114.921 13.0025 114.876 12.8864 114.876 12.7526V12.3197H119.796C119.818 12.3197 119.839 12.3197 119.86 12.3197C120.437 12.3197 120.926 12.5238 121.328 12.9321C121.736 13.3334 121.94 13.8227 121.94 14.3999C121.94 14.7237 121.87 15.03 121.729 15.3186C121.588 15.6072 121.391 15.8501 121.137 16.0472C120.891 16.2373 120.613 16.3675 120.303 16.4379Z" fill="white"/>
<path d="M125.785 12.3197C125.919 12.3197 126.031 12.369 126.123 12.4675C126.214 12.559 126.26 12.6717 126.26 12.8054V19.7219H125.785C125.651 19.7219 125.535 19.6762 125.437 19.5846C125.345 19.4861 125.299 19.3699 125.299 19.2362V12.3197H125.785ZM131.498 12.3197C131.632 12.3197 131.744 12.369 131.836 12.4675C131.927 12.559 131.973 12.6717 131.973 12.8054V19.7219H131.498C131.406 19.7219 131.322 19.7008 131.244 19.6586C131.174 19.6163 131.118 19.56 131.075 19.4896C131.033 19.4122 131.012 19.3277 131.012 19.2362V16.0155H128.647C128.562 16.0155 128.481 15.9944 128.404 15.9522C128.333 15.9099 128.277 15.8536 128.235 15.7832C128.193 15.7058 128.172 15.6248 128.172 15.5403V15.0968H131.012V12.3197H131.498Z" fill="white"/>
<path d="M142.356 18.7927C142.426 18.7927 142.489 18.8068 142.546 18.8349C142.609 18.8631 142.662 18.8983 142.704 18.9405C142.746 18.9828 142.778 19.0355 142.799 19.0989C142.827 19.1552 142.841 19.2151 142.841 19.2784V19.7219H135.83V18.7927H142.356ZM142.736 12.7632C142.736 12.8477 142.715 12.9286 142.672 13.006C142.63 13.0764 142.57 13.1328 142.493 13.175C142.422 13.2172 142.341 13.2384 142.25 13.2384H135.83V12.3197H142.736V12.7632ZM142.092 16.005C142.092 16.1317 142.042 16.2443 141.944 16.3429C141.852 16.4344 141.74 16.4801 141.606 16.4801H135.83V15.5615H142.092V16.005Z" fill="white"/>
<path d="M151.419 12.3197L155.189 19.7219H149.772L150.236 18.7927H153.658L150.891 13.3651L147.649 19.7219H146.583L150.131 12.7632C150.201 12.6294 150.3 12.5238 150.426 12.4464C150.56 12.3619 150.704 12.3197 150.859 12.3197H151.419Z" fill="white"/>
<path d="M162.182 12.3197C162.872 12.3126 163.506 12.4746 164.083 12.8054C164.66 13.1363 165.114 13.5868 165.445 14.157C165.776 14.7273 165.942 15.3467 165.942 16.0155C165.942 16.5224 165.843 17.0046 165.646 17.4622C165.449 17.9198 165.185 18.314 164.854 18.6448C164.523 18.9757 164.129 19.2397 163.671 19.4368C163.221 19.6269 162.742 19.7219 162.235 19.7219H158.867V19.2784C158.867 19.1447 158.912 19.032 159.004 18.9405C159.095 18.842 159.208 18.7927 159.342 18.7927H162.235C163.002 18.7927 163.657 18.5217 164.199 17.9796C164.741 17.4375 165.012 16.7864 165.012 16.0261C165.012 15.2588 164.741 14.6041 164.199 14.062C163.657 13.5129 163.002 13.2384 162.235 13.2384H159.342C159.257 13.2384 159.176 13.2172 159.099 13.175C159.029 13.1328 158.972 13.0764 158.93 13.006C158.888 12.9286 158.867 12.8477 158.867 12.7632V12.3197H162.182Z" fill="white"/>
<defs>
<filter id="filter0_d_337_9862" x="0.0292763" y="0" width="51.8926" height="7.21391" filterUnits="userSpaceOnUse" color-interpolation-filters="sRGB">
<feFlood flood-opacity="0" result="BackgroundImageFix"/>
<feColorMatrix in="SourceAlpha" type="matrix" values="0 0 0 0 0 0 0 0 0 0 0 0 0 0 0 0 0 0 127 0" result="hardAlpha"/>
<feOffset dy="0.967062"/>
<feGaussianBlur stdDeviation="0.483531"/>
<feComposite in2="hardAlpha" operator="out"/>
<feColorMatrix type="matrix" values="0 0 0 0 0 0 0 0 0 0 0 0 0 0 0 0 0 0 0.25 0"/>
<feBlend mode="normal" in2="BackgroundImageFix" result="effect1_dropShadow_337_9862"/>
<feBlend mode="normal" in="SourceGraphic" in2="effect1_dropShadow_337_9862" result="shape"/>
</filter>
</defs>
</svg>
