<svg width="135" height="36" viewBox="0 0 135 36" fill="none" xmlns="http://www.w3.org/2000/svg">
<g filter="url(#filter0_d_337_7723)">
<path fill-rule="evenodd" clip-rule="evenodd" d="M4.52942 2.78463C4.52942 2.43802 4.34167 2.13473 4.06727 1.97105C4.23576 1.79774 4.33686 1.56185 4.33686 1.30189C4.33686 0.781969 3.91322 0.353516 3.38848 0.353516H3.35478H1.04883V0.555707C1.04883 0.56589 1.0495 0.575882 1.05079 0.585646H1.04785V3.72818H1.04883V3.72819C3.6677 3.72819 3.58104 3.733 3.58104 3.733C4.10578 3.733 4.52942 3.30937 4.52942 2.78463ZM1.51923 1.83144V0.777155H3.38848C3.67733 0.777155 3.91322 1.01305 3.91322 1.30189C3.91322 1.59555 3.67733 1.83144 3.38848 1.83144H1.51923ZM2.79153 2.25508H1.51923V3.30937H3.58104C3.86989 3.30937 4.10578 3.07348 4.10578 2.78463C4.10578 2.49578 3.86989 2.25989 3.58104 2.25989V2.25508H2.79153ZM9.96893 3.72819L8.2503 0.353516H7.99034C7.85073 0.353516 7.72556 0.435355 7.65816 0.555707L6.04544 3.72819H6.52685L8.00478 0.83011L9.27088 3.30937H7.71112L7.49449 3.72819H9.96893ZM12.2504 1.61962C12.3707 1.61962 12.4718 1.72072 12.4718 1.84107V3.72819H12.2504C12.13 3.72819 12.0337 3.63191 12.0337 3.51156V1.61962H12.2504ZM13.555 0.353516C13.6753 0.353516 13.7716 0.454612 13.7716 0.574964V0.777155H10.9506C10.8302 0.777155 10.7291 0.680874 10.7291 0.555707V0.353516H13.555ZM15.7461 2.04326C15.7461 1.34522 16.3141 0.777155 17.0122 0.777155H18.2542C18.3746 0.777155 18.4757 0.680874 18.4757 0.555707V0.353516H17.0122C16.0782 0.353516 15.3224 1.10933 15.3224 2.04326C15.3224 2.97719 16.0782 3.733 17.0122 3.733C17.0122 3.733 16.9929 3.72819 18.4757 3.72819V3.53081C18.4757 3.40565 18.3746 3.30937 18.2542 3.30937H17.0122C16.3141 3.30937 15.7461 2.7413 15.7461 2.04326ZM21.7012 0.353516L23.4198 3.72819H20.9454L21.162 3.30937H22.7218L21.4557 0.83011L19.9777 3.72819H19.4963L21.109 0.555707C21.1764 0.435355 21.3016 0.353516 21.4412 0.353516H21.7012ZM25.6001 2.18768L24.7529 0.526823C24.6999 0.420913 24.5892 0.353516 24.4736 0.353516H24.18L25.4316 2.80389L25.6001 2.47171C25.6435 2.38506 25.6435 2.27434 25.6001 2.18768ZM28.1035 0.353516H27.8146C27.6943 0.353516 27.5884 0.420913 27.5306 0.526823L25.8986 3.733H26.3848L28.1035 0.353516ZM32.4114 3.30937C32.5317 3.30937 32.6328 3.40565 32.6328 3.53081V3.72819H29.4315V3.30937H29.4336V2.25508H29.4315V1.83144H29.4336V0.777155H29.4315V0.353516H32.5847V0.555707C32.5847 0.680874 32.4836 0.777155 32.3633 0.777155H29.905V1.83144H32.2862V2.03363C32.2862 2.15398 32.1899 2.25508 32.0648 2.25508H29.905V3.30937H32.4114Z" fill="#1AABFF"/>
<path d="M34.6172 0.88319H34.2338C34.2338 0.796247 34.2747 0.752775 34.3564 0.752775H35.1467C35.1467 0.839719 35.1059 0.88319 35.0242 0.88319H34.7649V1.74424C34.7649 1.78405 34.7523 1.81443 34.7272 1.83538C34.7021 1.85633 34.6654 1.8668 34.6172 1.8668V0.88319ZM35.3981 0.861193C35.3981 0.822435 35.4112 0.792581 35.4374 0.771631C35.4636 0.749633 35.4997 0.738634 35.5458 0.738634L35.926 1.65154L35.8962 1.72539L35.9072 1.7301L36.3094 0.738634C36.3555 0.738634 36.3917 0.749633 36.4178 0.771631C36.4451 0.793628 36.4587 0.824006 36.4587 0.862764V1.8668C36.3613 1.8668 36.3126 1.82647 36.3126 1.74582V1.08431L36.3534 0.975895L36.3409 0.972753L35.9905 1.82438C35.9852 1.83695 35.9768 1.8469 35.9653 1.85423C35.9538 1.86261 35.9418 1.8668 35.9292 1.8668C35.9156 1.8668 35.903 1.86314 35.8915 1.8558C35.88 1.84847 35.8716 1.838 35.8663 1.82438L35.5159 0.971181L35.5034 0.975895L35.5442 1.08274V1.74582C35.5442 1.78562 35.5317 1.816 35.5065 1.83695C35.4824 1.85685 35.4463 1.8668 35.3981 1.8668V0.861193Z" fill="#1AABFF"/>
<path d="M18.1103 6.04248L18.5283 4.99445H18.6414L19.0578 6.04248H18.9368L18.5739 5.09972L18.5974 5.09658L18.2329 6.04248H18.1103ZM18.2942 5.71566L18.3429 5.60724H18.8567L18.8645 5.71566H18.2942ZM20.1979 6.05819C20.068 6.05819 19.9669 6.01996 19.8946 5.94349C19.8234 5.86702 19.7878 5.75756 19.7878 5.6151V4.99445H19.9009V5.62138C19.9009 5.73346 19.9261 5.81674 19.9763 5.87121C20.0266 5.92464 20.1005 5.95135 20.1979 5.95135C20.2953 5.95135 20.3697 5.92464 20.421 5.87121C20.4723 5.81674 20.498 5.73346 20.498 5.62138V4.99445H20.608V5.6151C20.608 5.71042 20.5917 5.79108 20.5593 5.85707C20.5268 5.92306 20.4802 5.97334 20.4194 6.00791C20.3587 6.04143 20.2848 6.05819 20.1979 6.05819ZM21.71 6.04248V5.10129H21.3392V4.99445H22.1924V5.10129H21.8232V6.04248H21.71ZM23.3306 6.05819C23.2269 6.05819 23.1399 6.03829 23.0698 5.99849C23.0006 5.95763 22.9482 5.8974 22.9126 5.81779C22.8781 5.73818 22.8608 5.63867 22.8608 5.51925C22.8608 5.34117 22.9001 5.20709 22.9786 5.11701C23.0582 5.02587 23.1756 4.98031 23.3306 4.98031C23.4353 4.98031 23.5223 5.00073 23.5914 5.04158C23.6616 5.08139 23.714 5.1411 23.7485 5.22071C23.7842 5.30032 23.802 5.39983 23.802 5.51925C23.802 5.69733 23.7622 5.83193 23.6825 5.92306C23.604 6.01315 23.4867 6.05819 23.3306 6.05819ZM23.3306 5.95135C23.4133 5.95135 23.4809 5.93616 23.5333 5.90578C23.5857 5.8754 23.6239 5.82826 23.648 5.76437C23.6731 5.70047 23.6857 5.61876 23.6857 5.51925C23.6857 5.41974 23.6731 5.33855 23.648 5.2757C23.6239 5.2118 23.5857 5.16467 23.5333 5.13429C23.4809 5.10286 23.4133 5.08715 23.3306 5.08715C23.2489 5.08715 23.1818 5.10286 23.1295 5.13429C23.0771 5.16467 23.0383 5.2118 23.0132 5.2757C22.9891 5.33855 22.977 5.41974 22.977 5.51925C22.977 5.61876 22.9891 5.70047 23.0132 5.76437C23.0383 5.82826 23.0771 5.8754 23.1295 5.90578C23.1818 5.93616 23.2489 5.95135 23.3306 5.95135ZM24.5951 6.04248V4.99445H24.7176L25.1057 5.58996L25.0287 5.60724L25.4388 4.99445H25.5614V6.04248H25.4483V5.10758H25.4985L25.0664 5.71409L24.6673 5.12015L24.7082 5.06201V6.04248H24.5951ZM26.8249 6.05819C26.7212 6.05819 26.6343 6.03829 26.5641 5.99849C26.495 5.95763 26.4426 5.8974 26.407 5.81779C26.3724 5.73818 26.3551 5.63867 26.3551 5.51925C26.3551 5.34117 26.3944 5.20709 26.473 5.11701C26.5526 5.02587 26.6699 4.98031 26.8249 4.98031C26.9297 4.98031 27.0166 5.00073 27.0858 5.04158C27.1559 5.08139 27.2083 5.1411 27.2429 5.22071C27.2785 5.30032 27.2963 5.39983 27.2963 5.51925C27.2963 5.69733 27.2565 5.83193 27.1769 5.92306C27.0983 6.01315 26.981 6.05819 26.8249 6.05819ZM26.8249 5.95135C26.9077 5.95135 26.9752 5.93616 27.0276 5.90578C27.08 5.8754 27.1182 5.82826 27.1423 5.76437C27.1675 5.70047 27.18 5.61876 27.18 5.51925C27.18 5.41974 27.1675 5.33855 27.1423 5.2757C27.1182 5.2118 27.08 5.16467 27.0276 5.13429C26.9752 5.10286 26.9077 5.08715 26.8249 5.08715C26.7432 5.08715 26.6762 5.10286 26.6238 5.13429C26.5714 5.16467 26.5327 5.2118 26.5075 5.2757C26.4834 5.33855 26.4714 5.41974 26.4714 5.51925C26.4714 5.61876 26.4834 5.70047 26.5075 5.76437C26.5327 5.82826 26.5714 5.8754 26.6238 5.90578C26.6762 5.93616 26.7432 5.95135 26.8249 5.95135ZM28.3351 6.04248V5.10129H27.9643V4.99445H28.8175V5.10129H28.4482V6.04248H28.3351ZM29.5481 6.04248V4.99445H29.6612V6.04248H29.5481ZM30.7944 6.04248L30.3922 4.99445H30.5132L30.8761 5.94663H30.8353L31.1919 4.99759L31.3082 4.99445L30.906 6.04248H30.7944ZM32.0389 6.04248V4.99445H32.7004V5.10129H32.1521V5.46268H32.6344V5.57267H32.1521V5.93563H32.7004V6.04248H32.0389Z" fill="#1AABFF"/>
</g>
<path d="M64.2714 27.301C64.4286 27.301 64.561 27.3589 64.6685 27.4748C64.7844 27.5823 64.8423 27.7147 64.8423 27.8719V36.0001H64.2714C64.1722 36.0001 64.077 35.9753 63.986 35.9256C63.9033 35.876 63.8371 35.8098 63.7875 35.7271C63.7378 35.6361 63.713 35.5368 63.713 35.4292V27.301H64.2714Z" fill="white"/>
<path d="M54.9482 27.3009L59.3784 36H53.0123L53.5583 34.9079H57.579L54.3277 28.5294L50.518 36H49.2646L53.4342 27.8221C53.517 27.6649 53.6328 27.5408 53.7817 27.4498C53.9389 27.3505 54.1085 27.3009 54.2905 27.3009H54.9482Z" fill="white"/>
<path d="M42.8403 30.5646C42.9975 30.5646 43.1299 30.6225 43.2374 30.7383C43.345 30.8459 43.3988 30.9741 43.3988 31.123V36H42.8403C42.6832 36 42.5466 35.9462 42.4308 35.8386C42.3233 35.7228 42.2695 35.5863 42.2695 35.4291V30.5646H42.8403ZM46.1909 27.3009C46.3481 27.3009 46.4805 27.3588 46.588 27.4746C46.7038 27.5822 46.7617 27.7146 46.7617 27.8717V28.3805H39.4774C39.3781 28.3805 39.283 28.3557 39.192 28.3061C39.1092 28.2564 39.043 28.1902 38.9934 28.1075C38.9438 28.0165 38.9189 27.9214 38.9189 27.8221V27.3009H46.1909Z" fill="white"/>
<path d="M30.5054 30.5646C30.6626 30.5646 30.7949 30.6225 30.9025 30.7383C31.01 30.8459 31.0638 30.9741 31.0638 31.123V36H30.5054C30.3482 36 30.2117 35.9462 30.0959 35.8386C29.9883 35.7228 29.9345 35.5863 29.9345 35.4291V30.5646H30.5054ZM33.8559 27.3009C34.0131 27.3009 34.1455 27.3588 34.253 27.4746C34.3689 27.5822 34.4268 27.7146 34.4268 27.8717V28.3805H27.1424C27.0431 28.3805 26.948 28.3557 26.857 28.3061C26.7743 28.2564 26.7081 28.1902 26.6584 28.1075C26.6088 28.0165 26.584 27.9214 26.584 27.8221V27.3009H33.8559Z" fill="white"/>
<path d="M21.4913 34.9079C21.5741 34.9079 21.6485 34.9245 21.7147 34.9576C21.7892 34.9906 21.8512 35.032 21.9008 35.0816C21.9505 35.1313 21.9877 35.1933 22.0125 35.2678C22.0456 35.334 22.0622 35.4043 22.0622 35.4788V36H13.8223V34.9079H21.4913ZM21.9381 27.8221C21.9381 27.9214 21.9132 28.0165 21.8636 28.1075C21.814 28.1902 21.7436 28.2564 21.6526 28.3061C21.5699 28.3557 21.4748 28.3805 21.3672 28.3805H13.8223V27.3009H21.9381V27.8221ZM21.1811 31.6318C21.1811 31.7807 21.1232 31.9131 21.0074 32.0289C20.8998 32.1365 20.7674 32.1902 20.6103 32.1902H13.8223V31.1106H21.1811V31.6318Z" fill="white"/>
<path d="M6.85727 27.3009C7.53566 27.3009 8.11063 27.5408 8.58219 28.0207C9.06202 28.4922 9.30194 29.0672 9.30194 29.7456C9.30194 30.424 9.06202 31.0031 8.58219 31.4829C8.11063 31.9545 7.53566 32.1902 6.85727 32.1902H2.12926V35.4291C2.12926 35.5863 2.07135 35.7228 1.95553 35.8386C1.84798 35.9462 1.71561 36 1.55843 36H1V31.1106H6.85727V31.0982C7.22956 31.0982 7.54807 30.9658 7.8128 30.7011C8.07754 30.4364 8.20991 30.1179 8.20991 29.7456C8.20991 29.3733 8.07754 29.0548 7.8128 28.79C7.54807 28.5253 7.22956 28.3929 6.85727 28.3929V28.3805H1.76939C1.55429 28.3805 1.37228 28.3061 1.22337 28.1572C1.07446 28.0082 1 27.8262 1 27.6111V27.3009H6.78282C6.80764 27.3009 6.83246 27.3009 6.85727 27.3009Z" fill="white"/>
<path d="M132.234 16.2194C132.912 16.2194 133.487 16.4593 133.959 16.9391C134.439 17.419 134.679 17.9981 134.679 18.6765C134.679 19.3466 134.439 19.9215 133.959 20.4014C133.487 20.8812 132.912 21.1211 132.234 21.1211L126.6 21.1087H126.563V20.5875C126.563 20.4303 126.617 20.298 126.724 20.1904C126.84 20.0746 126.977 20.0167 127.134 20.0167H132.147H132.321C132.677 20.0001 132.974 19.8636 133.214 19.6072C133.463 19.3424 133.587 19.0281 133.587 18.664C133.587 18.2918 133.454 17.9733 133.19 17.7085C132.925 17.4438 132.606 17.3114 132.234 17.3114H132.209C132.052 17.3114 131.92 17.2576 131.812 17.1501C131.705 17.0343 131.651 16.8978 131.651 16.7406V16.2194H132.234ZM128.896 17.299C128.449 17.299 128.035 17.1915 127.655 16.9764C127.283 16.753 126.989 16.4552 126.774 16.0829C126.559 15.7106 126.451 15.3011 126.451 14.8543C126.451 14.176 126.687 13.601 127.159 13.1294C127.638 12.6496 128.217 12.4097 128.896 12.4097C128.921 12.4097 128.95 12.4097 128.983 12.4097H134.331V12.9309C134.331 13.0053 134.315 13.0798 134.282 13.1542C134.257 13.2204 134.22 13.2783 134.17 13.328C134.12 13.3776 134.058 13.419 133.984 13.4521C133.918 13.4769 133.847 13.4893 133.773 13.4893H128.896V13.5017C128.524 13.5017 128.205 13.6341 127.94 13.8988C127.676 14.1635 127.543 14.4821 127.543 14.8543C127.543 15.2266 127.676 15.5451 127.94 15.8099C128.205 16.0746 128.524 16.207 128.896 16.207V16.2194H128.908C129.016 16.2194 129.111 16.2442 129.194 16.2938C129.285 16.3435 129.355 16.4138 129.405 16.5048C129.454 16.5875 129.479 16.6785 129.479 16.7778V17.299H128.896Z" fill="white"/>
<path d="M117.891 12.4096C118.701 12.4013 119.446 12.5916 120.124 12.9804C120.803 13.3692 121.336 13.8987 121.725 14.5688C122.114 15.2389 122.308 15.9669 122.308 16.7529C122.308 17.3485 122.193 17.9152 121.961 18.453C121.729 18.9907 121.419 19.454 121.03 19.8428C120.641 20.2317 120.178 20.5419 119.64 20.7736C119.111 20.9969 118.548 21.1086 117.953 21.1086H115.694H113.994V20.5874C113.994 20.4302 114.048 20.2979 114.155 20.1903C114.263 20.0745 114.395 20.0166 114.553 20.0166H117.953C118.855 20.0166 119.624 19.6981 120.261 19.061C120.898 18.424 121.216 17.6588 121.216 16.7653C121.216 15.8635 120.898 15.0941 120.261 14.4571C119.624 13.8118 118.855 13.4892 117.953 13.4892H114.553C114.453 13.4892 114.358 13.4644 114.267 13.4147C114.184 13.3651 114.118 13.2989 114.069 13.2162C114.019 13.1252 113.994 13.03 113.994 12.9308V12.4096H117.891Z" fill="white"/>
<path d="M105.241 12.4098L109.671 21.1088H103.305L103.851 20.0168H107.872L104.621 13.6383L100.811 21.1088H99.5576L103.727 12.931C103.81 12.7738 103.926 12.6497 104.075 12.5587C104.232 12.4594 104.401 12.4098 104.583 12.4098H105.241Z" fill="white"/>
<path d="M94.59 20.0168C94.6727 20.0168 94.7471 20.0333 94.8133 20.0664C94.8878 20.0995 94.9498 20.1409 94.9995 20.1905C95.0491 20.2402 95.0863 20.3022 95.1112 20.3767C95.1443 20.4429 95.1608 20.5132 95.1608 20.5876V21.1088H86.9209V20.0168H94.59ZM95.0367 12.931C95.0367 13.0303 95.0119 13.1254 94.9622 13.2164C94.9126 13.2991 94.8423 13.3653 94.7513 13.415C94.6686 13.4646 94.5734 13.4894 94.4659 13.4894H86.9209V12.4098H95.0367V12.931ZM94.2797 16.7407C94.2797 16.8896 94.2218 17.022 94.106 17.1378C93.9984 17.2454 93.8661 17.2991 93.7089 17.2991H86.9209V16.2195H94.2797V16.7407Z" fill="white"/>
<path d="M75.1167 12.4098C75.2739 12.4098 75.4063 12.4677 75.5138 12.5835C75.6214 12.6911 75.6752 12.8234 75.6752 12.9806V21.1088H75.1167C74.9595 21.1088 74.823 21.0551 74.7072 20.9475C74.5997 20.8317 74.5459 20.6952 74.5459 20.538V12.4098H75.1167ZM81.8303 12.4098C81.9875 12.4098 82.1198 12.4677 82.2274 12.5835C82.3349 12.6911 82.3887 12.8234 82.3887 12.9806V21.1088H81.8303C81.7227 21.1088 81.6234 21.084 81.5324 21.0344C81.4497 20.9847 81.3835 20.9186 81.3339 20.8358C81.2842 20.7448 81.2594 20.6455 81.2594 20.538V16.7531H78.4797C78.3804 16.7531 78.2853 16.7283 78.1943 16.6787C78.1116 16.629 78.0454 16.5628 77.9957 16.4801C77.9461 16.3891 77.9213 16.294 77.9213 16.1947V15.6735H81.2594V12.4098H81.8303Z" fill="white"/>
<path d="M70.0738 20.0168C70.231 20.0168 70.3634 20.0747 70.4709 20.1905C70.5867 20.2981 70.6446 20.4305 70.6446 20.5876V21.1088H68.2868C67.5092 21.1006 66.7894 20.902 66.1276 20.5132C65.4658 20.1244 64.9446 19.599 64.564 18.9372C64.1834 18.2671 63.9932 17.539 63.9932 16.7531V12.4098H64.5516C64.7088 12.4098 64.8411 12.4636 64.9487 12.5711C65.0645 12.6787 65.1224 12.811 65.1224 12.9682V16.7531C65.1224 17.6631 65.4327 18.4367 66.0531 19.0737C66.6819 19.7024 67.443 20.0168 68.3365 20.0168H70.0738Z" fill="white"/>
<path d="M53.4405 12.993C54.1106 12.6042 54.8386 12.4098 55.6246 12.4098C56.4188 12.4098 57.1468 12.6042 57.8086 12.993C58.4787 13.3819 59.0082 13.9113 59.397 14.5814C59.7859 15.2433 59.9803 15.9713 59.9803 16.7655C59.9803 17.5515 59.7859 18.2795 59.397 18.9496C59.0082 19.6114 58.4787 20.1368 57.8086 20.5256C57.1468 20.9144 56.4188 21.1088 55.6246 21.1088C54.8386 21.1088 54.1106 20.9144 53.4405 20.5256C52.7787 20.1368 52.2533 19.6114 51.8645 18.9496C51.4757 18.2795 51.2812 17.5515 51.2812 16.7655C51.2812 15.9713 51.4757 15.2433 51.8645 14.5814C52.2533 13.9113 52.7787 13.3819 53.4405 12.993ZM53.3164 19.0613C53.9534 19.6983 54.7228 20.0168 55.6246 20.0168C56.5263 20.0168 57.2957 19.6983 57.9327 19.0613C58.5698 18.4243 58.8883 17.659 58.8883 16.7655C58.8883 15.8638 58.5698 15.0944 57.9327 14.4574C57.2957 13.8121 56.5263 13.4894 55.6246 13.4894C54.7228 13.4894 53.9534 13.8121 53.3164 14.4574C52.6794 15.0944 52.3609 15.8638 52.3609 16.7655C52.3609 17.659 52.6794 18.4243 53.3164 19.0613Z" fill="white"/>
<path d="M45.2974 17.2495L47.2581 21.1088H46.4887C46.1744 21.1088 45.9427 20.9682 45.7938 20.6869L44.0689 17.2991H40.0482V20.538C40.0482 20.6952 39.9903 20.8317 39.8745 20.9475C39.7669 21.0551 39.6346 21.1088 39.4774 21.1088H38.9189V16.2195H44.7762V16.2071C45.1485 16.2071 45.467 16.0747 45.7317 15.81C45.9965 15.5453 46.1288 15.2267 46.1288 14.8545C46.1288 14.4822 45.9965 14.1637 45.7317 13.8989C45.467 13.6342 45.1485 13.5018 44.7762 13.5018V13.4894H39.4898C39.3326 13.4894 39.1961 13.4356 39.0803 13.3281C38.9727 13.2123 38.9189 13.0758 38.9189 12.9186V12.4098H44.7018C44.7266 12.4098 44.7514 12.4098 44.7762 12.4098C45.4546 12.4098 46.0296 12.6497 46.5011 13.1295C46.981 13.6011 47.2209 14.1761 47.2209 14.8545C47.2209 15.235 47.1382 15.5949 46.9727 15.9341C46.8072 16.2733 46.5756 16.5587 46.2778 16.7903C45.9882 17.0137 45.6614 17.1668 45.2974 17.2495Z" fill="white"/>
<path d="M30.5054 15.6735C30.6626 15.6735 30.7949 15.7314 30.9025 15.8472C31.01 15.9548 31.0638 16.083 31.0638 16.2319V21.1088H30.5054C30.3482 21.1088 30.2117 21.0551 30.0959 20.9475C29.9883 20.8317 29.9345 20.6952 29.9345 20.538V15.6735H30.5054ZM33.8559 12.4098C34.0131 12.4098 34.1455 12.4677 34.253 12.5835C34.3689 12.6911 34.4268 12.8234 34.4268 12.9806V13.4894H27.1424C27.0431 13.4894 26.948 13.4646 26.857 13.415C26.7743 13.3653 26.7081 13.2991 26.6584 13.2164C26.6088 13.1254 26.584 13.0303 26.584 12.931V12.4098H33.8559Z" fill="white"/>
<path d="M21.4913 20.0168C21.5741 20.0168 21.6485 20.0333 21.7147 20.0664C21.7892 20.0995 21.8512 20.1409 21.9008 20.1905C21.9505 20.2402 21.9877 20.3022 22.0125 20.3767C22.0456 20.4429 22.0622 20.5132 22.0622 20.5876V21.1088H13.8223V20.0168H21.4913ZM21.9381 12.931C21.9381 13.0303 21.9132 13.1254 21.8636 13.2164C21.814 13.2991 21.7436 13.3653 21.6526 13.415C21.5699 13.4646 21.4748 13.4894 21.3672 13.4894H13.8223V12.4098H21.9381V12.931ZM21.1811 16.7407C21.1811 16.8896 21.1232 17.022 21.0074 17.1378C20.8998 17.2454 20.7674 17.2991 20.6103 17.2991H13.8223V16.2195H21.1811V16.7407Z" fill="white"/>
<path d="M6.85727 12.4097C7.53566 12.4097 8.11063 12.6496 8.58219 13.1294C9.06202 13.601 9.30194 14.176 9.30194 14.8543C9.30194 15.5327 9.06202 16.1118 8.58219 16.5917C8.11063 17.0632 7.53566 17.299 6.85727 17.299H2.12926V20.5379C2.12926 20.6951 2.07135 20.8316 1.95553 20.9474C1.84798 21.0549 1.71561 21.1087 1.55843 21.1087H1V16.2194H6.85727V16.207C7.22956 16.207 7.54807 16.0746 7.8128 15.8099C8.07754 15.5451 8.20991 15.2266 8.20991 14.8543C8.20991 14.4821 8.07754 14.1635 7.8128 13.8988C7.54807 13.6341 7.22956 13.5017 6.85727 13.5017V13.4893H1.76939C1.55429 13.4893 1.37228 13.4148 1.22337 13.2659C1.07446 13.117 1 12.935 1 12.7199V12.4097H6.78282C6.80764 12.4097 6.83246 12.4097 6.85727 12.4097Z" fill="white"/>
<defs>
<filter id="filter0_d_337_7723" x="0.3587" y="0" width="36.9851" height="7.516" filterUnits="userSpaceOnUse" color-interpolation-filters="sRGB">
<feFlood flood-opacity="0" result="BackgroundImageFix"/>
<feColorMatrix in="SourceAlpha" type="matrix" values="0 0 0 0 0 0 0 0 0 0 0 0 0 0 0 0 0 0 127 0" result="hardAlpha"/>
<feOffset dy="0.689151"/>
<feGaussianBlur stdDeviation="0.344576"/>
<feComposite in2="hardAlpha" operator="out"/>
<feColorMatrix type="matrix" values="0 0 0 0 0 0 0 0 0 0 0 0 0 0 0 0 0 0 0.25 0"/>
<feBlend mode="normal" in2="BackgroundImageFix" result="effect1_dropShadow_337_7723"/>
<feBlend mode="normal" in="SourceGraphic" in2="effect1_dropShadow_337_7723" result="shape"/>
</filter>
</defs>
</svg>
