<svg width="53" height="42" viewBox="0 0 53 42" fill="none" xmlns="http://www.w3.org/2000/svg">
<rect width="52.5" height="42" fill="white"/>
<path d="M30.4552 15.4899C30.988 16.428 31.4981 17.3297 32.0491 18.2996C30.6829 18.2996 29.4033 18.2996 28.0644 18.2996C27.7411 17.7122 27.395 17.0929 27.0535 16.469C26.9305 16.2458 26.844 15.9954 26.6892 15.795C26.3977 15.4125 26.507 15.1074 26.7985 14.7977C27.3768 14.192 28.1145 13.9917 28.9115 13.9507C29.5126 13.9188 30.1182 13.8824 30.7239 13.9097C31.6301 13.9461 31.8897 13.2585 32.3269 12.5754C32.081 12.5253 31.9125 12.457 31.744 12.457C30.7239 12.4433 29.7038 12.4525 28.6792 12.4433C24.9314 12.416 21.1835 12.3841 17.4357 12.3477C17.0623 12.3432 16.6934 12.2976 16.3154 12.1929C16.9712 12.0881 17.6269 11.9743 18.2827 11.8741C20.6872 11.5098 23.0871 11.1455 25.4915 10.7857C25.7693 10.7447 26.0516 10.722 26.334 10.722C29.0344 10.722 31.7349 10.7129 34.4353 10.7402C34.8771 10.7447 35.337 10.8723 35.756 11.0271C36.1704 11.1819 36.307 11.6191 36.0702 12.0016C35.6284 12.7211 35.1958 13.4589 34.6585 14.1055C34.1166 14.7567 33.2969 14.9981 32.4908 15.1757C31.9307 15.2986 31.3478 15.3396 30.7786 15.4216C30.6875 15.4352 30.601 15.458 30.4552 15.4899Z" fill="#FF0000"/>
<path d="M20.0542 18.2768C20.3775 17.7987 20.669 17.357 20.9695 16.9152C21.2792 16.4598 21.5752 15.9954 21.9122 15.5627C22.026 15.417 22.2583 15.2758 22.4359 15.2758C23.292 15.2713 24.1527 15.3077 25.0088 15.335C25.0726 15.335 25.1363 15.3669 25.2411 15.3942C25.1955 15.5081 25.1728 15.6083 25.1181 15.6902C24.5899 16.4826 24.0616 17.275 23.5106 18.0537C23.415 18.1858 23.2146 18.3087 23.0552 18.3133C22.1444 18.3406 21.2291 18.3315 20.3183 18.336C20.2546 18.336 20.1954 18.3087 20.0542 18.2768Z" fill="#2200FF"/>
<path d="M8.2051 26.9471V21.4692H10.3663C10.78 21.4692 11.133 21.5432 11.4255 21.6912C11.7197 21.8375 11.9435 22.0452 12.0968 22.3145C12.252 22.5819 12.3295 22.8967 12.3295 23.2586C12.3295 23.6224 12.2511 23.9353 12.0942 24.1975C11.9372 24.4578 11.7099 24.6575 11.4121 24.7966C11.1161 24.9357 10.7577 25.0052 10.3369 25.0052H8.88983V24.0744H10.1496C10.3707 24.0744 10.5544 24.0441 10.7006 23.9835C10.8468 23.9229 10.9556 23.8319 11.0269 23.7107C11.1 23.5894 11.1366 23.4387 11.1366 23.2586C11.1366 23.0768 11.1 22.9234 11.0269 22.7986C10.9556 22.6738 10.8459 22.5793 10.6979 22.5151C10.5517 22.4491 10.3672 22.4161 10.1443 22.4161H9.36326V26.9471H8.2051ZM11.1634 24.4542L12.5248 26.9471H11.2463L9.91425 24.4542H11.1634ZM14.9327 27.0273C14.5101 27.0273 14.1463 26.9417 13.8414 26.7706C13.5383 26.5976 13.3047 26.3533 13.1406 26.0377C12.9766 25.7203 12.8946 25.3449 12.8946 24.9116C12.8946 24.489 12.9766 24.1181 13.1406 23.7989C13.3047 23.4797 13.5356 23.231 13.8334 23.0527C14.133 22.8744 14.4842 22.7852 14.8872 22.7852C15.1583 22.7852 15.4106 22.8289 15.6442 22.9163C15.8796 23.0019 16.0846 23.1311 16.2594 23.3041C16.4359 23.4771 16.5732 23.6946 16.6713 23.9567C16.7693 24.2171 16.8184 24.522 16.8184 24.8715V25.1844H13.3493V24.4783H15.7458C15.7458 24.3143 15.7102 24.1689 15.6388 24.0423C15.5675 23.9157 15.4685 23.8168 15.3419 23.7454C15.2171 23.6723 15.0718 23.6358 14.906 23.6358C14.733 23.6358 14.5796 23.6759 14.4459 23.7561C14.314 23.8346 14.2105 23.9407 14.1356 24.0744C14.0607 24.2064 14.0224 24.3535 14.0206 24.5158V25.1871C14.0206 25.3904 14.0581 25.566 14.133 25.714C14.2096 25.862 14.3175 25.9762 14.4566 26.0564C14.5957 26.1366 14.7606 26.1768 14.9514 26.1768C15.078 26.1768 15.1939 26.1589 15.2991 26.1233C15.4043 26.0876 15.4944 26.0341 15.5693 25.9628C15.6442 25.8915 15.7012 25.8041 15.7405 25.7007L16.7943 25.7702C16.7408 26.0234 16.6312 26.2445 16.4653 26.4335C16.3013 26.6208 16.0891 26.767 15.8287 26.8722C15.5702 26.9756 15.2715 27.0273 14.9327 27.0273ZM21.2818 22.8387L19.8455 26.9471H18.5616L17.1253 22.8387H18.3289L19.1822 25.7782H19.225L20.0755 22.8387H21.2818ZM26.4681 21.4692V26.9471H25.4678L23.0846 23.4994H23.0445V26.9471H21.8863V21.4692H22.9027L25.2672 24.9143H25.3153V21.4692H26.4681ZM27.4036 26.9471V22.8387H28.543V26.9471H27.4036ZM27.976 22.3091C27.8066 22.3091 27.6613 22.2529 27.54 22.1406C27.4205 22.0265 27.3608 21.8901 27.3608 21.7314C27.3608 21.5745 27.4205 21.4398 27.54 21.3275C27.6613 21.2134 27.8066 21.1563 27.976 21.1563C28.1454 21.1563 28.2898 21.2134 28.4093 21.3275C28.5306 21.4398 28.5912 21.5745 28.5912 21.7314C28.5912 21.8901 28.5306 22.0265 28.4093 22.1406C28.2898 22.2529 28.1454 22.3091 27.976 22.3091ZM31.641 22.8387V23.6946H29.1669V22.8387H31.641ZM29.7286 21.8544H30.868V25.6846C30.868 25.7898 30.8841 25.8718 30.9162 25.9307C30.9483 25.9877 30.9929 26.0279 31.0499 26.051C31.1088 26.0742 31.1765 26.0858 31.2532 26.0858C31.3067 26.0858 31.3602 26.0814 31.4137 26.0724C31.4672 26.0617 31.5082 26.0537 31.5367 26.0484L31.7159 26.8963C31.6589 26.9141 31.5786 26.9346 31.4752 26.9578C31.3718 26.9827 31.2461 26.9979 31.0981 27.0033C30.8235 27.014 30.5827 26.9774 30.3759 26.8936C30.1708 26.8098 30.0112 26.6796 29.8971 26.5031C29.783 26.3265 29.7268 26.1037 29.7286 25.8344V21.8544ZM32.3833 26.9471V22.8387H33.4879V23.5555H33.5307C33.6056 23.3005 33.7313 23.108 33.9079 22.9778C34.0844 22.8458 34.2877 22.7799 34.5177 22.7799C34.5748 22.7799 34.6363 22.7834 34.7023 22.7906C34.7682 22.7977 34.8262 22.8075 34.8761 22.82V23.831C34.8226 23.815 34.7486 23.8007 34.6541 23.7882C34.5596 23.7758 34.4731 23.7695 34.3947 23.7695C34.2271 23.7695 34.0773 23.8061 33.9453 23.8792C33.8151 23.9505 33.7117 24.0504 33.635 24.1787C33.5602 24.3071 33.5227 24.4551 33.5227 24.6227V26.9471H32.3833ZM37.1302 27.0273C36.7148 27.0273 36.3555 26.9391 36.0523 26.7625C35.751 26.5842 35.5183 26.3364 35.3542 26.019C35.1902 25.6998 35.1081 25.3298 35.1081 24.9089C35.1081 24.4846 35.1902 24.1137 35.3542 23.7963C35.5183 23.4771 35.751 23.2292 36.0523 23.0527C36.3555 22.8744 36.7148 22.7852 37.1302 22.7852C37.5457 22.7852 37.9041 22.8744 38.2055 23.0527C38.5086 23.2292 38.7422 23.4771 38.9063 23.7963C39.0703 24.1137 39.1523 24.4846 39.1523 24.9089C39.1523 25.3298 39.0703 25.6998 38.9063 26.019C38.7422 26.3364 38.5086 26.5842 38.2055 26.7625C37.9041 26.9391 37.5457 27.0273 37.1302 27.0273ZM37.1356 26.1447C37.3246 26.1447 37.4824 26.0912 37.609 25.9842C37.7356 25.8754 37.831 25.7274 37.8952 25.5402C37.9612 25.3529 37.9942 25.1399 37.9942 24.9009C37.9942 24.662 37.9612 24.4489 37.8952 24.2617C37.831 24.0744 37.7356 23.9264 37.609 23.8177C37.4824 23.7089 37.3246 23.6545 37.1356 23.6545C36.9448 23.6545 36.7843 23.7089 36.6541 23.8177C36.5258 23.9264 36.4286 24.0744 36.3626 24.2617C36.2984 24.4489 36.2663 24.662 36.2663 24.9009C36.2663 25.1399 36.2984 25.3529 36.3626 25.5402C36.4286 25.7274 36.5258 25.8754 36.6541 25.9842C36.7843 26.0912 36.9448 26.1447 37.1356 26.1447Z" fill="black"/>
<path d="M20.8968 30.2794L21.2315 28.6057H21.8866C22.0556 28.6057 22.1998 28.6344 22.3194 28.6918C22.4389 28.7476 22.5298 28.8265 22.5919 28.9285C22.6557 29.0305 22.6876 29.1517 22.6876 29.2919C22.6876 29.4386 22.6629 29.5732 22.6135 29.696C22.564 29.8171 22.4931 29.9215 22.4007 30.0092C22.3098 30.0953 22.2006 30.1622 22.0731 30.21C21.9456 30.2562 21.8029 30.2794 21.6451 30.2794H20.8968ZM21.1765 30.0713H21.6523C21.8181 30.0713 21.9599 30.0387 22.0779 29.9733C22.1958 29.9064 22.2867 29.8155 22.3505 29.7008C22.4142 29.5844 22.4461 29.4529 22.4461 29.3063C22.4461 29.2058 22.4246 29.119 22.3815 29.0457C22.3385 28.9707 22.2731 28.9134 22.1855 28.8735C22.0994 28.8337 21.9918 28.8137 21.8627 28.8137H21.4276L21.1765 30.0713ZM22.841 30.2794L23.092 29.0122H23.312L23.2403 29.3804L23.2164 29.2895C23.2753 29.1827 23.3503 29.1078 23.4411 29.0648C23.532 29.0217 23.6443 29.0002 23.7782 29.0002L23.7352 29.2226C23.7256 29.221 23.7161 29.2202 23.7065 29.2202C23.6969 29.2202 23.6866 29.2202 23.6754 29.2202C23.5495 29.2202 23.4451 29.2545 23.3622 29.323C23.2809 29.3915 23.2259 29.4991 23.1972 29.6458L23.0705 30.2794H22.841ZM23.8053 30.2794L24.0563 29.0122H24.2859L24.0348 30.2794H23.8053ZM24.238 28.7683C24.195 28.7683 24.1599 28.7548 24.1328 28.7277C24.1073 28.7006 24.0946 28.6679 24.0946 28.6296C24.0946 28.585 24.1097 28.5476 24.14 28.5173C24.1703 28.4854 24.2102 28.4694 24.2596 28.4694C24.301 28.4694 24.3353 28.483 24.3624 28.5101C24.3911 28.5356 24.4054 28.5667 24.4054 28.6033C24.4054 28.6528 24.3903 28.6926 24.36 28.7229C24.3297 28.7532 24.2891 28.7683 24.238 28.7683ZM24.8054 30.2794L24.5018 29.0122H24.7313L24.9991 30.1598H24.8843L25.6135 29.0122H25.8454L25.0397 30.2794H24.8054ZM26.3785 30.2937C26.2542 30.2937 26.1466 30.2714 26.0557 30.2268C25.9649 30.1805 25.8947 30.1168 25.8453 30.0355C25.7959 29.9526 25.7712 29.8554 25.7712 29.7438C25.7712 29.6003 25.8023 29.4728 25.8644 29.3613C25.9266 29.2497 26.0111 29.162 26.1179 29.0983C26.2263 29.0329 26.349 29.0002 26.4861 29.0002C26.6008 29.0002 26.7005 29.0225 26.7849 29.0672C26.8694 29.1102 26.9348 29.1724 26.981 29.2537C27.0288 29.335 27.0527 29.433 27.0527 29.5477C27.0527 29.5764 27.0511 29.6059 27.0479 29.6362C27.0447 29.6649 27.0408 29.692 27.036 29.7175H25.9386L25.9672 29.5501H26.926L26.8328 29.6075C26.8471 29.5183 26.8407 29.4433 26.8136 29.3828C26.7865 29.3206 26.7435 29.2736 26.6845 29.2417C26.6271 29.2082 26.5578 29.1915 26.4765 29.1915C26.3809 29.1915 26.2964 29.2146 26.2231 29.2608C26.1513 29.3055 26.0956 29.3684 26.0557 29.4497C26.0159 29.5294 25.9959 29.6235 25.9959 29.7318C25.9959 29.8466 26.0286 29.9359 26.094 29.9996C26.1609 30.0618 26.2621 30.0929 26.3976 30.0929C26.4773 30.0929 26.5514 30.0801 26.62 30.0546C26.6885 30.0275 26.7451 29.9917 26.7897 29.947L26.8877 30.112C26.8272 30.171 26.7515 30.2164 26.6606 30.2483C26.5698 30.2786 26.4757 30.2937 26.3785 30.2937ZM28.1342 29.0002C28.2458 29.0002 28.339 29.0225 28.4139 29.0672C28.4888 29.1118 28.5406 29.1772 28.5693 29.2632C28.5996 29.3477 28.6028 29.4497 28.5789 29.5693L28.4378 30.2794H28.2083L28.3494 29.5693C28.3733 29.4545 28.3621 29.3652 28.3159 29.3015C28.2697 29.2377 28.1868 29.2058 28.0672 29.2058C27.9445 29.2058 27.8425 29.2393 27.7612 29.3063C27.6799 29.3716 27.6257 29.4728 27.5986 29.6099L27.4647 30.2794H27.2352L27.4863 29.0122H27.7062L27.6345 29.3756L27.5914 29.2776C27.652 29.1819 27.7285 29.1118 27.821 29.0672C27.915 29.0225 28.0194 29.0002 28.1342 29.0002ZM29.5047 30.2794L29.8585 28.5053H30.0881L29.9183 29.3445L29.8346 29.6338L29.7988 29.9064L29.7223 30.2794H29.5047ZM30.2339 30.2937C30.1255 30.2937 30.0323 30.2746 29.9542 30.2363C29.8777 30.1965 29.8187 30.1399 29.7773 30.0666C29.7358 29.9917 29.7151 29.9016 29.7151 29.7964C29.7151 29.6784 29.7302 29.5709 29.7605 29.4736C29.7908 29.3748 29.8354 29.2903 29.8944 29.2202C29.955 29.1501 30.0267 29.0959 30.1096 29.0576C30.1925 29.0194 30.2865 29.0002 30.3917 29.0002C30.5001 29.0002 30.5957 29.0217 30.6786 29.0648C30.7631 29.1078 30.8292 29.1708 30.8771 29.2537C30.9265 29.335 30.9512 29.4322 30.9512 29.5454C30.9512 29.6537 30.9329 29.7534 30.8962 29.8442C30.8611 29.9351 30.8109 30.014 30.7456 30.0809C30.6818 30.1479 30.6061 30.2005 30.5184 30.2387C30.4308 30.2754 30.3359 30.2937 30.2339 30.2937ZM30.2244 30.0929C30.32 30.0929 30.4045 30.0698 30.4778 30.0235C30.5527 29.9773 30.6117 29.9143 30.6547 29.8347C30.6977 29.7534 30.7193 29.6609 30.7193 29.5573C30.7193 29.4457 30.6866 29.3589 30.6212 29.2967C30.5559 29.2329 30.4626 29.2011 30.3415 29.2011C30.2475 29.2011 30.1622 29.2242 30.0857 29.2704C30.0108 29.315 29.9518 29.378 29.9088 29.4593C29.8673 29.539 29.8466 29.6314 29.8466 29.7366C29.8466 29.8466 29.8793 29.9335 29.9446 29.9972C30.01 30.061 30.1032 30.0929 30.2244 30.0929ZM31.0803 30.7575C31.0197 30.7575 30.9599 30.7472 30.901 30.7265C30.842 30.7073 30.7958 30.6802 30.7623 30.6452L30.8818 30.4754C30.9089 30.5025 30.9408 30.5232 30.9775 30.5376C31.0125 30.5535 31.0524 30.5615 31.097 30.5615C31.1496 30.5615 31.1966 30.5471 31.2381 30.5184C31.2811 30.4914 31.3249 30.4427 31.3696 30.3726L31.4891 30.1885L31.5154 30.1622L32.2399 29.0122H32.4718L31.5728 30.418C31.517 30.5041 31.4644 30.5718 31.415 30.6213C31.3656 30.6707 31.3138 30.7057 31.2596 30.7265C31.207 30.7472 31.1472 30.7575 31.0803 30.7575ZM31.4461 30.32L31.1281 29.0122H31.3576L31.6278 30.1407L31.4461 30.32ZM33.8063 30.2937C33.6979 30.2937 33.6046 30.2746 33.5265 30.2363C33.45 30.1965 33.391 30.1399 33.3496 30.0666C33.3081 29.9917 33.2874 29.9016 33.2874 29.7964C33.2874 29.637 33.3145 29.4983 33.3687 29.3804C33.4229 29.2608 33.5002 29.1676 33.6006 29.1006C33.7026 29.0337 33.8238 29.0002 33.9641 29.0002C34.0724 29.0002 34.1681 29.0217 34.251 29.0648C34.3354 29.1078 34.4016 29.1708 34.4494 29.2537C34.4988 29.335 34.5235 29.4322 34.5235 29.5454C34.5235 29.6537 34.5052 29.7534 34.4685 29.8442C34.4335 29.9351 34.3833 30.014 34.3179 30.0809C34.2541 30.1479 34.1784 30.2005 34.0908 30.2387C34.0031 30.2754 33.9083 30.2937 33.8063 30.2937ZM32.9838 30.7432L33.3281 29.0122H33.548L33.4811 29.3397L33.407 29.6338L33.3735 29.9351L33.2133 30.7432H32.9838ZM33.7967 30.0929C33.8923 30.0929 33.9768 30.0698 34.0501 30.0235C34.125 29.9773 34.184 29.9143 34.227 29.8347C34.2701 29.7534 34.2916 29.6609 34.2916 29.5573C34.2916 29.4457 34.2589 29.3589 34.1936 29.2967C34.1282 29.2329 34.035 29.2011 33.9138 29.2011C33.8198 29.2011 33.7345 29.2242 33.658 29.2704C33.5831 29.315 33.5241 29.378 33.4811 29.4593C33.4396 29.539 33.4189 29.6314 33.4189 29.7366C33.4189 29.8466 33.4516 29.9335 33.517 29.9972C33.5823 30.061 33.6755 30.0929 33.7967 30.0929ZM35.2638 30.2937C35.157 30.2937 35.0614 30.2722 34.9769 30.2291C34.8925 30.1845 34.8255 30.1216 34.7761 30.0403C34.7283 29.959 34.7044 29.861 34.7044 29.7462C34.7044 29.6378 34.7219 29.5382 34.757 29.4473C34.7936 29.3565 34.8438 29.2776 34.9076 29.2106C34.9729 29.1437 35.0495 29.0919 35.1371 29.0552C35.2248 29.0186 35.3196 29.0002 35.4216 29.0002C35.5316 29.0002 35.6249 29.0194 35.7014 29.0576C35.7779 29.0959 35.8369 29.1524 35.8783 29.2274C35.9197 29.3007 35.9405 29.3907 35.9405 29.4975C35.9405 29.6537 35.9134 29.7924 35.8592 29.9136C35.805 30.0331 35.7269 30.1263 35.6249 30.1933C35.5244 30.2602 35.4041 30.2937 35.2638 30.2937ZM35.314 30.0929C35.4097 30.0929 35.495 30.0698 35.5699 30.0235C35.6448 29.9773 35.703 29.9143 35.7444 29.8347C35.7874 29.7534 35.809 29.6609 35.809 29.5573C35.809 29.4457 35.7763 29.3589 35.7109 29.2967C35.6456 29.2329 35.5523 29.2011 35.4312 29.2011C35.3372 29.2011 35.2527 29.2242 35.1778 29.2704C35.1029 29.315 35.0439 29.378 35.0008 29.4593C34.9578 29.539 34.9363 29.6314 34.9363 29.7366C34.9363 29.8466 34.969 29.9335 35.0343 29.9972C35.0997 30.061 35.1929 30.0929 35.314 30.0929ZM35.6799 30.2794L35.7468 29.9518L35.8233 29.6577L35.8544 29.3565L35.9213 29.0122H36.1509L35.8998 30.2794H35.6799ZM36.7358 30.2937C36.629 30.2937 36.5278 30.2802 36.4321 30.2531C36.3381 30.2244 36.2656 30.1893 36.2146 30.1479L36.3174 29.9662C36.3668 30.0044 36.4305 30.0355 36.5086 30.0594C36.5883 30.0833 36.6712 30.0953 36.7573 30.0953C36.8673 30.0953 36.9502 30.0785 37.0059 30.045C37.0617 30.0116 37.0896 29.9662 37.0896 29.9088C37.0896 29.8673 37.0729 29.8362 37.0394 29.8155C37.0059 29.7932 36.9621 29.7765 36.9079 29.7653C36.8553 29.7526 36.7987 29.7406 36.7382 29.7295C36.6776 29.7167 36.621 29.6992 36.5684 29.6769C36.5158 29.6545 36.472 29.6227 36.4369 29.5812C36.4034 29.5382 36.3867 29.4816 36.3867 29.4115C36.3867 29.327 36.4106 29.2545 36.4584 29.1939C36.5062 29.1317 36.5732 29.0839 36.6593 29.0504C36.7453 29.017 36.8458 29.0002 36.9605 29.0002C37.0434 29.0002 37.1247 29.0106 37.2044 29.0313C37.2857 29.0504 37.3518 29.0783 37.4028 29.115L37.312 29.2967C37.2594 29.26 37.2004 29.2345 37.1351 29.2202C37.0697 29.2043 37.0044 29.1963 36.939 29.1963C36.8322 29.1963 36.7517 29.2146 36.6975 29.2513C36.6433 29.2863 36.6162 29.331 36.6162 29.3852C36.6162 29.4266 36.633 29.4593 36.6664 29.4832C36.6999 29.5055 36.7429 29.523 36.7955 29.5358C36.8497 29.5485 36.9063 29.5613 36.9653 29.574C37.0259 29.5852 37.0825 29.6019 37.1351 29.6243C37.1892 29.645 37.2331 29.6761 37.2666 29.7175C37.3 29.7573 37.3168 29.8123 37.3168 29.8825C37.3168 29.9701 37.2921 30.045 37.2426 30.1072C37.1948 30.1678 37.1271 30.214 37.0394 30.2459C36.9518 30.2778 36.8505 30.2937 36.7358 30.2937ZM37.9336 30.2937C37.8268 30.2937 37.7255 30.2802 37.6299 30.2531C37.5359 30.2244 37.4633 30.1893 37.4123 30.1479L37.5152 29.9662C37.5646 30.0044 37.6283 30.0355 37.7064 30.0594C37.7861 30.0833 37.869 30.0953 37.9551 30.0953C38.0651 30.0953 38.1479 30.0785 38.2037 30.045C38.2595 30.0116 38.2874 29.9662 38.2874 29.9088C38.2874 29.8673 38.2707 29.8362 38.2372 29.8155C38.2037 29.7932 38.1599 29.7765 38.1057 29.7653C38.0531 29.7526 37.9965 29.7406 37.9359 29.7295C37.8754 29.7167 37.8188 29.6992 37.7662 29.6769C37.7136 29.6545 37.6698 29.6227 37.6347 29.5812C37.6012 29.5382 37.5845 29.4816 37.5845 29.4115C37.5845 29.327 37.6084 29.2545 37.6562 29.1939C37.704 29.1317 37.771 29.0839 37.857 29.0504C37.9431 29.017 38.0435 29.0002 38.1583 29.0002C38.2412 29.0002 38.3225 29.0106 38.4022 29.0313C38.4835 29.0504 38.5496 29.0783 38.6006 29.115L38.5098 29.2967C38.4572 29.26 38.3982 29.2345 38.3328 29.2202C38.2675 29.2043 38.2021 29.1963 38.1368 29.1963C38.03 29.1963 37.9495 29.2146 37.8953 29.2513C37.8411 29.2863 37.814 29.331 37.814 29.3852C37.814 29.4266 37.8307 29.4593 37.8642 29.4832C37.8977 29.5055 37.9407 29.523 37.9933 29.5358C38.0475 29.5485 38.1041 29.5613 38.1631 29.574C38.2237 29.5852 38.2802 29.6019 38.3328 29.6243C38.387 29.645 38.4309 29.6761 38.4643 29.7175C38.4978 29.7573 38.5145 29.8123 38.5145 29.8825C38.5145 29.9701 38.4898 30.045 38.4404 30.1072C38.3926 30.1678 38.3249 30.214 38.2372 30.2459C38.1495 30.2778 38.0483 30.2937 37.9336 30.2937ZM38.7321 30.2794L38.9831 29.0122H39.2126L38.9616 30.2794H38.7321ZM39.1648 28.7683C39.1218 28.7683 39.0867 28.7548 39.0596 28.7277C39.0341 28.7006 39.0214 28.6679 39.0214 28.6296C39.0214 28.585 39.0365 28.5476 39.0668 28.5173C39.0971 28.4854 39.1369 28.4694 39.1863 28.4694C39.2278 28.4694 39.262 28.483 39.2891 28.5101C39.3178 28.5356 39.3322 28.5667 39.3322 28.6033C39.3322 28.6528 39.317 28.6926 39.2868 28.7229C39.2565 28.7532 39.2158 28.7683 39.1648 28.7683ZM39.9928 30.2937C39.8716 30.2937 39.7664 30.2714 39.6772 30.2268C39.5895 30.1805 39.521 30.1168 39.4716 30.0355C39.4221 29.9526 39.3974 29.8562 39.3974 29.7462C39.3974 29.6027 39.4293 29.4752 39.4931 29.3636C39.5568 29.2505 39.6445 29.162 39.7561 29.0983C39.8692 29.0329 39.9976 29.0002 40.141 29.0002C40.2606 29.0002 40.365 29.0225 40.4542 29.0672C40.5435 29.1118 40.612 29.1748 40.6598 29.2561C40.7092 29.3373 40.734 29.4338 40.734 29.5454C40.734 29.6888 40.7021 29.8171 40.6383 29.9303C40.5746 30.0419 40.4869 30.1303 40.3753 30.1957C40.2653 30.261 40.1378 30.2937 39.9928 30.2937ZM40.0071 30.0929C40.1028 30.0929 40.188 30.0698 40.2629 30.0235C40.3379 29.9773 40.396 29.9143 40.4375 29.8347C40.4805 29.7534 40.502 29.6609 40.502 29.5573C40.502 29.4457 40.4694 29.3589 40.404 29.2967C40.3387 29.2329 40.2454 29.2011 40.1243 29.2011C40.0302 29.2011 39.9458 29.2242 39.8708 29.2704C39.7959 29.315 39.7369 29.378 39.6939 29.4593C39.6509 29.539 39.6294 29.6314 39.6294 29.7366C39.6294 29.8466 39.662 29.9335 39.7274 29.9972C39.7927 30.061 39.886 30.0929 40.0071 30.0929ZM41.8165 29.0002C41.928 29.0002 42.0213 29.0225 42.0962 29.0672C42.1711 29.1118 42.2229 29.1772 42.2516 29.2632C42.2819 29.3477 42.2851 29.4497 42.2612 29.5693L42.1201 30.2794H41.8906L42.0316 29.5693C42.0556 29.4545 42.0444 29.3652 41.9982 29.3015C41.952 29.2377 41.8691 29.2058 41.7495 29.2058C41.6268 29.2058 41.5248 29.2393 41.4435 29.3063C41.3622 29.3716 41.308 29.4728 41.2809 29.6099L41.147 30.2794H40.9175L41.1685 29.0122H41.3885L41.3168 29.3756L41.2737 29.2776C41.3343 29.1819 41.4108 29.1118 41.5033 29.0672C41.5973 29.0225 41.7017 29.0002 41.8165 29.0002ZM42.619 30.2937C42.576 30.2937 42.5393 30.2794 42.509 30.2507C42.4803 30.2204 42.466 30.1837 42.466 30.1407C42.466 30.0881 42.4827 30.0458 42.5162 30.014C42.5497 29.9821 42.5895 29.9662 42.6357 29.9662C42.6788 29.9662 42.7146 29.9805 42.7433 30.0092C42.772 30.0379 42.7864 30.0753 42.7864 30.1216C42.7864 30.155 42.7784 30.1853 42.7625 30.2124C42.7465 30.2379 42.7258 30.2578 42.7003 30.2722C42.6764 30.2865 42.6493 30.2937 42.619 30.2937ZM43.1607 30.2937C43.1177 30.2937 43.081 30.2794 43.0507 30.2507C43.022 30.2204 43.0077 30.1837 43.0077 30.1407C43.0077 30.0881 43.0244 30.0458 43.0579 30.014C43.0914 29.9821 43.1312 29.9662 43.1774 29.9662C43.2205 29.9662 43.2563 29.9805 43.285 30.0092C43.3137 30.0379 43.3281 30.0753 43.3281 30.1216C43.3281 30.155 43.3201 30.1853 43.3041 30.2124C43.2882 30.2379 43.2675 30.2578 43.242 30.2722C43.2181 30.2865 43.191 30.2937 43.1607 30.2937ZM43.7024 30.2937C43.6593 30.2937 43.6227 30.2794 43.5924 30.2507C43.5637 30.2204 43.5494 30.1837 43.5494 30.1407C43.5494 30.0881 43.5661 30.0458 43.5996 30.014C43.633 29.9821 43.6729 29.9662 43.7191 29.9662C43.7622 29.9662 43.798 29.9805 43.8267 30.0092C43.8554 30.0379 43.8697 30.0753 43.8697 30.1216C43.8697 30.155 43.8618 30.1853 43.8458 30.2124C43.8299 30.2379 43.8092 30.2578 43.7837 30.2722C43.7598 30.2865 43.7327 30.2937 43.7024 30.2937Z" fill="black"/>
</svg>
