<svg width="104" height="24" viewBox="0 0 104 24" fill="none" xmlns="http://www.w3.org/2000/svg">
<g filter="url(#filter0_d_337_7683)">
<path fill-rule="evenodd" clip-rule="evenodd" d="M4.97828 3.13461C4.97828 2.74439 4.76692 2.40296 4.458 2.21869C4.64768 2.02359 4.7615 1.75803 4.7615 1.46537C4.7615 0.88005 4.28457 0.397705 3.69383 0.397705H3.65589H1.05989V0.625328C1.05989 0.636661 1.06063 0.647783 1.06205 0.658655H1.05811V4.19645H1.05989V4.19685C4.00817 4.19685 3.91062 4.20227 3.91062 4.20227C4.50135 4.20227 4.97828 3.72534 4.97828 3.13461ZM1.58878 2.06152V0.87463H3.69383C4.01901 0.87463 4.28457 1.14019 4.28457 1.46537C4.28457 1.79596 4.01901 2.06152 3.69383 2.06152H1.58878ZM3.0218 2.53845H1.58878V3.72534H3.91062C4.23579 3.72534 4.50135 3.45978 4.50135 3.13461C4.50135 2.80943 4.23579 2.54387 3.91062 2.54387V2.53845H3.0218ZM11.102 4.19685L9.16718 0.397705H8.87453C8.71736 0.397705 8.57645 0.489838 8.50057 0.625328L6.685 4.19685H7.22696L8.89078 0.934246L10.3161 3.72534H8.56019L8.3163 4.19685H11.102ZM13.6704 1.82306C13.8059 1.82306 13.9197 1.93687 13.9197 2.07236V4.19685H13.6704C13.5349 4.19685 13.4265 4.08846 13.4265 3.95297V1.82306H13.6704ZM15.1391 0.397705C15.2746 0.397705 15.383 0.511517 15.383 0.647007V0.87463H12.2071C12.0716 0.87463 11.9578 0.766238 11.9578 0.625328V0.397705H15.1391ZM17.6058 2.29999C17.6058 1.51414 18.2453 0.87463 19.0312 0.87463H20.4294C20.5649 0.87463 20.6787 0.766238 20.6787 0.625328V0.397705H19.0312C17.9797 0.397705 17.1289 1.24858 17.1289 2.29999C17.1289 3.35139 17.9797 4.20227 19.0312 4.20227C19.0312 4.20227 19.0095 4.19685 20.6787 4.19685V3.97464C20.6787 3.83373 20.5649 3.72534 20.4294 3.72534H19.0312C18.2453 3.72534 17.6058 3.08583 17.6058 2.29999ZM24.31 0.397705L26.2448 4.19685H23.4591L23.703 3.72534H25.4589L24.0336 0.934246L22.3697 4.19685H21.8278L23.6433 0.625328C23.7192 0.489838 23.8601 0.397705 24.0173 0.397705H24.31ZM28.6993 2.46257L27.7455 0.592811C27.6859 0.47358 27.5612 0.397705 27.4312 0.397705H27.1006L28.5097 3.15628L28.6993 2.78233C28.7481 2.68478 28.7481 2.56013 28.6993 2.46257ZM31.5175 0.397705H31.1924C31.0569 0.397705 30.9376 0.47358 30.8726 0.592811L29.0354 4.20227H29.5827L31.5175 0.397705ZM36.3673 3.72534C36.5028 3.72534 36.6167 3.83373 36.6167 3.97464V4.19685H33.0126V3.72534H33.014V2.53845H33.0126V2.06152H33.014V0.87463H33.0126V0.397705H36.5625V0.625328C36.5625 0.766238 36.4486 0.87463 36.3131 0.87463H33.5447V2.06152H36.2264V2.28915C36.2264 2.42464 36.118 2.53845 35.9771 2.53845H33.5447V3.72534H36.3673Z" fill="#1AABFF"/>
<path d="M38.8468 0.742084H38.4152C38.4152 0.644204 38.4612 0.595265 38.5532 0.595265H39.4429C39.4429 0.693144 39.3969 0.742084 39.3049 0.742084H39.0131V1.71144C39.0131 1.75625 38.9989 1.79045 38.9706 1.81404C38.9423 1.83762 38.901 1.84942 38.8468 1.84942V0.742084ZM39.7259 0.717319C39.7259 0.673686 39.7406 0.640077 39.7701 0.616492C39.7996 0.591727 39.8403 0.579345 39.8922 0.579345L40.3202 1.60708L40.2866 1.69022L40.299 1.69552L40.7519 0.579345C40.8037 0.579345 40.8444 0.591727 40.8739 0.616492C40.9046 0.641256 40.9199 0.675455 40.9199 0.719088V1.84942C40.8102 1.84942 40.7554 1.80401 40.7554 1.71321V0.968503L40.8014 0.846449L40.7872 0.842911L40.3928 1.80166C40.3869 1.81581 40.3774 1.82701 40.3645 1.83526C40.3515 1.8447 40.3379 1.84942 40.3238 1.84942C40.3085 1.84942 40.2943 1.84529 40.2813 1.83703C40.2684 1.82878 40.2589 1.81699 40.253 1.80166L39.8586 0.841142L39.8444 0.846449L39.8904 0.966734V1.71321C39.8904 1.75802 39.8763 1.79222 39.848 1.81581C39.8208 1.83821 39.7801 1.84942 39.7259 1.84942V0.717319Z" fill="#1AABFF"/>
<path d="M20.3743 6.55078L20.8449 5.37092H20.9722L21.441 6.55078H21.3048L20.8962 5.48944L20.9227 5.4859L20.5123 6.55078H20.3743ZM20.5813 6.18285L20.6361 6.0608H21.2146L21.2234 6.18285H20.5813ZM22.7245 6.56847C22.5782 6.56847 22.4644 6.52543 22.3831 6.43934C22.3029 6.35325 22.2628 6.23002 22.2628 6.06964V5.37092H22.3901V6.07672C22.3901 6.2029 22.4185 6.29665 22.4751 6.35797C22.5317 6.41811 22.6148 6.44818 22.7245 6.44818C22.8341 6.44818 22.9179 6.41811 22.9757 6.35797C23.0334 6.29665 23.0623 6.2029 23.0623 6.07672V5.37092H23.1862V6.06964C23.1862 6.17695 23.1679 6.26776 23.1313 6.34205C23.0948 6.41634 23.0423 6.47295 22.9739 6.51187C22.9055 6.5496 22.8223 6.56847 22.7245 6.56847ZM24.4268 6.55078V5.49121H24.0094V5.37092H24.9699V5.49121H24.5542V6.55078H24.4268ZM26.2512 6.56847C26.1345 6.56847 26.0366 6.54606 25.9576 6.50125C25.8797 6.45526 25.8208 6.38745 25.7807 6.29783C25.7418 6.2082 25.7223 6.09617 25.7223 5.96174C25.7223 5.76126 25.7665 5.61032 25.855 5.5089C25.9446 5.4063 26.0767 5.355 26.2512 5.355C26.3691 5.355 26.467 5.378 26.5448 5.42399C26.6239 5.4688 26.6828 5.53602 26.7217 5.62565C26.7618 5.71527 26.7819 5.8273 26.7819 5.96174C26.7819 6.16221 26.7371 6.31375 26.6474 6.41634C26.559 6.51776 26.4269 6.56847 26.2512 6.56847ZM26.2512 6.44818C26.3444 6.44818 26.4204 6.43109 26.4794 6.39689C26.5384 6.36269 26.5814 6.30962 26.6085 6.23769C26.6368 6.16575 26.651 6.07377 26.651 5.96174C26.651 5.84971 26.6368 5.75831 26.6085 5.68756C26.5814 5.61562 26.5384 5.56255 26.4794 5.52836C26.4204 5.49298 26.3444 5.47529 26.2512 5.47529C26.1592 5.47529 26.0837 5.49298 26.0248 5.52836C25.9658 5.56255 25.9222 5.61562 25.8939 5.68756C25.8668 5.75831 25.8532 5.84971 25.8532 5.96174C25.8532 6.07377 25.8668 6.16575 25.8939 6.23769C25.9222 6.30962 25.9658 6.36269 26.0248 6.39689C26.0837 6.43109 26.1592 6.44818 26.2512 6.44818ZM27.6747 6.55078V5.37092H27.8127L28.2496 6.04134L28.1629 6.0608L28.6246 5.37092H28.7626V6.55078H28.6352V5.49828H28.6918L28.2054 6.18108L27.7561 5.51244L27.8021 5.44699V6.55078H27.6747ZM30.1851 6.56847C30.0683 6.56847 29.9704 6.54606 29.8914 6.50125C29.8136 6.45526 29.7546 6.38745 29.7145 6.29783C29.6756 6.2082 29.6562 6.09617 29.6562 5.96174C29.6562 5.76126 29.7004 5.61032 29.7888 5.5089C29.8785 5.4063 30.0105 5.355 30.1851 5.355C30.303 5.355 30.4009 5.378 30.4787 5.42399C30.5577 5.4688 30.6167 5.53602 30.6556 5.62565C30.6957 5.71527 30.7157 5.8273 30.7157 5.96174C30.7157 6.16221 30.6709 6.31375 30.5813 6.41634C30.4929 6.51776 30.3608 6.56847 30.1851 6.56847ZM30.1851 6.44818C30.2782 6.44818 30.3543 6.43109 30.4133 6.39689C30.4722 6.36269 30.5153 6.30962 30.5424 6.23769C30.5707 6.16575 30.5848 6.07377 30.5848 5.96174C30.5848 5.84971 30.5707 5.75831 30.5424 5.68756C30.5153 5.61562 30.4722 5.56255 30.4133 5.52836C30.3543 5.49298 30.2782 5.47529 30.1851 5.47529C30.0931 5.47529 30.0176 5.49298 29.9587 5.52836C29.8997 5.56255 29.8561 5.61562 29.8278 5.68756C29.8006 5.75831 29.7871 5.84971 29.7871 5.96174C29.7871 6.07377 29.8006 6.16575 29.8278 6.23769C29.8561 6.30962 29.8997 6.36269 29.9587 6.39689C30.0176 6.43109 30.0931 6.44818 30.1851 6.44818ZM31.8852 6.55078V5.49121H31.4677V5.37092H32.4282V5.49121H32.0125V6.55078H31.8852ZM33.2508 6.55078V5.37092H33.3781V6.55078H33.2508ZM34.6538 6.55078L34.201 5.37092H34.3372L34.7458 6.44288H34.6998L35.1014 5.37446L35.2323 5.37092L34.7794 6.55078H34.6538ZM36.0549 6.55078V5.37092H36.7996V5.49121H36.1823V5.89806H36.7253V6.02188H36.1823V6.4305H36.7996V6.55078H36.0549Z" fill="#1AABFF"/>
</g>
<path d="M103.015 14.3998C103.188 14.3998 103.334 14.4637 103.453 14.5915C103.581 14.7102 103.645 14.8563 103.645 15.0297V23.9994H103.015C102.905 23.9994 102.8 23.972 102.7 23.9173C102.609 23.8625 102.536 23.7894 102.481 23.6982C102.426 23.5977 102.399 23.4882 102.399 23.3695V14.3998H103.015Z" fill="white"/>
<path d="M95.249 19.7405L97.4127 23.9994H96.5637C96.2168 23.9994 95.9611 23.8442 95.7968 23.5338L93.8933 19.7953H89.4564V23.3695C89.4564 23.543 89.3925 23.6936 89.2647 23.8214C89.146 23.9401 88.9999 23.9994 88.8264 23.9994H88.2102V18.6039H94.6739V18.5902C95.0847 18.5902 95.4362 18.4441 95.7283 18.152C96.0205 17.8599 96.1666 17.5084 96.1666 17.0975C96.1666 16.6867 96.0205 16.3352 95.7283 16.0431C95.4362 15.7509 95.0847 15.6049 94.6739 15.6049V15.5912H88.8401C88.6667 15.5912 88.516 15.5318 88.3882 15.4132C88.2695 15.2853 88.2102 15.1347 88.2102 14.9612V14.3998H94.5917C94.6191 14.3998 94.6465 14.3998 94.6739 14.3998C95.4225 14.3998 96.057 14.6645 96.5774 15.194C97.1069 15.7144 97.3717 16.3489 97.3717 17.0975C97.3717 17.5175 97.2804 17.9146 97.0978 18.2889C96.9152 18.6632 96.6596 18.9782 96.3309 19.2338C96.0114 19.4803 95.6507 19.6492 95.249 19.7405Z" fill="white"/>
<path d="M78.5356 14.4001L83.4245 23.9998H76.3993L77.0019 22.7947H81.4388L77.8509 15.7559L73.6468 23.9998H72.2637L76.8649 14.9753C76.9562 14.8018 77.084 14.6649 77.2484 14.5645C77.4218 14.4549 77.609 14.4001 77.8098 14.4001H78.5356Z" fill="white"/>
<path d="M65.2512 19.7405L67.4149 23.9994H66.5659C66.219 23.9994 65.9633 23.8442 65.799 23.5338L63.8955 19.7953H59.4586V23.3695C59.4586 23.543 59.3947 23.6936 59.2669 23.8214C59.1482 23.9401 59.0021 23.9994 58.8286 23.9994H58.2124V18.6039H64.6761V18.5902C65.0869 18.5902 65.4384 18.4441 65.7305 18.152C66.0227 17.8599 66.1688 17.5084 66.1688 17.0975C66.1688 16.6867 66.0227 16.3352 65.7305 16.0431C65.4384 15.7509 65.0869 15.6049 64.6761 15.6049V15.5912H58.8423C58.6689 15.5912 58.5182 15.5318 58.3904 15.4132C58.2717 15.2853 58.2124 15.1347 58.2124 14.9612V14.3998H64.5939C64.6213 14.3998 64.6487 14.3998 64.6761 14.3998C65.4247 14.3998 66.0592 14.6645 66.5796 15.194C67.1091 15.7144 67.3739 16.3489 67.3739 17.0975C67.3739 17.5175 67.2826 17.9146 67.1 18.2889C66.9174 18.6632 66.6618 18.9782 66.3331 19.2338C66.0136 19.4803 65.6529 19.6492 65.2512 19.7405Z" fill="white"/>
<path d="M48.5388 14.3998L53.4277 23.9994H46.4025L47.0051 22.7943H51.442L47.8541 15.7555L43.65 23.9994H42.2668L46.8681 14.9749C46.9594 14.8015 47.0872 14.6645 47.2516 14.5641C47.425 14.4546 47.6122 14.3998 47.813 14.3998H48.5388Z" fill="white"/>
<path d="M32.9562 14.4001C33.8509 14.3909 34.6726 14.6009 35.4212 15.03C36.1698 15.4591 36.7587 16.0434 37.1878 16.7829C37.6169 17.5223 37.8314 18.3257 37.8314 19.193C37.8314 19.8504 37.7036 20.4757 37.448 21.0691C37.1923 21.6626 36.85 22.1738 36.4209 22.6029C35.9918 23.032 35.4806 23.3743 34.8871 23.63C34.3028 23.8765 33.682 23.9997 33.0247 23.9997H30.5324H28.6562V23.4246C28.6562 23.2511 28.7156 23.105 28.8343 22.9863C28.953 22.8585 29.099 22.7946 29.2725 22.7946H33.0247C34.0198 22.7946 34.8689 22.4431 35.5718 21.7402C36.2748 21.0372 36.6263 20.1927 36.6263 19.2067C36.6263 18.2116 36.2748 17.3626 35.5718 16.6596C34.8689 15.9475 34.0198 15.5915 33.0247 15.5915H29.2725C29.1629 15.5915 29.0579 15.5641 28.9575 15.5093C28.8662 15.4545 28.7932 15.3815 28.7384 15.2902C28.6836 15.1898 28.6562 15.0848 28.6562 14.9752V14.4001H32.9562Z" fill="white"/>
<path d="M17.0242 15.0434C17.7636 14.6143 18.567 14.3998 19.4343 14.3998C20.3108 14.3998 21.1142 14.6143 21.8445 15.0434C22.584 15.4725 23.1683 16.0568 23.5974 16.7963C24.0265 17.5266 24.241 18.33 24.241 19.2064C24.241 20.0738 24.0265 20.8771 23.5974 21.6166C23.1683 22.347 22.584 22.9267 21.8445 23.3558C21.1142 23.7849 20.3108 23.9994 19.4343 23.9994C18.567 23.9994 17.7636 23.7849 17.0242 23.3558C16.2938 22.9267 15.7141 22.347 15.285 21.6166C14.8559 20.8771 14.6414 20.0738 14.6414 19.2064C14.6414 18.33 14.8559 17.5266 15.285 16.7963C15.7141 16.0568 16.2938 15.4725 17.0242 15.0434ZM16.8872 21.7399C17.5902 22.4428 18.4392 22.7943 19.4343 22.7943C20.4295 22.7943 21.2785 22.4428 21.9815 21.7399C22.6844 21.0369 23.0359 20.1924 23.0359 19.2064C23.0359 18.2113 22.6844 17.3623 21.9815 16.6593C21.2785 15.9472 20.4295 15.5912 19.4343 15.5912C18.4392 15.5912 17.5902 15.9472 16.8872 16.6593C16.1842 17.3623 15.8328 18.2113 15.8328 19.2064C15.8328 20.1924 16.1842 21.0369 16.8872 21.7399Z" fill="white"/>
<path d="M8.0386 19.7409L10.2023 23.9998H9.35325C9.00633 23.9998 8.7507 23.8446 8.58637 23.5342L6.68287 19.7957H2.24593V23.3699C2.24593 23.5433 2.18203 23.694 2.05421 23.8218C1.93553 23.9405 1.78946 23.9998 1.616 23.9998H0.999756V18.6043H7.46344V18.5906C7.87427 18.5906 8.22576 18.4445 8.5179 18.1524C8.81004 17.8602 8.95612 17.5087 8.95612 17.0979C8.95612 16.6871 8.81004 16.3356 8.5179 16.0435C8.22576 15.7513 7.87427 15.6052 7.46344 15.6052V15.5915H1.62969C1.45623 15.5915 1.30559 15.5322 1.17778 15.4135C1.0591 15.2857 0.999756 15.1351 0.999756 14.9616V14.4001H7.38128C7.40867 14.4001 7.43605 14.4001 7.46344 14.4001C8.21206 14.4001 8.84656 14.6649 9.36694 15.1944C9.89645 15.7148 10.1612 16.3493 10.1612 17.0979C10.1612 17.5179 10.0699 17.915 9.88732 18.2893C9.70473 18.6636 9.44911 18.9786 9.12045 19.2342C8.80091 19.4807 8.4403 19.6496 8.0386 19.7409Z" fill="white"/>
<defs>
<filter id="filter0_d_337_7683" x="0.282271" y="0" width="41.6315" height="8.46146" filterUnits="userSpaceOnUse" color-interpolation-filters="sRGB">
<feFlood flood-opacity="0" result="BackgroundImageFix"/>
<feColorMatrix in="SourceAlpha" type="matrix" values="0 0 0 0 0 0 0 0 0 0 0 0 0 0 0 0 0 0 127 0" result="hardAlpha"/>
<feOffset dy="0.775834"/>
<feGaussianBlur stdDeviation="0.387917"/>
<feComposite in2="hardAlpha" operator="out"/>
<feColorMatrix type="matrix" values="0 0 0 0 0 0 0 0 0 0 0 0 0 0 0 0 0 0 0.25 0"/>
<feBlend mode="normal" in2="BackgroundImageFix" result="effect1_dropShadow_337_7683"/>
<feBlend mode="normal" in="SourceGraphic" in2="effect1_dropShadow_337_7683" result="shape"/>
</filter>
</defs>
</svg>
