<svg width="84" height="40" viewBox="0 0 84 40" fill="none" xmlns="http://www.w3.org/2000/svg">
<g filter="url(#filter0_d_337_18243)">
<path fill-rule="evenodd" clip-rule="evenodd" d="M4.65924 3.467C4.65924 3.08288 4.45118 2.74678 4.14708 2.56539C4.33381 2.37333 4.44584 2.11191 4.44584 1.82382C4.44584 1.24764 3.97636 0.772827 3.39485 0.772827L3.3575 0.772827L0.802034 0.772827L0.802034 0.996897C0.802034 1.00829 0.802789 1.01946 0.80425 1.03038H0.79956L0.799559 4.51295L1.32194 4.51295L1.32194 4.51273C3.69241 4.51332 3.60825 4.518 3.60825 4.518C4.18976 4.518 4.65924 4.04852 4.65924 3.467ZM1.32195 2.41067L1.32195 1.24231L3.39485 1.24231C3.71495 1.24231 3.97636 1.50372 3.97636 1.82382C3.97636 2.14926 3.71495 2.41067 3.39485 2.41067L1.32195 2.41067ZM2.73331 2.88015L1.32195 2.88015L1.32194 4.04852L3.60825 4.04852C3.92835 4.04852 4.18976 3.7871 4.18976 3.467C4.18976 3.1469 3.92835 2.88549 3.60825 2.88549L3.60825 2.88015L2.73331 2.88015ZM10.6873 4.51267L8.78275 0.772827L8.49466 0.772827C8.33994 0.772827 8.20123 0.863522 8.12654 0.996897L6.33931 4.51267L6.87281 4.51267L8.51066 1.30099L9.91377 4.04852L8.18522 4.04852L7.94515 4.51267L10.6873 4.51267ZM13.2156 2.17593C13.349 2.17593 13.461 2.28797 13.461 2.42134L13.461 4.51267L13.2156 4.51267C13.0823 4.51267 12.9756 4.40597 12.9756 4.27259L12.9756 2.17593L13.2156 2.17593ZM14.6614 0.772827C14.7948 0.772827 14.9015 0.884862 14.9015 1.01824L14.9015 1.24231L11.7752 1.24231C11.6418 1.24231 11.5298 1.13561 11.5298 0.996897L11.5298 0.772827L14.6614 0.772827ZM17.0896 2.64541C17.0896 1.87184 17.7191 1.24231 18.4927 1.24231L19.8691 1.24231C20.0025 1.24231 20.1146 1.13561 20.1146 0.996897L20.1146 0.772827L18.4927 0.772827C17.4577 0.772827 16.6201 1.61042 16.6201 2.64541C16.6201 3.6804 17.4577 4.518 18.4927 4.518C18.4927 4.518 18.4714 4.51267 20.1145 4.51267L20.1145 4.29393C20.1145 4.15522 20.0025 4.04852 19.8691 4.04852L18.4927 4.04852C17.7191 4.04852 17.0896 3.41899 17.0896 2.64541ZM23.6891 0.772827L25.5937 4.51267L22.8515 4.51267L23.0916 4.04852L24.8201 4.04852L23.417 1.30099L21.7792 4.51267L21.2457 4.51267L23.0329 0.996897C23.1076 0.863522 23.2463 0.772827 23.401 0.772827L23.6891 0.772827ZM28.0099 2.80546L27.071 0.964887C27.0123 0.847517 26.8896 0.772827 26.7616 0.772827L26.4361 0.772827L27.8232 3.48834L28.0099 3.12023C28.058 3.0242 28.058 2.90149 28.0099 2.80546ZM30.7842 0.772827L30.4641 0.772827C30.3307 0.772827 30.2133 0.847517 30.1493 0.964887L28.3407 4.518L28.8795 4.518L30.7842 0.772827ZM35.5582 4.04852C35.6916 4.04852 35.8036 4.15522 35.8036 4.29393L35.8036 4.51267L32.2559 4.51267L32.2559 4.04852H32.2568L32.2568 2.88015H32.2559L32.2559 2.41067H32.2568L32.2568 1.24231L32.2559 1.24231L32.2559 0.772827L35.7503 0.772827L35.7503 0.996897C35.7503 1.13561 35.6383 1.24231 35.5049 1.24231L32.7792 1.24231L32.7792 2.41067L35.4195 2.41067L35.4195 2.63474C35.4195 2.76812 35.3128 2.88015 35.1741 2.88015L32.7792 2.88015L32.7792 4.04852L35.5582 4.04852Z" fill="#1AABFF"/>
<path d="M38.0013 1.14145L37.5764 1.14145C37.5764 1.0451 37.6217 0.99692 37.7123 0.99692L38.5881 0.99692C38.5881 1.09327 38.5429 1.14145 38.4523 1.14145L38.165 1.14145L38.165 2.09567C38.165 2.13978 38.1511 2.17345 38.1232 2.19667C38.0954 2.21988 38.0547 2.23149 38.0013 2.23149L38.0013 1.14145ZM38.8667 1.11707C38.8667 1.07412 38.8812 1.04103 38.9102 1.01782C38.9393 0.993437 38.9793 0.981248 39.0304 0.981248L39.4518 1.99294L39.4187 2.07478L39.4309 2.08L39.8766 0.981248C39.9277 0.981248 39.9678 0.993437 39.9968 1.01782C40.027 1.04219 40.0421 1.07586 40.0421 1.11881L40.0421 2.23149C39.9341 2.23149 39.8801 2.1868 39.8801 2.09741L39.8801 1.36433L39.9254 1.24418L39.9115 1.2407L39.5232 2.18448C39.5174 2.19841 39.5081 2.20944 39.4953 2.21756C39.4825 2.22685 39.4692 2.23149 39.4553 2.23149C39.4402 2.23149 39.4262 2.22743 39.4135 2.2193C39.4007 2.21118 39.3914 2.19957 39.3856 2.18448L38.9973 1.23896L38.9834 1.24418L39.0286 1.36259L39.0286 2.09741C39.0286 2.14153 39.0147 2.17519 38.9868 2.19841C38.9601 2.22046 38.9201 2.23149 38.8667 2.23149L38.8667 1.11707Z" fill="#1AABFF"/>
<path d="M20.0851 6.8606L20.5483 5.69916L20.6737 5.69916L21.1351 6.8606L21.001 6.8606L20.5988 5.81582L20.6249 5.81234L20.2209 6.8606L20.0851 6.8606ZM20.2888 6.49841L20.3428 6.37826L20.9122 6.37826L20.9209 6.49841L20.2888 6.49841ZM22.3986 6.87801C22.2546 6.87801 22.1426 6.83564 22.0625 6.75089C21.9835 6.66615 21.9441 6.54484 21.9441 6.38697L21.9441 5.69916L22.0694 5.69916L22.0694 6.39393C22.0694 6.51814 22.0973 6.61043 22.153 6.6708C22.2088 6.73 22.2906 6.7596 22.3986 6.7596C22.5065 6.7596 22.5889 6.73 22.6458 6.6708C22.7027 6.61043 22.7311 6.51814 22.7311 6.39393L22.7311 5.69916L22.853 5.69916L22.853 6.38697C22.853 6.4926 22.835 6.58199 22.799 6.65512C22.7631 6.72826 22.7114 6.78398 22.6441 6.82229C22.5767 6.85943 22.4949 6.87801 22.3986 6.87801ZM24.0743 6.8606L24.0743 5.81757L23.6634 5.81757L23.6634 5.69916L24.6089 5.69916L24.6089 5.81757L24.1997 5.81757L24.1997 6.8606H24.0743ZM25.8702 6.87801C25.7553 6.87801 25.6589 6.85595 25.5812 6.81184C25.5046 6.76657 25.4465 6.69982 25.407 6.61159C25.3687 6.52337 25.3496 6.41309 25.3496 6.28075C25.3496 6.0834 25.3931 5.93481 25.4802 5.83498C25.5684 5.73398 25.6984 5.68349 25.8702 5.68349C25.9863 5.68349 26.0827 5.70612 26.1593 5.7514C26.2371 5.79551 26.2951 5.86168 26.3334 5.9499C26.3729 6.03813 26.3926 6.14841 26.3926 6.28075C26.3926 6.47809 26.3485 6.62726 26.2603 6.72826C26.1732 6.82809 26.0432 6.87801 25.8702 6.87801ZM25.8702 6.7596C25.9619 6.7596 26.0368 6.74277 26.0949 6.7091C26.1529 6.67544 26.1953 6.6232 26.222 6.55239C26.2498 6.48158 26.2638 6.39103 26.2638 6.28075C26.2638 6.17047 26.2498 6.0805 26.222 6.01085C26.1953 5.94004 26.1529 5.8878 26.0949 5.85413C26.0368 5.81931 25.9619 5.80189 25.8702 5.80189C25.7797 5.80189 25.7054 5.81931 25.6473 5.85413C25.5893 5.8878 25.5463 5.94004 25.5185 6.01085C25.4918 6.0805 25.4784 6.17047 25.4784 6.28075C25.4784 6.39103 25.4918 6.48158 25.5185 6.55239C25.5463 6.6232 25.5893 6.67544 25.6473 6.7091C25.7054 6.74277 25.7797 6.7596 25.8702 6.7596ZM27.2715 6.8606L27.2715 5.69916L27.4073 5.69916L27.8374 6.35911L27.7521 6.37826L28.2066 5.69916L28.3424 5.69916L28.3424 6.8606L28.217 6.8606L28.217 5.82453H28.2728L27.7939 6.49667L27.3516 5.83846L27.3969 5.77403L27.3969 6.8606L27.2715 6.8606ZM29.7427 6.87801C29.6278 6.87801 29.5314 6.85595 29.4536 6.81184C29.377 6.76657 29.319 6.69982 29.2795 6.61159C29.2412 6.52337 29.222 6.41309 29.222 6.28075C29.222 6.0834 29.2656 5.93481 29.3526 5.83498C29.4409 5.73398 29.5709 5.68349 29.7427 5.68349C29.8588 5.68349 29.9551 5.70612 30.0317 5.7514C30.1095 5.79551 30.1676 5.86168 30.2059 5.9499C30.2453 6.03813 30.2651 6.14841 30.2651 6.28075C30.2651 6.47809 30.221 6.62726 30.1327 6.72826C30.0457 6.82809 29.9157 6.87801 29.7427 6.87801ZM29.7427 6.7596C29.8344 6.7596 29.9093 6.74277 29.9673 6.7091C30.0254 6.67544 30.0677 6.6232 30.0944 6.55239C30.1223 6.48158 30.1362 6.39103 30.1362 6.28075C30.1362 6.17047 30.1223 6.0805 30.0944 6.01085C30.0677 5.94004 30.0254 5.8878 29.9673 5.85413C29.9093 5.81931 29.8344 5.80189 29.7427 5.80189C29.6521 5.80189 29.5778 5.81931 29.5198 5.85413C29.4618 5.8878 29.4188 5.94004 29.3909 6.01085C29.3642 6.0805 29.3509 6.17047 29.3509 6.28075C29.3509 6.39103 29.3642 6.48158 29.3909 6.55239C29.4188 6.6232 29.4618 6.67544 29.5198 6.7091C29.5778 6.74277 29.6521 6.7596 29.7427 6.7596ZM31.4162 6.8606L31.4162 5.81757L31.0053 5.81757L31.0053 5.69916L31.9508 5.69916L31.9508 5.81757L31.5416 5.81757L31.5416 6.8606L31.4162 6.8606ZM32.7605 6.8606L32.7605 5.69916L32.8859 5.69916L32.8859 6.8606L32.7605 6.8606ZM34.1417 6.8606L33.6959 5.69916L33.83 5.69916L34.2322 6.75438L34.187 6.75438L34.5822 5.70264L34.7111 5.69916L34.2653 6.8606L34.1417 6.8606ZM35.5209 6.8606L35.5209 5.69916L36.254 5.69916L36.254 5.81757L35.6462 5.81757L35.6462 6.21806L36.1808 6.21806L36.1808 6.33995L35.6462 6.33995L35.6462 6.74219L36.254 6.74219L36.254 6.8606L35.5209 6.8606Z" fill="#1AABFF"/>
</g>
<path d="M82.7352 38.6379C82.8317 38.6379 82.9186 38.6572 82.9958 38.6958C83.0826 38.7344 83.155 38.7826 83.2129 38.8405C83.2708 38.8984 83.3142 38.9708 83.3432 39.0576C83.3818 39.1348 83.4011 39.2169 83.4011 39.3037L83.4011 39.9117L73.7899 39.9117L73.7899 38.6379L82.7352 38.6379ZM83.2563 30.3728C83.2563 30.4886 83.2274 30.5996 83.1695 30.7057C83.1116 30.8022 83.0296 30.8794 82.9234 30.9373C82.8269 30.9952 82.7159 31.0242 82.5905 31.0242L73.7899 31.0242L73.7899 29.7649L83.2563 29.7649L83.2563 30.3728ZM82.3734 34.8166C82.3734 34.9903 82.3058 35.1447 82.1707 35.2798C82.0453 35.4052 81.8909 35.4679 81.7075 35.4679L73.7899 35.4679L73.7899 34.2086L82.3734 34.2086L82.3734 34.8166Z" fill="white"/>
<path d="M67.8649 29.764L68.5307 29.764L68.5307 39.9108L66.9819 39.9108L60.7 31.4431L60.7 34.8012C60.7 34.9846 60.6324 35.1438 60.4973 35.2789C60.3719 35.4043 60.2175 35.4671 60.0341 35.4671L59.3683 35.4671L59.3683 29.764H59.4551L60.9171 29.764L67.2135 38.2317L67.2135 30.4299C67.2135 30.2465 67.2763 30.0921 67.4017 29.9667C67.5272 29.8316 67.6816 29.764 67.8649 29.764Z" fill="white"/>
<path d="M49.162 29.7642L54.3294 39.9109L46.9039 39.9109L47.5408 38.6371L52.2306 38.6371L48.4382 31.1972L43.9945 39.9109L42.5326 39.9109L47.3961 30.3721C47.4926 30.1888 47.6277 30.044 47.8014 29.9379C47.9847 29.8221 48.1825 29.7642 48.3948 29.7642L49.162 29.7642Z" fill="white"/>
<path d="M35.0352 33.5706C35.2185 33.5706 35.3729 33.6382 35.4984 33.7733C35.6238 33.8987 35.6865 34.0483 35.6865 34.222L35.6865 39.9106L35.0352 39.9106C34.8518 39.9106 34.6926 39.8478 34.5575 39.7224C34.4321 39.5873 34.3693 39.4281 34.3693 39.2447L34.3693 33.5706L35.0352 33.5706ZM38.9433 29.7638C39.1267 29.7638 39.2811 29.8313 39.4065 29.9664C39.5416 30.0919 39.6092 30.2463 39.6092 30.4296L39.6092 31.0231L31.1125 31.0231C30.9967 31.0231 30.8858 30.9941 30.7796 30.9362C30.6831 30.8783 30.6059 30.8011 30.548 30.7046C30.4901 30.5985 30.4612 30.4875 30.4612 30.3717L30.4612 29.7638L38.9433 29.7638Z" fill="white"/>
<path d="M20.8288 31.0237C19.777 31.0237 18.8796 31.4 18.1365 32.1527C17.3935 32.8958 17.022 33.7932 17.022 34.845C17.022 35.8872 17.3935 36.7798 18.1365 37.5228C18.8796 38.2659 19.777 38.6374 20.8288 38.6374L24.5633 38.6374C24.7466 38.6374 24.901 38.7049 25.0265 38.84C25.1616 38.9655 25.2291 39.1199 25.2291 39.3032L25.2291 39.9112L20.8288 39.9112C19.9121 39.9112 19.0629 39.6844 18.2813 39.2309C17.5093 38.7773 16.8965 38.1646 16.443 37.3926C15.9895 36.6109 15.7627 35.7618 15.7627 34.845C15.7627 33.9186 15.9895 33.0695 16.443 32.2975C16.8965 31.5158 17.5093 30.8983 18.2813 30.4447C19.0629 29.9912 19.9121 29.7644 20.8288 29.7644L25.2291 29.7644L25.2291 30.3723C25.2291 30.4399 25.2146 30.5074 25.1857 30.575C25.1664 30.6425 25.1374 30.7053 25.0988 30.7632C25.0602 30.8114 25.012 30.8597 24.9541 30.9079C24.9058 30.9465 24.8479 30.9755 24.7804 30.9948C24.7128 31.0141 24.6405 31.0237 24.5633 31.0237L20.8288 31.0237Z" fill="white"/>
<path d="M3.45731 30.4447C4.23894 29.9912 5.08812 29.7644 6.00484 29.7644C6.93122 29.7644 7.7804 29.9912 8.55238 30.4447C9.33401 30.8983 9.9516 31.5158 10.4051 32.2975C10.8587 33.0695 11.0854 33.9186 11.0854 34.845C11.0854 35.7618 10.8587 36.6109 10.4051 37.3926C9.95159 38.1646 9.33401 38.7773 8.55238 39.2309C7.7804 39.6844 6.93122 39.9112 6.00484 39.9112C5.08811 39.9112 4.23893 39.6844 3.4573 39.2309C2.68532 38.7773 2.07256 38.1646 1.61902 37.3926C1.16549 36.6109 0.938718 35.7618 0.938718 34.845C0.938718 33.9186 1.16549 33.0695 1.61903 32.2975C2.07257 31.5158 2.68533 30.8983 3.45731 30.4447ZM3.31256 37.5228C4.05559 38.2659 4.95302 38.6374 6.00484 38.6374C7.05666 38.6374 7.95409 38.2659 8.69712 37.5228C9.44016 36.7798 9.81167 35.8872 9.81167 34.845C9.81167 33.7932 9.44016 32.8958 8.69713 32.1527C7.9541 31.4 7.05667 31.0237 6.00484 31.0237C4.95302 31.0237 4.05559 31.4 3.31256 32.1527C2.56953 32.8958 2.19801 33.7932 2.19801 34.845C2.19801 35.8872 2.56953 36.7798 3.31256 37.5228Z" fill="white"/>
<path d="M82.2265 13.7675L82.8923 13.7675L82.8923 23.9142L81.3435 23.9142L75.0615 15.4465L75.0615 18.8047C75.0615 18.988 74.994 19.1472 74.8589 19.2823C74.7334 19.4078 74.579 19.4705 74.3957 19.4705L73.7299 19.4705L73.7299 13.7675H73.8167L75.2786 13.7675L81.5751 22.2352L81.5751 14.4333C81.5751 14.2499 81.6378 14.0955 81.7633 13.9701C81.8887 13.835 82.0431 13.7675 82.2265 13.7675Z" fill="white"/>
<path d="M61.4355 14.4461C62.2171 13.9925 63.0663 13.7657 63.983 13.7657C64.9094 13.7657 65.7586 13.9925 66.5305 14.4461C67.3122 14.8996 67.9297 15.5172 68.3833 16.2988C68.8368 17.0708 69.0636 17.92 69.0636 18.8464C69.0636 19.7631 68.8368 20.6123 68.3833 21.3939C67.9297 22.1659 67.3122 22.7787 66.5305 23.2322C65.7585 23.6857 64.9094 23.9125 63.983 23.9125C63.0663 23.9125 62.2171 23.6857 61.4355 23.2322C60.6635 22.7787 60.0507 22.1659 59.5972 21.3939C59.1436 20.6123 58.9169 19.7631 58.9169 18.8464C58.9169 17.92 59.1436 17.0708 59.5972 16.2988C60.0507 15.5172 60.6635 14.8996 61.4355 14.4461ZM61.2907 21.5242C62.0337 22.2672 62.9312 22.6387 63.983 22.6387C65.0348 22.6387 65.9322 22.2672 66.6753 21.5242C67.4183 20.7812 67.7898 19.8885 67.7898 18.8464C67.7898 17.7945 67.4183 16.8971 66.6753 16.1541C65.9322 15.4014 65.0348 15.025 63.983 15.025C62.9312 15.025 62.0337 15.4014 61.2907 16.1541C60.5477 16.8971 60.1762 17.7945 60.1762 18.8464C60.1762 19.8885 60.5477 20.7812 61.2907 21.5242Z" fill="white"/>
<path d="M38.8293 13.7661C39.0126 13.7661 39.167 13.8337 39.2925 13.9688C39.4179 14.0942 39.4806 14.2486 39.4806 14.4319L39.4806 23.9129H38.8293C38.6459 23.9129 38.4867 23.8502 38.3516 23.7247C38.2262 23.5896 38.1634 23.4304 38.1634 23.247L38.1635 13.7661L38.8293 13.7661ZM46.6601 13.7661C46.8434 13.7661 46.9978 13.8337 47.1233 13.9688C47.2487 14.0942 47.3114 14.2486 47.3114 14.4319L47.3114 23.9129L46.6601 23.9129C46.5346 23.9129 46.4188 23.8839 46.3127 23.826C46.2162 23.7681 46.139 23.6909 46.0811 23.5944C46.0232 23.4883 45.9942 23.3725 45.9942 23.247L45.9942 18.8323L42.7519 18.8323C42.6361 18.8323 42.5251 18.8033 42.419 18.7454C42.3225 18.6875 42.2453 18.6103 42.1874 18.5138C42.1295 18.4077 42.1006 18.2967 42.1006 18.1809L42.1006 17.573L45.9942 17.573L45.9942 13.7661L46.6601 13.7661Z" fill="white"/>
<path d="M31.8272 19.4693L32.4931 19.4693L32.4931 23.913L31.1614 23.913L26.8769 23.913C25.9602 23.913 25.111 23.6862 24.3294 23.2327C23.5574 22.7791 22.9446 22.1664 22.4911 21.3944C22.0376 20.6128 21.8108 19.7636 21.8108 18.8469C21.8108 17.9205 22.0376 17.0713 22.4911 16.2993C22.9446 15.5177 23.5574 14.9001 24.3294 14.4465C25.111 13.993 25.9602 13.7662 26.8769 13.7662C26.8769 13.7662 26.9252 13.7662 27.0217 13.7662C27.1278 13.7662 27.591 13.7662 28.4112 13.7662C29.2411 13.7662 30.3943 13.7662 31.8707 13.7662L31.8707 14.3742C31.8707 14.5575 31.8031 14.7119 31.668 14.8374C31.5426 14.9628 31.3882 15.0255 31.2048 15.0255L26.8769 15.0255C25.8251 15.0255 24.9277 15.4019 24.1846 16.1546C23.4416 16.8976 23.0701 17.795 23.0701 18.8469C23.0701 19.889 23.4416 20.7816 24.1846 21.5247C24.9277 22.2677 25.8251 22.6392 26.8769 22.6392L31.1614 22.6392L31.1614 20.1351C31.1614 19.9518 31.2241 19.7974 31.3496 19.6719C31.4847 19.5368 31.6439 19.4693 31.8272 19.4693Z" fill="white"/>
<path d="M15.8918 13.7657C16.0752 13.7657 16.2296 13.8333 16.355 13.9684C16.4901 14.0938 16.5577 14.2482 16.5577 14.4316L16.5577 23.9125H15.8918C15.776 23.9125 15.6651 23.8836 15.5589 23.8257C15.4624 23.7678 15.3852 23.6906 15.3273 23.5941C15.2694 23.4879 15.2405 23.3721 15.2405 23.2467L15.2405 13.7657L15.8918 13.7657Z" fill="white"/>
<path d="M1.47003 13.7654C1.65338 13.7654 1.80777 13.8329 1.93322 13.968C2.05867 14.0935 2.12139 14.2479 2.12139 14.4312L2.12139 23.9121H1.47003C1.28668 23.9121 1.12746 23.8494 0.992364 23.724C0.866918 23.5889 0.804194 23.4297 0.804194 23.2463L0.804199 13.7654L1.47003 13.7654ZM9.30082 13.7654C9.48416 13.7654 9.63856 13.8329 9.764 13.968C9.88945 14.0935 9.95217 14.2479 9.95217 14.4312L9.95217 23.9121L9.30081 23.9121C9.17536 23.9121 9.05957 23.8832 8.95342 23.8253C8.85692 23.7674 8.77972 23.6902 8.72182 23.5937C8.66393 23.4876 8.63498 23.3718 8.63498 23.2463L8.63498 18.8315L5.39266 18.8315C5.27686 18.8315 5.16589 18.8026 5.05974 18.7447C4.96324 18.6868 4.88605 18.6096 4.82815 18.5131C4.77025 18.4069 4.7413 18.296 4.7413 18.1802L4.7413 17.5722L8.63498 17.5722L8.63498 13.7654L9.30082 13.7654Z" fill="white"/>
<defs>
<filter id="filter0_d_337_18243" x="0.0358385" y="0.378174" width="40.9844" height="8.32932" filterUnits="userSpaceOnUse" color-interpolation-filters="sRGB">
<feFlood flood-opacity="0" result="BackgroundImageFix"/>
<feColorMatrix in="SourceAlpha" type="matrix" values="0 0 0 0 0 0 0 0 0 0 0 0 0 0 0 0 0 0 127 0" result="hardAlpha"/>
<feOffset dy="0.763722"/>
<feGaussianBlur stdDeviation="0.381861"/>
<feComposite in2="hardAlpha" operator="out"/>
<feColorMatrix type="matrix" values="0 0 0 0 0 0 0 0 0 0 0 0 0 0 0 0 0 0 0.25 0"/>
<feBlend mode="normal" in2="BackgroundImageFix" result="effect1_dropShadow_337_18243"/>
<feBlend mode="normal" in="SourceGraphic" in2="effect1_dropShadow_337_18243" result="shape"/>
</filter>
</defs>
</svg>
