<svg width="78" height="36" viewBox="0 0 78 36" fill="none" xmlns="http://www.w3.org/2000/svg">
<g filter="url(#filter0_d_337_7789)">
<path fill-rule="evenodd" clip-rule="evenodd" d="M4.56815 2.81033C4.56815 2.46054 4.37868 2.15447 4.10176 1.98929C4.27179 1.8144 4.37382 1.57634 4.37382 1.314C4.37382 0.789314 3.94629 0.356934 3.41674 0.356934H3.38273H1.05563V0.560978C1.05563 0.571173 1.05629 0.581178 1.05758 0.590958H1.05383V3.76229H1.05563V3.76254C3.69852 3.76254 3.61107 3.7674 3.61107 3.7674C4.14062 3.7674 4.56815 3.33987 4.56815 2.81033ZM1.52954 1.8484V0.784456H3.41674C3.70824 0.784456 3.94629 1.02251 3.94629 1.314C3.94629 1.61035 3.70824 1.8484 3.41674 1.8484H1.52954ZM2.81432 2.27593H1.52954V3.33987H3.61107C3.90257 3.33987 4.14062 3.10182 4.14062 2.81033C4.14062 2.51884 3.90257 2.28078 3.61107 2.28078V2.27593H2.81432ZM10.0576 3.76254L8.32316 0.356934H8.06082C7.91993 0.356934 7.79361 0.439523 7.7256 0.560978L6.09808 3.76254H6.58391L8.07539 0.837896L9.35312 3.33987H7.77904L7.56042 3.76254H10.0576ZM12.3599 1.63464C12.4814 1.63464 12.5834 1.73667 12.5834 1.85812V3.76254H12.3599C12.2385 3.76254 12.1413 3.66537 12.1413 3.54392V1.63464H12.3599ZM13.6765 0.356934C13.798 0.356934 13.8951 0.458956 13.8951 0.580411V0.784456H11.0482C10.9267 0.784456 10.8247 0.687292 10.8247 0.560978V0.356934H13.6765ZM15.8877 2.06217C15.8877 1.35772 16.461 0.784456 17.1654 0.784456H18.4189C18.5403 0.784456 18.6423 0.687292 18.6423 0.560978V0.356934H17.1654C16.2229 0.356934 15.4602 1.11967 15.4602 2.06217C15.4602 3.00466 16.2229 3.7674 17.1654 3.7674C17.1654 3.7674 17.146 3.76254 18.6423 3.76254V3.56335C18.6423 3.43704 18.5403 3.33987 18.4189 3.33987H17.1654C16.461 3.33987 15.8877 2.76661 15.8877 2.06217ZM21.8974 0.356934L23.6318 3.76254H21.1347L21.3533 3.33987H22.9274L21.6497 0.837896L20.1582 3.76254H19.6724L21.2999 0.560978C21.3679 0.439523 21.4942 0.356934 21.6351 0.356934H21.8974ZM25.8322 2.20791L24.9771 0.531829C24.9237 0.424949 24.8119 0.356934 24.6954 0.356934H24.399L25.6621 2.82976L25.8322 2.49455C25.8759 2.4071 25.8759 2.29536 25.8322 2.20791ZM28.3585 0.356934H28.067C27.9455 0.356934 27.8386 0.424949 27.7803 0.531829L26.1334 3.7674H26.6241L28.3585 0.356934ZM32.7059 3.33987C32.8274 3.33987 32.9294 3.43704 32.9294 3.56335V3.76254H29.6987V3.33987H29.7005V2.27593H29.6987V1.8484H29.7005V0.784456H29.6987V0.356934H32.8808V0.560978C32.8808 0.687292 32.7788 0.784456 32.6574 0.784456H30.1762V1.8484H32.5796V2.05245C32.5796 2.1739 32.4825 2.27593 32.3561 2.27593H30.1762V3.33987H32.7059Z" fill="#1AABFF"/>
<path d="M34.9297 0.872836H34.5428C34.5428 0.785095 34.584 0.741225 34.6665 0.741225H35.4641C35.4641 0.828965 35.4229 0.872836 35.3404 0.872836H35.0788V1.74178C35.0788 1.78196 35.0661 1.81261 35.0407 1.83375C35.0153 1.8549 34.9783 1.86547 34.9297 1.86547V0.872836ZM35.7178 0.850636C35.7178 0.811523 35.731 0.781395 35.7574 0.760253C35.7838 0.738053 35.8203 0.726954 35.8668 0.726954L36.2505 1.64823L36.2204 1.72276L36.2315 1.72751L36.6374 0.726954C36.684 0.726954 36.7204 0.738053 36.7469 0.760253C36.7743 0.782452 36.7881 0.813108 36.7881 0.852222V1.86547C36.6898 1.86547 36.6406 1.82477 36.6406 1.74337V1.0758L36.6818 0.96639L36.6692 0.963219L36.3155 1.82265C36.3103 1.83534 36.3018 1.84538 36.2902 1.85278C36.2786 1.86124 36.2664 1.86547 36.2537 1.86547C36.24 1.86547 36.2273 1.86177 36.2157 1.85437C36.204 1.84697 36.1956 1.8364 36.1903 1.82265L35.8367 0.961633L35.824 0.96639L35.8652 1.07422V1.74337C35.8652 1.78354 35.8525 1.8142 35.8272 1.83534C35.8028 1.85542 35.7664 1.86547 35.7178 1.86547V0.850636Z" fill="#1AABFF"/>
<path d="M18.1288 6.07959L18.5506 5.02195H18.6647L19.0849 6.07959H18.9628L18.5966 5.12819L18.6203 5.12501L18.2525 6.07959H18.1288ZM18.3143 5.74977L18.3635 5.64036H18.882L18.8899 5.74977H18.3143ZM20.2355 6.09545C20.1044 6.09545 20.0024 6.05686 19.9294 5.97969C19.8576 5.90252 19.8216 5.79205 19.8216 5.64829V5.02195H19.9358V5.65463C19.9358 5.76774 19.9612 5.85178 20.0119 5.90675C20.0626 5.96066 20.1372 5.98762 20.2355 5.98762C20.3338 5.98762 20.4088 5.96066 20.4606 5.90675C20.5124 5.85178 20.5383 5.76774 20.5383 5.65463V5.02195H20.6493V5.64829C20.6493 5.74448 20.633 5.82588 20.6002 5.89248C20.5674 5.95908 20.5204 6.00982 20.4591 6.04471C20.3977 6.07853 20.3232 6.09545 20.2355 6.09545ZM21.7615 6.07959V5.12977H21.3873V5.02195H22.2483V5.12977H21.8757V6.07959H21.7615ZM23.3969 6.09545C23.2922 6.09545 23.2045 6.07536 23.1337 6.03519C23.0639 5.99396 23.0111 5.93318 22.9751 5.85284C22.9402 5.7725 22.9228 5.67207 22.9228 5.55156C22.9228 5.37185 22.9624 5.23654 23.0417 5.14563C23.122 5.05366 23.2404 5.00767 23.3969 5.00767C23.5026 5.00767 23.5904 5.02829 23.6601 5.06952C23.7309 5.10969 23.7838 5.16994 23.8187 5.25028C23.8546 5.33062 23.8726 5.43105 23.8726 5.55156C23.8726 5.73127 23.8324 5.86711 23.7521 5.95908C23.6728 6.04999 23.5544 6.09545 23.3969 6.09545ZM23.3969 5.98762C23.4804 5.98762 23.5486 5.97229 23.6015 5.94164C23.6543 5.91098 23.6929 5.86341 23.7172 5.79893C23.7426 5.73444 23.7553 5.65199 23.7553 5.55156C23.7553 5.45113 23.7426 5.36921 23.7172 5.30578C23.6929 5.2413 23.6543 5.19373 23.6015 5.16307C23.5486 5.13136 23.4804 5.1155 23.3969 5.1155C23.3144 5.1155 23.2468 5.13136 23.1939 5.16307C23.1411 5.19373 23.102 5.2413 23.0766 5.30578C23.0523 5.36921 23.0401 5.45113 23.0401 5.55156C23.0401 5.65199 23.0523 5.73444 23.0766 5.79893C23.102 5.86341 23.1411 5.91098 23.1939 5.94164C23.2468 5.97229 23.3144 5.98762 23.3969 5.98762ZM24.673 6.07959V5.02195H24.7967L25.1883 5.62292L25.1106 5.64036L25.5245 5.02195H25.6482V6.07959H25.534V5.13611H25.5847L25.1487 5.74818L24.7459 5.1488L24.7871 5.09013V6.07959H24.673ZM26.9233 6.09545C26.8186 6.09545 26.7309 6.07536 26.6601 6.03519C26.5903 5.99396 26.5374 5.93318 26.5015 5.85284C26.4666 5.7725 26.4492 5.67207 26.4492 5.55156C26.4492 5.37185 26.4888 5.23654 26.5681 5.14563C26.6484 5.05366 26.7668 5.00767 26.9233 5.00767C27.029 5.00767 27.1167 5.02829 27.1865 5.06952C27.2573 5.10969 27.3102 5.16994 27.3451 5.25028C27.381 5.33062 27.399 5.43105 27.399 5.55156C27.399 5.73127 27.3588 5.86711 27.2785 5.95908C27.1992 6.04999 27.0808 6.09545 26.9233 6.09545ZM26.9233 5.98762C27.0068 5.98762 27.075 5.97229 27.1278 5.94164C27.1807 5.91098 27.2193 5.86341 27.2436 5.79893C27.269 5.73444 27.2817 5.65199 27.2817 5.55156C27.2817 5.45113 27.269 5.36921 27.2436 5.30578C27.2193 5.2413 27.1807 5.19373 27.1278 5.16307C27.075 5.13136 27.0068 5.1155 26.9233 5.1155C26.8408 5.1155 26.7732 5.13136 26.7203 5.16307C26.6675 5.19373 26.6284 5.2413 26.603 5.30578C26.5787 5.36921 26.5665 5.45113 26.5665 5.55156C26.5665 5.65199 26.5787 5.73444 26.603 5.79893C26.6284 5.86341 26.6675 5.91098 26.7203 5.94164C26.7732 5.97229 26.8408 5.98762 26.9233 5.98762ZM28.4473 6.07959V5.12977H28.0731V5.02195H28.9341V5.12977H28.5615V6.07959H28.4473ZM29.6714 6.07959V5.02195H29.7856V6.07959H29.6714ZM30.9292 6.07959L30.5232 5.02195H30.6453L31.0116 5.98286H30.9704L31.3303 5.02512L31.4477 5.02195L31.0418 6.07959H30.9292ZM32.1851 6.07959V5.02195H32.8527V5.12977H32.2993V5.49448H32.7861V5.60547H32.2993V5.97176H32.8527V6.07959H32.1851Z" fill="#1AABFF"/>
</g>
<path d="M5.424 15.682C5.774 15.682 6.068 15.976 6.068 16.326V21.814H5.424C5.074 21.814 4.794 21.534 4.794 21.184V15.682H5.424ZM9.218 12C9.568 12 9.848 12.294 9.848 12.644V13.232H1.644C1.294 13.232 1 12.952 1 12.588V12H9.218Z" fill="white"/>
<path d="M14.582 12C14.932 12 15.212 12.294 15.212 12.644V21.814H14.582C14.232 21.814 13.938 21.534 13.938 21.184V12H14.582Z" fill="white"/>
<path d="M27.6594 12C27.8834 12 28.1074 12 28.3314 12L28.3034 21.814H27.6734C27.3094 21.814 27.0294 21.534 27.0294 21.184V13.624L23.8374 16.984C23.5154 17.334 23.0674 17.53 22.5914 17.53C22.3534 17.53 22.1014 17.53 21.9194 17.53L16.9214 12.252V12C17.1454 12 17.3694 12 17.5934 12C18.0554 12 18.5174 12.196 18.8394 12.546L22.6194 16.536L26.4134 12.546C26.7354 12.196 27.1834 12 27.6594 12Z" fill="white"/>
<path d="M40.9604 20.596C41.3104 20.596 41.6044 20.876 41.6044 21.24V21.814H32.2944V20.596H40.9604ZM41.4644 12.588C41.4644 12.952 41.1704 13.232 40.8204 13.232H32.2944V12H41.4644V12.588ZM40.5964 16.886C40.5964 17.236 40.3164 17.53 39.9524 17.53H32.2944V16.298H40.5964V16.886Z" fill="white"/>
<path d="M55.8267 15.682C56.1767 15.682 56.4707 15.976 56.4707 16.326V21.814H55.8267C55.4767 21.814 55.1967 21.534 55.1967 21.184V15.682H55.8267ZM59.6207 12C59.9707 12 60.2507 12.294 60.2507 12.644V13.232H52.0467C51.6967 13.232 51.4027 12.952 51.4027 12.588V12H59.6207Z" fill="white"/>
<path d="M68.6947 12C71.4107 12 73.6087 14.198 73.6087 16.914C73.6087 19.63 71.4107 21.828 68.6947 21.828C65.9787 21.828 63.7807 19.63 63.7807 16.914C63.7807 14.198 65.9787 12 68.6947 12ZM68.6947 20.596C70.7247 20.596 72.3767 18.944 72.3767 16.914C72.3767 14.884 70.7247 13.232 68.6947 13.232C66.6647 13.232 65.0127 14.884 65.0127 16.914C65.0127 18.944 66.6647 20.596 68.6947 20.596Z" fill="white"/>
<path d="M5.424 29.682C5.774 29.682 6.068 29.976 6.068 30.326V35.814H5.424C5.074 35.814 4.794 35.534 4.794 35.184V29.682H5.424ZM9.218 26C9.568 26 9.848 26.294 9.848 26.644V27.232H1.644C1.294 27.232 1 26.952 1 26.588V26H9.218Z" fill="white"/>
<path d="M18.292 26C21.008 26 23.206 28.198 23.206 30.914C23.206 33.63 21.008 35.828 18.292 35.828C15.576 35.828 13.378 33.63 13.378 30.914C13.378 28.198 15.576 26 18.292 26ZM18.292 34.596C20.322 34.596 21.974 32.944 21.974 30.914C21.974 28.884 20.322 27.232 18.292 27.232C16.262 27.232 14.61 28.884 14.61 30.914C14.61 32.944 16.262 34.596 18.292 34.596Z" fill="white"/>
<path d="M33.9352 31.46L36.1612 35.814C35.8532 35.814 35.5872 35.814 35.2792 35.814C34.9572 35.814 34.6492 35.632 34.5092 35.352L32.5632 31.53H28.0132V35.17C28.0132 35.534 27.7332 35.814 27.3692 35.814H26.7392V30.298H33.3612C34.2012 30.298 34.8872 29.612 34.8872 28.758C34.8872 27.918 34.2012 27.232 33.3612 27.232H27.3832C27.0332 27.232 26.7392 26.938 26.7392 26.588V26H33.2632C33.2912 26 33.3192 26 33.3612 26C34.8872 26 36.1192 27.246 36.1192 28.758C36.1192 30.088 35.1812 31.194 33.9352 31.46Z" fill="white"/>
<path d="M49.4631 34.596C49.7991 34.596 50.0931 34.876 50.0931 35.226V35.814H45.2491C45.2211 35.828 45.1931 35.828 45.1791 35.828C42.4631 35.828 40.2651 33.63 40.2651 30.914C40.2651 28.198 42.4631 26 45.1791 26C47.8951 26 50.0931 28.198 50.0931 30.914C50.0931 31.124 50.0791 31.334 50.0511 31.544H49.4911C49.3231 31.544 49.1551 31.474 49.0431 31.362C48.9311 31.236 48.8611 31.082 48.8611 30.914C48.8611 28.884 47.2091 27.232 45.1791 27.232C43.1491 27.232 41.4971 28.884 41.4971 30.914C41.4971 32.944 43.1491 34.596 45.1791 34.596H49.4631Z" fill="white"/>
<path d="M64.0151 30.998C64.0151 31.026 64.0291 31.04 64.0291 31.068C64.0291 33.35 62.4611 35.282 60.3331 35.814V35.058C60.3331 34.764 60.5011 34.484 60.7671 34.358C61.9711 33.756 62.7971 32.51 62.7971 31.068V26H64.0151V30.998ZM57.4631 34.358C57.7291 34.484 57.8831 34.764 57.8831 35.058V35.814C55.7691 35.282 54.2011 33.35 54.2011 31.068C54.2011 31.04 54.2011 31.026 54.2011 30.998V26H55.4331V31.068C55.4331 32.51 56.2591 33.756 57.4631 34.358Z" fill="white"/>
<path d="M76.8031 34.596C77.1531 34.596 77.4471 34.876 77.4471 35.24V35.814H68.1371V34.596H76.8031ZM77.3071 26.588C77.3071 26.952 77.0131 27.232 76.6631 27.232H68.1371V26H77.3071V26.588ZM76.4391 30.886C76.4391 31.236 76.1591 31.53 75.7951 31.53H68.1371V30.298H76.4391V30.886Z" fill="white"/>
<defs>
<filter id="filter0_d_337_7789" x="0.358362" y="0" width="37.3175" height="7.58491" filterUnits="userSpaceOnUse" color-interpolation-filters="sRGB">
<feFlood flood-opacity="0" result="BackgroundImageFix"/>
<feColorMatrix in="SourceAlpha" type="matrix" values="0 0 0 0 0 0 0 0 0 0 0 0 0 0 0 0 0 0 127 0" result="hardAlpha"/>
<feOffset dy="0.695471"/>
<feGaussianBlur stdDeviation="0.347735"/>
<feComposite in2="hardAlpha" operator="out"/>
<feColorMatrix type="matrix" values="0 0 0 0 0 0 0 0 0 0 0 0 0 0 0 0 0 0 0.25 0"/>
<feBlend mode="normal" in2="BackgroundImageFix" result="effect1_dropShadow_337_7789"/>
<feBlend mode="normal" in="SourceGraphic" in2="effect1_dropShadow_337_7789" result="shape"/>
</filter>
</defs>
</svg>
