<svg width="197" height="32" viewBox="0 0 197 32" fill="none" xmlns="http://www.w3.org/2000/svg">
<g filter="url(#filter0_d_337_9132)">
<path fill-rule="evenodd" clip-rule="evenodd" d="M9.962 6.36884C9.962 5.57593 9.53251 4.88214 8.9048 4.50772C9.29024 4.11126 9.5215 3.57165 9.5215 2.97697C9.5215 1.78761 8.55239 0.807495 7.35203 0.807495H7.27494H1.99992V1.27002C1.99992 1.2934 2.00146 1.31633 2.00444 1.33875H1.99414V8.5275H3.07245V8.52743C7.96627 8.52866 7.79253 8.53831 7.79253 8.53831C8.9929 8.53831 9.962 7.56921 9.962 6.36884ZM3.07245 4.18835V1.7766H7.35203C8.01278 1.7766 8.55239 2.31622 8.55239 2.97697C8.55239 3.64874 8.01278 4.18835 7.35203 4.18835H3.07245ZM5.98647 5.15746H3.07245V7.56921H7.79253C8.45328 7.56921 8.9929 7.02959 8.9929 6.36884C8.9929 5.70809 8.45328 5.16847 7.79253 5.16847V5.15746H5.98647ZM22.4053 8.5273L18.4738 0.807495H17.8791C17.5597 0.807495 17.2734 0.994709 17.1192 1.27002L13.43 8.5273H14.5313L17.9121 1.89774L20.8084 7.56921H17.2404L16.7448 8.5273H22.4053ZM27.6242 3.7038C27.8995 3.7038 28.1308 3.93506 28.1308 4.21038V8.5273H27.6242C27.3489 8.5273 27.1286 8.30705 27.1286 8.03174V3.7038H27.6242ZM30.6086 0.807495C30.8839 0.807495 31.1041 1.03876 31.1041 1.31407V1.7766H24.6508C24.3755 1.7766 24.1442 1.55635 24.1442 1.27002V0.807495H30.6086ZM35.6208 4.6729C35.6208 3.07608 36.9203 1.7766 38.5172 1.7766H41.3584C41.6337 1.7766 41.865 1.55635 41.865 1.27002V0.807495H38.5172C36.3807 0.807495 34.6517 2.53647 34.6517 4.6729C34.6517 6.80934 36.3807 8.53831 38.5172 8.53831C38.5172 8.53831 38.4731 8.5273 41.865 8.5273V8.07579C41.865 7.78946 41.6337 7.56921 41.3584 7.56921H38.5172C36.9203 7.56921 35.6208 6.26973 35.6208 4.6729ZM49.2436 0.807495L53.175 8.5273H47.5146L48.0102 7.56921H51.5782L48.6819 1.89774L45.3011 8.5273H44.1998L47.889 1.27002C48.0432 0.994709 48.3295 0.807495 48.6489 0.807495H49.2436ZM58.1627 5.00328L56.2245 1.20395C56.1034 0.961671 55.8501 0.807495 55.5858 0.807495H54.914L57.7773 6.41289L58.1627 5.65302C58.2618 5.4548 58.2618 5.20151 58.1627 5.00328ZM63.8892 0.807495H63.2285C62.9532 0.807495 62.7109 0.961671 62.5787 1.20395L58.8455 8.53831H59.9578L63.8892 0.807495ZM73.7439 7.56921C74.0193 7.56921 74.2505 7.78946 74.2505 8.07579V8.5273H68.0043V8.52744H66.926V1.69812H66.9272V0.807495H74.1404V1.27002C74.1404 1.55635 73.9091 1.7766 73.6338 1.7766H68.0043V4.18835H73.4576V4.65088C73.4576 4.92619 73.2374 5.15746 72.951 5.15746H68.0043V7.56921H73.7439Z" fill="#1AABFF"/>
<path d="M78.7802 1.44487H77.9031C77.9031 1.24598 77.9966 1.14653 78.1835 1.14653H79.9915C79.9915 1.34542 79.898 1.44487 79.7111 1.44487H79.118V3.41459C79.118 3.50564 79.0893 3.57513 79.0318 3.62306C78.9743 3.67098 78.8904 3.69495 78.7802 3.69495V1.44487ZM80.5665 1.39454C80.5665 1.30588 80.5965 1.23759 80.6564 1.18967C80.7163 1.13934 80.7989 1.11418 80.9044 1.11418L81.7742 3.20252L81.7059 3.37145L81.7311 3.38224L82.6512 1.11418C82.7567 1.11418 82.8393 1.13934 82.8992 1.18967C82.9616 1.23999 82.9927 1.30948 82.9927 1.39814V3.69495C82.7699 3.69495 82.6584 3.60269 82.6584 3.41818V1.90495L82.7519 1.65693L82.7231 1.64975L81.9216 3.5979C81.9096 3.62665 81.8904 3.64942 81.8641 3.66619C81.8377 3.68536 81.8102 3.69495 81.7814 3.69495C81.7502 3.69495 81.7215 3.68656 81.6951 3.66979C81.6688 3.65301 81.6496 3.62905 81.6376 3.5979L80.8361 1.64615L80.8073 1.65693L80.9008 1.90135V3.41818C80.9008 3.50924 80.872 3.57873 80.8145 3.62665C80.7594 3.67218 80.6767 3.69495 80.5665 3.69495V1.39454Z" fill="#1AABFF"/>
</g>
<path d="M6.7817 23.0254C6.62707 23.18 6.43675 23.2573 6.21075 23.2573C5.98475 23.2573 5.78848 23.18 5.62196 23.0254L2 19.4748H3.57011C3.98643 19.4748 4.33732 19.6175 4.6228 19.903L7.29912 22.5258L6.7817 23.0254ZM16.9339 19.4748L10.5642 25.7195L16.9339 31.9821H15.3816C14.9653 31.9821 14.6085 31.8394 14.3111 31.5539L9.45802 26.7901L4.6228 31.5539C4.32543 31.8394 3.96858 31.9821 3.55227 31.9821H2L4.92611 29.1096C4.92611 29.1096 8.05444 26.0407 14.3111 19.903C14.5966 19.6175 14.9475 19.4748 15.3638 19.4748H16.9339Z" fill="white"/>
<path d="M29.4033 21.0271C28.1068 21.0271 27.0006 21.491 26.0847 22.4187C25.1688 23.3346 24.7108 24.4409 24.7108 25.7374C24.7108 27.022 25.1688 28.1223 26.0847 29.0382C27.0006 29.9541 28.1068 30.412 29.4033 30.412H34.0066C34.2326 30.412 34.4229 30.4953 34.5775 30.6618C34.7441 30.8165 34.8273 31.0068 34.8273 31.2328V31.9821H29.4033C28.2733 31.9821 27.2266 31.7026 26.2631 31.1436C25.3115 30.5845 24.5562 29.8292 23.9971 28.8776C23.4381 27.9141 23.1586 26.8674 23.1586 25.7374C23.1586 24.5955 23.4381 23.5488 23.9971 22.5972C24.5562 21.6337 25.3115 20.8724 26.2631 20.3134C27.2266 19.7543 28.2733 19.4748 29.4033 19.4748H34.8273V20.2242C34.8273 20.3074 34.8095 20.3907 34.7738 20.474C34.75 20.5572 34.7143 20.6345 34.6668 20.7059C34.6192 20.7654 34.5597 20.8248 34.4883 20.8843C34.4289 20.9319 34.3575 20.9676 34.2742 20.9914C34.191 21.0152 34.1017 21.0271 34.0066 21.0271H29.4033Z" fill="white"/>
<path d="M52.3059 30.412C52.4249 30.412 52.5319 30.4358 52.6271 30.4834C52.7342 30.531 52.8234 30.5905 52.8947 30.6618C52.9661 30.7332 53.0196 30.8224 53.0553 30.9295C53.1029 31.0246 53.1267 31.1257 53.1267 31.2328V31.9821H41.2795V30.412H52.3059ZM52.9483 20.2242C52.9483 20.3669 52.9126 20.5037 52.8412 20.6345C52.7698 20.7535 52.6687 20.8486 52.5379 20.92C52.4189 20.9914 52.2822 21.0271 52.1275 21.0271H41.2795V19.4748H52.9483V20.2242ZM51.8599 25.7017C51.8599 25.9158 51.7766 26.1061 51.6101 26.2727C51.4555 26.4273 51.2652 26.5046 51.0392 26.5046H41.2795V24.9523H51.8599V25.7017Z" fill="white"/>
<path d="M68.3696 30.412C68.5956 30.412 68.7859 30.4953 68.9405 30.6618C69.1071 30.8165 69.1903 31.0068 69.1903 31.2328V31.9821H65.8003C64.6822 31.9702 63.6474 31.6848 62.6958 31.1257C61.7442 30.5667 60.9948 29.8113 60.4477 28.8598C59.9005 27.8963 59.6269 26.8495 59.6269 25.7195V19.4748H60.4298C60.6558 19.4748 60.8462 19.5521 61.0008 19.7067C61.1673 19.8614 61.2506 20.0517 61.2506 20.2777V25.7195C61.2506 27.028 61.6966 28.1401 62.5887 29.056C63.4927 29.96 64.5871 30.412 65.8717 30.412H68.3696Z" fill="white"/>
<path d="M86.7009 30.412C86.8198 30.412 86.9269 30.4358 87.022 30.4834C87.1291 30.531 87.2183 30.5905 87.2897 30.6618C87.361 30.7332 87.4146 30.8224 87.4502 30.9295C87.4978 31.0246 87.5216 31.1257 87.5216 31.2328V31.9821H75.6744V30.412H86.7009ZM87.3432 20.2242C87.3432 20.3669 87.3075 20.5037 87.2361 20.6345C87.1648 20.7535 87.0637 20.8486 86.9328 20.92C86.8139 20.9914 86.6771 21.0271 86.5225 21.0271H75.6744V19.4748H87.3432V20.2242ZM86.2548 25.7017C86.2548 25.9158 86.1716 26.1061 86.005 26.2727C85.8504 26.4273 85.6601 26.5046 85.4341 26.5046H75.6744V24.9523H86.2548V25.7017Z" fill="white"/>
<path d="M103.193 26.4332L106.012 31.9821H104.906C104.454 31.9821 104.121 31.7799 103.906 31.3755L101.426 26.5046H95.6455V31.1614C95.6455 31.3874 95.5622 31.5837 95.3957 31.7502C95.2411 31.9048 95.0508 31.9821 94.8248 31.9821H94.0219V24.9523H102.443V24.9345C102.979 24.9345 103.437 24.7442 103.817 24.3635C104.198 23.9829 104.388 23.525 104.388 22.9897C104.388 22.4544 104.198 21.9965 103.817 21.6159C103.437 21.2352 102.979 21.0449 102.443 21.0449V21.0271H94.8426C94.6166 21.0271 94.4203 20.9497 94.2538 20.7951C94.0992 20.6286 94.0219 20.4323 94.0219 20.2063V19.4748H102.336C102.372 19.4748 102.408 19.4748 102.443 19.4748C103.419 19.4748 104.245 19.8197 104.923 20.5096C105.613 21.1876 105.958 22.0143 105.958 22.9897C105.958 23.5369 105.839 24.0543 105.601 24.542C105.364 25.0296 105.03 25.44 104.602 25.7731C104.186 26.0942 103.716 26.3143 103.193 26.4332Z" fill="white"/>
<path d="M120.502 19.4748L126.872 31.9821H117.719L118.504 30.412H124.285L119.61 21.2412L114.132 31.9821H112.33L118.325 20.2242C118.444 19.9982 118.611 19.8197 118.825 19.6889C119.051 19.5462 119.295 19.4748 119.556 19.4748H120.502Z" fill="white"/>
<path d="M136.059 24.1673C136.285 24.1673 136.475 24.2505 136.63 24.4171C136.784 24.5717 136.862 24.7561 136.862 24.9702V31.9821H136.059C135.833 31.9821 135.636 31.9048 135.47 31.7502C135.315 31.5837 135.238 31.3874 135.238 31.1614V24.1673H136.059ZM140.876 19.4748C141.102 19.4748 141.292 19.5581 141.447 19.7246C141.614 19.8792 141.697 20.0695 141.697 20.2955V21.0271H131.223C131.081 21.0271 130.944 20.9914 130.813 20.92C130.694 20.8486 130.599 20.7535 130.528 20.6345C130.456 20.5037 130.421 20.3669 130.421 20.2242V19.4748H140.876Z" fill="white"/>
<path d="M150.549 20.3134C151.512 19.7543 152.559 19.4748 153.689 19.4748C154.831 19.4748 155.878 19.7543 156.829 20.3134C157.793 20.8724 158.554 21.6337 159.113 22.5972C159.672 23.5488 159.952 24.5955 159.952 25.7374C159.952 26.8674 159.672 27.9141 159.113 28.8776C158.554 29.8292 157.793 30.5845 156.829 31.1436C155.878 31.7026 154.831 31.9821 153.689 31.9821C152.559 31.9821 151.512 31.7026 150.549 31.1436C149.597 30.5845 148.842 29.8292 148.283 28.8776C147.724 27.9141 147.444 26.8674 147.444 25.7374C147.444 24.5955 147.724 23.5488 148.283 22.5972C148.842 21.6337 149.597 20.8724 150.549 20.3134ZM150.371 29.0382C151.286 29.9541 152.393 30.412 153.689 30.412C154.986 30.412 156.092 29.9541 157.008 29.0382C157.924 28.1223 158.382 27.022 158.382 25.7374C158.382 24.4409 157.924 23.3346 157.008 22.4187C156.092 21.491 154.986 21.0271 153.689 21.0271C152.393 21.0271 151.286 21.491 150.371 22.4187C149.455 23.3346 148.997 24.4409 148.997 25.7374C148.997 27.022 149.455 28.1223 150.371 29.0382Z" fill="white"/>
<path d="M174.892 26.4332L177.711 31.9821H176.605C176.153 31.9821 175.82 31.7799 175.606 31.3755L173.126 26.5046H167.345V31.1614C167.345 31.3874 167.262 31.5837 167.095 31.7502C166.941 31.9048 166.75 31.9821 166.524 31.9821H165.722V24.9523H174.143V24.9345C174.678 24.9345 175.136 24.7442 175.517 24.3635C175.898 23.9829 176.088 23.525 176.088 22.9897C176.088 22.4544 175.898 21.9965 175.517 21.6159C175.136 21.2352 174.678 21.0449 174.143 21.0449V21.0271H166.542C166.316 21.0271 166.12 20.9497 165.953 20.7951C165.799 20.6286 165.722 20.4323 165.722 20.2063V19.4748H174.036C174.072 19.4748 174.107 19.4748 174.143 19.4748C175.118 19.4748 175.945 19.8197 176.623 20.5096C177.313 21.1876 177.658 22.0143 177.658 22.9897C177.658 23.5369 177.539 24.0543 177.301 24.542C177.063 25.0296 176.73 25.44 176.302 25.7731C175.886 26.0942 175.416 26.3143 174.892 26.4332Z" fill="white"/>
<path d="M192.523 24.9523C193.498 24.9523 194.325 25.2973 195.003 25.9872C195.693 26.6771 196.038 27.5097 196.038 28.4851C196.038 29.4486 195.693 30.2752 195.003 30.9651C194.325 31.655 193.498 32 192.523 32L184.422 31.9821H184.369V31.2328C184.369 31.0068 184.446 30.8165 184.601 30.6618C184.767 30.4953 184.964 30.412 185.19 30.412H192.648C193.159 30.3882 193.587 30.192 193.932 29.8232C194.289 29.4426 194.468 28.9906 194.468 28.4672C194.468 27.932 194.277 27.474 193.897 27.0934C193.516 26.7128 193.058 26.5224 192.523 26.5224H192.487C192.261 26.5224 192.071 26.4451 191.916 26.2905C191.762 26.124 191.684 25.9277 191.684 25.7017V24.9523H192.523ZM187.723 26.5046C187.081 26.5046 186.486 26.35 185.939 26.0407C185.404 25.7195 184.982 25.2913 184.672 24.7561C184.363 24.2208 184.208 23.632 184.208 22.9897C184.208 22.0143 184.547 21.1876 185.225 20.5096C185.915 19.8197 186.748 19.4748 187.723 19.4748C187.759 19.4748 187.801 19.4748 187.848 19.4748H195.538V20.2242C195.538 20.3312 195.514 20.4383 195.467 20.5453C195.431 20.6405 195.378 20.7237 195.306 20.7951C195.235 20.8665 195.146 20.926 195.039 20.9735C194.943 21.0092 194.842 21.0271 194.735 21.0271H187.723V21.0449C187.188 21.0449 186.73 21.2352 186.349 21.6159C185.969 21.9965 185.778 22.4544 185.778 22.9897C185.778 23.525 185.969 23.9829 186.349 24.3635C186.73 24.7442 187.188 24.9345 187.723 24.9345V24.9523H187.741C187.896 24.9523 188.033 24.988 188.151 25.0594C188.282 25.1308 188.383 25.2319 188.455 25.3627C188.526 25.4817 188.562 25.6125 188.562 25.7552V26.5046H187.723Z" fill="white"/>
<defs>
<filter id="filter0_d_337_9132" x="0.417659" y="0" width="84.5944" height="11.7599" filterUnits="userSpaceOnUse" color-interpolation-filters="sRGB">
<feFlood flood-opacity="0" result="BackgroundImageFix"/>
<feColorMatrix in="SourceAlpha" type="matrix" values="0 0 0 0 0 0 0 0 0 0 0 0 0 0 0 0 0 0 127 0" result="hardAlpha"/>
<feOffset dy="1.57648"/>
<feGaussianBlur stdDeviation="0.788241"/>
<feComposite in2="hardAlpha" operator="out"/>
<feColorMatrix type="matrix" values="0 0 0 0 0 0 0 0 0 0 0 0 0 0 0 0 0 0 0.25 0"/>
<feBlend mode="normal" in2="BackgroundImageFix" result="effect1_dropShadow_337_9132"/>
<feBlend mode="normal" in="SourceGraphic" in2="effect1_dropShadow_337_9132" result="shape"/>
</filter>
</defs>
</svg>
