<svg width="123" height="21" viewBox="0 0 123 21" fill="none" xmlns="http://www.w3.org/2000/svg">
<g filter="url(#filter0_d_337_9852)">
<path fill-rule="evenodd" clip-rule="evenodd" d="M5.97627 4.75904C5.97627 4.26348 5.70784 3.82986 5.31551 3.59584C5.55641 3.34806 5.70095 3.0108 5.70095 2.63912C5.70095 1.89578 5.09526 1.2832 4.34503 1.2832H4.29685H0.999966V1.57228C0.999966 1.58689 1.00093 1.60123 1.00279 1.61524H0.996338V6.10821H1.67028V6.10816C4.72894 6.10893 4.62035 6.11496 4.62035 6.11496C5.37058 6.11496 5.97627 5.50927 5.97627 4.75904ZM1.67028 3.39624V1.88889H4.34503C4.758 1.88889 5.09526 2.22615 5.09526 2.63912C5.09526 3.05898 4.758 3.39624 4.34503 3.39624H1.67028ZM3.49156 4.00193H1.67028V5.50927H4.62035C5.03332 5.50927 5.37058 5.17201 5.37058 4.75904C5.37058 4.34607 5.03332 4.00881 4.62035 4.00881V4.00193H3.49156ZM13.7533 6.10808L11.2961 1.2832H10.9244C10.7248 1.2832 10.5459 1.40021 10.4495 1.57228L8.14377 6.10808H8.83206L10.9451 1.96461L12.7553 5.50927H10.5252L10.2155 6.10808H13.7533ZM17.0151 3.09339C17.1872 3.09339 17.3317 3.23793 17.3317 3.41V6.10808H17.0151C16.8431 6.10808 16.7054 5.97043 16.7054 5.79835V3.09339H17.0151ZM18.8804 1.2832C19.0525 1.2832 19.1901 1.42774 19.1901 1.59981V1.88889H15.1568C14.9847 1.88889 14.8401 1.75124 14.8401 1.57228V1.2832H18.8804ZM22.013 3.69908C22.013 2.70107 22.8252 1.88889 23.8232 1.88889H25.599C25.7711 1.88889 25.9156 1.75124 25.9156 1.57228V1.2832H23.8232C22.488 1.2832 21.4074 2.36381 21.4074 3.69908C21.4074 5.03436 22.488 6.11496 23.8232 6.11496C23.8232 6.11496 23.7957 6.10808 25.9156 6.10808V5.82588C25.9156 5.64693 25.7711 5.50927 25.599 5.50927H23.8232C22.8252 5.50927 22.013 4.6971 22.013 3.69908ZM30.5272 1.2832L32.9844 6.10808H29.4466L29.7564 5.50927H31.9864L30.1762 1.96461L28.0632 6.10808H27.3749L29.6807 1.57228C29.777 1.40021 29.956 1.2832 30.1556 1.2832H30.5272ZM36.1017 3.90557L34.8903 1.53099C34.8146 1.37956 34.6563 1.2832 34.4911 1.2832H34.0713L35.8608 4.78657L36.1017 4.31166C36.1637 4.18777 36.1637 4.02946 36.1017 3.90557ZM39.6808 1.2832H39.2678C39.0957 1.2832 38.9443 1.37956 38.8617 1.53099L36.5284 6.11496H37.2236L39.6808 1.2832ZM45.84 5.50927C46.012 5.50927 46.1566 5.64693 46.1566 5.82588V6.10808H41.5795V6.10805H41.5787V1.83973H41.5795V1.2832H46.0878V1.57228C46.0878 1.75124 45.9432 1.88889 45.7711 1.88889H42.2527V3.39624H45.661V3.68532C45.661 3.85739 45.5234 4.00193 45.3444 4.00193H42.2527V5.50927H45.84Z" fill="#1AABFF"/>
<path d="M48.9881 1.18118H48.44C48.44 1.05687 48.4984 0.99472 48.6152 0.99472H49.7452C49.7452 1.11903 49.6868 1.18118 49.5699 1.18118H49.1993V2.41225C49.1993 2.46916 49.1813 2.5126 49.1454 2.54255C49.1094 2.5725 49.057 2.58748 48.9881 2.58748V1.18118ZM50.1045 1.14973C50.1045 1.09431 50.1233 1.05163 50.1607 1.02168C50.1982 0.990227 50.2498 0.974502 50.3157 0.974502L50.8594 2.27971L50.8167 2.3853L50.8324 2.39203L51.4075 0.974502C51.4734 0.974502 51.5251 0.990227 51.5625 1.02168C51.6015 1.05313 51.6209 1.09656 51.6209 1.15197V2.58748C51.4816 2.58748 51.412 2.52982 51.412 2.4145V1.46873L51.4704 1.31372L51.4524 1.30923L50.9515 2.52682C50.944 2.5448 50.932 2.55902 50.9155 2.56951C50.8991 2.58149 50.8818 2.58748 50.8639 2.58748C50.8444 2.58748 50.8264 2.58224 50.8099 2.57175C50.7935 2.56127 50.7815 2.54629 50.774 2.52682L50.273 1.30698L50.2551 1.31372L50.3135 1.46648V2.4145C50.3135 2.47141 50.2955 2.51484 50.2596 2.5448C50.2251 2.57325 50.1734 2.58748 50.1045 2.58748V1.14973Z" fill="#1AABFF"/>
</g>
<path d="M3.98856 15.1692C3.89192 15.2658 3.77297 15.3142 3.63172 15.3142C3.49047 15.3142 3.3678 15.2658 3.26372 15.1692L1 12.9501H1.98132C2.24152 12.9501 2.46083 13.0393 2.63925 13.2177L4.31195 14.857L3.98856 15.1692ZM10.3337 12.9501L6.35265 16.853L10.3337 20.7672H9.36351C9.10331 20.7672 8.88028 20.678 8.69443 20.4995L5.66126 17.5221L2.63925 20.4995C2.45339 20.678 2.23036 20.7672 1.97017 20.7672H1L2.82882 18.9718C2.82882 18.9718 4.78402 17.0538 8.69443 13.2177C8.87285 13.0393 9.09216 12.9501 9.35236 12.9501H10.3337Z" fill="white"/>
<path d="M18.1271 13.9202C17.3167 13.9202 16.6254 14.2102 16.0529 14.79C15.4805 15.3625 15.1943 16.0539 15.1943 16.8642C15.1943 17.6671 15.4805 18.3548 16.0529 18.9272C16.6254 19.4996 17.3167 19.7858 18.1271 19.7858H21.0041C21.1454 19.7858 21.2643 19.8379 21.361 19.942C21.465 20.0386 21.5171 20.1576 21.5171 20.2988V20.7672H18.1271C17.4208 20.7672 16.7666 20.5925 16.1644 20.2431C15.5697 19.8936 15.0976 19.4216 14.7482 18.8268C14.3988 18.2247 14.2241 17.5704 14.2241 16.8642C14.2241 16.1505 14.3988 15.4963 14.7482 14.9016C15.0976 14.2994 15.5697 13.8236 16.1644 13.4742C16.7666 13.1248 17.4208 12.9501 18.1271 12.9501H21.5171V13.4184C21.5171 13.4705 21.5059 13.5225 21.4836 13.5745C21.4688 13.6266 21.4465 13.6749 21.4167 13.7195C21.387 13.7567 21.3498 13.7939 21.3052 13.831C21.268 13.8608 21.2234 13.8831 21.1714 13.8979C21.1194 13.9128 21.0636 13.9202 21.0041 13.9202H18.1271Z" fill="white"/>
<path d="M32.4412 19.7858C32.5156 19.7858 32.5825 19.8007 32.6419 19.8305C32.7088 19.8602 32.7646 19.8974 32.8092 19.942C32.8538 19.9866 32.8873 20.0423 32.9096 20.1092C32.9393 20.1687 32.9542 20.2319 32.9542 20.2988V20.7672H25.5497V19.7858H32.4412ZM32.8427 13.4184C32.8427 13.5076 32.8204 13.5931 32.7758 13.6749C32.7312 13.7493 32.668 13.8087 32.5862 13.8533C32.5118 13.8979 32.4263 13.9202 32.3297 13.9202H25.5497V12.9501H32.8427V13.4184ZM32.1624 16.8419C32.1624 16.9757 32.1104 17.0947 32.0063 17.1987C31.9097 17.2954 31.7907 17.3437 31.6495 17.3437H25.5497V16.3735H32.1624V16.8419Z" fill="white"/>
<path d="M42.481 19.7858C42.6222 19.7858 42.7412 19.8379 42.8378 19.942C42.9419 20.0386 42.994 20.1576 42.994 20.2988V20.7672H40.8752C40.1764 20.7597 39.5296 20.5813 38.9349 20.2319C38.3401 19.8825 37.8718 19.4104 37.5298 18.8157C37.1878 18.2135 37.0168 17.5593 37.0168 16.853V12.9501H37.5187C37.6599 12.9501 37.7788 12.9984 37.8755 13.095C37.9796 13.1917 38.0316 13.3106 38.0316 13.4519V16.853C38.0316 17.6708 38.3104 18.3659 38.868 18.9383C39.433 19.5033 40.1169 19.7858 40.9198 19.7858H42.481Z" fill="white"/>
<path d="M53.938 19.7858C54.0124 19.7858 54.0793 19.8007 54.1388 19.8305C54.2057 19.8602 54.2614 19.8974 54.306 19.942C54.3506 19.9866 54.3841 20.0423 54.4064 20.1092C54.4361 20.1687 54.451 20.2319 54.451 20.2988V20.7672H47.0465V19.7858H53.938ZM54.3395 13.4184C54.3395 13.5076 54.3172 13.5931 54.2726 13.6749C54.228 13.7493 54.1648 13.8087 54.083 13.8533C54.0087 13.8979 53.9232 13.9202 53.8265 13.9202H47.0465V12.9501H54.3395V13.4184ZM53.6593 16.8419C53.6593 16.9757 53.6072 17.0947 53.5031 17.1987C53.4065 17.2954 53.2876 17.3437 53.1463 17.3437H47.0465V16.3735H53.6593V16.8419Z" fill="white"/>
<path d="M64.2455 17.2991L66.0074 20.7672H65.316C65.0335 20.7672 64.8253 20.6408 64.6915 20.388L63.1415 17.3437H59.5284V20.2542C59.5284 20.3955 59.4764 20.5181 59.3723 20.6222C59.2757 20.7188 59.1567 20.7672 59.0155 20.7672H58.5137V16.3735H63.7771V16.3624C64.1116 16.3624 64.3979 16.2434 64.6358 16.0055C64.8736 15.7676 64.9926 15.4814 64.9926 15.1469C64.9926 14.8123 64.8736 14.5261 64.6358 14.2882C64.3979 14.0503 64.1116 13.9314 63.7771 13.9314V13.9202H59.0266C58.8854 13.9202 58.7627 13.8719 58.6586 13.7753C58.562 13.6712 58.5137 13.5485 58.5137 13.4073V12.9501H63.7102C63.7325 12.9501 63.7548 12.9501 63.7771 12.9501C64.3867 12.9501 64.9034 13.1657 65.3271 13.5969C65.7583 14.0206 65.9739 14.5373 65.9739 15.1469C65.9739 15.4889 65.8996 15.8123 65.7509 16.1171C65.6022 16.4219 65.3941 16.6783 65.1264 16.8865C64.8662 17.0872 64.5726 17.2248 64.2455 17.2991Z" fill="white"/>
<path d="M75.0637 12.9501L79.0448 20.7672H73.3241L73.8148 19.7858H77.4278L74.5062 14.0541L71.0827 20.7672H69.9564L73.7033 13.4184C73.7776 13.2772 73.8817 13.1657 74.0155 13.0839C74.1568 12.9947 74.3092 12.9501 74.4727 12.9501H75.0637Z" fill="white"/>
<path d="M84.7867 15.8829C84.9279 15.8829 85.0469 15.9349 85.1435 16.039C85.2402 16.1356 85.2885 16.2509 85.2885 16.3847V20.7672H84.7867C84.6454 20.7672 84.5228 20.7188 84.4187 20.6222C84.322 20.5181 84.2737 20.3955 84.2737 20.2542V15.8829H84.7867ZM87.7975 12.9501C87.9388 12.9501 88.0577 13.0021 88.1544 13.1062C88.2585 13.2028 88.3105 13.3218 88.3105 13.463V13.9202H81.7647C81.6755 13.9202 81.59 13.8979 81.5082 13.8533C81.4338 13.8087 81.3744 13.7493 81.3298 13.6749C81.2851 13.5931 81.2628 13.5076 81.2628 13.4184V12.9501H87.7975Z" fill="white"/>
<path d="M93.8431 13.4742C94.4453 13.1248 95.0995 12.9501 95.8058 12.9501C96.5195 12.9501 97.1737 13.1248 97.7684 13.4742C98.3706 13.8236 98.8464 14.2994 99.1958 14.9016C99.5452 15.4963 99.7199 16.1505 99.7199 16.8642C99.7199 17.5704 99.5452 18.2247 99.1958 18.8268C98.8464 19.4216 98.3706 19.8936 97.7684 20.2431C97.1737 20.5925 96.5195 20.7672 95.8058 20.7672C95.0995 20.7672 94.4453 20.5925 93.8431 20.2431C93.2484 19.8936 92.7763 19.4216 92.4269 18.8268C92.0775 18.2247 91.9028 17.5704 91.9028 16.8642C91.9028 16.1505 92.0775 15.4963 92.4269 14.9016C92.7763 14.2994 93.2484 13.8236 93.8431 13.4742ZM93.7316 18.9272C94.3041 19.4996 94.9954 19.7858 95.8058 19.7858C96.6161 19.7858 97.3075 19.4996 97.8799 18.9272C98.4524 18.3548 98.7386 17.6671 98.7386 16.8642C98.7386 16.0539 98.4524 15.3625 97.8799 14.79C97.3075 14.2102 96.6161 13.9202 95.8058 13.9202C94.9954 13.9202 94.3041 14.2102 93.7316 14.79C93.1592 15.3625 92.873 16.0539 92.873 16.8642C92.873 17.6671 93.1592 18.3548 93.7316 18.9272Z" fill="white"/>
<path d="M109.058 17.2991L110.82 20.7672H110.128C109.846 20.7672 109.638 20.6408 109.504 20.388L107.954 17.3437H104.341V20.2542C104.341 20.3955 104.289 20.5181 104.185 20.6222C104.088 20.7188 103.969 20.7672 103.828 20.7672H103.326V16.3735H108.589V16.3624C108.924 16.3624 109.21 16.2434 109.448 16.0055C109.686 15.7676 109.805 15.4814 109.805 15.1469C109.805 14.8123 109.686 14.5261 109.448 14.2882C109.21 14.0503 108.924 13.9314 108.589 13.9314V13.9202H103.839C103.698 13.9202 103.575 13.8719 103.471 13.7753C103.374 13.6712 103.326 13.5485 103.326 13.4073V12.9501H108.522C108.545 12.9501 108.567 12.9501 108.589 12.9501C109.199 12.9501 109.716 13.1657 110.139 13.5969C110.571 14.0206 110.786 14.5373 110.786 15.1469C110.786 15.4889 110.712 15.8123 110.563 16.1171C110.414 16.4219 110.206 16.6783 109.939 16.8865C109.679 17.0872 109.385 17.2248 109.058 17.2991Z" fill="white"/>
<path d="M120.077 16.3735C120.686 16.3735 121.203 16.5891 121.627 17.0203C122.058 17.4515 122.274 17.9719 122.274 18.5815C122.274 19.1837 122.058 19.7004 121.627 20.1315C121.203 20.5627 120.686 20.7783 120.077 20.7783L115.014 20.7672H114.981V20.2988C114.981 20.1576 115.029 20.0386 115.126 19.942C115.23 19.8379 115.352 19.7858 115.494 19.7858H120.155C120.474 19.771 120.742 19.6483 120.958 19.4179C121.181 19.18 121.292 18.8975 121.292 18.5704C121.292 18.2358 121.173 17.9496 120.935 17.7117C120.698 17.4738 120.411 17.3549 120.077 17.3549H120.054C119.913 17.3549 119.794 17.3065 119.698 17.2099C119.601 17.1058 119.553 16.9831 119.553 16.8419V16.3735H120.077ZM117.077 17.3437C116.676 17.3437 116.304 17.2471 115.962 17.0538C115.627 16.853 115.363 16.5854 115.17 16.2509C114.977 15.9163 114.88 15.5483 114.88 15.1469C114.88 14.5373 115.092 14.0206 115.516 13.5969C115.947 13.1657 116.467 12.9501 117.077 12.9501C117.099 12.9501 117.125 12.9501 117.155 12.9501H121.961V13.4184C121.961 13.4853 121.946 13.5522 121.917 13.6192C121.894 13.6786 121.861 13.7307 121.816 13.7753C121.772 13.8199 121.716 13.857 121.649 13.8868C121.59 13.9091 121.526 13.9202 121.46 13.9202H117.077V13.9314C116.743 13.9314 116.456 14.0503 116.218 14.2882C115.98 14.5261 115.862 14.8123 115.862 15.1469C115.862 15.4814 115.98 15.7676 116.218 16.0055C116.456 16.2434 116.743 16.3624 117.077 16.3624V16.3735H117.088C117.185 16.3735 117.27 16.3958 117.345 16.4404C117.426 16.485 117.49 16.5482 117.534 16.63C117.579 16.7044 117.601 16.7861 117.601 16.8753V17.3437H117.077Z" fill="white"/>
<defs>
<filter id="filter0_d_337_9852" x="0.0110369" y="0.77832" width="52.8712" height="7.34994" filterUnits="userSpaceOnUse" color-interpolation-filters="sRGB">
<feFlood flood-opacity="0" result="BackgroundImageFix"/>
<feColorMatrix in="SourceAlpha" type="matrix" values="0 0 0 0 0 0 0 0 0 0 0 0 0 0 0 0 0 0 127 0" result="hardAlpha"/>
<feOffset dy="0.985301"/>
<feGaussianBlur stdDeviation="0.49265"/>
<feComposite in2="hardAlpha" operator="out"/>
<feColorMatrix type="matrix" values="0 0 0 0 0 0 0 0 0 0 0 0 0 0 0 0 0 0 0.25 0"/>
<feBlend mode="normal" in2="BackgroundImageFix" result="effect1_dropShadow_337_9852"/>
<feBlend mode="normal" in="SourceGraphic" in2="effect1_dropShadow_337_9852" result="shape"/>
</filter>
</defs>
</svg>
