<svg width="26" height="18" viewBox="0 0 26 18" fill="none" xmlns="http://www.w3.org/2000/svg">
<path d="M24.5904 2.81862C24.4461 2.27379 24.1648 1.77709 23.7743 1.37799C23.3838 0.978894 22.8979 0.691323 22.3648 0.543916C20.4133 0 12.5599 0 12.5599 0C12.5599 0 4.70614 0.0165061 2.75493 0.560422C2.22192 0.707853 1.73599 0.995435 1.34554 1.39453C0.955092 1.79363 0.673739 2.29031 0.529502 2.83512C-0.0607663 6.37922 -0.289768 11.7792 0.545651 15.1814C0.689888 15.7262 0.97124 16.2229 1.36169 16.622C1.75214 17.0211 2.23807 17.3087 2.77108 17.4561C4.72244 18 12.576 18 12.576 18C12.576 18 20.4296 18 22.381 17.4561C22.914 17.3087 23.3999 17.0211 23.7904 16.622C24.1808 16.2229 24.4622 15.7262 24.6064 15.1814C25.2288 11.6324 25.4207 6.2357 24.5902 2.81877" fill="#666666"/>
<path d="M10.0603 12.8579L16.5754 9.0008L10.0603 5.14355V12.8579Z" fill="#DCDCDC"/>
</svg>
