<svg width="105" height="24" viewBox="0 0 105 24" fill="none" xmlns="http://www.w3.org/2000/svg">
<g clip-path="url(#clip0_337_8135)">
<path d="M33.0071 3.70966C32.8173 2.99259 32.447 2.33887 31.933 1.81361C31.4191 1.28835 30.7795 0.909868 30.078 0.715862C27.5096 0 17.1734 0 17.1734 0C17.1734 0 6.83694 0.0217241 4.2689 0.737586C3.56739 0.931624 2.92785 1.31012 2.41397 1.83538C1.90009 2.36064 1.52979 3.01434 1.33996 3.73138C0.56309 8.39586 0.261695 15.503 1.36121 19.9806C1.55105 20.6977 1.92134 21.3514 2.43522 21.8766C2.94911 22.4019 3.58864 22.7804 4.29015 22.9744C6.85839 23.6903 17.1947 23.6903 17.1947 23.6903C17.1947 23.6903 27.531 23.6903 30.0993 22.9744C30.8008 22.7804 31.4403 22.4019 31.9542 21.8766C32.4681 21.3514 32.8384 20.6977 33.0282 19.9806C33.8474 15.3097 34.1 8.20697 33.0069 3.70986" fill="#FF0000"/>
<path d="M13.8833 16.9223L22.458 11.8458L13.8833 6.76923V16.9223Z" fill="white"/>
<path d="M100.076 6.8777C101.201 6.8777 102.05 7.09452 102.644 7.50666C103.239 7.919 103.663 8.56969 103.918 9.45935C104.173 10.3488 104.279 11.5635 104.279 13.1256V15.664H98.824V16.4448L98.909 18.5926C98.9726 19.0699 99.0789 19.4171 99.2485 19.6339C99.4185 19.8509 99.6942 19.9594 100.055 19.9594C100.543 19.9594 100.883 19.7642 101.053 19.3738C101.244 18.9832 101.328 18.3323 101.35 17.4429L104.173 17.6165C104.194 17.7466 104.194 17.9202 104.194 18.137C104.194 19.5038 103.833 20.5236 103.09 21.196C102.347 21.8684 101.328 22.2156 99.9913 22.2156C98.3783 22.2156 97.2535 21.695 96.6167 20.6754C95.9801 19.6556 95.6404 18.0501 95.6404 15.9025V13.2774C95.7125 9.58949 96.3471 6.88845 100.076 6.8777ZM60.8322 7.1597V18.0286C60.8322 18.6795 60.8957 19.1568 61.0443 19.4388C61.3457 20.0419 62.1268 19.8878 62.5513 19.5907C62.7963 19.4214 62.9939 19.1896 63.1243 18.9182V7.15949H66.3717V21.9768H63.8247L63.5488 20.1545H63.4852C62.7849 21.5212 61.7447 22.2153 60.3652 22.2153C58.2419 22.21 57.7223 20.6462 57.5986 19.0581L57.5905 18.9462C57.5752 18.7056 57.5663 18.4647 57.5636 18.2237V7.1597H60.8322ZM77.5784 7.1597V18.0286C77.5784 18.6795 77.6419 19.1568 77.7905 19.4388C78.0921 20.0419 78.873 19.8878 79.2975 19.5907C79.5425 19.4214 79.7401 19.1896 79.8705 18.9182V7.15949H83.1179V21.9768H80.5709L80.295 20.1545H80.2314C79.5311 21.5212 78.4909 22.2153 77.1114 22.2153C74.9881 22.21 74.4685 20.6462 74.3448 19.0581L74.3367 18.9462C74.3214 18.7056 74.3124 18.4647 74.3098 18.2237V7.1597H77.5784ZM51.4084 6.8777C52.4696 6.8777 53.3398 7.09452 53.9766 7.55011C54.6132 8.0057 55.1014 8.70004 55.3986 9.65445C55.6957 10.6091 55.8443 11.8889 55.8443 13.4727V15.6203C55.8443 17.2041 55.6957 18.4625 55.3986 19.4169C55.1014 20.3717 54.6345 21.0658 53.9766 21.5214C53.3188 21.9553 52.4271 22.1938 51.3236 22.1938C50.1773 22.2156 49.2858 21.977 48.628 21.5431C47.9701 21.0876 47.503 20.3932 47.2273 19.4388C46.9512 18.4842 46.8239 17.2258 46.8239 15.6422V13.4942C46.8239 11.9105 46.9724 10.6089 47.2908 9.65425C47.6092 8.67811 48.0973 7.98376 48.7766 7.55011C49.4557 7.11604 50.3259 6.87749 51.4084 6.87749M88.2118 0.93335V8.74328H88.2331C88.5302 8.17928 88.9122 7.7237 89.4429 7.37652C89.9385 7.03591 90.5223 6.85462 91.1195 6.85597C91.9049 6.85597 92.4992 7.0728 92.9449 7.48494C93.3906 7.919 93.709 8.59142 93.8999 9.52432C94.0851 10.428 94.1903 11.6779 94.1968 13.254L94.197 13.4078V15.7507C94.197 17.9417 93.9211 19.5689 93.4117 20.6102C92.8813 21.6516 92.0747 22.1723 90.9709 22.1723C90.3556 22.1723 89.8036 22.0205 89.2943 21.7385C88.8439 21.4701 88.4704 21.0854 88.2114 20.6229L88.1693 20.5451H88.1058L87.7661 21.9553H85.0705V0.933557L88.2118 0.93335ZM75.2223 1.69266V4.38252H71.9962V21.9768H68.8126V4.38273H65.5653V1.69287L75.2223 1.69266ZM40.2229 1.69266L40.225 1.70094C40.2559 1.84183 40.685 3.79183 41.1571 6.06376L41.1943 6.24376L41.2506 6.51583L41.2882 6.69852L41.3071 6.79018L41.3447 6.9739L41.3635 7.06597L41.401 7.25032L41.4556 7.5199C41.7744 9.09314 42.0787 10.6709 42.2606 11.8022H42.3456C42.5199 10.7874 42.7732 9.48873 43.0432 8.16273L43.114 7.81638C43.1496 7.64301 43.1853 7.46963 43.2213 7.29666L43.2768 7.02832C43.6434 5.27111 44.0211 3.51631 44.4097 1.76404L44.4157 1.73611L44.4255 1.69266H47.6728L43.916 15.382V21.9553H40.7112V15.4035H40.6899L36.9756 1.69245L40.2229 1.69266ZM51.3446 9.17714C50.8989 9.17714 50.6017 9.4159 50.4109 9.91494C50.2198 10.4138 50.135 11.1731 50.135 12.2363V16.8571C50.135 17.9419 50.2198 18.7445 50.3896 19.222C50.5594 19.6991 50.8778 19.9378 51.3446 19.9378C51.7903 19.9378 52.1087 19.6991 52.2998 19.222C52.4909 18.7445 52.5757 17.9419 52.5757 16.8571V12.2361C52.5757 11.1731 52.4907 10.392 52.2998 9.91473C52.1087 9.4159 51.7903 9.17714 51.3446 9.17714ZM88.7849 9.61121C88.5262 9.85535 88.3422 10.1564 88.2327 10.5327L88.2118 10.6091V19.0265C88.475 19.482 88.8486 19.7858 89.5065 19.8075C89.8461 19.8075 90.1218 19.6773 90.3343 19.4171C90.5465 19.1568 90.695 18.7227 90.7799 18.1153C90.8614 17.5322 90.9039 16.7291 90.9072 15.7062V13.6463C90.9072 12.4749 90.8647 11.5854 90.8011 10.9562C90.7161 10.3271 90.6102 9.87149 90.4192 9.61121C90.0498 9.06873 89.2518 9.07535 88.7849 9.61121ZM100.013 9.11218C99.6519 9.1339 99.3971 9.24232 99.2485 9.43763C99.0789 9.65445 98.9726 9.9799 98.909 10.4572C98.8465 10.9248 98.825 12.5593 98.824 12.6247V13.6898H101.201V12.7505V12.7685C101.2 13.0968 101.193 12.5779 101.179 11.9409L101.176 11.8552C101.163 11.2954 101.144 10.6711 101.116 10.4572C101.053 9.95818 100.946 9.611 100.777 9.4159C100.607 9.22059 100.352 9.11218 100.013 9.11218" fill="white"/>
</g>
<defs>
<clipPath id="clip0_337_8135">
<rect width="103.636" height="24" fill="white" transform="translate(0.644043)"/>
</clipPath>
</defs>
</svg>
